<svg width="457" height="300" viewBox="0 0 457 300" fill="none" xmlns="http://www.w3.org/2000/svg">
<g clip-path="url(#clip0_124_2881)">
<path opacity="0.1" d="M423.14 246.168C421.715 247.42 420.259 248.636 418.772 249.817C418.522 250.019 418.263 250.214 418.009 250.42C412.703 254.537 407.132 258.3 401.332 261.686L400.248 262.317C399.986 262.476 399.728 262.623 399.454 262.77C393.394 266.268 387.108 269.488 380.747 272.538L380.68 272.574L380.199 272.8C375.069 275.259 369.862 277.613 364.578 279.86L364.451 279.908C362.068 280.911 359.686 281.888 357.303 282.838C356.33 283.235 355.354 283.605 354.377 283.982C352.538 284.685 350.696 285.376 348.837 286.039L348.607 286.126L348.21 286.265L347.714 286.448C342.867 288.179 337.955 289.778 332.978 291.245L332.891 291.268C329.42 292.28 325.927 293.215 322.412 294.076L321.931 294.195C316.769 295.442 311.524 296.514 306.246 297.372L305.031 297.566C301.172 298.172 297.286 298.667 293.373 299.051C271.379 301.176 249.122 299.448 227.263 296.486C183.123 290.498 139.567 279.273 99.8428 261.678C92.2188 258.303 84.743 254.689 77.4155 250.837C77.356 250.806 77.3043 250.774 77.2448 250.746C72.8583 248.44 68.5315 246.038 64.2641 243.539C63.0133 242.816 61.7705 242.078 60.5355 241.335C59.016 240.419 57.5031 239.493 55.9969 238.556C54.0115 237.317 52.0261 236.046 50.0406 234.748L49.1115 234.128L48.7541 233.886C48.2498 233.548 47.7534 233.211 47.2531 232.869C28.5902 220.163 11.9485 204.764 4.08625 185.493C-4.99901 163.257 0.814287 135.064 23.317 121.921C31.0521 117.394 40.0421 114.936 49.1273 112.907L50.0565 112.7C51.5932 112.363 53.1299 112.037 54.6587 111.712C60.0154 110.576 65.3998 109.448 70.7326 108.189C73.5122 107.534 76.264 106.847 78.9999 106.105L80.1197 105.795C86.7178 104.025 93.1707 101.752 99.4219 98.9969H99.4616C100.133 98.6991 100.796 98.3894 101.447 98.0717C101.868 97.8732 102.289 97.6747 102.71 97.4563C109.46 94.0969 116.608 89.4391 122.107 83.8879C122.548 83.4432 122.977 82.9905 123.394 82.5378C123.715 82.1844 124.033 81.8271 124.339 81.4697C128.194 76.9747 130.863 71.9834 131.371 66.6863C131.542 64.9063 131.462 63.1111 131.133 61.3535C130.509 58.022 129.906 54.7619 129.461 51.5813C128.631 45.6052 128.349 39.8912 129.501 34.3836C130.672 28.7689 133.329 23.3646 138.399 18.1231C139.165 17.3289 139.989 16.5347 140.873 15.7406C144.974 12.1428 149.614 9.21111 154.624 7.05241C155.244 6.78769 155.867 6.52297 156.495 6.25825C170.424 0.619672 187.161 -0.555692 202.798 0.222591C217.408 0.974419 231.924 2.99389 246.184 6.25825C247.315 6.51238 248.447 6.77843 249.571 7.05241C261.701 9.99086 273.637 13.6816 285.308 18.1032C315.637 29.5114 344.263 45.351 371.007 62.8306C371.269 63.0014 371.531 63.1721 371.801 63.3468C372.918 64.0748 374.028 64.8055 375.132 65.5387C377.269 66.955 379.386 68.3805 381.486 69.8153L382.903 70.7802C383.602 71.2567 384.297 71.7346 384.988 72.2137L387.116 73.6869C387.216 73.7471 387.312 73.8148 387.402 73.8894L389.213 75.1442C390.261 75.8748 391.301 76.6094 392.346 77.348L394.585 78.9363C395.05 79.2699 395.518 79.5994 395.983 79.937L398.366 81.6762L398.898 82.0733C399.009 82.1527 399.12 82.2321 399.227 82.3195L399.295 82.3631C405.751 87.1003 412.053 92.0122 417.958 97.218L418.72 97.893L418.799 97.9645C419.443 98.5363 420.086 99.1161 420.717 99.6998C428.429 106.72 435.338 114.265 440.984 122.604C466.922 161.121 459.223 214.453 423.14 246.168Z" fill="#61A199"/>
<path d="M322.258 140.472C322.258 140.472 324.569 128.361 331.994 128.297L337.426 139.471L333.773 141.953C333.773 141.953 325.927 142.203 322.258 140.472Z" fill="#65617D"/>
<path opacity="0.1" d="M337.411 139.456L333.773 141.953C333.773 141.953 328.238 142.128 324.283 141.159C323.587 140.997 322.909 140.767 322.258 140.472C322.258 140.472 322.258 140.405 322.298 140.278C322.296 140.262 322.296 140.246 322.298 140.23C322.64 138.71 323.11 137.223 323.703 135.783C323.93 135.239 324.192 134.679 324.47 134.119C325.558 132.026 327.086 129.973 329.179 128.957C329.952 128.578 330.793 128.358 331.653 128.31H331.875H331.982L332.105 128.556L333.94 132.332L337.411 139.456Z" fill="black"/>
<path d="M399.085 189.77C399.085 189.77 406.887 189.024 407.574 189.583C408.261 190.143 412.693 193.018 415.317 191.207C417.942 189.397 416.191 183.091 416.191 182.841C416.191 182.591 415.941 173.664 415.941 173.664L411.259 167.359L405.39 156.312L393.406 155.121L393.716 172.664L393.656 181.654L399.085 189.77Z" fill="#65617D"/>
<path opacity="0.1" d="M399.085 189.77C399.085 189.77 406.887 189.024 407.574 189.583C408.261 190.143 412.693 193.018 415.317 191.207C417.942 189.397 416.191 183.091 416.191 182.841C416.191 182.591 415.941 173.664 415.941 173.664L411.259 167.359L405.39 156.312L393.406 155.121L393.716 172.664L393.656 181.654L399.085 189.77Z" fill="black"/>
<path d="M330.417 127.972C330.417 127.972 329.801 135.588 325.036 135.707C325.036 135.707 323.694 134.913 321.883 133.543C317.714 130.426 311.103 124.43 312.929 118.851C315.55 110.861 328.284 125.601 328.284 125.601L329.265 126.697L330.417 127.972Z" fill="#A5636D"/>
<path opacity="0.1" d="M330.417 127.972C330.417 127.972 329.801 135.588 325.036 135.707C325.036 135.707 323.694 134.913 321.883 133.543L321.486 133.023C322.291 133.445 323.179 133.685 324.087 133.726C325.278 133.75 326.621 133.329 327.482 131.585C327.98 130.605 328.419 129.596 328.797 128.564C329.022 127.958 329.181 127.329 329.273 126.689L330.417 127.972Z" fill="black"/>
<path d="M328.356 141.766L327.287 140.392L323.714 135.766L321.859 133.404C322.663 133.824 323.55 134.063 324.456 134.103C325.648 134.13 326.99 133.706 327.851 131.962C328.351 130.983 328.79 129.974 329.166 128.941C329.757 127.257 329.745 126.391 329.535 126.097C329.325 125.804 330.861 127.229 331.6 127.932L331.628 127.956L331.969 128.281L332.1 128.536L333.907 132.153C333.907 132.153 333.907 132.205 333.907 132.304C334.074 133.451 334.681 140.734 328.356 141.766Z" fill="#E7EFFD"/>
<path d="M397.335 92.2624L388.095 102.13C388.095 102.13 376.238 97.3649 377.485 95.7766C377.97 95.1492 377.882 93.1678 377.612 90.9798C377.175 87.5213 376.238 83.5385 376.238 83.5385C376.238 83.5385 396.962 80.1673 395.211 83.6656C394.576 84.9402 394.683 86.4452 395.08 87.8111C395.59 89.4055 396.351 90.9082 397.335 92.2624Z" fill="#A5636D"/>
<path opacity="0.1" d="M395.211 83.6494C394.576 84.924 394.27 85.0471 394.667 86.429C391.959 89.3356 388.512 92.5162 384.228 92.5162C381.932 92.5205 379.667 91.9903 377.612 90.9676C377.175 87.509 376.238 83.5263 376.238 83.5263C376.238 83.5263 396.962 80.1511 395.211 83.6494Z" fill="black"/>
<path d="M399.087 77.2803C399.087 81.2211 397.521 85.0005 394.735 87.7871C391.948 90.5737 388.169 92.1392 384.228 92.1392C380.287 92.1392 376.508 90.5737 373.721 87.7871C370.935 85.0005 369.369 81.2211 369.369 77.2803C369.369 77.2088 369.369 77.1374 369.369 77.0659C369.455 73.1638 371.072 69.4519 373.872 66.7325C376.671 64.0131 380.429 62.5044 384.332 62.5326C388.235 62.5608 391.97 64.1235 394.73 66.883C397.49 69.6426 399.054 73.3774 399.083 77.2803H399.087Z" fill="#A5636D"/>
<path opacity="0.1" d="M401.236 175.296C399.25 175.296 392.714 175.367 385.392 175.483H385.301L382.883 175.522H382.807C374.123 175.661 365.566 173.966 362.131 174.287C354.825 174.974 364.752 167.537 364.752 167.537C370.194 168.857 375.793 169.424 381.39 169.221L383.49 169.109C390.125 168.736 396.796 168.113 400.283 167.064C400.525 169.002 400.878 171.81 401.236 175.296Z" fill="black"/>
<path d="M401.236 174.923C399.25 174.923 392.714 174.99 385.392 175.11H385.301L382.883 175.149H382.807C374.123 175.288 365.566 173.593 362.131 173.914C354.825 174.597 364.752 167.164 364.752 167.164C370.194 168.484 375.793 169.049 381.39 168.844L383.49 168.736C390.125 168.363 396.796 167.736 400.283 166.691C400.525 168.629 400.878 171.444 401.236 174.923Z" fill="#5F5D7E"/>
<path opacity="0.1" d="M380.231 96.3956L368.744 101.764L359.885 170.293C359.885 170.293 365.126 167.91 368.124 169.419C371.122 170.928 380.358 169.546 380.358 169.546C380.358 169.546 387.109 169.149 388.097 169.919C389.086 170.69 400.836 166.798 400.836 166.798C400.836 166.798 402.956 162.053 401.332 161.307C399.708 160.56 401.833 153.178 401.833 153.178L400.836 103.738L398.85 97.3843L393.482 94.1401L387.99 98.508L385.37 98.8853L380.231 96.3956Z" fill="black"/>
<path d="M380.231 95.6335L368.748 101.002L359.885 169.546C359.885 169.546 365.126 167.164 368.124 168.673C371.122 170.182 380.358 168.796 380.358 168.796C380.358 168.796 387.109 168.423 388.097 169.169C389.086 169.916 400.836 166.048 400.836 166.048C400.836 166.048 402.956 161.307 401.332 160.557C399.708 159.806 401.833 152.44 401.833 152.44L400.836 102.999L398.85 96.6461L393.482 93.3979L387.99 97.7659L385.37 98.1391L380.231 95.6335Z" fill="#E7EFFD"/>
<path opacity="0.1" d="M380.043 98.818C380.043 98.818 383.355 102.749 383.291 103.563C383.228 104.377 383.105 106.307 383.105 106.307L380.627 111.366C380.627 111.366 379.253 117.672 379.253 118.982C379.253 120.292 377.069 131.653 377.069 131.653L374.448 149.124L371.137 172.036L374.508 177.841L378.503 174.47L383.804 133.65L384.927 125.597C384.927 125.597 386.119 111.116 386.119 109.619C386.119 108.122 385.432 104.187 385.432 104.187C385.432 104.187 386.246 100.442 389.617 99.5685C392.988 98.6949 389.367 99.3779 389.367 99.3779L387.433 97.8174L385.745 98.5043C385.745 98.5043 381.044 97.0709 380.043 98.818Z" fill="black"/>
<path d="M379.671 98.445C379.671 98.445 382.978 102.376 382.919 103.186C382.859 103.996 382.728 105.934 382.728 105.934L380.23 110.993C380.23 110.993 378.857 117.294 378.857 118.605C378.857 119.915 376.673 131.28 376.673 131.28L374.048 148.751L370.74 171.659L374.111 177.464L378.106 174.093L383.407 133.277L384.531 125.224C384.531 125.224 385.722 110.743 385.722 109.242C385.722 107.741 385.035 103.814 385.035 103.814C385.035 103.814 385.829 100.065 389.216 99.1915C392.604 98.3179 388.97 99.0049 388.97 99.0049L387.033 97.4443L385.349 98.1313C385.349 98.1313 380.671 96.6938 379.671 98.445Z" fill="#61A199"/>
<path opacity="0.1" d="M377.488 91.8887C377.488 91.8887 376.988 92.2619 376.864 94.7596C376.741 97.2572 374.99 102.876 374.99 102.876C374.99 102.876 381.483 98.381 384.731 98.8813L377.488 91.8887Z" fill="black"/>
<path d="M377.488 91.1387C377.488 91.1387 376.988 91.5159 376.864 94.0096C376.741 96.5033 374.99 102.126 374.99 102.126C374.99 102.126 381.483 97.631 384.731 98.1313L377.488 91.1387Z" fill="#E7EFFD"/>
<path opacity="0.1" d="M395.217 89.8916L384.996 98.8816C384.996 98.8816 393.613 104 394.737 105.235C395.86 106.47 396.984 93.0008 396.984 93.0008L395.217 89.8916Z" fill="black"/>
<path d="M395.588 89.1411L385.352 98.1311C385.352 98.1311 393.964 103.249 395.088 104.484C396.212 105.719 397.336 92.2463 397.336 92.2463L395.588 89.1411Z" fill="#E7EFFD"/>
<path opacity="0.1" d="M377.85 91.8891C377.85 91.8891 376.726 91.3253 375.666 92.9493C374.605 94.5734 372.608 95.3318 372.608 95.3318C372.608 95.3318 361.244 97.1425 360.807 98.6395L355.502 98.9493C355.502 98.9493 353.628 99.1756 353.453 103.146C353.278 107.117 352.262 107.451 352.262 107.451C352.262 107.451 350.074 111.322 350.276 113.32C350.479 115.317 348.589 116.318 348.589 116.318L356.407 136.585C356.407 136.585 356.657 144.951 355.216 148.009C353.774 151.066 351.094 164.615 351.094 164.615C351.094 164.615 352.218 164.365 352.154 165.115C352.091 165.866 350.78 174.042 350.78 174.042C350.78 174.042 350.407 177.286 349.784 178.409C349.16 179.533 349.097 185.402 349.097 185.402L348.068 189.647C348.068 189.647 350.451 194.952 354.064 194.201C357.678 193.451 364.238 179.283 364.238 179.283L368.419 163.991L371.667 148.882L372.604 138.646L374.101 115.984L376.285 101.002C376.285 101.002 378.735 92.9493 377.85 91.8891Z" fill="black"/>
<path d="M377.486 91.1387C377.486 91.1387 376.363 90.5788 375.302 92.2028C374.242 93.8269 372.241 94.5853 372.241 94.5853C372.241 94.5853 360.88 96.396 360.443 97.893L355.138 98.2067C355.138 98.2067 353.264 98.4569 353.078 102.388C352.891 106.319 351.886 106.696 351.886 106.696C351.886 106.696 349.702 110.568 349.901 112.565C350.099 114.563 348.217 115.559 348.217 115.559L356.008 135.834C356.008 135.834 356.258 144.201 354.817 147.258C353.375 150.316 350.699 163.864 350.699 163.864C350.699 163.864 351.823 163.614 351.759 164.365C351.696 165.115 350.385 173.291 350.385 173.291C350.385 173.291 350.012 176.535 349.389 177.659C348.765 178.783 348.702 184.652 348.702 184.652L347.709 188.916C347.709 188.916 350.091 194.221 353.701 193.475C357.31 192.728 363.878 178.552 363.878 178.552L368.059 163.261L371.308 148.172L372.241 137.935L373.742 115.277L375.926 100.295C375.926 100.295 378.36 92.2028 377.486 91.1387Z" fill="#65617D"/>
<path opacity="0.1" d="M337.411 139.455L333.774 141.953C333.774 141.953 328.238 142.128 324.283 141.159L322.266 140.265L321.869 140.087L322.286 140.218C324.375 140.837 326.007 140.825 327.281 140.396C332.408 138.673 331.84 130.211 331.649 128.297C331.649 128.107 331.617 127.984 331.61 127.936C331.609 127.928 331.609 127.92 331.61 127.912L331.641 127.96C331.709 128.076 331.788 128.187 331.876 128.289C331.947 128.375 332.024 128.456 332.106 128.532L333.913 132.149C333.913 132.149 333.913 132.201 333.913 132.3L337.411 139.455Z" fill="black"/>
<path d="M349.957 115.059L348.209 115.559L347.959 119.133C347.959 119.133 345.898 118.823 345.339 121.258C344.779 123.692 343.778 124.831 343.778 124.831C343.778 124.831 340.343 127.702 340.157 130.136L338.032 131.447C338.032 131.447 333.1 130.323 331.977 128.326C331.977 128.326 334.224 144.431 322.24 140.5C322.24 140.5 335.662 146.369 336.285 147.179C336.908 147.989 341.03 150.356 344.775 148.37C348.519 146.385 349.333 143.252 349.333 143.252C349.333 143.252 352.955 138.197 353.078 137.447C353.201 136.696 356.012 135.823 356.012 135.823L361.381 122.842L349.957 115.059Z" fill="#65617D"/>
<path opacity="0.1" d="M393.78 97.3806L395.591 89.1411C395.591 89.1411 396.385 91.8254 397.215 92.4488C398.045 93.0722 399.899 94.5097 399.899 94.5097C399.899 94.5097 402.583 95.7605 403.516 95.7605C404.45 95.7605 409.512 97.0708 410.136 97.7459C410.759 98.4209 413.257 97.9325 413.257 97.9325C413.257 97.9325 415.318 98.6195 417.128 99.0563C418.939 99.4931 419.813 102.491 419.435 103.674C419.285 104.264 419.286 104.883 419.439 105.472C419.592 106.062 419.891 106.603 420.309 107.046C421.06 107.796 421.433 110.222 421.433 110.222C422.352 110.522 423.116 111.173 423.557 112.033C424.181 113.407 423.994 116.401 423.994 116.401L414.694 129.505C414.694 129.505 414.817 134.559 414.444 135.683C414.071 136.807 415.754 155.911 415.754 155.911L417.688 188.745C417.688 188.745 415.131 190.929 414.567 191.179C414.003 191.43 413.443 179.569 413.443 179.132C413.443 178.695 399.025 157.531 399.025 157.531C399.025 157.531 397.088 154.41 397.088 153.723C397.088 153.036 395.277 146.734 395.277 146.734L392.541 134.587L393.78 97.3806Z" fill="black"/>
<path d="M424.768 115.706C424.768 116.135 424.744 116.42 424.744 116.42L415.448 129.524C415.448 129.524 415.575 134.583 415.202 135.707C414.984 136.358 415.46 143.077 415.901 148.592C416.215 152.563 416.512 155.93 416.512 155.93L417.331 169.86L418.442 188.769C418.442 188.769 415.885 190.953 415.325 191.203C414.765 191.453 414.201 179.592 414.201 179.152C414.201 178.711 399.772 157.546 399.772 157.546C399.772 157.546 397.838 154.421 397.838 153.734C397.838 153.047 396.027 146.742 396.027 146.742L393.283 134.571L394.53 97.3645L395.59 89.125C395.59 89.125 397.151 91.8132 397.973 92.4327C398.795 93.0521 400.653 94.4936 400.653 94.4936C400.653 94.4936 403.337 95.7444 404.274 95.7444C405.212 95.7444 410.266 97.0547 410.894 97.7298C411.521 98.4048 414.015 97.9164 414.015 97.9164C414.015 97.9164 416.072 98.6034 417.882 99.0402C419.693 99.4769 420.567 102.475 420.193 103.658C420.042 104.248 420.042 104.867 420.195 105.457C420.348 106.046 420.648 106.587 421.067 107.029C421.814 107.776 422.191 110.206 422.191 110.206C423.11 110.507 423.873 111.157 424.315 112.017C424.74 113.002 424.78 114.733 424.768 115.706Z" fill="#65617D"/>
<path opacity="0.1" d="M357.306 282.838C356.333 283.235 355.356 283.605 354.38 283.982C351.318 283.088 348.459 282.036 348.459 282.036C351.42 282.142 354.374 282.41 357.306 282.838Z" fill="black"/>
<path opacity="0.1" d="M386.85 249.511C386.85 249.511 394.279 251.258 394.716 252.445L386.85 249.511Z" fill="black"/>
<path opacity="0.1" d="M358.195 254.879C358.195 254.879 354.324 256.003 358.072 258.251C361.821 260.498 358.195 254.879 358.195 254.879Z" fill="black"/>
<path opacity="0.1" d="M375.361 194.872C375.798 194.872 382.604 192.625 384.975 193.625C387.345 194.626 390.284 194.622 390.284 194.622L375.361 194.872Z" fill="black"/>
<path opacity="0.1" d="M376.259 202.02L376.192 202.639L370.37 217.864C370.37 217.864 369.433 222.482 368.619 225.102C368.109 226.884 367.703 228.694 367.404 230.523L372.566 198.573L376.259 202.02Z" fill="black"/>
<path d="M385.302 175.109L382.884 175.149H382.808L381.391 168.855C382.086 168.824 382.788 168.788 383.491 168.744L385.302 175.109Z" fill="#3F3D56"/>
<path d="M414.751 167.473L413.199 168.756L408.025 173.033C408.025 173.033 393.98 180.525 390.112 173.406C386.701 167.136 402.624 162.661 406.46 161.684C406.98 161.553 407.278 161.485 407.278 161.485L414.751 167.473Z" fill="#A5636D"/>
<path opacity="0.1" d="M354.766 106.121C354.766 106.121 357.509 107.371 358.133 109.119C358.756 110.866 354.766 106.121 354.766 106.121Z" fill="black"/>
<path opacity="0.1" d="M346.272 124.851C346.272 124.851 342.277 129.719 343.889 131.601C345.501 133.483 346.272 124.851 346.272 124.851Z" fill="black"/>
<path opacity="0.1" d="M417.688 108.868C417.688 108.868 413.943 109.241 413.816 112.49L417.688 108.868Z" fill="black"/>
<path opacity="0.1" d="M382.979 160.056C383.376 159.683 391.968 146.952 393.966 148.072L382.979 160.056Z" fill="black"/>
<path opacity="0.1" d="M399.087 77.2801C399.089 79.727 398.485 82.1363 397.328 84.2926H397.217C396.275 84.094 395.787 82.9981 395.068 82.3071C394.626 81.8866 394.063 81.615 393.459 81.5303C392.854 81.4455 392.238 81.5519 391.697 81.8346C391.15 82.1613 390.705 82.6345 390.412 83.2007C390.12 83.7669 389.991 84.4037 390.041 85.0391C389.565 83.0537 389.716 80.9134 389.247 78.9121C388.779 76.9108 387.385 74.8817 385.471 74.846C384.645 74.846 383.684 75.1517 383.088 74.5323C382.727 74.159 382.656 73.5713 382.386 73.1186C381.016 70.9069 376.854 72.0267 375.155 73.1623C373.455 74.298 371.482 76.1087 369.369 77.0815C369.455 73.1794 371.072 69.4676 373.872 66.7481C376.671 64.0287 380.429 62.5201 384.332 62.5482C388.235 62.5764 391.97 64.1391 394.73 66.8987C397.49 69.6582 399.054 73.393 399.083 77.296L399.087 77.2801Z" fill="black"/>
<path d="M382.391 72.7294C382.661 73.1821 382.732 73.7698 383.094 74.1431C383.689 74.7585 384.65 74.4409 385.476 74.4568C387.39 74.4885 388.788 76.5176 389.252 78.5189C389.717 80.5202 389.566 82.6486 390.046 84.6459C389.997 84.0112 390.126 83.3752 390.418 82.8098C390.711 82.2443 391.156 81.7718 391.702 81.4454C392.243 81.1625 392.858 81.0559 393.462 81.1407C394.066 81.2254 394.628 81.4972 395.07 81.9179C395.788 82.6009 396.261 83.6969 397.222 83.9034C398.183 84.1098 399.072 83.1965 399.414 82.2038C399.755 81.2111 399.727 80.1231 399.95 79.0947C400.375 77.145 401.645 75.5487 402.332 73.6983C403.17 71.4454 403.147 68.9628 402.269 66.7255C401.8 65.5343 401.105 64.4979 400.629 63.3265C399.914 61.5476 399.723 59.5423 398.85 57.8468C397.381 55.0076 393.918 53.59 391.075 54.6701C389.717 55.1824 388.538 56.1711 387.16 56.6118C385.317 57.2035 383.344 56.7588 381.434 56.4927C379.524 56.2267 377.411 56.2029 375.875 57.4576C374.108 58.903 373.623 61.6191 371.963 63.2074C371.264 63.8745 370.399 64.2994 369.664 64.9149C368.93 65.5303 368.294 66.4476 368.378 67.4482C368.489 68.7427 369.756 69.9181 369.287 71.1133C369.119 71.4611 368.882 71.7716 368.592 72.0266C367.203 73.4856 366.169 75.2453 365.57 77.1688C368.914 78.2132 372.527 74.5282 375.144 72.8009C376.863 71.6375 381.025 70.5137 382.391 72.7294Z" fill="#4C3E42"/>
<path opacity="0.1" d="M414.754 167.474L413.202 168.756C411.832 166.473 406.205 161.915 406.205 161.915L406.447 161.68C406.967 161.549 407.265 161.482 407.265 161.482L414.754 167.474Z" fill="black"/>
<path d="M416.253 165.174C416.253 165.174 415.693 166.564 415.117 167.767C414.542 168.971 413.926 170.059 413.879 169.173C413.815 167.422 406.576 161.553 406.576 161.553L407.557 160.6L408.697 159.492L416.253 165.174Z" fill="#E7EFFD"/>
<path opacity="0.1" d="M416.504 155.934L417.322 169.864C415.384 166.85 410.06 159.119 406.637 159.369L414.94 149.839C415.287 149.455 415.605 149.046 415.893 148.616C416.206 152.579 416.504 155.934 416.504 155.934Z" fill="black"/>
<path opacity="0.1" d="M416.252 165.174C416.252 165.174 415.693 166.564 415.117 167.767C412.941 164.781 409.955 161.259 407.572 160.6L408.712 159.492L416.252 165.174Z" fill="black"/>
<path d="M422.496 114.662L424.743 116.409C424.743 116.409 428.488 116.472 428.861 119.585C429.234 122.699 432.669 124.144 432.669 124.144C432.669 124.144 435.23 126.701 435.23 127.888C435.23 129.076 437.164 131.196 437.164 131.383C437.164 131.569 439.038 135.377 438.788 136.064C438.538 136.751 440.774 139.749 440.099 140.873C439.535 141.881 439.035 142.923 438.602 143.994C438.602 143.994 435.667 149.613 434.166 150.673C432.665 151.733 425.804 160.66 425.804 160.66C425.804 160.66 418.438 169.149 418.438 171.778C418.438 171.778 411.258 159.79 407.014 160.104L415.317 150.554C415.317 150.554 416.75 148.993 416.814 148.056C416.877 147.119 420.808 142.811 422.683 142.624C422.683 142.624 422.992 140.063 422.182 140.003C421.372 139.944 420.685 137.943 420.685 137.943C420.685 137.943 415.19 131.45 415.126 127.329C415.063 123.207 422.496 114.662 422.496 114.662Z" fill="#65617D"/>
<path opacity="0.1" d="M425.805 120.618C425.805 120.618 420.559 124.486 421.683 125.737C422.807 126.987 425.805 120.618 425.805 120.618Z" fill="black"/>
<path opacity="0.1" d="M426.053 136.584C426.053 136.584 435.789 133.463 436.774 136.584H426.053Z" fill="black"/>
<path opacity="0.1" d="M357.355 119.855C357.355 119.855 357.355 134.087 356.136 135.493C354.917 136.898 357.355 119.855 357.355 119.855Z" fill="black"/>
<path opacity="0.1" d="M413.629 124.442L415.44 129.529C415.44 129.529 416.158 124.537 413.629 124.442Z" fill="black"/>
<g opacity="0.1">
<path opacity="0.1" d="M369.51 69.8784C369.966 68.707 368.771 67.5595 368.612 66.3047C368.455 66.6589 368.387 67.0459 368.414 67.4324C368.493 68.3814 369.208 69.263 369.379 70.1405C369.43 70.0574 369.474 69.9696 369.51 69.8784Z" fill="black"/>
<path opacity="0.1" d="M390.209 83.3238C389.76 81.3384 389.891 79.2696 389.439 77.3041C388.986 75.3385 387.576 73.2697 385.662 73.2379C384.837 73.2379 383.876 73.5397 383.28 72.9242C382.919 72.551 382.847 71.9633 382.577 71.5106C381.211 69.2989 377.05 70.4186 375.346 71.5543C372.793 73.2498 369.287 76.7998 366.011 75.9977C365.856 76.3749 365.709 76.7561 365.586 77.1492C368.929 78.1935 372.543 74.5086 375.16 72.7813C376.863 71.6496 381.021 70.5259 382.39 72.7416C382.661 73.1943 382.732 73.7819 383.093 74.1552C383.689 74.7707 384.65 74.453 385.476 74.4689C387.39 74.5007 388.787 76.5298 389.252 78.5311C389.717 80.5324 389.566 82.6607 390.046 84.658C390.011 84.2069 390.066 83.7533 390.209 83.3238Z" fill="black"/>
<path opacity="0.1" d="M399.597 80.9808C399.256 81.9735 398.366 82.8828 397.405 82.6803C396.444 82.4778 395.976 81.3858 395.257 80.6949C394.814 80.2755 394.251 80.005 393.647 79.921C393.042 79.837 392.427 79.9437 391.886 80.2263C391.365 80.5364 390.937 80.9802 390.646 81.5115C390.355 82.0429 390.211 82.6425 390.23 83.2481C390.481 82.4855 391.004 81.8422 391.699 81.4414C392.24 81.1584 392.855 81.0519 393.459 81.1366C394.063 81.2214 394.625 81.4932 395.067 81.9139C395.785 82.5969 396.258 83.6928 397.219 83.8993C398.18 84.1058 399.069 83.1925 399.411 82.1998C399.587 81.6151 399.701 81.0136 399.752 80.405C399.711 80.5995 399.659 80.7917 399.597 80.9808Z" fill="black"/>
<path opacity="0.1" d="M402.532 72.4795C401.829 74.3299 400.547 75.9262 400.149 77.8719C400.062 78.269 400.014 78.6661 399.967 79.0631C400.392 77.1254 401.658 75.5331 402.349 73.6866C402.662 72.8551 402.856 71.9835 402.925 71.0977C402.831 71.568 402.699 72.03 402.532 72.4795Z" fill="black"/>
</g>
<path d="M312.317 117.679C312.402 117.679 312.472 117.61 312.472 117.524C312.472 117.439 312.402 117.37 312.317 117.37C312.231 117.37 312.162 117.439 312.162 117.524C312.162 117.61 312.231 117.679 312.317 117.679Z" fill="#E6E8EC"/>
<path d="M187.525 204.653C187.525 204.653 191.893 201.52 196.432 203.461C196.432 203.461 195.161 206.154 189.523 206.118L187.525 204.653Z" fill="#61A199"/>
<path d="M186.983 204.835C186.983 204.835 185.815 210.088 189.365 213.495C189.365 213.495 191.351 211.272 189.099 206.098L186.983 204.835Z" fill="#61A199"/>
<path d="M181.193 200.054C181.193 200.054 181.356 195.619 191.398 196.703C191.398 196.703 191.557 199.558 188.103 201.043C184.648 202.528 183 201.452 181.193 200.054Z" fill="#61A199"/>
<path d="M180.576 200.035C180.576 200.035 176.407 201.552 180.529 210.776C180.529 210.776 183.308 210.045 183.642 206.301C183.975 202.556 182.458 201.337 180.576 200.035Z" fill="#61A199"/>
<path d="M174.685 193.991C174.685 193.991 173.835 186.736 184.072 187.09C184.072 187.09 185.049 193.649 176.555 195.671L174.685 193.991Z" fill="#61A199"/>
<path d="M167.625 186.033C167.625 186.033 168.709 177.73 179.005 179.799C179.005 179.799 179.315 186.946 169.364 187.935L167.625 186.033Z" fill="#61A199"/>
<path d="M162.371 177.726C162.371 177.726 164.404 169.586 174.605 171.623C174.605 171.623 172.477 178.937 163.09 179.168L162.371 177.726Z" fill="#61A199"/>
<path d="M157.371 169.61C157.371 169.61 159.357 161.184 169.192 163.317C169.192 163.317 166.238 171.361 158.074 171.008L157.371 169.61Z" fill="#61A199"/>
<path d="M154.049 161.847C154.049 161.847 155.419 151.591 164.615 153.489C164.615 153.489 162.328 162.868 154.783 163.305L154.049 161.847Z" fill="#61A199"/>
<path d="M150.855 152.432C150.855 152.432 152.575 142.072 161.886 144.709C161.886 144.709 158.65 154.561 151.562 153.842L150.855 152.432Z" fill="#61A199"/>
<path d="M148.762 143.649C148.762 143.649 151.724 133.241 158.856 133.245C158.856 133.245 155.838 144.232 149.437 145.686L148.762 143.649Z" fill="#61A199"/>
<path d="M147.32 135.036C147.32 135.036 150.497 122.524 156.326 123.254C156.326 123.254 154.162 132.808 147.59 136.954L147.32 135.036Z" fill="#61A199"/>
<path d="M146.293 124.731C146.293 124.731 149.319 114.288 155.029 113.661C155.029 113.661 153.087 123.893 146.527 127.404L146.293 124.731Z" fill="#61A199"/>
<path d="M145.232 115.142C145.232 115.142 149.104 104.659 152.876 104.282C152.876 104.282 151.411 114.515 145.673 116.822L145.232 115.142Z" fill="#61A199"/>
<path d="M144.414 106.208C144.414 106.208 146.61 94.8949 150.346 93.8228C150.346 93.8228 150.184 103.011 144.827 107.03L144.414 106.208Z" fill="#61A199"/>
<path d="M142.545 94.5456C142.545 94.5456 144.963 85.504 147.969 84.0269C147.969 84.0269 147.767 94.5813 143.339 96.7017L142.545 94.5456Z" fill="#61A199"/>
<path d="M141.072 86.8936L139.912 71.1572C139.912 71.1572 146.071 82.8315 141.584 89.6454L141.072 86.8936Z" fill="#61A199"/>
<path d="M136.055 71.4033C136.055 71.4033 131.505 60.0586 130.496 59.4551C130.496 59.4551 138.835 66.6026 138.438 76.2398L136.055 71.4033Z" fill="#61A199"/>
<path d="M174.404 193.947C174.404 193.947 167.13 193.28 167.737 203.501C167.737 203.501 174.321 204.295 176.132 195.773L174.404 193.947Z" fill="#61A199"/>
<path d="M167.272 185.771C167.272 185.771 158.905 186.065 159.99 196.493C159.99 196.493 167.058 197.477 168.999 187.67L167.272 185.771Z" fill="#61A199"/>
<path d="M162.316 178.409C162.316 178.409 154.585 175.137 150.078 184.513C150.078 184.513 157.206 187.213 163.043 179.867L162.316 178.409Z" fill="#61A199"/>
<path d="M157.205 169.693C157.205 169.693 149.283 166.203 145.062 175.355C145.062 175.355 153.27 177.833 157.9 171.091L157.205 169.693Z" fill="#61A199"/>
<path d="M154.154 162.066C154.154 162.066 146.399 155.204 140.705 162.661C140.705 162.661 148.575 168.248 154.559 163.642L154.154 162.066Z" fill="#61A199"/>
<path d="M151.273 152.174C151.273 152.174 143.463 145.15 137.832 153.024C137.832 153.024 146.512 158.698 151.599 153.695L151.273 152.174Z" fill="#61A199"/>
<path d="M149.526 143.319C149.526 143.319 143.375 134.416 136.629 136.712C136.629 136.712 143.014 146.146 149.542 145.447L149.526 143.319Z" fill="#61A199"/>
<path d="M147.49 134.973C147.49 134.973 141.204 123.695 135.756 125.903C135.756 125.903 140.306 134.579 147.716 136.898L147.49 134.973Z" fill="#61A199"/>
<path d="M146.671 124.128C146.671 124.128 140.317 115.309 134.734 116.631C134.734 116.631 139.992 125.617 147.354 126.725L146.671 124.128Z" fill="#61A199"/>
<path d="M145.862 114.916C145.862 114.916 140.819 104.941 137.027 104.989C137.027 104.989 139.652 114.987 145.612 116.627L145.862 114.916Z" fill="#61A199"/>
<path d="M144.593 105.978C144.593 105.978 139.034 95.8917 135.135 96.0228C135.135 96.0228 138.121 104.715 144.454 106.891L144.593 105.978Z" fill="#61A199"/>
<path d="M143.4 95.1408C143.4 95.1408 139.203 86.7783 135.963 85.9404C135.963 85.9404 138.294 96.2368 143.063 97.4161L143.4 95.1408Z" fill="#61A199"/>
<path d="M140.6 86.6118L131.443 73.7622C131.443 73.7622 134.159 86.6753 141.958 89.0697L140.6 86.6118Z" fill="#61A199"/>
<path d="M134.114 72.5391C134.114 72.5391 123.79 65.9833 123.393 64.8794C123.393 64.8794 128.896 74.4094 138.442 75.7555L134.114 72.5391Z" fill="#61A199"/>
<path d="M133.391 69.4418C133.391 69.4418 121.423 58.7881 118.477 58.9112C118.477 58.9112 128.007 58.9827 133.645 68.8383L133.391 69.4418Z" fill="#61A199"/>
<path d="M143.351 96.7928L142.93 96.8642C140.111 79.9684 136.577 70.0532 132.943 68.9493L133.066 68.5522C136.906 69.7117 140.46 79.4839 143.351 96.7928Z" fill="#444053"/>
<path d="M148.092 137.271L147.461 137.351C147.266 135.763 147.103 134.15 146.968 132.538C145.825 118.505 144.391 105.636 142.787 96.0066L143.137 95.5381C144.725 105.183 146.46 118.434 147.608 132.467C147.735 134.091 147.902 135.707 148.092 137.271Z" fill="#444053"/>
<path d="M199.694 212.285C199.579 212.237 188.202 207.675 176.135 196.203C169.069 189.49 163.112 181.701 158.484 173.124C152.699 162.403 148.911 149.093 147.314 136.084L147.989 136.37C151.563 165.564 165.676 185.077 176.695 195.56C188.643 206.928 199.892 211.443 200.003 211.494L199.694 212.285Z" fill="#444053"/>
<g opacity="0.7">
<path opacity="0.7" d="M207.6 199.332C207.6 199.332 212.706 197.644 216.455 200.837C216.455 200.837 214.441 203.033 209.069 201.317L207.6 199.332Z" fill="#61A199"/>
<path opacity="0.7" d="M207.024 199.34C207.024 199.34 204.347 204.01 206.73 208.322C206.73 208.322 209.283 206.785 208.676 201.174L207.024 199.34Z" fill="#61A199"/>
<path opacity="0.7" d="M202.918 193.058C202.918 193.058 204.395 188.869 213.639 192.895C213.639 192.895 212.94 195.675 209.2 196.072C205.459 196.469 204.228 194.928 202.918 193.058Z" fill="#61A199"/>
<path opacity="0.7" d="M202.339 192.887C202.339 192.887 197.904 193.098 199.099 203.128C199.099 203.128 201.95 203.255 203.399 199.785C204.849 196.314 203.749 194.658 202.339 192.887Z" fill="#61A199"/>
<path opacity="0.7" d="M198.506 185.342C198.506 185.342 199.856 178.163 209.521 181.546C209.521 181.546 208.5 188.098 199.792 187.503L198.506 185.342Z" fill="#61A199"/>
<path opacity="0.7" d="M194.135 175.634C194.135 175.634 197.641 168.03 206.841 173.069C206.841 173.069 205.019 179.966 195.219 177.965L194.135 175.634Z" fill="#61A199"/>
<path opacity="0.7" d="M191.59 166.14C191.59 166.14 195.958 158.973 205.091 163.952C205.091 163.952 200.882 170.305 191.852 167.748L191.59 166.14Z" fill="#61A199"/>
<path opacity="0.7" d="M189.234 156.904C189.234 156.904 193.626 149.446 202.398 154.41C202.398 154.41 197.184 161.212 189.485 158.444L189.234 156.904Z" fill="#61A199"/>
<path opacity="0.7" d="M188.373 148.501C188.373 148.501 192.741 139.11 200.937 143.665C200.937 143.665 195.961 151.936 188.627 150.109L188.373 148.501Z" fill="#61A199"/>
<path opacity="0.7" d="M188.123 138.566C188.123 138.566 192.848 129.187 200.953 134.476C200.953 134.476 194.929 142.918 188.373 140.103L188.123 138.566Z" fill="#61A199"/>
<path opacity="0.7" d="M188.742 129.548C188.742 129.548 194.667 120.495 201.473 122.619C201.473 122.619 195.322 132.213 188.766 131.697L188.742 129.548Z" fill="#61A199"/>
<path opacity="0.7" d="M189.927 120.904C189.927 120.904 196.677 109.901 202.03 112.339C202.03 112.339 197.118 120.813 189.621 122.818L189.927 120.904Z" fill="#61A199"/>
<path opacity="0.7" d="M192.015 110.759C192.015 110.759 198.011 101.693 203.642 102.789C203.642 102.789 198.746 111.982 191.436 113.383L192.015 110.759Z" fill="#61A199"/>
<path opacity="0.7" d="M193.849 101.292C193.849 101.292 200.667 92.4331 204.38 93.1955C204.38 93.1955 199.936 102.527 193.773 103.027L193.849 101.292Z" fill="#61A199"/>
<path opacity="0.7" d="M195.727 92.5167C195.727 92.5167 201.186 82.3712 205.078 82.4586C205.078 82.4586 202.187 91.1944 195.873 93.426L195.727 92.5167Z" fill="#61A199"/>
<path opacity="0.7" d="M197.414 80.8266C197.414 80.8266 202.409 72.9167 205.721 72.3965C205.721 72.3965 202.386 82.4149 197.529 83.1177L197.414 80.8266Z" fill="#61A199"/>
<path opacity="0.7" d="M198.281 73.0794L201.854 57.7163C201.854 57.7163 204.265 70.689 197.963 75.8749L198.281 73.0794Z" fill="#61A199"/>
<path opacity="0.7" d="M198.101 56.8028C198.101 56.8028 197.132 44.6163 196.342 43.7388C196.342 43.7388 202.191 53.0543 198.923 62.1237L198.101 56.8028Z" fill="#61A199"/>
<path opacity="0.7" d="M198.251 185.207C198.251 185.207 191.501 182.4 189.047 192.355C189.047 192.355 195.087 195.091 199.371 187.475L198.251 185.207Z" fill="#61A199"/>
<path opacity="0.7" d="M193.876 175.277C193.876 175.277 185.803 173.069 183.73 183.361C183.73 183.361 190.183 186.407 194.96 177.619L193.876 175.277Z" fill="#61A199"/>
<path opacity="0.7" d="M191.337 166.775C191.337 166.775 184.932 161.351 177.836 168.963C177.836 168.963 183.836 173.66 191.595 168.383L191.337 166.775Z" fill="#61A199"/>
<path opacity="0.7" d="M189.048 156.935C189.048 156.935 182.528 151.245 175.773 158.738C175.773 158.738 182.869 163.543 189.298 158.48L189.048 156.935Z" fill="#61A199"/>
<path opacity="0.7" d="M188.409 148.744C188.409 148.744 183.044 139.885 175.393 145.309C175.393 145.309 181.242 152.988 188.326 150.368L188.409 148.744Z" fill="#61A199"/>
<path opacity="0.7" d="M188.598 138.439C188.598 138.439 183.229 129.413 175.494 135.262C175.494 135.262 182.094 143.264 188.439 140L188.598 138.439Z" fill="#61A199"/>
<path opacity="0.7" d="M189.559 129.465C189.559 129.465 186.339 119.141 179.211 119.32C179.211 119.32 182.503 130.232 188.939 131.522L189.559 129.465Z" fill="#61A199"/>
<path opacity="0.7" d="M190.105 120.892C190.105 120.892 187.457 108.257 181.6 108.745C181.6 108.745 183.363 118.382 189.748 122.798L190.105 120.892Z" fill="#61A199"/>
<path opacity="0.7" d="M192.549 110.294C192.549 110.294 189.107 99.9698 183.381 99.5728C183.381 99.5728 185.732 109.722 192.426 112.966L192.549 110.294Z" fill="#61A199"/>
<path opacity="0.7" d="M194.514 101.26C194.514 101.26 192.668 90.2372 189.03 89.1611C189.03 89.1611 188.562 99.4853 193.768 102.829L194.514 101.26Z" fill="#61A199"/>
<path opacity="0.7" d="M195.987 92.3496C195.987 92.3496 193.672 81.0645 189.92 80.04C189.92 80.04 190.182 89.2246 195.586 93.1875L195.987 92.3496Z" fill="#61A199"/>
<path opacity="0.7" d="M198.051 81.6526C198.051 81.6526 196.53 72.4204 193.683 70.6494C193.683 70.6494 192.845 81.1761 197.047 83.7214L198.051 81.6526Z" fill="#61A199"/>
<path opacity="0.7" d="M197.916 72.6744L192.996 57.6846C192.996 57.6846 191.745 70.824 198.48 75.4302L197.916 72.6744Z" fill="#61A199"/>
<path opacity="0.7" d="M195.908 57.3115C195.908 57.3115 188.003 47.9801 187.967 46.8047C187.967 46.8047 190.385 57.5259 199.085 61.6635L195.908 57.3115Z" fill="#61A199"/>
<path opacity="0.7" d="M196.14 54.1385C196.14 54.1385 187.884 40.4034 185.021 39.645C185.021 39.645 194.107 42.5517 196.537 53.6382L196.14 54.1385Z" fill="#61A199"/>
<path opacity="0.7" d="M197.511 83.213L197.09 83.1535C199.425 66.1861 198.988 55.6634 195.859 53.5311L196.102 53.1816C199.417 55.441 199.906 65.8208 197.511 83.213Z" fill="#444053"/>
<path opacity="0.7" d="M189.998 123.271L189.371 123.156C189.657 121.587 189.979 119.979 190.336 118.414C193.417 104.679 195.895 91.9648 197.21 82.28L197.682 81.9385C196.348 91.6233 194.045 104.787 190.955 118.538C190.606 120.126 190.28 121.71 189.998 123.271Z" fill="#444053"/>
<path opacity="0.7" d="M216.943 210.236C216.847 210.16 207.341 202.413 199.237 187.876C194.48 179.367 191.104 170.156 189.234 160.589C186.899 148.628 187.249 134.778 189.588 121.905L190.148 122.377C184.886 151.317 192.53 174.141 199.944 187.427C207.969 201.834 217.364 209.497 217.459 209.573L216.943 210.236Z" fill="#444053"/>
</g>
<path d="M122.047 173.656C121.114 174.041 120.144 174.331 119.152 174.522C117.42 174.846 115.662 175.012 113.899 175.018C113.951 175.483 113.99 175.916 114.03 176.309C114.125 177.389 114.181 178.131 114.181 178.131L112.319 178.004L96.9594 176.956L87.9774 175.626C88.4109 176.208 88.8818 176.761 89.387 177.282C89.9103 177.835 90.5156 178.305 91.1818 178.675C91.1818 178.675 99.2863 185.239 100.688 185.299C100.887 185.299 100.95 185.497 100.918 185.811C104.329 185.811 114.935 186.307 111.993 192.212C111.506 193.264 110.648 194.1 109.583 194.559C106.18 196 101.045 193.407 98.4008 191.815C98.1427 192.319 97.8965 192.788 97.6781 193.189C97.2294 194.034 96.9157 194.594 96.9157 194.594L96.6497 194.404L83.0218 184.699L80.0357 182.166C79.1586 182.126 78.29 181.975 77.4507 181.717L77.0536 181.59C77.0364 181.624 77.0218 181.66 77.01 181.697C76.9012 182.007 76.8202 182.326 76.7677 182.65C76.7677 182.698 76.7677 182.745 76.7677 182.793C76.712 183.163 76.6749 183.535 76.6566 183.909C76.6566 184.163 76.6367 184.433 76.6367 184.703C76.6129 190.111 78.7809 198.803 78.7809 198.803C78.7809 198.803 84.3997 213.134 82.4063 216.442C82.3036 216.61 82.1686 216.755 82.0092 216.871C81.3064 217.379 80.8855 218.284 80.6671 219.36C79.9245 222.871 81.227 228.227 81.227 228.227C81.227 228.227 81.1079 228.426 80.9053 228.736C80.4672 229.436 79.9732 230.1 79.4282 230.721C79.3448 230.816 79.2574 230.915 79.1661 231.007C78.9202 231.265 78.6547 231.504 78.3719 231.722C78.4236 231.876 78.4792 232.035 78.5348 232.206C78.5903 232.377 78.6618 232.643 78.7174 232.881C79.1596 234.833 78.9862 236.873 78.2211 238.722C77.7006 240.07 77.3641 241.482 77.2204 242.919C76.9622 245.552 77.0302 248.206 77.4229 250.821C77.3634 250.789 77.3117 250.758 77.2522 250.73C72.8604 248.435 68.5309 246.038 64.2636 243.539C63.0128 242.816 61.7699 242.077 60.535 241.335C59.0155 240.419 57.5026 239.492 55.9963 238.555C54.0109 237.316 52.0255 236.046 50.0401 234.747L49.1109 234.128L48.7535 233.886C48.2492 233.548 47.7529 233.211 47.2526 232.869C45.1996 230.216 43.324 227.43 41.6378 224.53C41.3559 224.026 41.1018 223.546 40.8913 223.105V223.081L40.7563 222.791L40.1964 222.593C39.1441 222.223 38.477 221.965 38.477 221.965C38.9627 220.194 39.1953 218.362 39.168 216.525C39.1362 212.951 38.1475 208.186 34.0734 204.367C28.0536 198.676 27.2237 193.058 27.1364 190.901C27.1364 190.751 27.1364 190.616 27.1364 190.504C27.1344 190.323 27.1423 190.141 27.1602 189.96L27.6208 189.52C26.4534 189.285 25.3574 189.178 25.3574 189.178C25.3574 189.178 29.3521 174.724 36.0787 169.9C39.4142 167.517 42.1898 163.546 44.1514 160.139C47.7297 153.982 51.7481 148.091 56.175 142.513L57.3861 140.984L57.7395 140.535L57.815 140.444L57.9103 140.317C57.7461 140.068 57.5794 139.822 57.41 139.579L57.2988 139.416C56.7706 138.622 56.318 137.827 56.3894 136.878C56.3894 136.878 56.3894 136.858 56.3894 136.851C56.3894 136.783 56.3894 136.72 56.3894 136.648C56.4063 136.49 56.4355 136.333 56.4768 136.179C56.4904 136.205 56.5063 136.229 56.5245 136.251C57.0923 134.599 59.2802 133.868 60.8924 132.955C64.6924 130.819 66.3125 126.145 67.1266 121.797C67.7579 118.414 68.2821 114.622 70.9028 112.45C72.5944 111.052 74.8736 110.591 76.5851 109.206C77.5753 108.331 78.394 107.279 78.9993 106.104C79.3964 105.429 79.7379 104.731 80.1072 104.055C81.7988 100.998 84.0224 98.1548 86.9648 96.3243C89.9072 94.4937 93.6398 93.783 96.8641 95.0139C98.107 95.4864 99.2466 96.2052 100.438 96.7333C101.173 97.0333 101.933 97.2697 102.709 97.4401C105.135 98.0079 107.689 98.1548 109.968 99.1674C113.673 100.811 116.083 104.449 118.283 107.903C119.422 109.69 121.213 112.303 122.23 114.932C122.23 114.836 122.23 114.749 122.23 114.658C122.72 115.815 122.989 117.054 123.024 118.311C123.044 118.846 122.986 119.381 122.853 119.899C122.488 121.249 121.555 122.103 120.383 122.73L120.197 122.822C119.946 122.95 119.689 123.066 119.426 123.167C119.387 123.385 119.343 123.608 119.295 123.822C119.275 123.914 119.252 124.009 119.228 124.1C119.176 124.323 119.117 124.541 119.053 124.759C118.204 127.597 116.549 130.128 114.288 132.042C112.722 133.381 110.913 134.406 108.959 135.06C108.82 135.107 108.673 135.143 108.534 135.187C108.416 135.519 108.247 135.831 108.034 136.112C107.879 136.31 107.698 136.485 107.494 136.632C107.367 136.718 107.235 136.795 107.097 136.862C107.063 136.884 107.027 136.901 106.99 136.914C105.56 137.557 103.603 137.053 102.225 136.092C102.153 136.044 102.086 135.989 102.018 135.937C102.018 136.164 101.982 136.402 101.943 136.648C101.903 136.894 101.875 137.045 101.832 137.252C101.788 137.458 101.772 137.557 101.744 137.704C101.716 137.851 101.697 137.95 101.673 138.066L101.625 138.268C100.839 142.101 99.3379 145.751 97.2016 149.029C96.8918 149.498 96.5564 149.951 96.197 150.383L95.2122 151.884V152.087C95.3989 155.541 94.2632 158.762 92.659 161.533C92.1218 162.452 91.5318 163.339 90.892 164.19L91.1143 164.321C93.338 165.587 97.7218 167.839 100.493 167.648C100.493 167.648 110.976 169.002 112.191 168.323C112.358 168.228 112.521 168.359 112.672 168.641C114.368 167.609 118.267 165.421 121.344 165.131C123.496 164.924 125.248 165.643 125.573 168.307C125.899 170.972 124.295 172.691 122.047 173.656Z" fill="url(#paint0_linear_124_2881)"/>
<path d="M64.6664 228.259C65.3376 229.404 65.738 230.687 65.8371 232.011C65.9362 233.334 65.7314 234.663 65.2382 235.895C64.2733 238.313 64.1661 241.327 64.2654 243.539C63.0146 242.816 61.7717 242.078 60.5368 241.335C59.0173 240.419 57.5044 239.493 55.9981 238.555C54.0127 237.317 52.0273 236.046 50.0419 234.747L49.1127 234.128L48.7553 233.886C48.7241 233.828 48.6854 233.775 48.6402 233.727C48.1081 233.163 45.0069 228.716 43.1644 225.341C42.8309 224.721 42.541 224.149 42.3107 223.625V223.597C41.9136 222.716 41.727 222.009 41.8461 221.687C41.9905 221.181 42.2354 220.709 42.5663 220.3C42.8972 219.891 43.3073 219.552 43.7719 219.305C46.0591 218.114 49.7282 219.214 53.3575 220.965C56.4801 222.543 59.4729 224.366 62.3078 226.417L62.6294 226.651L62.6612 226.675C63.8524 227.521 64.5433 228.08 64.5433 228.08C64.5433 228.08 64.595 228.144 64.6664 228.259Z" fill="#FBBEBE"/>
<path opacity="0.05" d="M64.0607 227.731C64.7331 228.877 65.1342 230.162 65.2333 231.487C65.3324 232.812 65.1269 234.142 64.6325 235.375C63.6675 237.793 63.5603 240.807 63.6596 243.023C62.4101 242.295 61.1672 241.559 59.931 240.815C58.4088 239.899 56.896 238.973 55.3923 238.036C53.4069 236.793 51.4215 235.522 49.4559 234.224L48.5268 233.604L48.1694 233.362C48.1372 233.305 48.0986 233.251 48.0542 233.203C47.5222 232.643 44.4209 228.196 42.5785 224.817C42.2449 224.197 41.9551 223.625 41.7247 223.101V223.077C41.3277 222.192 41.141 221.489 41.2602 221.164C41.4052 220.658 41.6503 220.186 41.9812 219.777C42.312 219.367 42.7217 219.029 43.186 218.781C45.4732 217.59 49.1422 218.69 52.7716 220.441C55.8942 222.019 58.887 223.842 61.7218 225.893L62.0435 226.127L62.0752 226.151C63.2665 226.997 63.9574 227.557 63.9574 227.557C63.9574 227.557 63.9892 227.616 64.0607 227.731Z" fill="black"/>
<path d="M78.6817 237.36C78.5662 238.04 78.3785 238.706 78.1218 239.346C77.6821 240.497 77.3796 241.697 77.2205 242.919C76.9078 245.514 76.9184 248.138 77.2522 250.73C72.8605 248.435 68.531 246.038 64.2637 243.539C63.0128 242.816 61.77 242.077 60.5351 241.335C60.2571 239.222 59.86 237.364 59.4113 236.907C58.8236 236.288 55.4683 231.491 53.3836 227.707C53.1136 227.231 52.8793 226.77 52.6609 226.333V226.313C52.5775 226.139 52.4981 225.972 52.4227 225.805C51.8866 224.653 51.6007 223.756 51.7436 223.323C52.0223 222.382 52.5958 221.555 53.3796 220.965C56.9017 218.391 64.2239 221.874 69.8466 225.332L69.9856 225.416C71.0498 226.079 72.0584 226.734 72.9637 227.346L73.4919 227.703C75.8188 229.291 77.3634 230.526 77.3634 230.526C77.7472 231.118 78.0553 231.756 78.2807 232.424C78.4133 232.801 78.5234 233.186 78.6103 233.576C78.885 234.82 78.9093 236.106 78.6817 237.36Z" fill="#FBBEBE"/>
<path opacity="0.1" d="M43.1823 225.341C46.0691 226.349 50.3298 227.687 52.6488 227.723C52.8889 227.73 53.1293 227.718 53.3675 227.687C54.9995 227.465 60.0306 227.822 64.6486 228.239C66.499 228.402 68.2819 228.573 69.7551 228.724L73.4559 229.121V227.691C72.4275 226.984 71.2323 226.198 69.9537 225.404C64.3111 221.918 56.8976 218.356 53.3476 220.949C48.3484 218.535 43.2737 217.375 41.8322 221.672C41.6655 222.231 42.273 223.653 43.1823 225.341Z" fill="black"/>
<path d="M29.3124 192.061C29.3918 194.201 30.194 199.757 35.9397 205.367C43.2699 212.515 40.1448 222.791 40.1448 222.791C40.1448 222.791 48.8807 226.222 52.649 226.313C52.8891 226.321 53.1295 226.309 53.3677 226.278C55.6271 225.964 64.6091 226.794 69.7712 227.314L73.472 227.711V197.326L32.9934 187.495L29.3283 191.148C29.3036 191.452 29.2982 191.757 29.3124 192.061Z" fill="#5C5C8E"/>
<g opacity="0.1">
<path opacity="0.1" d="M72.8094 227.334L73.4725 227.402V227.727L69.7717 227.33C66.0669 226.957 60.4045 226.425 56.668 226.27C59.253 226.04 67.8101 226.83 72.8094 227.334Z" fill="black"/>
<path opacity="0.1" d="M29.3287 191.168L32.9937 187.515L35.4398 188.106L32.3862 191.168C32.3667 191.472 32.3667 191.777 32.3862 192.081C32.4656 194.221 33.2677 199.773 39.0135 205.387C46.3437 212.535 43.2186 222.807 43.2186 222.807C43.2186 222.807 50.4455 225.646 54.5871 226.23C54.189 226.229 53.7912 226.251 53.3959 226.298C53.1576 226.329 52.9173 226.341 52.6771 226.333C48.9088 226.238 40.173 222.807 40.173 222.807C40.173 222.807 43.298 212.535 35.9679 205.387C30.1943 199.773 29.3922 194.221 29.3128 192.093C29.2981 191.785 29.3034 191.476 29.3287 191.168Z" fill="black"/>
</g>
<path d="M110.215 170.603C110.215 170.603 122.457 162.113 123.35 169.753C124.244 177.393 110.215 176.321 110.215 176.321V170.603Z" fill="#FBBEBE"/>
<path d="M89.1062 164.972C89.1062 164.972 95.7255 169.34 99.3906 169.082C99.3906 169.082 109.397 170.424 110.561 169.753C111.724 169.082 112.439 179.45 112.439 179.45L95.9956 178.286L85.449 176.678C85.449 176.678 80.1758 173.462 80.1758 170.69C80.1758 167.919 89.1062 164.972 89.1062 164.972Z" fill="#F7CDDD"/>
<path d="M89.1062 164.972C89.1062 164.972 95.7255 169.34 99.3906 169.082C99.3906 169.082 109.397 170.424 110.561 169.753C111.724 169.082 112.439 179.45 112.439 179.45L95.9956 178.286L85.449 176.678C85.449 176.678 80.1758 173.462 80.1758 170.69C80.1758 167.919 89.1062 164.972 89.1062 164.972Z" fill="#61A199"/>
<path d="M98.8115 187.066C98.8115 187.066 113.698 186.45 110.363 193.383C107.027 200.316 95.75 191.898 95.75 191.898L98.8115 187.066Z" fill="#FBBEBE"/>
<path d="M83.8398 172.298C83.8398 172.298 95.9032 163.272 94.2077 152.281C92.5121 141.29 83.8398 160.683 83.8398 160.683V172.298Z" fill="#5C5C8E"/>
<path d="M87.1836 122.468C87.1859 126.422 88.7235 130.221 91.4721 133.063C92.9546 134.593 94.7396 135.798 96.7136 136.601C97.3501 136.867 98.0058 137.085 98.6752 137.252C99.3862 137.435 100.109 137.568 100.839 137.649C101.363 137.701 101.892 137.728 102.428 137.728C104.134 137.725 105.827 137.431 107.435 136.859C110.079 135.94 112.42 134.311 114.2 132.15C115.98 129.99 117.131 127.381 117.527 124.609C117.922 121.837 117.547 119.011 116.442 116.438C115.338 113.866 113.546 111.647 111.264 110.026C108.982 108.404 106.297 107.442 103.505 107.245C100.712 107.048 97.9189 107.623 95.4318 108.909C92.9446 110.194 90.8593 112.139 89.4044 114.531C87.9495 116.923 87.1811 119.669 87.1836 122.468Z" fill="#FBBEBE"/>
<path opacity="0.1" d="M29.3124 192.061C30.6784 192.311 32.366 192.772 32.366 193.479C32.366 194.67 51.426 201.107 51.426 201.107C51.426 201.107 50.7112 202.77 52.6172 205.633C54.5232 208.496 70.0214 224.936 70.0214 224.936L69.9697 225.42L69.7712 227.314L68.8261 236.372C68.8261 236.372 74.7824 234.227 76.6884 234.466C77.3039 234.541 77.9749 234.148 78.5904 233.576C78.3639 232.494 77.9427 231.462 77.3475 230.53C77.3475 230.53 75.8029 229.315 73.472 227.707V197.326L32.9934 187.495L29.3283 191.148C29.3036 191.452 29.2982 191.757 29.3124 192.061Z" fill="black"/>
<path d="M27.5977 190.381C27.5977 190.381 32.3626 190.854 32.3626 192.049C32.3626 193.244 51.4226 199.677 51.4226 199.677C51.4226 199.677 50.7079 201.341 52.6139 204.204C54.5199 207.067 70.018 223.506 70.018 223.506L68.8268 234.942C68.8268 234.942 74.783 232.798 76.689 233.036C77.5427 233.143 78.4838 232.353 79.2621 231.447C79.9077 230.684 80.4831 229.864 80.9815 228.997C80.9815 228.997 78.8332 219.936 81.6962 217.792C84.5592 215.647 78.599 199.923 78.599 199.923C78.599 199.923 75.9028 188.741 76.6969 183.944C76.7475 183.625 76.8245 183.31 76.9272 183.003C76.9272 182.968 76.9471 182.932 76.963 182.896C78.6625 178.314 96.9442 139.872 96.9442 139.872C96.9324 138.782 96.8555 137.693 96.7139 136.612C96.6781 136.31 96.6305 135.997 96.5709 135.683C96.4787 135.112 96.3554 134.546 96.2016 133.987C96.0984 133.622 95.9872 133.273 95.8562 132.939C95.2923 131.486 94.4267 130.37 93.1322 130.342C93.1322 130.342 91.7027 128.754 88.3672 128.333C85.9053 128.011 82.411 128.333 77.646 130.342C66.4482 135.107 63.8275 135.345 63.8275 135.345L58.1968 142.719L57.0374 144.236C52.7996 149.764 48.9632 155.588 45.5577 161.664C43.6835 165.031 41.031 168.959 37.8503 171.317C31.4136 176.086 27.5977 190.381 27.5977 190.381Z" fill="#61A199"/>
<path opacity="0.1" d="M69.3629 162.828C69.3629 162.828 53.4558 166.759 47.2891 176.678L69.3629 162.828Z" fill="black"/>
<path opacity="0.1" d="M64.4471 180.252C64.4471 180.252 61.4412 200.448 62.2751 201.968C63.109 203.489 64.4471 180.252 64.4471 180.252Z" fill="black"/>
<path opacity="0.1" d="M65.5233 190.62C66.6828 192.137 71.3803 203.847 71.3803 203.847L70.0223 223.506L68.831 234.942C68.831 234.942 74.7873 232.798 76.6972 233.036C77.547 233.143 78.492 232.357 79.2703 231.448C78.0314 224.749 75.3869 210.736 74.9024 210.466C74.2711 210.109 71.0547 198.847 70.8839 195.718C70.7132 192.589 66.2341 185.537 66.2341 185.537C66.2341 185.537 64.3599 189.103 65.5233 190.62Z" fill="black"/>
<path opacity="0.1" d="M70.0215 171.318C70.3114 172.211 70.772 177.393 70.772 177.393C71.0976 181.963 74.5522 183.456 76.6965 183.933C76.747 183.613 76.8241 183.299 76.9268 182.992C78.3563 178.946 96.9437 139.861 96.9437 139.861C96.9245 137.877 96.6753 135.902 96.2012 133.976C92.1549 132.785 85.746 134.619 85.746 134.619C83.8956 134.377 77.856 146.389 77.856 146.389C77.856 146.389 73.8295 155.589 73.3888 156.84C72.948 158.091 73.3888 160.152 73.2101 160.866C73.0314 161.581 71.1492 162.201 70.8832 163.189C70.6171 164.178 70.7919 166.132 70.6132 166.489C70.4345 166.846 69.7118 170.424 70.0215 171.318Z" fill="black"/>
<path d="M71.4523 170.603C71.7462 171.496 72.2028 176.678 72.2028 176.678C72.4728 180.482 74.9188 182.154 76.9678 182.884C77.8879 183.213 78.8511 183.406 79.8268 183.456L82.7017 185.95L95.9682 195.738C95.9682 195.738 100.916 186.605 99.5737 186.546C98.2316 186.486 90.4924 179.994 90.4924 179.994C88.1099 178.731 85.7513 174.506 84.6513 172.338C84.7163 172.077 84.764 171.811 84.7943 171.544C85.2748 167.498 95.2813 152.007 95.2813 152.007C95.2813 152.007 99.1488 147.453 100.658 139.015C100.701 138.824 100.729 138.618 100.765 138.423C100.808 138.16 100.834 137.895 100.844 137.629C101.023 134.385 98.6644 133.205 95.861 132.924C94.4044 132.81 92.9399 132.856 91.4931 133.059C90.0458 133.239 88.6128 133.521 87.2046 133.9C86.0133 133.745 83.0511 138.729 81.1133 142.259C80.069 144.173 79.3185 145.67 79.3185 145.67C79.3185 145.67 75.2722 154.874 74.8196 156.125C74.3669 157.376 74.8196 159.433 74.6409 160.151C74.4622 160.87 72.58 161.486 72.3179 162.474C72.0559 163.463 72.2226 165.417 72.044 165.774C71.8653 166.132 71.1505 169.709 71.4523 170.603Z" fill="#61A199"/>
<path opacity="0.1" d="M56.0547 150.002C58.5722 152.591 62.678 152.599 65.9579 151.284C69.2378 149.97 72.0214 147.572 75.067 145.725C77.0524 144.534 79.1331 143.529 81.0788 142.287C81.3647 142.1 81.6427 141.913 81.9127 141.723C84.1602 140.134 86.1019 138.097 88.4249 136.64C89.9818 135.61 91.7929 135.03 93.6584 134.964C94.5191 134.956 95.3714 135.135 96.1561 135.489C96.2931 135.548 96.4257 135.617 96.5532 135.695C97.3166 136.137 98.0234 136.67 98.6577 137.283C99.3129 137.875 99.9442 138.506 100.643 139.054C100.687 138.864 100.715 138.657 100.75 138.463C100.793 138.2 100.82 137.935 100.83 137.669C101.354 137.72 101.882 137.748 102.418 137.748C104.128 137.739 105.824 137.438 107.433 136.858C107.433 136.795 107.457 136.727 107.469 136.664C108.041 133.662 109.057 130.481 111.487 128.794C112.889 127.813 115.129 127.416 117.066 126.669C117.739 124.328 117.84 121.86 117.363 119.472C116.885 117.083 115.842 114.844 114.321 112.941C112.801 111.038 110.846 109.528 108.622 108.536C106.397 107.544 103.967 107.099 101.535 107.239C99.1037 107.378 96.7408 108.099 94.6447 109.339C92.5485 110.58 90.78 112.304 89.4873 114.369C88.1946 116.433 87.4152 118.777 87.2145 121.205C87.0138 123.632 87.3975 126.072 88.3335 128.321C85.8716 128 82.3773 128.321 77.6123 130.33C66.4146 135.095 63.7938 135.334 63.7938 135.334L58.195 142.719C58.8025 143.649 59.4895 144.566 59.553 145.65C59.6801 147.659 57.7423 149.045 56.0547 150.002Z" fill="black"/>
<path d="M111.509 127.368C109.091 129.06 108.063 132.236 107.491 135.234C107.312 136.172 107.141 137.16 106.569 137.903C105.287 139.567 102.706 139.094 101.03 137.903C99.3545 136.712 98.0362 134.901 96.1659 134.055C93.6802 132.935 90.7616 133.753 88.4387 135.211C86.1157 136.668 84.17 138.705 81.9225 140.289C79.7505 141.822 77.3283 142.914 75.0649 144.292C72.0233 146.146 69.2437 148.541 65.9598 149.851C62.6759 151.161 58.5741 151.161 56.0605 148.572C57.7481 147.635 59.6859 146.25 59.5549 144.244C59.4238 142.239 57.085 140.734 57.2439 138.685C57.4027 136.636 59.8209 135.818 61.5562 134.81C65.1895 132.697 66.7183 128.059 67.5124 123.771C68.116 120.423 68.6123 116.679 71.1179 114.531C72.7301 113.145 74.918 112.692 76.5421 111.322C78.0828 110.02 78.9246 108.046 79.9093 106.232C81.5255 103.202 83.6459 100.39 86.4533 98.5797C89.2606 96.769 92.8304 96.0702 95.9118 97.2892C97.103 97.7538 98.1672 98.4804 99.3346 98.9847C102.233 100.24 105.557 100.073 108.432 101.391C111.97 103.019 114.269 106.617 116.373 110.032C118.172 112.95 121.69 118.116 120.706 121.888C119.701 125.736 114.134 125.53 111.509 127.368Z" fill="#7C5C5C"/>
<g opacity="0.1">
<path opacity="0.1" d="M57.2437 138.435C57.2566 138.278 57.2845 138.123 57.3271 137.971C57.9664 138.979 58.7646 139.956 58.84 141.147C58.8582 141.421 58.8355 141.695 58.7725 141.961C58.0617 140.818 57.1445 139.75 57.2437 138.435Z" fill="black"/>
<path opacity="0.1" d="M65.2434 146.75C68.5273 145.432 71.3068 143.037 74.3485 141.191C76.6119 139.813 79.0341 138.721 81.2061 137.188C83.4536 135.6 85.3993 133.563 87.7222 132.11C90.0452 130.656 92.9637 129.834 95.4495 130.954C97.3197 131.8 98.6261 133.591 100.314 134.802C102.001 136.013 104.57 136.486 105.853 134.822C106.429 134.079 106.596 133.094 106.774 132.157C107.346 129.155 108.363 125.979 110.793 124.287C113.421 122.453 118.985 122.659 119.993 118.788C120.161 118.101 120.206 117.389 120.124 116.687C120.771 118.406 121.101 120.138 120.712 121.647C119.699 125.518 114.136 125.312 111.508 127.146C109.093 128.838 108.061 132.014 107.489 135.016C107.31 135.953 107.144 136.942 106.572 137.681C105.285 139.345 102.704 138.872 101.013 137.661C99.321 136.45 98.0186 134.659 96.1483 133.813C93.6626 132.693 90.744 133.515 88.4211 134.969C86.0982 136.422 84.1525 138.463 81.905 140.047C79.7329 141.584 77.3107 142.672 75.0474 144.05C72.0057 145.908 69.2261 148.299 65.9422 149.609C62.6584 150.92 58.5565 150.916 56.043 148.327C56.6925 147.975 57.3091 147.566 57.8854 147.104C60.1806 147.941 62.9204 147.679 65.2434 146.75Z" fill="black"/>
</g>
<path d="M323.845 107.768L307.564 91.3962C306.766 90.5801 305.814 89.9302 304.764 89.4839C303.713 89.0376 302.584 88.8039 301.443 88.7961C300.301 88.7883 299.17 89.0068 298.113 89.4387C297.056 89.8707 296.096 90.5076 295.287 91.3128L193.054 192.68L149.827 149.116C148.222 147.488 146.036 146.564 143.75 146.548C141.464 146.532 139.265 147.424 137.637 149.029L121.182 165.309C119.556 166.933 118.635 169.133 118.619 171.431C118.604 173.729 119.494 175.941 121.098 177.587L186.744 243.749C188.368 245.376 190.567 246.297 192.865 246.313C195.163 246.33 197.375 245.44 199.022 243.836L323.754 120.042C324.57 119.244 325.22 118.293 325.666 117.243C326.113 116.193 326.347 115.065 326.356 113.924C326.364 112.783 326.147 111.651 325.716 110.595C325.285 109.538 324.649 108.578 323.845 107.768Z" fill="#3ACC6C"/>
<g opacity="0.5">
<path opacity="0.5" d="M299.314 239.048C299.314 239.048 287.171 238.317 288.592 246.827C288.519 247.258 288.584 247.702 288.778 248.094C288.972 248.486 289.285 248.807 289.672 249.011C289.672 249.011 289.672 248.379 290.915 248.594C291.352 248.668 291.796 248.69 292.238 248.657C292.833 248.619 293.399 248.386 293.85 247.994C293.85 247.994 297.261 246.585 298.591 241.002C298.591 241.002 299.572 239.786 299.532 239.473L297.483 240.35C297.483 240.35 298.186 241.828 297.634 243.054C297.634 243.054 297.566 240.402 297.173 240.466C297.094 240.466 296.109 240.978 296.109 240.978C296.109 240.978 297.3 243.551 296.403 245.425C296.403 245.425 296.748 242.248 295.732 241.164L294.29 242.006C294.29 242.006 295.696 244.667 294.743 246.835C294.743 246.835 294.989 243.507 293.985 242.213L292.678 243.229C292.678 243.229 294.001 245.85 293.195 247.653C293.195 247.653 293.091 243.777 292.4 243.483C292.4 243.483 291.257 244.492 291.082 244.909C291.082 244.909 291.987 246.811 291.427 247.815C291.427 247.815 291.082 245.23 290.8 245.223C290.8 245.223 289.66 246.93 289.541 248.101C289.596 247.018 289.934 245.968 290.522 245.056C289.865 245.182 289.26 245.496 288.779 245.961C288.779 245.961 288.954 244.77 290.804 244.643C290.804 244.643 291.745 243.348 291.995 243.269C291.995 243.269 290.157 243.114 289.041 243.61C289.041 243.61 290.022 242.467 292.329 242.987L293.619 241.935C293.619 241.935 291.201 241.601 290.173 241.966C290.173 241.966 291.364 240.958 293.969 241.692L295.374 240.855C295.374 240.855 293.31 240.41 292.079 240.569C292.079 240.569 293.377 239.87 295.787 240.628L296.792 240.176C296.792 240.176 295.279 239.878 294.834 239.834C294.39 239.79 294.37 239.663 294.37 239.663C295.327 239.505 296.31 239.615 297.209 239.981C297.209 239.981 299.349 239.183 299.314 239.048Z" fill="#61A199"/>
</g>
<g opacity="0.5">
<path opacity="0.5" d="M277.524 179.62C277.524 179.62 271.357 190.107 279.593 192.696C279.944 192.957 280.369 193.101 280.806 193.107C281.244 193.112 281.673 192.98 282.031 192.728C282.031 192.728 281.479 192.422 282.221 191.43C282.485 191.074 282.706 190.689 282.88 190.282C283.112 189.732 283.161 189.122 283.019 188.543C283.019 188.543 283.309 184.862 278.941 181.145C278.941 181.145 278.302 179.716 278.008 179.608L277.857 181.832C277.857 181.832 279.489 181.88 280.335 182.928C280.335 182.928 277.953 181.784 277.818 182.162C277.794 182.241 277.79 183.353 277.79 183.353C277.79 183.353 280.633 183.448 281.888 185.108C281.888 185.108 279.219 183.361 277.786 183.774L277.881 185.442C277.881 185.442 280.891 185.394 282.392 187.228C282.392 187.228 279.537 185.497 277.929 185.803L278.243 187.431C278.243 187.431 281.181 187.431 282.416 188.976C282.416 188.976 278.918 187.312 278.342 187.784C278.342 187.784 278.739 189.261 279.009 189.607C279.009 189.607 281.117 189.663 281.757 190.619C281.757 190.619 279.299 189.754 279.16 190C279.16 190 280.168 191.791 281.145 192.43C280.205 191.888 279.423 191.109 278.878 190.171C278.682 190.818 278.682 191.509 278.878 192.156C278.878 192.156 277.881 191.449 278.628 189.774C278.628 189.774 277.897 188.348 277.941 188.086C277.941 188.086 276.972 189.655 276.904 190.866C276.904 190.866 276.333 189.472 277.841 187.649L277.492 186.021C277.492 186.021 276.098 188.031 275.955 189.111C275.955 189.111 275.594 187.598 277.436 185.604L277.325 183.972C277.325 183.972 275.991 185.608 275.578 186.776C275.578 186.776 275.542 185.303 277.309 183.5L277.365 182.4C277.365 182.4 276.412 183.615 276.174 183.988C275.935 184.361 275.812 184.326 275.812 184.326C276.104 183.401 276.647 182.576 277.381 181.943C277.381 181.943 277.659 179.648 277.524 179.62Z" fill="#61A199"/>
</g>
<g opacity="0.5">
<path opacity="0.5" d="M238.958 95.9508C238.958 95.9508 232.795 106.442 241.026 109.027C241.377 109.289 241.802 109.433 242.24 109.439C242.678 109.445 243.107 109.312 243.465 109.059C243.465 109.059 242.913 108.753 243.659 107.76C243.922 107.404 244.141 107.019 244.314 106.612C244.548 106.063 244.597 105.453 244.453 104.873C244.453 104.873 244.747 101.192 240.375 97.4756C240.375 97.4756 239.736 96.0501 239.442 95.9429L239.291 98.1626C239.291 98.1626 240.927 98.2102 241.769 99.2585C241.769 99.2585 239.386 98.1149 239.255 98.4921C239.228 98.5716 239.228 99.6834 239.228 99.6834C239.228 99.6834 242.067 99.7787 243.322 101.438C243.322 101.438 240.653 99.6913 239.22 100.104L239.319 101.772C239.319 101.772 242.325 101.724 243.826 103.559C243.826 103.559 240.971 101.832 239.363 102.133L239.676 103.761C239.676 103.761 242.615 103.761 243.854 105.31C243.854 105.31 240.351 103.642 239.776 104.119C239.776 104.119 240.173 105.592 240.447 105.937C240.447 105.937 242.551 105.993 243.191 106.95C243.191 106.95 240.733 106.084 240.598 106.331C240.598 106.331 241.602 108.125 242.583 108.761C241.642 108.22 240.859 107.442 240.312 106.505C240.122 107.145 240.122 107.827 240.312 108.467C240.312 108.467 239.315 107.76 240.062 106.065C240.062 106.065 239.331 104.639 239.375 104.377C239.375 104.377 238.406 105.945 238.338 107.156C238.338 107.156 237.766 105.763 239.279 103.94L238.926 102.312C238.926 102.312 237.532 104.321 237.393 105.401C237.393 105.401 237.028 103.888 238.87 101.895L238.759 100.263C238.759 100.263 237.425 101.899 237.012 103.067C237.012 103.067 236.976 101.593 238.743 99.7946L238.799 98.6907C238.799 98.6907 237.846 99.9058 237.608 100.279C237.369 100.652 237.246 100.617 237.246 100.617C237.545 99.6905 238.095 98.8657 238.835 98.234C238.835 98.234 239.093 95.9985 238.958 95.9508Z" fill="#61A199"/>
</g>
<g opacity="0.5">
<path opacity="0.5" d="M106.187 16.499C106.187 16.499 83.2351 33.1765 98.4275 46.3874C98.4275 46.3874 100.147 49.5165 103.613 48.7263C103.613 48.7263 102.716 47.5588 105.238 46.1293C106.131 45.6158 106.96 44.9973 107.707 44.2869C108.718 43.3354 109.391 42.081 109.625 40.7131C109.625 40.7131 113.683 33.113 107.803 21.0972C107.803 21.0972 107.767 17.4481 107.231 16.9438L104.848 21.5579C104.848 21.5579 108.299 23.1819 109.129 26.2117C109.129 26.2117 105.075 21.5301 104.459 22.2408C104.336 22.3798 103.3 24.7425 103.3 24.7425C103.3 24.7425 109.292 27.5935 110.427 32.3109C110.427 32.3109 106.345 26.0846 102.883 25.6319L101.537 29.2891C101.537 29.2891 108.013 31.9932 109.514 37.3141C109.514 37.3141 105.019 30.9608 101.294 30.107L100.453 33.8833C100.453 33.8833 106.719 36.643 107.938 41.0784C107.938 41.0784 101.981 34.2566 100.318 34.7609C100.318 34.7609 99.7538 38.2711 100.052 39.2757C100.052 39.2757 104.507 41.3604 104.983 44.001C104.983 44.001 100.532 39.8634 100.008 40.2605C100.008 40.2605 100.492 45.0254 102.017 47.3166C102.017 47.3166 99.5195 44.1042 99.2654 40.3756C99.2654 40.3756 97.5619 42.361 97.4666 44.5887C97.4666 44.5887 95.9895 42.1466 99.1621 39.2161C99.1621 39.2161 98.9358 35.4836 99.2733 34.9673C99.2733 34.9673 95.7313 37.4173 94.4567 39.9587C94.4567 39.9587 94.5322 36.4485 99.46 33.9587L100.222 30.1507C100.222 30.1507 95.374 33.1408 94.0676 35.3128C94.0676 35.3128 94.6989 31.7391 100.492 29.1898L101.779 25.5962C101.779 25.5962 97.411 27.8556 95.4256 29.9641C95.4256 29.9641 96.7241 26.7874 102.176 24.5757L103.316 22.2726C103.316 22.2726 100.139 23.9801 99.2852 24.5519C98.4315 25.1237 98.1933 24.9489 98.1933 24.9489C99.6807 23.2411 101.614 21.9804 103.776 21.3077C103.776 21.3077 106.453 16.6857 106.187 16.499Z" fill="#61A199"/>
</g>
<g opacity="0.5">
<path opacity="0.5" d="M83.8924 71.5302C83.8924 71.5302 54.2026 59.0459 50.3111 81.5566C50.3111 81.5566 48.2821 85.0668 51.1053 87.9655C51.1053 87.9655 51.7128 86.4089 54.5838 88.0171C55.6077 88.5834 56.6954 89.026 57.824 89.3354C59.348 89.7558 60.9674 89.6694 62.4381 89.0892C62.4381 89.0892 72.1983 88.5611 80.414 75.7869C80.414 75.7869 83.9321 73.6109 84.1108 72.7929L78.2221 73.19C78.2221 73.19 78.6748 77.4984 76.2367 80.0834C76.2367 80.0834 78.4008 73.3965 77.3604 73.2099C77.15 73.1702 74.2513 73.5514 74.2513 73.5514C74.2513 73.5514 75.0018 81.0443 71.0746 84.9198C71.0746 84.9198 74.7198 77.2998 73.1315 73.6864L68.7914 74.5242C68.7914 74.5242 69.9826 82.4063 65.6862 86.9886C65.6862 86.9886 69.2163 78.8881 67.8543 74.7744L63.6928 76.1721C63.6928 76.1721 64.6975 83.8795 61.1039 87.6875C61.1039 87.6875 64.2408 77.9153 62.7637 76.5692C62.7637 76.5692 59.0231 78.0861 58.221 78.9517C58.221 78.9517 58.8167 84.5108 56.5295 86.5161C56.5295 86.5161 57.9351 79.7657 57.2402 79.4878C57.2402 79.4878 52.8922 82.7597 51.5659 85.583C51.5659 85.583 53.2218 81.2706 56.6923 78.8326C56.6923 78.8326 53.7777 78.3362 51.5302 79.5592C51.5302 79.5592 53.0351 76.6963 57.7445 78.0543C57.7445 78.0543 61.2349 75.636 61.9338 75.6718C61.9338 75.6718 57.4785 73.6864 54.2582 73.9326C54.2582 73.9326 57.7088 71.9472 63.0218 75.2628L67.1633 73.7618C67.1633 73.7618 61.4096 70.8115 58.5228 70.8234C58.5228 70.8234 62.3586 69.3383 68.2434 73.468L72.4922 72.5904C72.4922 72.5904 67.7272 69.6719 64.5108 68.9968C64.5108 68.9968 68.3665 68.3853 73.7152 72.3919L76.6219 72.1497C76.6219 72.1497 73.1037 70.0769 72.0395 69.5726C70.9753 69.0683 71.023 68.7427 71.023 68.7427C73.5559 69.1825 75.9165 70.3181 77.8409 72.0226C77.8409 72.0226 83.8646 71.8995 83.8924 71.5302Z" fill="#61A199"/>
</g>
<g opacity="0.5">
<path opacity="0.5" d="M66.1156 40.0098C66.1156 40.0098 55.589 15.6806 40.4561 26.8386C40.4561 26.8386 37.2517 27.7678 37.2795 31.0874C37.2795 31.0874 38.5263 30.5076 39.3125 33.1006C39.6057 34.0191 40.0055 34.9 40.5038 35.7253C41.169 36.8443 42.1812 37.7157 43.3866 38.2071C43.3866 38.2071 49.4858 43.4565 61.6524 40.5459C61.6524 40.5459 64.9839 41.2567 65.5557 40.8755L61.8351 37.7504C61.8351 37.7504 59.6511 40.5697 56.7207 40.7047C56.7207 40.7047 61.8152 37.9649 61.303 37.262C61.1997 37.1191 59.262 35.6975 59.262 35.6975C59.262 35.6975 55.4381 40.5737 50.9232 40.6491C50.9232 40.6491 57.4314 38.1952 58.5433 35.1495L55.4857 33.1641C55.4857 33.1641 51.6459 38.5367 46.4878 38.8186C46.4878 38.8186 53.1985 36.0192 54.7352 32.7948L51.4672 31.274C51.4672 31.274 47.6711 36.4361 43.3787 36.6307C43.3787 36.6307 50.8081 32.6122 50.6929 30.9722C50.6929 30.9722 47.6076 29.7413 46.6308 29.8128C46.6308 29.8128 43.8234 33.4461 41.3178 33.3428C41.3178 33.3428 45.9994 30.1304 45.7413 29.5705C45.7413 29.5705 41.294 29.0384 38.8996 29.9676C38.8996 29.9676 42.3383 28.3475 45.789 28.8796C45.789 28.8796 44.3396 26.922 42.3145 26.378C42.3145 26.378 44.8439 25.5322 46.8651 29.0186C46.8651 29.0186 50.3157 29.5745 50.7168 29.9875C50.7168 29.9875 49.2078 26.2589 47.143 24.5792C47.143 24.5792 50.3197 25.3734 51.5943 30.3647L54.91 31.8379C54.91 31.8379 53.1747 26.8029 51.4514 25.1709C51.4514 25.1709 54.5764 26.4733 55.72 32.2786L58.7339 34.1807C58.7339 34.1807 57.5664 29.7333 56.0456 27.4978C56.0456 27.4978 58.6822 29.3323 59.5796 34.7604L61.4459 36.2693C61.4459 36.2693 60.5326 33.0371 60.1872 32.1317C59.8417 31.2264 60.0601 31.0596 60.0601 31.0596C61.3126 32.7633 62.0673 34.7813 62.2401 36.8888C62.2401 36.8888 65.8933 40.2203 66.1156 40.0098Z" fill="#61A199"/>
</g>
<g opacity="0.5">
<path opacity="0.5" d="M271.28 52.6688C271.28 52.6688 268.798 40.7564 260.955 44.3738C260.519 44.4155 260.108 44.5944 259.779 44.8848C259.451 45.1751 259.223 45.562 259.129 45.9899C259.129 45.9899 259.744 45.843 259.86 47.0819C259.903 47.5215 259.998 47.9546 260.141 48.3724C260.34 48.9358 260.714 49.4204 261.21 49.7542C261.21 49.7542 263.465 52.6768 269.195 52.4941C269.195 52.4941 270.628 53.1215 270.922 53.0024L269.536 51.2552C269.536 51.2552 268.294 52.3194 266.967 52.1089C266.967 52.1089 269.509 51.3505 269.35 50.9852C269.314 50.9098 268.575 50.0918 268.575 50.0918C268.575 50.0918 266.407 51.9303 264.362 51.5451C264.362 51.5451 267.511 51.0448 268.298 49.7781L267.106 48.6067C267.106 48.6067 264.906 50.6636 262.564 50.3102C262.564 50.3102 265.84 49.6748 266.828 48.3684L265.502 47.3757C265.502 47.3757 263.318 49.3373 261.368 49.0316C261.368 49.0316 265.081 47.9118 265.18 47.1653C265.18 47.1653 263.91 46.3274 263.461 46.2679C263.461 46.2679 261.873 47.6418 260.749 47.3638C260.749 47.3638 263.131 46.3552 263.088 46.0773C263.088 46.0773 261.138 45.426 259.975 45.6206C261.035 45.3908 262.137 45.4415 263.171 45.7675C262.879 45.1656 262.417 44.6629 261.841 44.3222C261.841 44.3222 263.056 44.1752 263.644 45.9105C263.644 45.9105 265.141 46.4783 265.284 46.7047C265.284 46.7047 264.95 44.89 264.18 43.9251C264.18 43.9251 265.538 44.5723 265.645 46.9389L266.999 47.9078C266.999 47.9078 266.685 45.4856 266.062 44.5882C266.062 44.5882 267.345 45.4658 267.321 48.1619L268.512 49.2976C268.512 49.2976 268.401 47.1891 267.924 46.0455C267.924 46.0455 268.937 47.1136 268.838 49.6192L269.536 50.473C269.536 50.473 269.429 48.9363 269.358 48.4876C269.286 48.0389 269.397 47.9912 269.397 47.9912C269.803 48.8746 269.956 49.8534 269.838 50.8184C269.838 50.8184 271.16 52.7403 271.28 52.6688Z" fill="#61A199"/>
</g>
<g opacity="0.5">
<path opacity="0.5" d="M228.545 273.495C228.545 273.495 226.068 261.582 218.221 265.199C217.784 265.241 217.372 265.42 217.043 265.71C216.714 266 216.486 266.387 216.391 266.816C216.391 266.816 217.006 266.669 217.121 267.908C217.164 268.348 217.26 268.781 217.407 269.198C217.604 269.761 217.978 270.245 218.471 270.58C218.471 270.58 220.727 273.502 226.461 273.32C226.461 273.32 227.894 273.947 228.184 273.828L226.802 272.081C226.802 272.081 225.559 273.145 224.229 272.935C224.229 272.935 226.77 272.176 226.612 271.811C226.58 271.735 225.837 270.917 225.837 270.917C225.837 270.917 223.669 272.756 221.624 272.371C221.624 272.371 224.777 271.87 225.559 270.604L224.368 269.413C224.368 269.413 222.192 271.477 219.841 271.112C219.841 271.112 223.117 270.477 224.106 269.17L222.78 268.178C222.78 268.178 220.6 270.139 218.65 269.833C218.65 269.833 222.363 268.718 222.462 267.967C222.462 267.967 221.187 267.129 220.743 267.07C220.743 267.07 219.154 268.444 218.027 268.166C218.027 268.166 220.409 267.157 220.365 266.879C220.365 266.879 218.416 266.228 217.252 266.422C218.314 266.193 219.417 266.243 220.453 266.569C220.16 265.968 219.697 265.466 219.123 265.124C219.123 265.124 220.334 264.977 220.921 266.712C220.921 266.712 222.422 267.28 222.565 267.507C222.565 267.507 222.232 265.692 221.461 264.727C221.461 264.727 222.819 265.374 222.923 267.741L224.281 268.71C224.281 268.71 223.963 266.287 223.34 265.39C223.34 265.39 224.626 266.268 224.602 268.964L225.794 270.099C225.794 270.099 225.682 267.991 225.202 266.847C225.202 266.847 226.218 267.916 226.119 270.421L226.818 271.275C226.818 271.275 226.707 269.738 226.635 269.289C226.564 268.841 226.675 268.797 226.675 268.797C227.081 269.679 227.234 270.657 227.116 271.62C227.116 271.62 228.434 273.554 228.545 273.495Z" fill="#61A199"/>
</g>
</g>
<defs>
<linearGradient id="paint0_linear_124_2881" x1="21635.9" y1="110209" x2="21635.9" y2="48580.5" gradientUnits="userSpaceOnUse">
<stop stop-color="#808080" stop-opacity="0.25"/>
<stop offset="0.54" stop-color="#808080" stop-opacity="0.12"/>
<stop offset="1" stop-color="#808080" stop-opacity="0.1"/>
</linearGradient>
<clipPath id="clip0_124_2881">
<rect width="456.296" height="300" fill="white"/>
</clipPath>
</defs>
</svg>
