<svg width="226" height="181" viewBox="0 0 226 181" fill="none" xmlns="http://www.w3.org/2000/svg">
<g clip-path="url(#clip0)">
<path opacity="0.1" d="M130.875 20.692C116.434 20.2763 102.681 16.3935 89.5567 12.1449C76.4324 7.8964 63.4039 3.19733 49.3089 0.946828C40.2438 -0.500546 29.8771 -0.705137 22.5727 3.34098C15.5426 7.23474 13.2726 13.958 12.0515 20.198C11.1309 24.8905 10.5911 29.8312 13.1093 34.2234C14.8505 37.2705 17.9607 39.8365 20.1068 42.7574C27.5722 52.9239 22.2963 65.4583 14.2041 75.3832C10.4083 80.0387 6.00522 84.4809 3.07565 89.4368C0.146076 94.3927 -1.20336 100.076 1.35403 105.125C3.89401 110.131 9.94686 113.899 16.5047 116.547C29.8227 121.923 45.5174 123.462 60.8204 124.335C94.6954 126.263 128.753 125.423 162.72 124.592C175.289 124.283 187.915 123.969 200.282 122.35C207.149 121.451 214.238 120.025 219.217 116.582C225.547 112.212 227.114 104.809 222.874 99.329C215.761 90.1355 196.103 87.8523 191.121 77.9863C188.383 72.5559 191.195 66.5052 195.171 61.4688C203.703 50.6646 218.005 41.186 218.758 28.8365C219.274 20.3482 212.401 11.8598 201.771 7.84634C190.629 3.63916 175.178 4.16805 166.947 11.1329C158.5 18.3022 143.625 21.0686 130.875 20.692Z" fill="#61A199"/>
<path opacity="0.1" d="M94.7759 181C129.725 181 158.058 178.143 158.058 174.619C158.058 171.094 129.725 168.237 94.7759 168.237C59.8264 168.237 31.4941 171.094 31.4941 174.619C31.4941 178.143 59.8264 181 94.7759 181Z" fill="#61A199"/>
<path d="M36.8858 173.926C36.8858 173.926 34.0782 158.018 23.6571 150.135C19.2845 146.827 16.085 142.328 14.6877 137.204C14.0301 134.777 13.6088 132.291 13.4297 129.782" stroke="#535461" stroke-width="2" stroke-miterlimit="10"/>
<path d="M6.8957 124.777C7.7663 126.481 13.5841 129.931 13.5841 129.931C13.5841 129.931 14.3154 123.486 13.4383 121.78C12.5611 120.073 10.3912 119.361 8.58031 120.189C6.76946 121.016 6.01857 123.07 6.8957 124.777Z" fill="#61A199"/>
<path d="M6.34011 136.702C8.05954 137.683 14.9242 137.596 14.9242 137.596C14.9242 137.596 11.8271 131.811 10.1142 130.829C8.40125 129.848 6.16163 130.366 5.12127 131.987C4.0809 133.609 4.62285 135.72 6.34011 136.702Z" fill="#61A199"/>
<path d="M14.8739 152.747C16.8807 152.775 22.7594 149.428 22.7594 149.428C22.7594 149.428 16.9938 145.91 14.9849 145.88C12.976 145.849 11.3241 147.364 11.2849 149.26C11.2457 151.156 12.865 152.712 14.8739 152.747Z" fill="#61A199"/>
<path d="M24.225 163.505C26.1969 163.856 32.5915 161.492 32.5915 161.492C32.5915 161.492 27.5377 157.1 25.5679 156.756C23.5982 156.412 21.6938 157.627 21.3238 159.498C20.9537 161.37 22.2509 163.157 24.225 163.505Z" fill="#61A199"/>
<path d="M21.9641 134.78C21.2785 136.562 15.8699 140.558 15.8699 140.558C15.8699 140.558 14.4377 134.22 15.1233 132.438C15.8089 130.655 17.8962 129.735 19.7832 130.381C21.6702 131.028 22.6497 132.999 21.9641 134.78Z" fill="#61A199"/>
<path d="M32.7288 147.499C31.51 149.008 25.085 151.293 25.085 151.293C25.085 151.293 25.7379 144.84 26.948 143.334C27.5593 142.603 28.4238 142.13 29.3688 142.009C30.3138 141.888 31.2697 142.128 32.0454 142.681C32.422 142.94 32.7407 143.275 32.9814 143.664C33.222 144.053 33.3794 144.487 33.4437 144.94C33.5079 145.393 33.4775 145.854 33.3545 146.295C33.2314 146.735 33.0184 147.145 32.7288 147.499Z" fill="#61A199"/>
<path d="M41.398 161.218C40.4665 162.898 34.5442 166.176 34.5442 166.176C34.5442 166.176 34.024 159.714 34.9556 158.034C35.8871 156.353 38.0832 155.705 39.8636 156.584C41.6439 157.463 42.3274 159.538 41.398 161.218Z" fill="#61A199"/>
<path opacity="0.25" d="M6.8957 124.777C7.7663 126.481 13.5841 129.931 13.5841 129.931C13.5841 129.931 14.3154 123.486 13.4383 121.78C12.5611 120.073 10.3912 119.361 8.58031 120.189C6.76946 121.016 6.01857 123.07 6.8957 124.777Z" fill="black"/>
<path opacity="0.25" d="M6.34011 136.702C8.05954 137.683 14.9242 137.596 14.9242 137.596C14.9242 137.596 11.8271 131.811 10.1142 130.829C8.40125 129.848 6.16163 130.366 5.12127 131.987C4.0809 133.609 4.62285 135.72 6.34011 136.702Z" fill="black"/>
<path opacity="0.25" d="M14.8739 152.747C16.8807 152.775 22.7594 149.428 22.7594 149.428C22.7594 149.428 16.9938 145.91 14.9849 145.88C12.976 145.849 11.3241 147.364 11.2849 149.26C11.2457 151.156 12.865 152.712 14.8739 152.747Z" fill="black"/>
<path opacity="0.25" d="M24.225 163.505C26.1969 163.856 32.5915 161.492 32.5915 161.492C32.5915 161.492 27.5377 157.1 25.5679 156.756C23.5982 156.412 21.6938 157.627 21.3238 159.498C20.9537 161.37 22.2509 163.157 24.225 163.505Z" fill="black"/>
<path opacity="0.25" d="M21.9641 134.78C21.2785 136.562 15.8699 140.558 15.8699 140.558C15.8699 140.558 14.4377 134.22 15.1233 132.438C15.8089 130.655 17.8962 129.735 19.7832 130.381C21.6702 131.028 22.6497 132.999 21.9641 134.78Z" fill="black"/>
<path opacity="0.25" d="M32.7288 147.499C31.51 149.008 25.085 151.293 25.085 151.293C25.085 151.293 25.7379 144.84 26.948 143.334C27.5593 142.603 28.4238 142.13 29.3688 142.009C30.3138 141.888 31.2697 142.128 32.0454 142.681C32.422 142.94 32.7407 143.275 32.9814 143.664C33.222 144.053 33.3794 144.487 33.4437 144.94C33.5079 145.393 33.4775 145.854 33.3545 146.295C33.2314 146.735 33.0184 147.145 32.7288 147.499Z" fill="black"/>
<path opacity="0.25" d="M41.398 161.218C40.4665 162.898 34.5442 166.176 34.5442 166.176C34.5442 166.176 34.024 159.714 34.9556 158.034C35.8871 156.353 38.0832 155.705 39.8636 156.584C41.6439 157.463 42.3274 159.538 41.398 161.218Z" fill="black"/>
<path d="M36.5335 173.508C36.5335 173.508 40.7929 157.89 34.6508 146.694C32.0738 141.997 31.0792 136.66 32.002 131.441C32.445 128.96 33.1265 126.527 34.037 124.176" stroke="#535461" stroke-width="2" stroke-miterlimit="10"/>
<path d="M30.2104 117.1C30.28 118.994 34.1128 124.372 34.1128 124.372C34.1128 124.372 37.5473 118.759 37.4777 116.863C37.4081 114.967 35.7256 113.485 33.7189 113.55C31.7122 113.615 30.1385 115.204 30.2104 117.1Z" fill="#61A199"/>
<path d="M24.5873 127.791C25.7365 129.345 32.0483 131.892 32.0483 131.892C32.0483 131.892 31.7001 125.419 30.5509 123.863C29.9696 123.109 29.1252 122.602 28.1865 122.444C27.2478 122.287 26.2841 122.489 25.4883 123.012C25.1016 123.254 24.7693 123.575 24.5121 123.952C24.2549 124.329 24.0785 124.756 23.9939 125.205C23.9093 125.653 23.9183 126.115 24.0204 126.56C24.1226 127.005 24.3155 127.424 24.5873 127.791Z" fill="#61A199"/>
<path d="M25.4996 145.719C27.3236 146.513 34.136 145.704 34.136 145.704C34.136 145.704 30.3728 140.28 28.5489 139.485C26.725 138.691 24.5659 139.442 23.7236 141.163C22.8813 142.885 23.6779 144.924 25.4996 145.719Z" fill="#61A199"/>
<path d="M29.4291 159.137C31.0854 160.212 37.9435 160.497 37.9435 160.497C37.9435 160.497 35.2055 154.553 33.5514 153.48C32.7542 152.961 31.7902 152.762 30.8525 152.924C29.9149 153.085 29.0729 153.595 28.4953 154.351C28.224 154.72 28.0321 155.142 27.9319 155.589C27.8316 156.036 27.8252 156.499 27.9129 156.949C28.0006 157.398 28.1807 157.825 28.4416 158.202C28.7026 158.578 29.0388 158.897 29.4291 159.137Z" fill="#61A199"/>
<path d="M39.6917 132.011C38.2988 133.378 31.6387 134.965 31.6387 134.965C31.6387 134.965 33.0512 128.62 34.442 127.253C35.1303 126.594 36.0417 126.218 36.9948 126.2C37.9479 126.182 38.8728 126.524 39.5851 127.158C39.9274 127.459 40.2035 127.829 40.3959 128.242C40.5883 128.656 40.6928 129.105 40.7028 129.561C40.7128 130.017 40.6281 130.47 40.4541 130.892C40.2801 131.314 40.0205 131.695 39.6917 132.011Z" fill="#61A199"/>
<path d="M44.0667 147.758C42.306 148.67 35.4521 148.302 35.4521 148.302C35.4521 148.302 38.8105 142.643 40.5713 141.738C42.3321 140.833 44.5434 141.436 45.5076 143.098C46.4718 144.761 45.8362 146.846 44.0667 147.758Z" fill="#61A199"/>
<path d="M46.1125 163.616C44.5389 164.796 37.7178 165.527 37.7178 165.527C37.7178 165.527 40.0162 159.418 41.5898 158.238C42.3547 157.671 43.3056 157.412 44.2526 157.515C45.1996 157.618 46.0728 158.075 46.698 158.793C46.9936 159.141 47.214 159.546 47.3454 159.983C47.4767 160.42 47.5161 160.88 47.4611 161.333C47.4061 161.786 47.2579 162.223 47.0258 162.616C46.7937 163.009 46.4828 163.349 46.1125 163.616Z" fill="#61A199"/>
<path d="M215.956 82.3066C216.087 81.9496 215.107 79.9712 215.107 79.8732C215.107 79.7753 214.095 78.6718 214.095 78.0559C214.095 77.4399 212.755 76.1101 212.755 76.1101C212.755 76.1101 210.959 75.3635 210.763 73.742C210.567 72.1205 208.611 72.0857 208.606 72.0857C208.606 72.0857 208.606 71.9377 208.619 71.7135C208.619 71.2086 208.604 70.3075 208.378 69.8156C208.145 69.3679 207.745 69.0295 207.265 68.8732C207.265 68.8732 207.07 67.6087 206.678 67.2191C206.459 66.9904 206.302 66.7098 206.222 66.4036C206.141 66.0974 206.14 65.7758 206.219 65.4692C206.414 64.8532 205.957 63.2927 205.008 63.075C204.059 62.8574 202.984 62.4917 202.984 62.4917C202.984 62.4917 202.878 62.5113 202.723 62.5331L202.593 62.4917C202.365 62.5336 202.136 62.562 201.905 62.5766C201.705 62.5837 201.508 62.5188 201.352 62.3938C201.023 62.0368 198.377 61.3556 197.887 61.3556C197.397 61.3556 195.991 60.7026 195.991 60.7026L194.59 59.6318C194.196 59.3314 193.466 58.1082 193.36 57.9363L193.347 57.9123C193.226 57.636 193.127 57.3507 193.051 57.0592C193.529 56.5596 193.937 55.9981 194.265 55.3898C194.3 55.3267 194.331 55.2614 194.361 55.1983C194.435 55.197 194.508 55.1853 194.579 55.1634C194.607 55.1634 194.635 55.1417 194.664 55.1308C194.995 54.9563 195.244 54.6584 195.358 54.3015C195.382 54.2319 195.404 54.1601 195.421 54.0839C195.421 54.0599 195.421 54.0338 195.436 54.0099C195.451 53.9859 195.458 53.9119 195.467 53.8619C195.475 53.8118 195.478 53.8053 195.482 53.7792C195.486 53.7531 195.497 53.6812 195.504 53.6312C195.51 53.5811 195.504 53.5768 195.504 53.5506C195.504 53.4875 195.519 53.4266 195.528 53.3656C195.55 53.1355 195.584 52.9066 195.63 52.68C195.826 51.8094 196.355 51.0564 196.731 50.2424C196.786 50.127 196.836 50.0073 196.881 49.8876C196.927 49.7679 196.973 49.6264 197.01 49.4936L197.042 49.3718C197.066 49.276 197.088 49.1781 197.108 49.0801C197.108 49.0366 197.125 48.993 197.132 48.9495C197.153 48.8146 197.173 48.6796 197.184 48.5425C197.254 47.7652 197.143 46.9822 196.86 46.255C196.614 45.6456 196.25 45.0971 196.002 44.4877C195.626 43.5649 195.528 42.5288 195.068 41.6408C194.3 40.1652 192.489 39.4273 191 39.9823C190.289 40.2457 189.673 40.7593 188.952 40.9901C187.986 41.2969 186.954 41.0662 185.955 40.9269C184.956 40.7876 183.851 40.7768 183.048 41.4297C182.123 42.1806 181.868 43.5931 180.999 44.418C180.636 44.7641 180.181 44.9861 179.796 45.3061C179.525 45.5228 179.317 45.8075 179.193 46.1309C179.193 46.1549 179.178 46.1767 179.171 46.2006C179.165 46.2245 179.156 46.255 179.149 46.2833C179.143 46.3116 179.136 46.3486 179.132 46.3812C179.128 46.4139 179.132 46.427 179.132 46.4487C179.128 46.5067 179.128 46.5649 179.132 46.6228C179.138 46.6778 179.148 46.7323 179.16 46.7861C179.16 46.8013 179.16 46.8165 179.16 46.8318C179.16 46.847 179.186 46.921 179.202 46.9667C179.201 46.9754 179.201 46.9842 179.202 46.9928C179.219 47.0429 179.239 47.0908 179.258 47.1408L179.291 47.2148L179.317 47.2758C179.445 47.5152 179.546 47.7677 179.62 48.0289C179.66 48.1941 179.65 48.3677 179.591 48.5273C179.503 48.7079 179.379 48.8691 179.228 49.0018C178.578 49.6779 178.076 50.4822 177.754 51.3633C177.717 51.4634 177.68 51.5635 177.648 51.668L177.693 51.6789C177.787 51.7074 177.882 51.7285 177.978 51.742C178.033 51.742 178.087 51.755 178.144 51.7594C178.367 51.7712 178.591 51.7536 178.81 51.7071C178.864 51.6963 178.921 51.6832 178.975 51.668C179.199 51.6061 179.418 51.5252 179.628 51.4264C179.628 51.4917 179.628 51.5591 179.628 51.6244C179.628 51.6897 179.628 51.6984 179.628 51.7354C179.631 53.1705 180.033 54.5765 180.79 55.7956C181.547 57.0147 182.629 57.9987 183.914 58.6371C183.914 58.7068 183.933 58.7786 183.942 58.8548C183.951 58.9309 183.957 58.9723 183.964 59.0311L183.877 58.9462C183.877 58.9462 183.287 58.6545 182.732 59.4968C182.177 60.3391 181.132 60.7309 181.132 60.7309C181.132 60.7309 175.186 61.6712 174.957 62.4504L172.18 62.6114C172.18 62.6114 171.199 62.742 171.092 64.7879C170.985 66.8338 170.472 67.0275 170.472 67.0275C170.472 67.0275 169.329 69.0386 169.427 70.0746C169.525 71.1107 168.556 71.633 168.556 71.633L168.426 73.4809C168.426 73.4809 167.338 73.3198 167.052 74.5843C166.767 75.8489 166.236 76.4344 166.236 76.4344C166.236 76.4344 164.438 77.9274 164.341 79.192L163.23 79.8732C163.23 79.8732 160.649 79.2899 160.062 78.2518L159.881 78.082C159.875 78.0738 159.87 78.065 159.866 78.0559C159.865 78.0602 159.865 78.0646 159.866 78.0689C159.478 77.7033 158.66 76.9415 158.777 77.1156C158.854 77.2787 158.872 77.463 158.83 77.638L158.638 77.4203L158.124 76.8501C158.124 76.8501 153.952 72.9324 151.501 72.632C151.469 72.5689 151.312 71.953 150.894 72.3382C150.547 72.6555 150.269 73.0412 150.079 73.4711C149.888 73.901 149.788 74.3657 149.786 74.8359C149.784 75.3062 149.879 75.7718 150.066 76.2035C150.252 76.6352 150.526 77.0235 150.87 77.3441L154.777 80.9941L154.877 81.0681L155.717 82.1564C155.576 82.4959 155.456 82.8246 155.358 83.1249C155.358 83.1249 155.358 83.1445 155.347 83.1532C155.328 83.2185 155.306 83.2795 155.286 83.3404L155.267 83.4057C155.249 83.4666 155.23 83.5276 155.212 83.5842C155.195 83.6408 155.193 83.656 155.182 83.6908C155.171 83.7257 155.182 83.7322 155.164 83.7518C155.073 84.0782 155.012 84.3285 154.982 84.4678L154.764 84.4004L154.982 84.4918C154.982 84.5027 154.982 84.5157 154.982 84.5266L154.969 84.5941L155.169 84.6811C156.314 85.1796 162.027 87.6847 162.321 88.0656C162.647 88.4857 164.802 89.7197 166.763 88.6815C168.724 87.6433 169.157 86.0523 169.157 86.0523C169.157 86.0523 171.051 83.4253 171.116 83.0357C171.181 82.6461 172.653 82.1912 172.653 82.1912C172.653 82.1912 172.783 86.5442 172.032 88.1287C171.281 89.7132 169.875 96.7607 169.875 96.7607C169.967 96.7424 170.061 96.7365 170.154 96.7433C170.102 96.998 170.071 97.1503 170.071 97.1503C170.186 97.1296 170.303 97.1296 170.417 97.1503C170.313 97.9513 169.712 101.669 169.712 101.669C169.712 101.669 169.516 103.356 169.19 103.939C168.863 104.522 168.831 107.574 168.831 107.574L168.308 109.778C168.368 109.909 168.434 110.036 168.506 110.159C168.506 110.159 169.068 111.404 170.01 112.103C169.967 112.45 169.879 112.789 169.747 113.113C169.542 113.605 169.453 114.137 169.486 114.669C169.486 114.669 168.931 117.168 168.996 117.881C169.061 118.595 168.637 120.347 168.637 120.347L168.03 125.976C168.03 125.976 167.638 130.875 167.834 132.207C168.03 133.539 167.701 135.352 167.701 135.352C167.701 135.352 168.093 139.213 167.995 139.636C167.897 140.058 167.407 141.873 167.701 142.881C167.995 143.888 167.834 146.644 167.834 146.644C167.834 146.644 168.03 150.277 168.256 151.445C168.482 152.614 168.191 154.107 168.191 154.107C168.191 154.107 167.973 156.604 167.864 156.604C167.755 156.604 166.917 158.323 168.648 160.012C170.378 161.701 169.301 161.438 169.301 161.438C169.301 161.438 167.93 160.756 168.091 162.152C168.247 163.479 168.463 163.133 168.482 163.096L168.156 164.163L168.374 164.195L168.184 164.413C167.988 164.661 167.77 164.889 167.531 165.096C167.137 165.388 167.096 166.037 167.096 166.037C167.096 166.037 164.68 168.666 162.425 169.996C161.239 170.696 160.216 171.288 159.77 171.778C159.367 172.213 159.433 172.575 160.268 172.851C162.033 173.434 165.135 173.722 167.357 172.982C168.682 172.539 169.873 171.769 170.82 170.742C170.82 170.742 172.226 170.028 173.599 170.287C174.973 170.546 177.715 168.764 177.715 168.764L177.665 168.302L177.519 166.977C177.427 166.865 177.359 166.735 177.32 166.596C177.28 166.457 177.27 166.311 177.291 166.167C177.307 165.775 177.268 165.382 177.175 165.001C177.154 164.872 177.127 164.744 177.104 164.624L177.354 164.578C177.354 164.578 177.03 162.922 177.617 162.598C178.205 162.273 178.039 158.027 178.039 158.027C178.039 158.027 177.291 157.054 176.897 156.893C176.503 156.732 176.864 154.717 176.932 154.458C176.999 154.199 177.519 149.169 177.519 149.169C177.519 149.169 177.323 147.58 177.585 146.899C177.846 146.217 177.271 143.606 177.271 143.606C177.271 143.606 177.075 143.281 177.437 142.892C177.798 142.502 177.654 139.031 177.654 139.031C177.654 139.031 177.624 137.278 177.624 136.824C177.624 136.369 178.015 134.715 178.375 134.164C178.734 133.613 178.505 131.892 178.505 131.892L178.525 131.763C178.525 131.713 178.542 131.652 178.555 131.578L178.584 131.406C178.743 130.45 178.959 129.505 179.23 128.575C179.665 127.212 180.144 124.811 180.144 124.811L183.191 116.889L183.226 116.795C183.226 116.795 184.63 119.392 184.63 121.801C184.63 121.801 184.989 124.69 184.891 125.469C184.793 126.248 185.181 129.894 185.181 129.894C185.181 129.894 185.605 135.15 185.605 135.378C185.605 135.607 186.127 139.662 186.456 140.278C186.785 140.894 186.127 142.776 185.931 142.97C185.736 143.164 185.997 147.935 185.997 147.935C185.997 147.935 185.507 151.698 185.409 152.477C185.311 153.256 184.919 156.242 185.246 157.409C185.572 158.576 185.442 158.739 185.442 158.739C185.442 158.739 186.619 159.94 185.931 160.045C185.681 160.099 185.446 160.206 185.241 160.359C185.036 160.512 184.865 160.707 184.742 160.931C184.618 161.155 184.544 161.403 184.524 161.658C184.504 161.913 184.538 162.17 184.626 162.411C185.032 163.6 185.513 164.763 186.064 165.893C186.064 165.893 186.267 165.847 186.604 165.78V166.165L186.643 168.098C186.643 168.098 186.861 169.948 186.741 170.37C186.645 170.679 186.523 172.133 186.452 172.893C186.428 173.169 186.415 173.354 186.415 173.354C186.415 173.354 186.415 175.073 190.041 174.555C193.667 174.037 194.32 172.61 194.32 172.61C194.32 172.61 194.32 172.542 194.346 172.431C194.4 172.102 194.518 171.406 194.613 171.019C194.744 170.498 193.569 168.163 193.569 168.163C193.569 168.163 193.373 166.574 193.044 166.217C192.91 166.011 192.821 165.779 192.783 165.536C192.753 165.405 192.726 165.268 192.705 165.135C192.786 165.146 192.867 165.16 192.946 165.179C192.946 165.179 192.75 164.043 193.503 163.686C194.257 163.329 194.058 162.585 193.961 162.258C193.863 161.932 194.254 160.116 194.254 160.116C194.202 159.936 194.198 159.745 194.244 159.563C194.29 159.381 194.384 159.214 194.516 159.08C194.975 158.623 195.332 155.446 195.332 155.446L195.397 143.181C195.397 143.181 195.628 141.005 195.367 140.134C195.105 139.263 194.842 137.572 195.201 137.117C195.56 136.663 195.234 134.556 195.234 134.556C195.234 134.556 195.234 130.109 195.726 129.008C196.218 127.906 196.052 120.929 196.052 120.929L196.181 116.358C196.181 116.358 197.249 115.348 196.997 110.083C198.135 110.011 199.419 109.97 199.609 110.127C199.968 110.42 202.288 111.911 203.659 110.971C203.953 110.84 205.291 109.707 205.291 109.707L204.717 99.9776C205.076 100.52 205.294 100.881 205.294 100.881C205.294 99.5183 209.148 95.1044 209.148 95.1044C209.148 95.1044 212.742 90.4663 213.525 89.9134C214.309 89.3606 215.845 86.4419 215.845 86.4419C216.072 85.8852 216.335 85.3436 216.631 84.8204C217.003 84.2219 215.826 82.6635 215.956 82.3066ZM207.524 85.7106C206.545 85.8086 204.477 88.0482 204.453 88.5401C204.438 88.7969 204.221 89.1408 204.018 89.4107C204.003 89.2148 203.985 89.0145 203.97 88.8121C203.74 85.9457 203.489 82.4524 203.602 82.1129C203.8 81.5296 203.733 78.9025 203.733 78.9025L203.768 78.8525C204.421 80.8875 206.473 83.2882 206.473 83.2882C206.473 83.2882 206.832 84.3264 207.257 84.359C207.681 84.3917 207.524 85.7106 207.524 85.7106Z" fill="url(#paint0_linear)"/>
<path d="M155.145 84.9727C155.145 84.9727 156.335 78.7261 160.168 78.6935L162.969 84.4569L161.102 85.7453C161.102 85.7453 157.045 85.8738 155.145 84.9727Z" fill="#65617D"/>
<path opacity="0.1" d="M162.969 84.4569L161.102 85.7454C161.102 85.7454 158.246 85.8368 156.204 85.334C155.84 85.2477 155.486 85.1267 155.145 84.9727C155.145 84.9727 155.145 84.9379 155.166 84.8726C155.166 84.8726 155.166 84.8574 155.166 84.8487C155.342 84.0647 155.585 83.2973 155.891 82.5546C156.011 82.2739 156.144 81.9844 156.287 81.6949C156.849 80.6067 157.637 79.5576 158.716 79.0331C159.115 78.8372 159.55 78.7239 159.994 78.7001H160.107H160.164L160.224 78.8285L161.171 80.7743L162.969 84.4569Z" fill="black"/>
<path d="M194.78 110.41C194.78 110.41 198.806 110.024 199.159 110.314C199.512 110.603 201.799 112.083 203.153 111.15C204.507 110.216 203.603 106.964 203.603 106.836C203.603 106.707 203.475 102.102 203.475 102.102L201.059 98.8502L198.034 93.1521L191.853 92.5383L192.014 101.588L191.981 106.224L194.78 110.41Z" fill="#65617D"/>
<path opacity="0.1" d="M194.78 110.41C194.78 110.41 198.806 110.024 199.159 110.314C199.512 110.603 201.799 112.083 203.153 111.15C204.507 110.216 203.603 106.964 203.603 106.836C203.603 106.707 203.475 102.102 203.475 102.102L201.059 98.8502L198.034 93.1521L191.853 92.5383L192.014 101.588L191.981 106.224L194.78 110.41Z" fill="black"/>
<path d="M159.361 78.5281C159.361 78.5281 159.039 82.4567 156.592 82.5198C156.592 82.5198 155.898 82.1019 154.964 81.4054C152.814 79.797 149.403 76.7042 150.346 73.8269C151.697 69.7068 158.266 77.3093 158.266 77.3093L158.769 77.8752L159.361 78.5281Z" fill="#FBBEBE"/>
<path opacity="0.1" d="M159.362 78.5281C159.362 78.5281 159.04 82.4567 156.594 82.5198C156.594 82.5198 155.899 82.1019 154.966 81.4054L154.759 81.1377C155.174 81.3542 155.632 81.4775 156.1 81.499C156.467 81.5137 156.831 81.4159 157.142 81.2188C157.453 81.0217 157.697 80.7345 157.841 80.3955C158.098 79.8904 158.324 79.37 158.518 78.8371C158.637 78.5267 158.721 78.2041 158.77 77.8751L159.362 78.5281Z" fill="black"/>
<path d="M158.298 85.6496L157.747 84.9401L155.893 82.5459L154.948 81.3249C155.363 81.5426 155.821 81.666 156.289 81.6862C156.905 81.7015 157.595 81.4686 158.03 80.5849C158.287 80.0789 158.513 79.5577 158.707 79.0244C159.012 78.1538 159.007 77.7185 158.899 77.5596C158.79 77.4007 159.582 78.1429 159.963 78.5042L159.976 78.5172L160.154 78.6848L160.22 78.8154L161.153 80.6807C161.153 80.6807 161.153 80.7068 161.153 80.759C161.245 81.3576 161.56 85.1164 158.298 85.6496Z" fill="#E7EFFD"/>
<path d="M177.587 168.529C177.587 168.529 174.882 170.3 173.53 170.052C172.179 169.804 170.792 170.505 170.792 170.505C169.86 171.523 168.685 172.287 167.377 172.727C165.201 173.467 162.132 173.176 160.393 172.597C159.57 172.322 159.503 171.97 159.899 171.532C160.334 171.045 161.348 170.459 162.511 169.763C164.733 168.444 167.114 165.845 167.114 165.845C167.114 165.845 167.147 165.192 167.534 164.914C167.772 164.708 167.991 164.481 168.187 164.234C168.533 163.825 168.857 163.399 168.857 163.399L176.815 163.629C176.815 163.629 176.95 164.202 177.056 164.787C177.147 165.167 177.184 165.557 177.167 165.947C177.147 166.089 177.156 166.233 177.193 166.371C177.23 166.51 177.296 166.639 177.385 166.751L177.528 168.056L177.587 168.529Z" fill="#65617D"/>
<path d="M194.232 170.751C194.136 171.136 194.014 171.826 193.968 172.15L193.94 172.329C193.94 172.329 193.287 173.746 189.724 174.262C186.161 174.777 186.15 173.069 186.15 173.069C186.15 173.069 186.163 172.886 186.185 172.61C186.248 171.857 186.377 170.414 186.473 170.107C186.599 169.689 186.375 167.852 186.375 167.852L186.338 165.934L186.309 164.602L192.236 163.989C192.272 164.432 192.336 164.872 192.427 165.307C192.464 165.549 192.552 165.78 192.686 165.984C193.009 166.339 193.2 167.917 193.2 167.917C193.2 167.917 194.36 170.235 194.232 170.751Z" fill="#65617D"/>
<path opacity="0.1" d="M176.816 163.629C176.816 163.629 176.951 164.202 177.057 164.787C176.198 164.946 172.441 165.597 171.503 165.142C170.439 164.626 168.153 164.337 168.153 164.337L168.19 164.206C168.536 163.797 168.861 163.37 168.861 163.37L176.816 163.629Z" fill="black"/>
<path opacity="0.1" d="M192.43 165.307C190.928 165.053 187.642 165.669 186.336 165.934L186.308 164.602L192.234 163.989C192.272 164.432 192.338 164.872 192.43 165.307Z" fill="black"/>
<path d="M195.771 116.495L195.643 121.035C195.643 121.035 195.804 127.959 195.321 129.053C194.837 130.148 194.838 134.56 194.838 134.56C194.838 134.56 195.16 136.652 194.805 137.102C194.45 137.553 194.709 139.226 194.966 140.097C195.223 140.968 194.999 143.124 194.999 143.124L194.933 155.295C194.933 155.295 194.581 158.449 194.128 158.902C193.998 159.036 193.906 159.201 193.861 159.382C193.816 159.563 193.819 159.752 193.871 159.931C193.871 159.931 193.486 161.734 193.582 162.058C193.677 162.382 193.871 163.12 193.131 163.473C192.391 163.825 192.583 164.955 192.583 164.955C190.813 164.535 185.79 165.664 185.79 165.664C185.247 164.545 184.774 163.394 184.373 162.217C184.286 161.978 184.252 161.724 184.271 161.472C184.291 161.219 184.364 160.973 184.486 160.751C184.608 160.529 184.776 160.335 184.978 160.183C185.181 160.031 185.414 159.923 185.661 159.868C186.336 159.77 185.178 158.58 185.178 158.58C185.178 158.58 185.307 158.419 184.984 157.261C184.662 156.103 185.048 153.125 185.146 152.364C185.243 151.602 185.724 147.856 185.724 147.856C185.724 147.856 185.468 143.124 185.661 142.931C185.855 142.737 186.497 140.87 186.177 140.258C185.857 139.646 185.337 135.622 185.337 135.396C185.337 135.169 184.921 129.954 184.921 129.954C184.921 129.954 184.534 126.315 184.632 125.543C184.73 124.77 184.373 121.906 184.373 121.906C184.373 119.512 182.989 116.946 182.989 116.946L182.954 117.039L179.97 124.901C179.97 124.901 179.487 127.282 179.069 128.633C178.804 129.552 178.594 130.486 178.44 131.43L178.411 131.602C178.411 131.674 178.39 131.735 178.383 131.783L178.364 131.913C178.364 131.913 178.581 133.62 178.233 134.168C177.885 134.717 177.493 136.358 177.493 136.808C177.493 137.259 177.526 138.998 177.526 138.998C177.526 138.998 177.654 142.443 177.308 142.831C176.962 143.218 177.145 143.538 177.145 143.538C177.145 143.538 177.724 146.15 177.467 146.822C177.21 147.495 177.404 149.075 177.404 149.075C177.404 149.075 176.888 154.068 176.825 154.325C176.762 154.582 176.405 156.58 176.792 156.741C177.18 156.902 177.917 157.866 177.917 157.866C177.917 157.866 178.081 162.086 177.499 162.406C176.918 162.726 177.24 164.365 177.24 164.365C177.24 164.365 172.574 165.266 171.512 164.75C170.45 164.234 168.162 163.945 168.162 163.945L168.482 162.887C168.463 162.924 168.249 163.268 168.097 161.949C167.938 160.565 169.29 161.239 169.29 161.239C169.29 161.239 170.352 161.498 168.637 159.825C166.922 158.151 167.766 156.442 167.864 156.442C167.962 156.442 168.188 153.966 168.188 153.966C168.188 153.966 168.478 152.483 168.252 151.323C168.025 150.163 167.834 146.557 167.834 146.557C167.834 146.557 167.995 143.821 167.705 142.824C167.416 141.827 167.897 140.021 167.995 139.603C168.093 139.185 167.694 135.363 167.694 135.363C167.694 135.363 168.016 133.561 167.823 132.242C167.629 130.923 168.016 126.059 168.016 126.059L168.595 120.456C168.595 120.456 169.013 118.715 168.95 118.008C168.887 117.3 169.436 114.821 169.436 114.821C169.403 114.293 169.491 113.765 169.692 113.276C170.015 112.623 170.143 110.507 170.143 110.507L173.236 103.423L174.759 97.1764L195.203 96.9827C195.203 96.9827 195.279 97.5246 195.403 98.5062C195.527 99.4878 195.702 100.946 195.895 102.746C196.074 104.381 196.27 106.302 196.459 108.442C197.077 115.272 195.771 116.495 195.771 116.495Z" fill="#3F3D56"/>
<path d="M193.878 60.115L189.111 65.2036C189.111 65.2036 182.995 62.7551 183.639 61.9193C183.887 61.595 183.857 60.572 183.705 59.4446C183.487 57.6599 182.995 55.6074 182.995 55.6074C182.995 55.6074 193.684 53.8662 192.789 55.6705C192.461 56.3235 192.517 57.0983 192.722 57.81C192.981 58.6354 193.371 59.4137 193.878 60.115Z" fill="#FBBEBE"/>
<path opacity="0.1" d="M192.783 55.6749C192.454 56.3279 192.297 56.3975 192.502 57.1092C191.105 58.6045 189.327 60.2456 187.115 60.2456C185.932 60.2474 184.764 59.9739 183.705 59.4468C183.487 57.6621 182.995 55.6096 182.995 55.6096C182.995 55.6096 193.684 53.8684 192.783 55.6749Z" fill="black"/>
<path d="M194.781 52.3863C194.747 54.3967 193.925 56.3133 192.491 57.723C191.058 59.1328 189.127 59.9228 187.117 59.9228C185.106 59.9228 183.176 59.1328 181.742 57.723C180.308 56.3133 179.486 54.3967 179.452 52.3863C179.452 52.3493 179.452 52.3123 179.452 52.2775C179.467 50.245 180.288 48.3015 181.735 46.8745C182.452 46.1679 183.301 45.6095 184.233 45.2309C185.166 44.8524 186.164 44.6613 187.17 44.6684C188.176 44.6756 189.172 44.8808 190.099 45.2726C191.026 45.6643 191.866 46.2348 192.573 46.9515C193.28 47.6681 193.838 48.517 194.217 49.4495C194.595 50.382 194.786 51.3799 194.779 52.3863H194.781Z" fill="#FBBEBE"/>
<path opacity="0.1" d="M195.891 102.944C194.877 102.944 191.497 102.981 187.718 103.04H187.673L186.425 103.062H186.386C181.907 103.134 177.491 102.259 175.721 102.424C171.956 102.777 177.075 98.9415 177.075 98.9415C179.882 99.6238 182.77 99.9167 185.657 99.8122L186.745 99.7556C190.167 99.5619 193.608 99.2397 195.406 98.7C195.525 99.6968 195.697 101.144 195.891 102.944Z" fill="black"/>
<path d="M195.891 102.75C194.877 102.75 191.497 102.787 187.718 102.846H187.673L186.425 102.868H186.386C181.907 102.94 177.491 102.065 175.721 102.23C171.956 102.585 177.075 98.7477 177.075 98.7477C179.882 99.4299 182.77 99.7229 185.657 99.6183L186.745 99.5617C190.167 99.368 193.608 99.0459 195.406 98.5083C195.525 99.5051 195.697 100.946 195.891 102.75Z" fill="#5F5D7E"/>
<path opacity="0.1" d="M185.056 62.2393L179.131 65.01L174.561 100.363C174.561 100.363 177.264 99.1397 178.811 99.9124C180.359 100.685 185.123 99.9777 185.123 99.9777C185.123 99.9777 188.605 99.784 189.117 100.171C189.628 100.559 195.681 98.5521 195.681 98.5521C195.681 98.5521 196.77 96.1057 195.938 95.7226C195.107 95.3395 196.204 91.5416 196.204 91.5416L195.681 66.0395L194.65 62.7552L191.881 61.0814L189.052 63.3341L187.7 63.5278L185.056 62.2393Z" fill="black"/>
<path d="M185.056 61.854L179.131 64.6225L174.561 99.9776C174.561 99.9776 177.264 98.7544 178.811 99.5271C180.359 100.3 185.123 99.5902 185.123 99.5902C185.123 99.5902 188.606 99.3987 189.117 99.7839C189.628 100.169 195.686 98.1733 195.686 98.1733C195.686 98.1733 196.774 95.7269 195.943 95.3438C195.111 94.9608 196.204 91.1519 196.204 91.1519L195.681 65.652L194.65 62.3699L191.881 60.694L189.052 62.9488L187.7 63.1425L185.056 61.854Z" fill="#E7EFFD"/>
<path opacity="0.1" d="M184.96 63.495C184.96 63.495 186.667 65.5235 186.636 65.9435C186.606 66.3636 186.538 67.3604 186.538 67.3604L185.25 69.9722C185.25 69.9722 184.542 73.2239 184.542 73.9008C184.542 74.5777 183.415 80.4303 183.415 80.4303L182.059 89.4476L180.353 101.266L182.094 104.259L184.153 102.517L186.891 81.4576L187.47 77.3049C187.47 77.3049 188.081 69.8351 188.081 69.0624C188.081 68.2898 187.729 66.2613 187.729 66.2613C187.729 66.2613 188.147 64.3286 189.886 63.8671C191.625 63.4057 189.757 63.7692 189.757 63.7692L188.758 62.9661L187.888 63.3187C187.888 63.3187 185.476 62.5939 184.96 63.495Z" fill="black"/>
<path d="M184.763 63.3035C184.763 63.3035 186.472 65.3321 186.439 65.7499C186.407 66.1678 186.341 67.1668 186.341 67.1668L185.055 69.7786C185.055 69.7786 184.346 73.0303 184.346 73.7072C184.346 74.3841 183.218 80.2367 183.218 80.2367L181.867 89.2518L180.16 101.07L181.901 104.065L183.963 102.324L186.698 81.2662L187.28 77.1156C187.28 77.1156 187.891 69.6459 187.891 68.8732C187.891 68.1006 187.539 66.0721 187.539 66.0721C187.539 66.0721 187.956 64.1393 189.695 63.6888C191.434 63.2383 189.567 63.593 189.567 63.593L188.568 62.7877L187.697 63.1425C187.697 63.1425 185.279 62.4003 184.763 63.3035Z" fill="#61A199"/>
<path opacity="0.1" d="M183.64 59.9211C183.64 59.9211 183.381 60.1149 183.318 61.4033C183.255 62.6918 182.352 65.5887 182.352 65.5887C182.352 65.5887 185.701 63.2708 187.375 63.5276L183.64 59.9211Z" fill="black"/>
<path d="M183.64 59.536C183.64 59.536 183.381 59.7275 183.318 61.016C183.255 62.3045 182.352 65.2015 182.352 65.2015C182.352 65.2015 185.701 62.8835 187.375 63.1425L183.64 59.536Z" fill="#E7EFFD"/>
<path opacity="0.1" d="M192.785 58.8917L187.5 63.5277C187.5 63.5277 191.944 66.1677 192.523 66.812C193.102 67.4562 193.681 60.5002 193.681 60.5002L192.785 58.8917Z" fill="black"/>
<path d="M192.978 58.5043L187.698 63.1424C187.698 63.1424 192.14 65.7825 192.724 66.4267C193.307 67.071 193.882 60.1149 193.882 60.1149L192.978 58.5043Z" fill="#E7EFFD"/>
<path opacity="0.1" d="M183.832 59.9213C183.832 59.9213 183.253 59.6318 182.707 60.4697C182.304 61.0159 181.758 61.4395 181.129 61.6929C181.129 61.6929 175.267 62.6266 175.034 63.3993L172.296 63.5604C172.296 63.5604 171.33 63.6888 171.234 65.7173C171.139 67.7458 170.623 67.9395 170.623 67.9395C170.623 67.9395 169.495 69.9353 169.593 70.9648C169.691 71.9943 168.723 72.5123 168.723 72.5123L172.747 82.9769C172.747 82.9769 172.878 87.2908 172.135 88.8687C171.393 90.4467 170.011 97.4333 170.011 97.4333C170.011 97.4333 170.59 97.3049 170.557 97.6901C170.525 98.0754 169.87 102.296 169.87 102.296C169.87 102.296 169.676 103.969 169.354 104.55C169.032 105.132 168.999 108.155 168.999 108.155L168.485 110.344C168.485 110.344 169.709 113.082 171.576 112.695C173.443 112.307 176.824 105.001 176.824 105.001L178.983 97.1112L180.656 89.3193L181.14 84.0391L181.912 72.3513L183.04 64.6225C183.04 64.6225 184.285 60.4632 183.832 59.9213Z" fill="black"/>
<path d="M183.641 59.5359C183.641 59.5359 183.06 59.2464 182.513 60.0822C182.112 60.6292 181.565 61.0529 180.935 61.3054C180.935 61.3054 175.076 62.2391 174.841 63.0118L172.103 63.1728C172.103 63.1728 171.139 63.3034 171.041 65.3319C170.943 67.3604 170.429 67.552 170.429 67.552C170.429 67.552 169.302 69.55 169.4 70.5795C169.498 71.609 168.529 72.1248 168.529 72.1248L172.556 82.5894C172.556 82.5894 172.684 86.9032 171.944 88.4812C171.204 90.0591 169.818 97.0479 169.818 97.0479C169.818 97.0479 170.397 96.9173 170.366 97.3047C170.336 97.6921 169.657 101.908 169.657 101.908C169.657 101.908 169.463 103.584 169.141 104.163C168.819 104.742 168.788 107.769 168.788 107.769L168.272 109.959C168.272 109.959 169.496 112.695 171.363 112.31C173.231 111.924 176.617 104.613 176.617 104.613L178.774 96.7258L180.448 88.9339L180.931 83.6515L181.704 71.9637L182.831 64.2371C182.831 64.2371 184.091 60.0822 183.641 59.5359Z" fill="#65617D"/>
<path opacity="0.1" d="M162.968 84.4569L161.1 85.7454C161.1 85.7454 158.245 85.8368 156.203 85.3341L155.165 84.8727L154.947 84.7813L155.165 84.8487C156.242 85.1687 157.085 85.1621 157.744 84.9401C160.386 84.0499 160.095 79.6861 159.992 78.7001C159.992 78.6 159.975 78.5369 159.971 78.5129C159.97 78.5086 159.97 78.5042 159.971 78.4999L159.986 78.526C160.022 78.5855 160.063 78.6422 160.108 78.6958C160.145 78.7371 160.184 78.7806 160.225 78.822L161.159 80.6873C161.159 80.6873 161.159 80.7134 161.159 80.7656L162.968 84.4569Z" fill="black"/>
<path d="M169.435 71.868L168.532 72.1249L168.404 73.9597C168.404 73.9597 167.342 73.7986 167.052 75.0479C166.763 76.2972 166.247 76.8849 166.247 76.8849C166.247 76.8849 164.475 78.3649 164.379 79.6207L163.291 80.2976C163.291 80.2976 160.747 79.7165 160.168 78.687C160.168 78.687 161.328 86.9947 155.145 84.9662C155.145 84.9662 162.068 87.9915 162.39 88.4116C162.712 88.8317 164.836 90.0527 166.769 89.0232C168.702 87.9937 169.12 86.4114 169.12 86.4114C169.12 86.4114 170.987 83.7996 171.05 83.4165C171.114 83.0335 172.574 82.5786 172.574 82.5786L175.342 75.8815L169.435 71.868Z" fill="#65617D"/>
<path opacity="0.1" d="M192.043 62.755L192.977 58.5043C192.977 58.5043 193.395 59.8885 193.815 60.2106L195.199 61.275C195.199 61.275 196.583 61.917 197.066 61.917C197.55 61.917 200.157 62.5939 200.479 62.9487C200.801 63.3035 202.09 63.0444 202.09 63.0444C202.09 63.0444 203.152 63.3992 204.086 63.6234C205.019 63.8476 205.47 65.3951 205.276 66.0175C205.198 66.3222 205.198 66.6418 205.277 66.9463C205.355 67.2509 205.51 67.5305 205.727 67.7587C206.114 68.1462 206.308 69.402 206.308 69.402C206.779 69.5577 207.171 69.8933 207.396 70.3357C207.718 71.0431 207.614 72.5884 207.614 72.5884L202.825 79.3508C202.825 79.3508 202.889 81.9626 202.697 82.5394C202.506 83.1161 203.372 92.9713 203.372 92.9713L204.371 109.907C204.371 109.907 203.05 111.034 202.76 111.163C202.471 111.291 202.181 105.175 202.181 104.949C202.181 104.722 194.744 93.8071 194.744 93.8071C194.744 93.8071 193.745 92.1987 193.745 91.8483C193.745 91.4978 192.811 88.2418 192.811 88.2418L191.395 81.9626L192.043 62.755Z" fill="black"/>
<path d="M208.026 72.2162C208.026 72.4339 208.026 72.5862 208.026 72.5862L203.237 79.3334C203.237 79.3334 203.303 81.9452 203.111 82.5198C202.998 82.8571 203.244 86.3221 203.472 89.169C203.634 91.2214 203.786 92.9518 203.786 92.9518L204.21 100.134L204.783 109.885C204.783 109.885 203.464 111.012 203.174 111.141C202.885 111.269 202.595 105.153 202.595 104.927C202.595 104.701 195.156 93.7875 195.156 93.7875C195.156 93.7875 194.157 92.1747 194.157 91.8287C194.157 91.4826 193.223 88.2222 193.223 88.2222L191.809 81.943L192.451 62.7528L192.977 58.5043C192.977 58.5043 193.783 59.8907 194.201 60.2106L195.585 61.2728C195.585 61.2728 196.969 61.9257 197.452 61.9257C197.935 61.9257 200.545 62.6005 200.867 62.9552C201.189 63.31 202.476 63.051 202.476 63.051C202.476 63.051 203.538 63.4058 204.471 63.6299C205.405 63.8541 205.858 65.4016 205.664 66.0241C205.585 66.3287 205.585 66.6484 205.664 66.953C205.743 67.2577 205.898 67.5372 206.115 67.7653C206.5 68.1505 206.694 69.4064 206.694 69.4064C207.165 69.5634 207.556 69.8996 207.782 70.3423C208.013 70.8102 208.034 71.7048 208.026 72.2162Z" fill="#65617D"/>
<path opacity="0.1" d="M168.669 158.001C168.828 158.001 175.59 158.258 175.462 159.353C175.333 160.447 168.669 158.001 168.669 158.001Z" fill="black"/>
<path opacity="0.1" d="M170.182 159.836C170.182 159.836 174.722 160.576 173.529 161.253C172.336 161.93 170.182 159.836 170.182 159.836Z" fill="black"/>
<path opacity="0.1" d="M187.064 157.291C187.064 157.291 194.6 157.944 193.472 158.774C192.345 159.603 189.672 159.738 189.554 159.77C189.437 159.803 187.064 157.291 187.064 157.291Z" fill="black"/>
<path opacity="0.1" d="M186.15 160.608C186.15 160.608 190.336 161.316 190.464 162.132C190.593 162.948 186.15 160.608 186.15 160.608Z" fill="black"/>
<path opacity="0.1" d="M188.47 141.224C188.47 141.224 192.3 142.126 192.527 142.748L188.47 141.224Z" fill="black"/>
<path opacity="0.1" d="M173.69 143.993C173.69 143.993 171.694 144.572 173.627 145.734C175.56 146.896 173.69 143.993 173.69 143.993Z" fill="black"/>
<path opacity="0.1" d="M182.545 113.05C182.763 113.05 186.28 111.892 187.503 112.397C188.378 112.726 189.304 112.901 190.239 112.917L182.545 113.05Z" fill="black"/>
<path opacity="0.1" d="M182.996 116.719L182.961 117.039L179.969 124.901C179.969 124.901 179.485 127.282 179.067 128.633C178.803 129.553 178.593 130.486 178.438 131.43L181.096 114.95L182.996 116.719Z" fill="black"/>
<path d="M187.672 102.846L186.425 102.868H186.386L185.654 99.6229L186.743 99.5641L187.672 102.846Z" fill="#3F3D56"/>
<path d="M202.864 98.9154L202.061 99.5684L199.386 101.773C199.386 101.773 192.14 105.639 190.145 101.967C188.386 98.7326 196.6 96.4233 198.578 95.9205C198.846 95.8531 198.999 95.8182 198.999 95.8182L202.864 98.9154Z" fill="#FBBEBE"/>
<path opacity="0.1" d="M171.919 67.2626C171.919 67.2626 173.336 67.9155 173.66 68.8079C173.984 69.7003 171.919 67.2626 171.919 67.2626Z" fill="black"/>
<path opacity="0.1" d="M167.54 76.922C167.54 76.922 165.479 79.4337 166.317 80.4044C167.155 81.3751 167.54 76.922 167.54 76.922Z" fill="black"/>
<path opacity="0.1" d="M204.376 68.6794C204.376 68.6794 202.443 68.8731 202.38 70.5469L204.376 68.6794Z" fill="black"/>
<path opacity="0.1" d="M186.473 95.0826C186.664 94.8889 191.109 88.3203 192.132 88.9014L186.473 95.0826Z" fill="black"/>
<path opacity="0.1" d="M194.781 52.3863C194.783 53.6486 194.471 54.8917 193.874 56.0036L193.817 55.9927C193.332 55.8904 193.079 55.3246 192.707 54.972C192.479 54.7544 192.188 54.6139 191.876 54.5701C191.563 54.5264 191.245 54.5817 190.966 54.7282C190.684 54.8973 190.455 55.1413 190.305 55.4331C190.154 55.7248 190.088 56.0528 190.113 56.3802C189.867 55.3485 189.945 54.2537 189.706 53.2199C189.466 52.186 188.746 51.1413 187.758 51.1239C187.322 51.1239 186.837 51.2784 186.528 50.9607C186.343 50.7691 186.31 50.4666 186.167 50.2315C185.461 49.0911 183.313 49.6678 182.436 50.2533C181.559 50.8388 180.543 51.7769 179.452 52.2775C179.467 50.245 180.288 48.3015 181.735 46.8745C182.452 46.1679 183.301 45.6095 184.233 45.2309C185.166 44.8524 186.164 44.6613 187.17 44.6684C188.176 44.6756 189.172 44.8808 190.099 45.2726C191.026 45.6643 191.866 46.2348 192.573 46.9515C193.28 47.6681 193.838 48.517 194.217 49.4495C194.595 50.382 194.786 51.3799 194.779 52.3863H194.781Z" fill="black"/>
<path d="M186.17 50.04C186.309 50.2729 186.346 50.5754 186.531 50.7669C186.838 51.0869 187.337 50.9215 187.761 50.9302C188.749 50.9476 189.47 51.9923 189.709 53.0261C189.949 54.06 189.87 55.1548 190.116 56.1864C190.091 55.8587 190.157 55.5305 190.309 55.2386C190.46 54.9468 190.689 54.7029 190.971 54.5345C191.251 54.388 191.569 54.3327 191.881 54.3764C192.194 54.4201 192.484 54.5607 192.713 54.7782C193.085 55.1308 193.337 55.6967 193.823 55.799C194.308 55.9013 194.776 55.4355 194.952 54.9284C195.129 54.4213 195.116 53.8554 195.231 53.3243C195.449 52.321 196.101 51.4961 196.467 50.5406C196.898 49.3788 196.887 48.0988 196.434 46.945C196.193 46.3399 195.834 45.7958 195.588 45.1929C195.218 44.2744 195.122 43.2341 194.669 42.3635C193.912 40.8987 192.127 40.1674 190.658 40.718C189.959 40.9792 189.352 41.4885 188.64 41.717C187.689 42.0239 186.671 41.7932 185.687 41.6561C184.703 41.519 183.613 41.5059 182.821 42.1523C181.909 42.8989 181.66 44.3006 180.803 45.1189C180.444 45.4628 179.998 45.6826 179.619 45.9895C179.24 46.2964 178.912 46.7796 178.966 47.2954C179.023 47.9614 179.675 48.5665 179.434 49.1846C179.347 49.3639 179.226 49.5243 179.077 49.6569C178.36 50.4085 177.827 51.3158 177.519 52.3079C179.24 52.8477 181.105 50.9476 182.455 50.0487C183.319 49.4763 185.465 48.8973 186.17 50.04Z" fill="#7C5C5C"/>
<path opacity="0.1" d="M202.864 98.9154L202.061 99.5684C201.353 98.393 198.452 96.0424 198.452 96.0424L198.578 95.9205C198.846 95.8531 198.998 95.8182 198.998 95.8182L202.864 98.9154Z" fill="black"/>
<path d="M203.636 97.7228C203.636 97.7228 203.347 98.441 203.051 99.0591C202.755 99.6773 202.428 100.243 202.413 99.7839C202.38 98.8829 198.646 95.8553 198.646 95.8553L199.153 95.3635L199.738 94.7932L203.636 97.7228Z" fill="#E7EFFD"/>
<path opacity="0.1" d="M203.763 92.9562L204.188 100.139C203.187 98.5825 200.44 94.5951 198.675 94.7235L202.952 89.8025C203.13 89.6043 203.294 89.3941 203.444 89.1735C203.605 91.2259 203.763 92.9562 203.763 92.9562Z" fill="black"/>
<path opacity="0.1" d="M203.634 97.7226C203.634 97.7226 203.345 98.4409 203.049 99.059C201.925 97.5202 200.382 95.7028 199.15 95.3589L199.736 94.7887L203.634 97.7226Z" fill="black"/>
<path d="M206.854 71.6743L208.015 72.5754C208.015 72.5754 209.945 72.608 210.139 74.2186C210.332 75.8293 212.098 76.5693 212.098 76.5693C212.098 76.5693 213.417 77.8882 213.417 78.4998C213.417 79.1114 214.416 80.2062 214.416 80.3041C214.416 80.4021 215.382 82.3653 215.251 82.7179C215.121 83.0705 216.283 84.618 215.928 85.1969C215.637 85.7171 215.379 86.2551 215.156 86.8075C215.156 86.8075 213.643 89.7066 212.87 90.2529C212.098 90.7992 208.554 95.4047 208.554 95.4047C208.554 95.4047 204.756 99.7838 204.756 101.135C204.756 101.135 201.056 94.9542 198.862 95.1152L203.146 90.1876C203.146 90.1876 203.886 89.3845 203.918 88.9013C203.951 88.4181 205.979 86.1959 206.946 86.1002C206.946 86.1002 207.105 84.779 206.687 84.7464C206.269 84.7137 205.914 83.6842 205.914 83.6842C205.914 83.6842 203.085 80.3368 203.048 78.2103C203.011 76.0839 206.854 71.6743 206.854 71.6743Z" fill="#65617D"/>
<path opacity="0.1" d="M208.562 74.7324C208.562 74.7324 205.859 76.7305 206.438 77.3725C207.017 78.0146 208.562 74.7324 208.562 74.7324Z" fill="black"/>
<path opacity="0.1" d="M208.69 82.9768C208.69 82.9768 213.714 81.3662 214.23 82.9768H208.69Z" fill="black"/>
<path opacity="0.1" d="M177.587 168.529C177.587 168.529 174.882 170.3 173.53 170.052C172.179 169.804 170.792 170.505 170.792 170.505C169.86 171.523 168.685 172.287 167.377 172.727C165.201 173.467 162.132 173.175 160.393 172.597C159.57 172.322 159.503 171.97 159.899 171.532C161.79 171.909 166.015 172.66 167.153 172.113C168.633 171.404 170.76 169.858 170.76 169.858C170.76 169.858 173.53 169.473 173.915 169.473C174.19 169.473 176.329 168.59 177.537 168.085L177.587 168.529Z" fill="black"/>
<path opacity="0.1" d="M193.968 172.15L193.94 172.329C193.94 172.329 193.287 173.746 189.724 174.262C186.161 174.777 186.15 173.069 186.15 173.069C186.15 173.069 186.163 172.886 186.185 172.61C187.317 173.038 189.785 173.517 193.968 172.15Z" fill="black"/>
<path opacity="0.1" d="M173.255 74.347C173.255 74.347 173.255 81.6884 172.626 82.4131C171.997 83.1379 173.255 74.347 173.255 74.347Z" fill="black"/>
<path opacity="0.1" d="M202.281 76.713L203.215 79.3379C203.215 79.3379 203.587 76.7609 202.281 76.713Z" fill="black"/>
<g opacity="0.1">
<path opacity="0.1" d="M179.514 48.5687C179.75 47.9636 179.131 47.3716 179.051 46.723C178.969 46.906 178.934 47.1064 178.949 47.3063C178.99 47.7939 179.349 48.2488 179.445 48.7015C179.472 48.6593 179.495 48.6149 179.514 48.5687Z" fill="black"/>
<path opacity="0.1" d="M190.203 55.503C189.972 54.4888 190.04 53.4136 189.805 52.3972C189.569 51.3807 188.845 50.3186 187.859 50.3012C187.423 50.3012 186.936 50.4579 186.629 50.1401C186.442 49.9486 186.411 49.6439 186.266 49.411C185.56 48.2683 183.414 48.8473 182.535 49.4328C181.229 50.3034 179.41 52.1381 177.721 51.7246C177.64 51.9183 177.566 52.1164 177.503 52.3188C179.225 52.8586 181.09 50.9585 182.439 50.0596C183.31 49.4763 185.465 48.8973 186.17 50.04C186.309 50.2729 186.346 50.5754 186.531 50.767C186.838 51.0869 187.336 50.9215 187.761 50.9302C188.749 50.9476 189.469 51.9923 189.709 53.0262C189.948 54.06 189.87 55.1548 190.116 56.1864C190.1 55.9551 190.129 55.723 190.203 55.503Z" fill="black"/>
<path opacity="0.1" d="M195.045 54.2972C194.871 54.8065 194.411 55.2766 193.915 55.1678C193.419 55.059 193.177 54.4996 192.807 54.1449C192.578 53.9296 192.287 53.7909 191.975 53.7476C191.663 53.7044 191.346 53.7587 191.066 53.9033C190.798 54.0633 190.577 54.2921 190.426 54.5661C190.276 54.8401 190.202 55.1492 190.211 55.4616C190.341 55.0685 190.611 54.737 190.97 54.5301C191.25 54.3836 191.568 54.3283 191.88 54.372C192.192 54.4158 192.483 54.5563 192.711 54.7739C193.084 55.1264 193.336 55.6923 193.822 55.7946C194.307 55.8969 194.775 55.4312 194.951 54.924C195.043 54.6229 195.102 54.3128 195.127 53.999C195.106 54.1001 195.079 54.1997 195.045 54.2972Z" fill="black"/>
<path opacity="0.1" d="M196.557 49.9093C196.196 50.8648 195.539 51.6875 195.321 52.693C195.278 52.8954 195.251 53.1022 195.228 53.3111C195.445 52.3099 196.098 51.4894 196.462 50.5361C196.622 50.1072 196.722 49.6583 196.76 49.2019C196.71 49.4425 196.643 49.6789 196.557 49.9093Z" fill="black"/>
</g>
<path d="M150.025 73.2241C150.068 73.2241 150.103 73.189 150.103 73.1457C150.103 73.1025 150.068 73.0674 150.025 73.0674C149.981 73.0674 149.946 73.1025 149.946 73.1457C149.946 73.189 149.981 73.2241 150.025 73.2241Z" fill="#E6E8EC"/>
<path opacity="0.1" d="M177.829 174.357C188.207 174.357 196.621 173.499 196.621 172.44C196.621 171.381 188.207 170.522 177.829 170.522C167.451 170.522 159.037 171.381 159.037 172.44C159.037 173.499 167.451 174.357 177.829 174.357Z" fill="#61A199"/>
<path d="M108.728 46.662L51.8105 83.5885L88.9547 150.581C89.1283 150.894 89.3649 151.168 89.6496 151.386C89.9343 151.603 90.2609 151.759 90.6089 151.844L124.264 160.053C124.841 160.193 125.448 160.13 125.984 159.877C126.52 159.623 126.953 159.193 127.211 158.658L143.905 123.976L162.201 99.5183L118.784 48.1529C117.575 46.7242 115.888 45.7848 114.037 45.5103C112.186 45.2359 110.299 45.6454 108.728 46.662Z" fill="#DCDFED"/>
<path opacity="0.1" d="M162.777 99.8078L162.616 100.025L151.899 114.353L151.705 114.612L144.481 124.269L130.203 153.937L129.803 154.767L127.787 158.952C127.53 159.487 127.096 159.918 126.559 160.172C126.022 160.426 125.413 160.488 124.836 160.347L91.1809 152.133C90.8328 152.049 90.5061 151.893 90.2213 151.675C89.9366 151.458 89.7001 151.184 89.5267 150.871L86.2903 145.044L85.7092 143.995L62.3488 101.845L62.1485 101.486L52.3848 83.878L53.5644 83.1118L62.5077 77.3115L62.7144 77.1765L81.5477 64.9576L82.7361 64.1871L109.3 46.9514C110.871 45.9328 112.759 45.5221 114.611 45.7961C116.463 46.0702 118.152 47.0103 119.36 48.4402L139.166 71.8811L140.037 72.9258L154.413 89.933L154.491 90.0266L161.719 98.5759L162.629 99.6532L162.777 99.8078Z" fill="black"/>
<path opacity="0.1" d="M153.935 89.737L152.181 101.925L151.652 105.604L151.349 113.439L151.325 114.051L149.752 154.991C149.736 155.37 149.638 155.742 149.463 156.08C149.289 156.418 149.042 156.713 148.741 156.945C148.44 157.177 148.091 157.339 147.72 157.422C147.349 157.504 146.965 157.504 146.593 157.422L129.63 153.635L129.447 153.593L85.941 143.884L85.1422 143.706L61.2246 138.364L61.7731 101.555L61.7905 100.326L61.9559 89.1842L62.1387 76.8869L80.972 64.6681L82.1604 63.8976C99.629 65.6888 122.861 69.1342 138.599 71.5915L139.47 72.6362L153.835 89.6434L153.935 89.737Z" fill="black"/>
<path d="M155.922 75.2852L153.856 89.6501L151.963 102.805L151.434 106.474L151.131 114.31L149.534 155.861C149.519 156.241 149.42 156.613 149.246 156.951C149.071 157.288 148.824 157.584 148.523 157.815C148.222 158.047 147.874 158.21 147.503 158.293C147.131 158.375 146.747 158.375 146.376 158.293L129.229 154.464L85.7232 144.755L61.0068 139.235L61.5727 101.196L61.7381 90.055L61.9318 77.0221L62.1299 63.617C66.2174 63.4233 72.9428 63.8608 80.9719 64.6682C98.9498 66.4726 123.457 70.1226 139.481 72.6364C149.292 74.1752 155.922 75.2852 155.922 75.2852Z" fill="#61A199"/>
<path opacity="0.1" d="M161.162 98.2864L151.962 102.798L105.009 125.826L61.7376 90.0636L52.9902 82.8224L51.8105 83.5885L61.5743 101.196L61.0084 139.235L85.7248 144.755L88.9547 150.581C89.1281 150.895 89.3646 151.169 89.6493 151.386C89.9341 151.603 90.2608 151.759 90.6089 151.844L124.264 160.053C124.84 160.192 125.447 160.13 125.983 159.876C126.519 159.622 126.951 159.192 127.209 158.658L129.224 154.473L146.371 158.301C146.742 158.384 147.127 158.384 147.498 158.301C147.869 158.219 148.217 158.056 148.518 157.824C148.82 157.592 149.066 157.297 149.241 156.959C149.415 156.622 149.514 156.25 149.529 155.87L151.126 114.319L162.037 99.736L162.068 99.3681L161.162 98.2864Z" fill="black"/>
<path d="M51.808 83.5885L47.9273 150.044C47.8914 150.659 48.0755 151.266 48.4468 151.758C48.818 152.25 49.3522 152.593 49.9536 152.727L153.015 175.613C153.377 175.692 153.751 175.693 154.112 175.616C154.474 175.539 154.815 175.385 155.113 175.165C155.41 174.945 155.657 174.664 155.837 174.341C156.017 174.017 156.126 173.659 156.156 173.291L162.196 99.5183L105.008 127.567L51.808 83.5885Z" fill="#DCDFED"/>
<path opacity="0.1" d="M48.6369 151.565L102.179 118.532C102.972 118.051 103.909 117.866 104.825 118.01C105.741 118.153 106.577 118.616 107.185 119.316L155.107 175.206C155.281 175.406 155.366 175.263 155.107 175.206L48.6369 151.565C48.3322 151.498 48.3714 151.724 48.6369 151.565Z" fill="black"/>
<path d="M49.0219 151.511L102.011 119.501C102.849 118.995 103.838 118.801 104.805 118.953C105.772 119.105 106.654 119.593 107.296 120.332L154.785 174.947C154.863 175.038 154.911 175.151 154.922 175.271C154.932 175.391 154.905 175.511 154.844 175.614C154.782 175.717 154.69 175.799 154.58 175.847C154.47 175.895 154.347 175.906 154.23 175.881L49.1939 152.557C49.082 152.533 48.98 152.476 48.9012 152.393C48.8223 152.31 48.7702 152.205 48.7517 152.093C48.7331 151.98 48.749 151.864 48.7972 151.76C48.8454 151.656 48.9237 151.569 49.0219 151.511Z" fill="#E3E5F1"/>
</g>
<defs>
<linearGradient id="paint0_linear" x1="183.254" y1="174.647" x2="183.254" y2="39.7973" gradientUnits="userSpaceOnUse">
<stop stop-color="#808080" stop-opacity="0.25"/>
<stop offset="0.54" stop-color="#808080" stop-opacity="0.12"/>
<stop offset="1" stop-color="#808080" stop-opacity="0.1"/>
</linearGradient>
<clipPath id="clip0">
<rect width="225.257" height="181" fill="white"/>
</clipPath>
</defs>
</svg>
