<svg width="24" height="24" viewBox="0 0 24 24" fill="none" xmlns="http://www.w3.org/2000/svg">
<path d="M15.0005 19L9.00049 16.89V5L15.0005 7.11V19ZM20.5005 3C20.4405 3 20.3905 3 20.3405 3L15.0005 5.1L9.00049 3L3.36049 4.9C3.15049 4.97 3.00049 5.15 3.00049 5.38V20.5C3.00049 20.6326 3.05317 20.7598 3.14693 20.8536C3.2407 20.9473 3.36788 21 3.50049 21C3.55049 21 3.61049 21 3.66049 20.97L9.00049 18.9L15.0005 21L20.6405 19.1C20.8505 19 21.0005 18.85 21.0005 18.62V3.5C21.0005 3.36739 20.9478 3.24021 20.854 3.14645C20.7603 3.05268 20.6331 3 20.5005 3Z" fill="#61A199"/>
</svg>
