<svg width="26" height="26" viewBox="0 0 26 26" fill="none" xmlns="http://www.w3.org/2000/svg">
<path d="M19.121 6.87933C17.5502 5.3085 15.3943 4.3335 13.0002 4.3335C10.7016 4.3335 8.49722 5.24659 6.8719 6.8719C5.24659 8.49722 4.3335 10.7016 4.3335 13.0002C4.3335 15.2987 5.24659 17.5031 6.8719 19.1284C8.49722 20.7537 10.7016 21.6668 13.0002 21.6668C17.041 21.6668 20.4102 18.9043 21.3743 15.1668H19.121C18.2327 17.691 15.8277 19.5002 13.0002 19.5002C11.2763 19.5002 9.62295 18.8153 8.40397 17.5964C7.18498 16.3774 6.50016 14.7241 6.50016 13.0002C6.50016 11.2763 7.18498 9.62295 8.40397 8.40397C9.62295 7.18498 11.2763 6.50016 13.0002 6.50016C14.7985 6.50016 16.4018 7.24766 17.5718 8.4285L14.0835 11.9168H21.6668V4.3335L19.121 6.87933Z" fill="white"/>
</svg>
