<svg width="219" height="181" viewBox="0 0 219 181" fill="none" xmlns="http://www.w3.org/2000/svg">
<g clip-path="url(#clip0)">
<path d="M193.256 103.467C192.056 113.746 189.563 122 186.141 128.582C181.587 137.352 173.799 140.886 166.841 144.583C164.83 145.65 162.74 146.558 160.589 147.302C147.927 151.696 133.757 150.53 122.626 148.21C114.818 146.581 106.893 145.579 98.9265 145.214C96.6543 145.111 94.3798 145.06 92.103 145.061C88.5922 145.066 25.3773 146.266 9.98624 115.106C6.18629 107.419 3.58164 98.0297 2.64589 86.5843C-0.00201249 54.2267 14.5512 32.9752 33.3233 19.0845C68.8343 -7.19183 117.51 -6.08986 152.497 20.8786C175.802 38.8425 197.623 66.0295 193.256 103.467Z" fill="#F2F2F2"/>
<path d="M68.3035 94.0988C68.3035 119.819 53.0132 128.8 34.1518 128.8C15.2903 128.8 0 119.819 0 94.0988C0 68.3786 34.1518 35.6584 34.1518 35.6584C34.1518 35.6584 68.3035 68.3786 68.3035 94.0988Z" fill="#61A199"/>
<path d="M32.9079 124.865L33.2576 103.34L47.814 76.7097L33.3125 99.9629L33.4696 90.2843L43.5018 71.0177L33.5113 87.7229L33.794 70.3153L44.5368 54.9766L33.8384 67.5779L34.0151 35.6586L32.9047 77.9141L32.996 76.171L22.0738 59.4528L32.8209 79.5172L31.8032 98.9586L31.7729 98.4425L19.1816 80.8491L31.7347 100.265L31.6074 102.697L31.5846 102.733L31.5951 102.933L29.0132 152.257H32.4628L32.8767 126.78L45.399 107.412L32.9079 124.865Z" fill="#3F3D56"/>
<path d="M218.571 95.6926C218.571 121.413 203.281 130.393 184.419 130.393C165.558 130.393 150.268 121.413 150.268 95.6926C150.268 69.9724 184.419 37.2522 184.419 37.2522C184.419 37.2522 218.571 69.9724 218.571 95.6926Z" fill="#61A199"/>
<path d="M183.176 126.459L183.525 104.933L198.082 78.3034L183.58 101.557L183.737 91.878L193.769 72.6114L183.779 89.3167L184.062 71.9091L194.804 56.5704L184.106 69.1717L184.283 37.2523L183.172 79.5078L183.264 77.7647L172.341 61.0465L183.089 81.1109L182.071 100.552L182.041 100.036L169.449 82.4428L182.002 101.859L181.875 104.291L181.852 104.327L181.863 104.527L179.281 153.851H182.73L183.144 128.374L195.667 109.005L183.176 126.459Z" fill="#3F3D56"/>
<path d="M147.536 73.8485C147.536 101.969 130.819 111.788 110.197 111.788C89.5748 111.788 72.8574 101.969 72.8574 73.8485C72.8574 45.7278 110.197 9.95374 110.197 9.95374C110.197 9.95374 147.536 45.7278 147.536 73.8485Z" fill="#61A199"/>
<path d="M108.836 107.486L109.218 83.9518L125.133 54.8363L109.278 80.26L109.45 69.678L120.418 48.6132L109.495 66.8775L109.804 47.8452L121.55 31.0749L109.853 44.8524L110.046 9.95386L108.832 56.1532L108.932 54.2473L96.9904 35.9688L108.74 57.9059L107.628 79.1619L107.595 78.5975L93.8281 59.3623L107.553 80.5908L107.414 83.249L107.389 83.2891L107.4 83.5072L104.577 137.435H108.349L108.801 109.58L122.493 88.4038L108.836 107.486Z" fill="#3F3D56"/>
<path d="M189.428 156.183C189.428 162.219 149.878 181 101.089 181C52.3008 181 12.75 162.219 12.75 156.183C12.75 150.147 49.1133 136.603 97.9017 136.603C146.69 136.603 189.428 150.147 189.428 156.183Z" fill="#3F3D56"/>
<path opacity="0.1" d="M189.428 156.183C189.428 162.219 149.878 181 101.089 181C52.3008 181 12.75 162.219 12.75 156.183C12.75 150.147 49.1133 136.603 97.9017 136.603C146.69 136.603 189.428 150.147 189.428 156.183Z" fill="black"/>
<path d="M189.428 156.183C189.428 162.219 149.878 167.112 101.089 167.112C52.3008 167.112 12.75 162.219 12.75 156.183C12.75 150.147 49.1133 136.603 97.9017 136.603C146.69 136.603 189.428 150.147 189.428 156.183Z" fill="#3F3D56"/>
<path d="M130.784 125.92C130.784 134.579 136.216 141.585 142.929 141.585L130.784 125.92Z" fill="#3F3D56"/>
<path d="M142.93 141.585C142.93 132.829 148.991 125.744 156.482 125.744L142.93 141.585Z" fill="#61A199"/>
<path d="M135.185 126.705C135.185 134.93 138.648 141.585 142.929 141.585L135.185 126.705Z" fill="#61A199"/>
<path d="M142.93 141.585C142.93 130.397 149.936 121.344 158.594 121.344L142.93 141.585Z" fill="#3F3D56"/>
<path d="M140.374 141.695C140.374 141.695 142.096 141.642 142.615 141.273C143.134 140.903 145.265 140.462 145.393 141.054C145.522 141.647 147.982 144.003 146.037 144.018C144.093 144.034 141.519 143.715 141.001 143.4C140.483 143.084 140.374 141.695 140.374 141.695Z" fill="#A8A8A8"/>
<path opacity="0.2" d="M146.072 143.812C144.128 143.828 141.554 143.509 141.036 143.193C140.641 142.953 140.484 142.091 140.432 141.693C140.395 141.695 140.374 141.695 140.374 141.695C140.374 141.695 140.483 143.084 141.001 143.4C141.519 143.715 144.093 144.034 146.037 144.018C146.599 144.014 146.792 143.814 146.782 143.518C146.704 143.697 146.49 143.809 146.072 143.812Z" fill="black"/>
<path opacity="0.1" d="M102.227 159.826C118.825 159.826 132.281 157.685 132.281 155.045C132.281 152.404 118.825 150.263 102.227 150.263C85.6293 150.263 72.1738 152.404 72.1738 155.045C72.1738 157.685 85.6293 159.826 102.227 159.826Z" fill="black"/>
<path d="M115.432 144.344H112.473V151.174H115.432V144.344Z" fill="#FFB9B9"/>
<path d="M115.66 52.134H104.276V72.6251H115.66V52.134Z" fill="#FF6584"/>
<path d="M124.021 90.9147L124.415 94.0669L114.039 97.2189L112.726 91.4402L124.021 90.9147Z" fill="#FFB9B9"/>
<path d="M108.655 60.576C108.655 60.576 108.392 62.9401 107.867 62.9401C107.342 62.9401 105.503 63.8594 105.503 63.8594L104.978 66.3548L108.655 68.5876L114.696 67.9309L116.404 65.3041L114.696 63.5968C114.696 63.5968 113.252 60.4447 113.777 59.788C114.302 59.1313 108.655 60.576 108.655 60.576Z" fill="#FFB9B9"/>
<path opacity="0.1" d="M108.655 60.576C108.655 60.576 108.392 62.9401 107.867 62.9401C107.342 62.9401 105.503 63.8594 105.503 63.8594L104.978 66.3548L108.655 68.5876L114.696 67.9309L116.404 65.3041L114.696 63.5968C114.696 63.5968 113.252 60.4447 113.777 59.788C114.302 59.1313 108.655 60.576 108.655 60.576Z" fill="black"/>
<path d="M92.2372 142.399C92.2372 142.399 91.0552 150.279 89.6104 150.804C88.1657 151.33 95.1266 152.249 95.1266 152.249L95.652 149.36C95.652 149.36 95.7833 144.106 96.3086 143.318C96.834 142.53 92.2372 142.399 92.2372 142.399Z" fill="#FFB9B9"/>
<path d="M105.634 96.5623C105.634 96.5623 124.677 93.1476 124.809 92.4909C124.94 91.8342 128.749 97.4817 126.385 108.514C124.021 119.546 118.111 145.551 118.111 145.551C118.111 145.551 112.069 147.39 112.2 145.945C112.332 144.5 114.302 119.415 114.302 119.415L112.988 108.777L110.756 110.09L101.431 128.477L96.7027 144.369C96.7027 144.369 90.6612 145.42 91.5806 143.187C92.4999 140.954 95.5207 123.618 95.5207 123.618L103.795 99.1891C103.795 99.1891 103.532 96.5623 105.634 96.5623Z" fill="#2F2E41"/>
<path d="M110.427 62.349C113.474 62.349 115.943 59.8793 115.943 56.8328C115.943 53.7863 113.474 51.3167 110.427 51.3167C107.381 51.3167 104.911 53.7863 104.911 56.8328C104.911 59.8793 107.381 62.349 110.427 62.349Z" fill="#FFB9B9"/>
<path d="M116.142 63.728C116.142 63.728 113.515 66.2234 107.342 65.5667C101.169 64.9101 109.049 79.6198 109.049 79.6198L111.545 94.4609C111.545 94.4609 122.577 93.1475 122.971 90.6521C123.365 88.1567 116.142 63.728 116.142 63.728Z" fill="#F2F2F2"/>
<path d="M113.515 77.7811C113.515 77.7811 110.362 76.205 109.18 71.8709C107.998 67.5368 106.948 63.0713 106.291 63.2027C105.737 63.3136 100.594 65.297 98.9277 66.6234C98.6204 66.8679 98.4313 67.0901 98.4108 67.2741C98.2795 68.4561 103.139 80.2765 103.139 80.2765C103.139 80.2765 106.948 88.8134 105.372 91.5715C103.796 94.3295 103.664 97.8756 106.554 97.613C109.443 97.3503 119.031 96.8249 117.717 89.4701C117.717 89.4701 120.213 94.5922 127.174 90.9148C127.174 90.9148 131.376 90.2581 131.245 88.8134C131.114 87.3687 124.547 74.8917 124.547 74.8917C124.547 74.8917 123.496 69.3755 125.466 67.2741L121.001 62.0206C121.001 62.0206 119.95 60.4446 118.899 61.2326C117.849 62.0206 115.485 63.334 115.091 63.4653C114.697 63.5967 114.438 62.9933 114.438 62.9933C113.528 64.8966 113.163 67.0147 113.383 69.1128C113.777 72.5276 113.515 77.7811 113.515 77.7811Z" fill="#2F2E41"/>
<path d="M92.6319 149.229C92.6319 149.229 92.3387 148.309 90.6466 149.229C90.6466 149.229 91.1872 146.339 89.3485 146.339C87.5098 146.339 86.8531 149.754 86.8531 149.754C86.8531 149.754 86.3278 151.987 82.7817 152.906C79.2356 153.825 81.9937 156.977 84.4891 156.977C86.9845 156.977 90.2679 155.007 90.2679 155.007C90.2679 155.007 97.0974 155.139 97.2287 153.825C97.3601 152.512 96.5721 148.572 96.0467 148.572C95.5214 148.572 94.4707 150.411 94.4707 150.411L92.6319 149.229Z" fill="#2F2E41"/>
<path d="M114.959 146.917C114.959 146.917 113.12 144.947 112.07 148.23C111.019 151.514 110.231 152.827 110.888 153.353C111.544 153.878 112.07 153.615 111.807 154.666C111.544 155.717 112.595 157.949 114.959 157.949C117.323 157.949 117.98 156.242 117.848 155.06C117.717 153.878 116.666 152.433 116.666 152.433L115.616 148.756L114.959 146.917Z" fill="#2F2E41"/>
<path d="M125.334 54.5344L118.373 56.8985C118.373 56.8985 112.069 60.5759 114.827 61.3639C117.585 62.152 119.949 58.9999 119.949 58.9999L125.991 57.4238L125.334 54.5344Z" fill="#FFB9B9"/>
<path d="M106.674 48.3029C105.847 48.8691 105.19 49.6445 104.564 50.427C103.293 52.0169 102.048 53.9157 102.361 55.927C102.48 56.6909 102.819 57.4018 103.01 58.1509C103.268 59.1619 103.251 60.2199 103.233 61.2631C103.248 61.7064 103.193 62.1493 103.07 62.5754C102.886 62.9905 102.67 63.3906 102.423 63.7717C101.79 64.9499 101.775 66.3498 101.774 67.687C101.744 68.1372 101.805 68.5889 101.954 69.0148C102.127 69.4168 102.448 69.7321 102.715 70.0791C103.157 70.6653 103.452 71.3489 103.575 72.0727C103.698 72.7964 103.646 73.5391 103.423 74.2385C103.766 74.2399 104.102 74.1436 104.392 73.9608C104.682 73.778 104.913 73.5162 105.06 73.2063C105.105 73.5395 105.077 73.8787 104.976 74.1996C104.875 74.5205 104.704 74.8151 104.476 75.0624C105.98 74.6156 107.591 73.8623 108.14 72.393C108.301 71.8937 108.392 71.3745 108.41 70.8502C108.702 67.1647 108.868 63.3413 107.547 59.8885C107.124 58.7839 106.548 57.7146 106.406 56.5403C106.265 55.366 106.698 54.0089 107.777 53.524C107.802 53.8246 107.936 54.1059 108.153 54.3154C108.393 54.4937 108.837 54.3818 108.841 54.0828L109.362 54.8084C109.562 54.7102 109.733 54.5614 109.857 54.3767L110.214 54.814L110.974 54.2613L111.634 54.9728C111.888 54.8281 112.091 54.6077 112.213 54.3424C112.355 54.5545 112.531 54.7875 112.785 54.8105C113.338 54.8605 113.452 53.9825 113.936 53.7086C114.114 53.6297 114.315 53.6175 114.502 53.6741C114.689 53.7307 114.849 53.8524 114.954 54.0172C115.153 54.3562 115.226 54.755 115.159 55.1425C114.958 56.9485 113.418 58.5964 113.874 60.355C114.131 61.3439 114.997 62.1369 115.062 63.1565C115.114 63.9714 114.635 64.7422 114.642 65.5587C114.651 66.5156 115.312 67.3283 115.957 68.0348C117.106 69.2922 118.315 70.4907 119.584 71.6302L119.192 70.9442C119.375 70.9298 119.559 70.9551 119.732 71.0185C119.904 71.0819 120.061 71.1818 120.191 71.3114C120.304 70.9171 120.117 70.5062 119.94 70.1359C118.885 67.9187 118.032 65.5577 117.905 63.1051C117.728 59.696 118.954 56.2338 118.177 52.9096C117.73 51.0485 116.689 49.3837 115.21 48.1676C114.492 47.5762 113.947 47.2219 113.017 47.1567C111.977 47.0664 110.93 47.0746 109.892 47.1813C108.745 47.2904 107.64 47.6752 106.674 48.3029Z" fill="#FF6584"/>
<path d="M119.95 62.1519C119.95 62.1519 121.395 62.2833 122.052 62.1519C122.708 62.0206 123.628 61.3639 123.628 61.3639L128.618 57.6865L124.284 58.3432C124.284 58.3432 125.072 52.3016 124.81 52.1703C124.547 52.039 137.549 49.5436 137.287 53.615C137.024 57.6865 129.669 65.698 125.466 67.2741L122.708 67.6681L119.95 62.1519Z" fill="#2F2E41"/>
<path d="M134.102 108.714H72.1738V123.286H134.102V108.714Z" fill="white"/>
<path d="M126.02 112.016H80.0293V119.757H126.02V112.016Z" fill="#3F3D56"/>
<path d="M90.7161 115.716C90.6977 115.518 89.8197 115.429 88.6151 115.479C89.3131 114.496 89.7174 113.712 89.561 113.588C89.4135 113.472 88.8096 113.976 88.0744 114.794C88.005 113.696 87.8436 112.926 87.6556 112.926C87.4504 112.926 87.2771 113.842 87.2201 115.101C86.1971 114.365 85.371 113.933 85.2438 114.094C85.1224 114.248 85.6753 114.897 86.5543 115.674C85.3942 115.846 84.577 116.089 84.595 116.284C84.6134 116.482 85.4914 116.57 86.696 116.521C85.998 117.504 85.5937 118.288 85.7501 118.412C85.8976 118.528 86.5015 118.024 87.2367 117.206C87.3061 118.304 87.4675 119.074 87.6556 119.074C87.8607 119.074 88.034 118.158 88.091 116.899C89.114 117.635 89.9401 118.066 90.0673 117.905C90.1887 117.752 89.6358 117.103 88.7568 116.326C89.9169 116.154 90.7341 115.911 90.7161 115.716Z" fill="white"/>
<path d="M98.4573 115.716C98.4389 115.518 97.5609 115.429 96.3563 115.479C97.0543 114.496 97.4586 113.712 97.3022 113.588C97.1547 113.472 96.5509 113.976 95.8157 114.794C95.7462 113.696 95.5848 112.926 95.3968 112.926C95.1917 112.926 95.0183 113.842 94.9613 115.101C93.9383 114.365 93.1122 113.933 92.985 114.094C92.8636 114.248 93.4165 114.897 94.2955 115.674C93.1354 115.846 92.3182 116.089 92.3362 116.284C92.3546 116.482 93.2326 116.57 94.4372 116.521C93.7392 117.504 93.3349 118.288 93.4913 118.412C93.6388 118.528 94.2427 118.024 94.9779 117.206C95.0474 118.304 95.2087 119.074 95.3968 119.074C95.6019 119.074 95.7752 118.158 95.8322 116.899C96.8552 117.635 97.6813 118.066 97.8085 117.905C97.9299 117.752 97.377 117.103 96.498 116.326C97.6581 116.154 98.4754 115.911 98.4573 115.716Z" fill="white"/>
<path d="M106.199 115.716C106.18 115.518 105.302 115.429 104.098 115.479C104.796 114.496 105.2 113.712 105.043 113.588C104.896 113.472 104.292 113.976 103.557 114.794C103.487 113.696 103.326 112.926 103.138 112.926C102.933 112.926 102.759 113.842 102.703 115.101C101.68 114.365 100.853 113.933 100.726 114.094C100.605 114.248 101.158 114.897 102.037 115.674C100.877 115.846 100.059 116.089 100.077 116.284C100.096 116.482 100.974 116.57 102.178 116.521C101.48 117.504 101.076 118.288 101.233 118.412C101.38 118.528 101.984 118.024 102.719 117.206C102.789 118.304 102.95 119.074 103.138 119.074C103.343 119.074 103.516 118.158 103.573 116.899C104.596 117.635 105.423 118.066 105.55 117.905C105.671 117.752 105.118 117.103 104.239 116.326C105.399 116.154 106.217 115.911 106.199 115.716Z" fill="white"/>
<path d="M113.94 115.716C113.921 115.518 113.043 115.429 111.839 115.479C112.537 114.496 112.941 113.712 112.785 113.588C112.637 113.472 112.033 113.976 111.298 114.794C111.229 113.696 111.067 112.926 110.879 112.926C110.674 112.926 110.501 113.842 110.444 115.101C109.421 114.365 108.595 113.933 108.467 114.094C108.346 114.248 108.899 114.897 109.778 115.674C108.618 115.846 107.801 116.089 107.819 116.284C107.837 116.482 108.715 116.57 109.92 116.521C109.222 117.504 108.817 118.288 108.974 118.412C109.121 118.528 109.725 118.024 110.46 117.206C110.53 118.304 110.691 119.074 110.879 119.074C111.084 119.074 111.258 118.158 111.315 116.899C112.338 117.635 113.164 118.066 113.291 117.905C113.412 117.752 112.859 117.103 111.98 116.326C113.141 116.154 113.958 115.911 113.94 115.716Z" fill="white"/>
<path d="M121.681 115.716C121.663 115.518 120.785 115.429 119.58 115.479C120.278 114.496 120.682 113.712 120.526 113.588C120.378 113.472 119.774 113.976 119.039 114.794C118.97 113.696 118.808 112.926 118.62 112.926C118.415 112.926 118.242 113.842 118.185 115.101C117.162 114.365 116.336 113.933 116.209 114.094C116.087 114.248 116.64 114.897 117.519 115.674C116.359 115.846 115.542 116.089 115.56 116.284C115.578 116.482 116.456 116.57 117.661 116.521C116.963 117.504 116.559 118.288 116.715 118.412C116.862 118.528 117.466 118.024 118.201 117.206C118.271 118.304 118.432 119.074 118.62 119.074C118.825 119.074 118.999 118.158 119.056 116.899C120.079 117.635 120.905 118.066 121.032 117.905C121.154 117.752 120.601 117.103 119.722 116.326C120.882 116.154 121.699 115.911 121.681 115.716Z" fill="white"/>
<path d="M97.6222 102.472C97.6222 102.472 96.9656 111.141 100.118 111.535C103.27 111.929 100.38 101.684 100.38 101.684L97.6222 102.472Z" fill="#FFB9B9"/>
<path d="M99.3304 67.0115L98.411 67.2742C98.411 67.2742 94.6022 97.7443 97.0977 103.655C97.0977 103.655 99.7244 102.21 101.038 102.472L103.139 77.6498L99.3304 67.0115Z" fill="#2F2E41"/>
</g>
<defs>
<clipPath id="clip0">
<rect width="218.571" height="181" fill="white"/>
</clipPath>
</defs>
</svg>
