<svg width="48" height="48" viewBox="0 0 48 48" fill="none" xmlns="http://www.w3.org/2000/svg">
<path d="M11 14C10.2044 14 9.44129 13.6839 8.87868 13.1213C8.31607 12.5587 8 11.7956 8 11C8 10.2044 8.31607 9.44129 8.87868 8.87868C9.44129 8.31607 10.2044 8 11 8C11.7956 8 12.5587 8.31607 13.1213 8.87868C13.6839 9.44129 14 10.2044 14 11C14 11.7956 13.6839 12.5587 13.1213 13.1213C12.5587 13.6839 11.7956 14 11 14ZM42.82 23.16L24.82 5.16C24.1 4.44 23.1 4 22 4H8C5.78 4 4 5.78 4 8V22C4 23.1 4.44 24.1 5.18 24.82L23.16 42.82C23.9 43.54 24.9 44 26 44C27.1 44 28.1 43.54 28.82 42.82L42.82 28.82C43.56 28.1 44 27.1 44 26C44 24.88 43.54 23.88 42.82 23.16Z" fill="white"/>
</svg>
