<svg width="48" height="48" viewBox="0 0 48 48" fill="none" xmlns="http://www.w3.org/2000/svg">
<path d="M37 7L7 37L11 41L41 11L37 7ZM14 8C12.4087 8 10.8826 8.63214 9.75736 9.75736C8.63214 10.8826 8 12.4087 8 14C8 15.5913 8.63214 17.1174 9.75736 18.2426C10.8826 19.3679 12.4087 20 14 20C15.5913 20 17.1174 19.3679 18.2426 18.2426C19.3679 17.1174 20 15.5913 20 14C20 12.4087 19.3679 10.8826 18.2426 9.75736C17.1174 8.63214 15.5913 8 14 8ZM34 28C32.4087 28 30.8826 28.6321 29.7574 29.7574C28.6321 30.8826 28 32.4087 28 34C28 35.5913 28.6321 37.1174 29.7574 38.2426C30.8826 39.3679 32.4087 40 34 40C35.5913 40 37.1174 39.3679 38.2426 38.2426C39.3679 37.1174 40 35.5913 40 34C40 32.4087 39.3679 30.8826 38.2426 29.7574C37.1174 28.6321 35.5913 28 34 28Z" fill="white"/>
</svg>
