<svg width="48" height="48" viewBox="0 0 48 48" fill="none" xmlns="http://www.w3.org/2000/svg">
<path d="M10 12H46V36H10V12ZM28 18C29.5913 18 31.1174 18.6321 32.2426 19.7574C33.3679 20.8826 34 22.4087 34 24C34 25.5913 33.3679 27.1174 32.2426 28.2426C31.1174 29.3679 29.5913 30 28 30C26.4087 30 24.8826 29.3679 23.7574 28.2426C22.6321 27.1174 22 25.5913 22 24C22 22.4087 22.6321 20.8826 23.7574 19.7574C24.8826 18.6321 26.4087 18 28 18ZM18 16C18 17.0609 17.5786 18.0783 16.8284 18.8284C16.0783 19.5786 15.0609 20 14 20V28C15.0609 28 16.0783 28.4214 16.8284 29.1716C17.5786 29.9217 18 30.9391 18 32H38C38 30.9391 38.4214 29.9217 39.1716 29.1716C39.9217 28.4214 40.9391 28 42 28V20C40.9391 20 39.9217 19.5786 39.1716 18.8284C38.4214 18.0783 38 17.0609 38 16H18ZM2 20H6V40H38V44H2V20Z" fill="white"/>
</svg>
