<svg width="900" height="730" viewBox="0 0 900 730" fill="none" xmlns="http://www.w3.org/2000/svg">
<g clip-path="url(#clip0_114_514)">
<path opacity="0.1" d="M534 729.32C439.73 729.32 363.31 720.867 363.31 710.44C363.31 700.013 439.73 691.56 534 691.56C628.269 691.56 704.69 700.013 704.69 710.44C704.69 720.867 628.269 729.32 534 729.32Z" fill="#61A199"/>
<path opacity="0.1" d="M54.87 468.22C81.4301 523.03 135.39 559.68 191.29 583.85C266.56 616.4 349.45 629.31 431.2 623.85C445.533 622.903 459.817 621.38 474.05 619.28C523.508 612.052 571.724 597.998 617.32 577.52C630.453 571.587 643.353 565.133 656.02 558.16C677.11 546.471 697.317 533.255 716.48 518.62C721.3 514.94 726.053 511.167 730.74 507.3C733.99 504.62 737.21 501.88 740.48 499.22C747.38 493.61 754.48 488.28 762.4 484.29C764.79 483.085 767.24 482.004 769.74 481.05C794.82 471.51 823.74 475.11 849.85 482.55C869.69 488.16 889.02 495.91 908.89 501.44C917.715 503.975 926.707 505.886 935.8 507.16C956.108 509.747 976.735 507.95 996.29 501.89L997.96 501.37C1000.76 500.49 1003.54 499.527 1006.29 498.48L1007.96 497.84C1010.63 496.813 1013.24 495.71 1015.79 494.53L1017.46 493.77C1020.13 492.53 1022.74 491.22 1025.29 489.84C1026.21 489.36 1027.12 488.84 1028.02 488.35C1042.55 480.236 1055.75 469.955 1067.18 457.86C1067.51 457.53 1067.82 457.19 1068.18 456.86C1069.77 455.14 1071.33 453.39 1072.84 451.6C1073.4 450.94 1073.96 450.28 1074.51 449.6C1076.3 447.407 1078.03 445.17 1079.7 442.89C1079.95 442.56 1080.19 442.22 1080.43 441.89C1087.26 432.441 1092.93 422.2 1097.3 411.39C1097.44 411.06 1097.57 410.72 1097.69 410.39C1099.02 406.957 1100.24 403.467 1101.34 399.92C1101.79 398.44 1102.22 396.92 1102.6 395.44C1102.73 395 1102.85 394.55 1102.96 394.11C1108.43 372.39 1109.02 349.8 1109.02 327.34C1109.02 324.72 1109.02 322.103 1109.02 319.49C1108.86 283.16 1108.3 246.21 1102.94 210.38C1102.94 210.13 1102.87 209.88 1102.83 209.64C1101.04 197.578 1098.6 185.621 1095.52 173.82C1092.3 161.438 1088.19 149.306 1083.21 137.52C1070.88 108.52 1052.95 82.1299 1033.04 57.6699C982.94 -3.84006 917.17 -55.5501 840.19 -74.8401C757.24 -95.6701 665.05 -75.7101 598.14 -22.4401C577.74 -6.20007 559.41 13.0299 536.5 25.4799C516.5 36.3199 493.09 40.8099 471.67 32.2799C453.97 25.2799 442.45 21.7299 422.57 22.7999C381.415 25.1218 340.842 33.6132 302.21 47.9899C300.65 48.56 299.09 49.1499 297.54 49.7399C196.83 88.2899 110.24 164.84 65.26 263.21C64.0667 265.81 62.91 268.43 61.79 271.07C34.9601 333.69 25.28 407.16 54.87 468.22Z" fill="#61A199"/>
<path opacity="0.1" d="M54.8702 468.22C81.4302 523.03 135.39 559.68 191.29 583.85C266.56 616.4 349.45 629.31 431.2 623.85C445.534 622.903 459.817 621.38 474.05 619.28C523.508 612.052 571.724 597.998 617.32 577.52C630.454 571.587 643.354 565.133 656.02 558.16C677.11 546.471 697.317 533.255 716.48 518.62C721.3 514.94 726.054 511.167 730.74 507.3C733.99 504.62 737.21 501.88 740.48 499.22C747.38 493.61 754.48 488.28 762.4 484.29C764.79 483.085 767.24 482.004 769.74 481.05V325.89H584.15V360.42H502.7V107.84H406.83V208.84H359.41V149.04H320.23V85.1599H302.23V47.9399C300.67 48.5099 299.11 49.0999 297.56 49.6899V85.1599H280.02V149.08H240.85V208.88H183.12V436.71H91.3602V271.02H61.7903C34.9603 333.69 25.2802 407.16 54.8702 468.22Z" fill="#61A199"/>
<path opacity="0.1" d="M431.2 145.84H474.05V188.69H431.2V145.84Z" fill="#61A199"/>
<path opacity="0.1" d="M431.2 234.67H474.05V277.52H431.2V234.67Z" fill="#61A199"/>
<path opacity="0.1" d="M431.2 323.49H474.05V366.34H431.2V323.49Z" fill="#61A199"/>
<path opacity="0.1" d="M431.2 412.32H474.05V455.17H431.2V412.32Z" fill="#61A199"/>
<path opacity="0.1" d="M431.2 501.15H474.05V544H431.2V501.15Z" fill="#61A199"/>
<path opacity="0.1" d="M431.2 589.97V623.81C445.533 622.863 459.816 621.34 474.05 619.24V589.97H431.2Z" fill="#61A199"/>
<path opacity="0.1" d="M605.62 381.27H755.61V400.68H605.62V381.27Z" fill="#61A199"/>
<path opacity="0.1" d="M605.62 440.21H755.61V459.62H605.62V440.21Z" fill="#61A199"/>
<path opacity="0.1" d="M605.62 499.16V518.56H716.46C721.28 514.88 726.033 511.107 730.72 507.24C733.97 504.56 737.19 501.82 740.46 499.16H605.62Z" fill="#61A199"/>
<path opacity="0.1" d="M605.62 558.16V577.57H617.32C630.453 571.603 643.353 565.133 656.02 558.16H605.62Z" fill="#61A199"/>
<path opacity="0.1" d="M331.74 261.87H359.63V289.76H331.74V261.87Z" fill="#61A199"/>
<path opacity="0.1" d="M225.24 261.87H253.13V289.76H225.24V261.87Z" fill="#61A199"/>
<path opacity="0.1" d="M331.74 330.68H359.63V358.57H331.74V330.68Z" fill="#61A199"/>
<path opacity="0.1" d="M225.24 330.68H253.13V358.57H225.24V330.68Z" fill="#61A199"/>
<path opacity="0.1" d="M331.74 399.48H359.63V427.37H331.74V399.48Z" fill="#61A199"/>
<path opacity="0.1" d="M225.24 399.48H253.13V427.37H225.24V399.48Z" fill="#61A199"/>
<path opacity="0.1" d="M331.74 468.29H359.63V496.18H331.74V468.29Z" fill="#61A199"/>
<path opacity="0.1" d="M225.24 468.29H253.13V496.18H225.24V468.29Z" fill="#61A199"/>
<path opacity="0.1" d="M331.74 537.1H359.63V564.99H331.74V537.1Z" fill="#61A199"/>
<path opacity="0.1" d="M225.24 537.1H253.13V564.99H225.24V537.1Z" fill="#61A199"/>
<path opacity="0.1" d="M359.63 623.89V605.9H331.74V621.33L359.63 623.89Z" fill="#61A199"/>
<path opacity="0.1" d="M699.1 71.16C699.1 71.16 722.93 69.73 720.1 86.43C720.246 87.2762 720.12 88.1469 719.741 88.9174C719.362 89.688 718.749 90.3189 717.99 90.72C717.99 90.72 717.94 89.48 715.54 89.9C714.685 90.0489 713.815 90.0926 712.95 90.03C711.782 89.9509 710.672 89.4907 709.79 88.72C709.79 88.72 703.09 85.95 700.48 75C700.48 75 698.55 72.61 698.63 72L702.63 73.72C702.63 73.72 701.26 76.62 702.34 79.03C702.34 79.03 702.47 73.82 703.24 73.95C703.4 73.95 705.33 74.95 705.33 74.95C705.33 74.95 702.97 80.01 704.75 83.68C704.75 83.68 704.07 77.45 706.07 75.32L708.9 76.97C708.9 76.97 706.14 82.19 708.01 86.45C708.01 86.45 707.53 79.92 709.5 77.37L712.06 79.37C712.06 79.37 709.47 84.52 711.06 88.05C711.06 88.05 711.27 80.45 712.63 79.87C713.601 80.6936 714.471 81.6302 715.22 82.66C715.22 82.66 713.44 86.4 714.54 88.37C714.54 88.37 715.22 83.3 715.77 83.28C715.77 83.28 718.01 86.64 718.24 88.94C718.131 86.8058 717.466 84.7372 716.31 82.94C717.601 83.183 718.794 83.7982 719.74 84.71C719.74 84.71 719.39 82.34 715.74 82.13C715.74 82.13 713.89 79.58 713.4 79.43C713.4 79.43 717.01 79.13 719.2 80.1C719.2 80.1 717.27 77.86 712.74 78.87L710.2 76.81C710.2 76.81 715.02 76.16 717.02 76.86C717.02 76.86 714.7 74.86 709.57 76.32L706.81 74.67C708.934 74.2052 711.108 74.017 713.28 74.11C713.28 74.11 710.73 72.74 706.01 74.23L704.01 73.34C704.01 73.34 707.01 72.76 707.85 72.67C708.69 72.58 708.77 72.33 708.77 72.33C706.888 72.017 704.957 72.2316 703.19 72.95C703.19 72.95 699.02 71.39 699.1 71.16Z" fill="#61A199"/>
<path opacity="0.1" d="M761.68 152.39C761.68 152.39 769.82 174.84 753.01 176.89C752.238 177.268 751.366 177.393 750.519 177.248C749.672 177.103 748.892 176.694 748.29 176.08C748.29 176.08 749.47 175.68 748.38 173.5C748.003 172.719 747.718 171.897 747.53 171.05C747.273 169.909 747.396 168.715 747.88 167.65C747.88 167.65 748.63 160.44 758.4 154.83C758.4 154.83 760.14 152.3 760.75 152.2L760.24 156.54C760.24 156.54 757.07 156.05 755.07 157.77C755.07 157.77 760.07 156.42 760.2 157.19C760.2 157.35 759.83 159.48 759.83 159.48C759.83 159.48 754.31 158.65 751.29 161.41C751.29 161.41 757.07 158.99 759.69 160.3L758.91 163.48C758.91 163.48 753.11 162.31 749.56 165.32C749.56 165.32 755.69 163 758.69 164.17L757.5 167.17C757.5 167.17 751.83 166.17 748.89 168.67C748.89 168.67 756.24 166.67 757.18 167.85C756.668 169.014 756.016 170.112 755.24 171.12C755.24 171.12 751.15 170.48 749.57 172.12C749.57 172.12 754.62 171.33 754.8 171.86C754.8 171.86 752.22 174.96 750.08 175.86C752.089 175.152 753.878 173.932 755.27 172.32C755.397 173.624 755.144 174.937 754.54 176.1C754.54 176.1 756.72 175.1 755.88 171.56C755.88 171.56 757.8 169.06 757.81 168.56C757.81 168.56 759.12 171.93 758.81 174.3C758.81 174.3 760.42 171.82 758.15 167.76L759.42 164.76C759.42 164.76 761.42 169.13 761.27 171.26C761.27 171.26 762.51 168.48 759.67 163.97L760.47 160.86C761.519 162.748 762.315 164.765 762.84 166.86C762.84 166.86 763.43 164.03 760.66 159.92L760.95 157.77C760.95 157.77 762.36 160.45 762.69 161.26C763.02 162.07 763.27 162.05 763.27 162.05C763.039 160.157 762.284 158.367 761.09 156.88C761.09 156.88 761.4 152.4 761.68 152.39Z" fill="#61A199"/>
<path opacity="0.1" d="M603.64 133.48C603.64 133.48 611.79 155.92 594.97 157.97C594.201 158.352 593.33 158.479 592.483 158.334C591.636 158.188 590.858 157.777 590.26 157.16C590.26 157.16 591.43 156.77 590.35 154.58C589.972 153.802 589.683 152.983 589.49 152.14C589.237 150.994 589.364 149.798 589.85 148.73C589.85 148.73 590.6 141.52 600.36 135.91C600.36 135.91 602.1 133.39 602.71 133.28L602.21 137.63C602.21 137.63 599.02 137.16 597.02 138.86C597.02 138.86 602.02 137.5 602.15 138.28C602.15 138.44 601.78 140.57 601.78 140.57C601.78 140.57 596.26 139.74 593.25 142.49C593.25 142.49 599.03 140.07 601.64 141.38L600.86 144.56C600.86 144.56 595.07 143.4 591.52 146.4C591.52 146.4 597.65 144.09 600.64 145.25L599.45 148.25C599.45 148.25 593.78 147.25 590.84 149.74C590.84 149.74 598.2 147.74 599.13 148.92C598.619 150.088 597.967 151.189 597.19 152.2C597.19 152.2 593.1 151.55 591.53 153.2C591.53 153.2 596.58 152.41 596.76 152.93C596.76 152.93 594.17 156.03 592.03 156.93C594.04 156.219 595.829 154.995 597.22 153.38C597.353 154.688 597.099 156.005 596.49 157.17C596.49 157.17 598.67 156.17 597.84 152.62C597.84 152.62 599.76 150.13 599.76 149.62C599.76 149.62 601.08 152.99 600.76 155.37C600.76 155.37 602.36 152.89 600.1 148.83L601.36 145.83C601.36 145.83 603.36 150.2 603.22 152.34C603.22 152.34 604.46 149.55 601.62 145.04L602.41 141.93C603.457 143.819 604.253 145.836 604.78 147.93C604.78 147.93 605.38 145.1 602.61 140.99L602.9 138.85C602.9 138.85 604.3 141.53 604.64 142.34C604.98 143.15 605.21 143.12 605.21 143.12C604.98 141.229 604.229 139.439 603.04 137.95C603.04 137.95 603.37 133.48 603.64 133.48Z" fill="#61A199"/>
<path opacity="0.1" d="M829.55 316.96C829.55 316.96 837.69 339.41 820.88 341.45C820.109 341.831 819.236 341.958 818.388 341.813C817.54 341.667 816.76 341.257 816.16 340.64C816.16 340.64 817.34 340.25 816.25 338.07C815.87 337.29 815.585 336.468 815.4 335.62C815.143 334.475 815.266 333.278 815.75 332.21C815.75 332.21 816.5 325 826.26 319.39C826.26 319.39 828.01 316.87 828.62 316.76L828.11 321.11C828.11 321.11 824.94 320.62 822.93 322.34C822.93 322.34 827.93 320.98 828.07 321.76C828.07 321.92 827.7 324.05 827.7 324.05C827.7 324.05 822.18 323.22 819.16 325.97C819.16 325.97 824.94 323.55 827.56 324.86L826.77 328.04C826.77 328.04 820.98 326.88 817.43 329.88C817.43 329.88 823.56 327.57 826.56 328.73L825.37 331.73C825.37 331.73 819.7 330.73 816.76 333.22C816.76 333.22 824.11 331.22 825.05 332.4C824.538 333.57 823.883 334.671 823.1 335.68C823.1 335.68 819.02 335.03 817.44 336.68C817.44 336.68 822.49 335.89 822.67 336.41C822.67 336.41 820.09 339.51 817.95 340.41C819.956 339.697 821.742 338.474 823.13 336.86C823.263 338.166 823.013 339.483 822.41 340.65C822.41 340.65 824.58 339.65 823.75 336.1C823.75 336.1 825.67 333.61 825.68 333.1C825.68 333.1 826.99 336.48 826.68 338.85C826.68 338.85 828.28 336.37 826.02 332.31L827.28 329.31C827.28 329.31 829.28 333.68 829.14 335.82C829.14 335.82 830.38 333.03 827.54 328.53L828.34 325.41C829.387 327.299 830.183 329.316 830.71 331.41C830.71 331.41 831.3 328.58 828.53 324.47L828.82 322.33C828.82 322.33 830.23 325.01 830.56 325.82C830.89 326.63 831.14 326.6 831.14 326.6C830.903 324.709 830.149 322.92 828.96 321.43C828.96 321.43 829.27 316.96 829.55 316.96Z" fill="#61A199"/>
<path opacity="0.1" d="M861.87 105.36C861.87 105.36 870.02 127.81 853.21 129.86C852.438 130.238 851.566 130.364 850.719 130.218C849.872 130.073 849.092 129.664 848.49 129.05C848.49 129.05 849.66 128.65 848.58 126.47C848.198 125.691 847.913 124.868 847.73 124.02C847.474 122.875 847.597 121.679 848.08 120.61C848.08 120.61 848.83 113.4 858.59 107.8C858.59 107.8 860.33 105.27 860.95 105.17L860.44 109.51C860.44 109.51 857.27 109.02 855.26 110.74C855.26 110.74 860.26 109.39 860.39 110.16C860.39 110.32 860.02 112.45 860.02 112.45C860.02 112.45 854.51 111.62 851.49 114.37C851.49 114.37 857.27 111.96 859.88 113.26L859.1 116.45C859.1 116.45 853.31 115.28 849.76 118.29C849.76 118.29 855.89 115.97 858.88 117.13L857.69 120.13C857.69 120.13 852.02 119.13 849.09 121.62C849.09 121.62 856.44 119.62 857.38 120.81C856.867 121.976 856.212 123.075 855.43 124.08C855.43 124.08 851.35 123.44 849.77 125.08C849.77 125.08 854.82 124.29 855 124.82C855 124.82 852.41 127.92 850.28 128.82C852.286 128.113 854.072 126.892 855.46 125.28C855.592 126.584 855.338 127.899 854.73 129.06C854.73 129.06 856.91 128.06 856.08 124.52C856.08 124.52 858 122.02 858.01 121.52C858.01 121.52 859.32 124.9 859.01 127.27C859.01 127.27 860.61 124.79 858.35 120.73L859.61 117.73C859.61 117.73 861.61 122.1 861.47 124.23C861.47 124.23 862.71 121.45 859.87 116.94L860.67 113.83C861.714 115.72 862.511 117.737 863.04 119.83C863.04 119.83 863.63 116.99 860.86 112.89L861.15 110.74C861.15 110.74 862.55 113.42 862.89 114.23C863.23 115.04 863.47 115.01 863.47 115.01C863.233 113.119 862.479 111.33 861.29 109.84C861.29 109.84 861.6 105.37 861.87 105.36Z" fill="#61A199"/>
<path opacity="0.1" d="M801.44 227.57C801.44 227.57 795.15 250.57 780.24 242.57C779.391 242.436 778.606 242.036 777.997 241.429C777.388 240.822 776.987 240.039 776.85 239.19C776.85 239.19 778.04 239.55 778.41 237.14C778.554 236.283 778.792 235.445 779.12 234.64C779.577 233.56 780.369 232.655 781.38 232.06C781.38 232.06 786.15 226.61 797.38 227.65C797.38 227.65 800.26 226.59 800.81 226.86L797.9 230.12C797.9 230.12 795.59 227.89 792.96 228.12C792.96 228.12 797.85 229.91 797.48 230.6C797.41 230.75 795.86 232.26 795.86 232.26C795.86 232.26 791.86 228.4 787.78 228.91C787.78 228.91 793.9 230.27 795.28 232.84L792.8 235C792.8 235 788.75 230.7 784.11 231.11C784.11 231.11 790.45 232.75 792.23 235.43L789.51 237.22C789.51 237.22 785.51 233.11 781.62 233.47C781.62 233.47 788.76 236.11 788.86 237.58C787.772 238.241 786.607 238.765 785.39 239.14C785.39 239.14 782.39 236.26 780.2 236.67C780.2 236.67 784.78 238.93 784.63 239.47C784.63 239.47 780.73 240.47 778.48 239.99C780.529 240.57 782.695 240.601 784.76 240.08C784.112 241.224 783.146 242.154 781.98 242.76C781.98 242.76 784.34 243.19 785.7 239.82C785.7 239.82 788.7 238.89 789.01 238.47C789.01 238.47 788.14 241.98 786.52 243.74C786.52 243.74 789.26 242.64 789.75 238.02L792.52 236.28C792.52 236.28 791.61 240.99 790.28 242.67C790.28 242.67 792.9 241.11 793.18 235.79L795.63 233.71C795.392 235.869 794.87 237.987 794.08 240.01C794.08 240.01 796.2 238.01 796.31 233.08L797.78 231.5C797.78 231.5 797.38 234.5 797.19 235.35C797 236.2 797.19 236.35 797.19 236.35C798.092 234.671 798.508 232.773 798.39 230.87C798.39 230.87 801.22 227.41 801.44 227.57Z" fill="#61A199"/>
<path opacity="0.1" d="M630.81 248.16C630.81 248.16 624.52 271.16 609.6 263.16C608.752 263.025 607.969 262.626 607.362 262.018C606.755 261.411 606.355 260.628 606.22 259.78C606.22 259.78 607.4 260.14 607.78 257.73C607.915 256.871 608.153 256.032 608.49 255.23C608.942 254.15 609.731 253.245 610.74 252.65C610.74 252.65 615.51 247.2 626.74 248.24C626.74 248.24 629.62 247.18 630.18 247.45L627.26 250.71C627.26 250.71 624.95 248.48 622.32 248.71C622.32 248.71 627.21 250.5 626.85 251.2C626.78 251.34 625.23 252.85 625.23 252.85C625.23 252.85 621.23 248.99 617.15 249.5C617.15 249.5 623.26 250.86 624.64 253.43L622.17 255.59C622.17 255.59 618.11 251.29 613.48 251.7C613.48 251.7 619.82 253.34 621.6 256.02L618.88 257.81C618.88 257.81 614.88 253.7 610.98 254.06C610.98 254.06 618.12 256.7 618.23 258.18C617.138 258.837 615.969 259.358 614.75 259.73C614.75 259.73 611.75 256.85 609.57 257.26C609.57 257.26 614.15 259.53 613.99 260.06C613.99 260.06 610.09 261.06 607.84 260.58C609.889 261.16 612.055 261.191 614.12 260.67C613.476 261.816 612.509 262.748 611.34 263.35C611.34 263.35 613.7 263.78 615.07 260.41C615.07 260.41 618.07 259.48 618.38 259.06C618.38 259.06 617.5 262.57 615.88 264.34C615.88 264.34 618.62 263.23 619.11 258.61L621.88 256.87C621.88 256.87 620.98 261.58 619.65 263.26C619.65 263.26 622.27 261.7 622.55 256.38L624.99 254.3C624.752 256.458 624.234 258.576 623.45 260.6C623.45 260.6 625.57 258.6 625.67 253.67L627.14 252.09C627.14 252.09 626.74 255.09 626.55 255.94C626.36 256.79 626.55 256.94 626.55 256.94C627.452 255.261 627.868 253.363 627.75 251.46C627.75 251.46 630.58 247.95 630.81 248.16Z" fill="#61A199"/>
<path d="M211.07 589.03L201 599.66L185.03 571.52L186.47 568.36L211.07 589.03Z" fill="#61A199"/>
<path opacity="0.2" d="M211.07 589.03L201 599.66L185.03 571.52L186.47 568.36L211.07 589.03Z" fill="black"/>
<path d="M949.55 297.59C949.55 297.59 995.64 349.27 1010.28 392.34L612.28 436.28L399.08 392.34C399.08 392.34 483.52 291.16 506.34 287.25C529.16 283.34 949.55 297.59 949.55 297.59Z" fill="#36334A"/>
<path d="M657.51 429.06L593.63 608.28V562.92L575.85 512.14L526.59 490.33L464.13 518.67L441.79 525.65L439.84 484.31L514.1 447.7L548.67 431.11L627.8 424.21L649.63 420.31L657.51 429.06Z" fill="#3F3D56"/>
<path d="M629.02 447.7L570.9 454.37C573.54 431.16 556.31 431.16 556.31 431.16L614.45 421.1H641.59" fill="#3F3D56"/>
<path d="M593.63 635.84H552.43L433.12 631.84C433.12 631.84 430.54 654.59 399.12 649.24C399.12 649.24 381.82 650.35 379.96 640.95C378.1 631.55 419.36 544.68 419.36 544.68L475.61 502.68L526.61 490.3L563.22 501.07L586.48 538.07L601.12 588.72L593.63 635.84Z" fill="#636780"/>
<path opacity="0.2" d="M593.63 635.84H552.43L433.12 631.84C433.12 631.84 430.54 654.59 399.12 649.24C399.12 649.24 381.82 650.35 379.96 640.95C378.1 631.55 419.36 544.68 419.36 544.68L475.61 502.68L526.61 490.3L563.22 501.07L586.48 538.07L601.12 588.72L593.63 635.84Z" fill="black"/>
<path d="M941.53 309.96C947.43 314.78 966.07 332.07 981.6 368.63C982.138 369.887 982.378 371.252 982.3 372.617C982.222 373.982 981.828 375.311 981.15 376.498C980.471 377.685 979.527 378.699 978.39 379.459C977.254 380.22 975.956 380.706 974.6 380.88L881.02 393.01C877.569 393.459 874.074 392.62 871.203 390.653C868.332 388.687 866.287 385.73 865.46 382.35L849.01 315.24C848.764 314.242 848.751 313.202 848.972 312.198C849.193 311.195 849.642 310.256 850.284 309.453C850.926 308.651 851.743 308.007 852.674 307.571C853.604 307.135 854.623 306.919 855.65 306.94L937.42 308.46C938.92 308.481 940.369 309.009 941.53 309.96Z" fill="#636780"/>
<path d="M805.54 306.79L700.16 305.79C692.57 305.72 685.77 310.79 683.21 318.53L650.35 393.16C647.44 401.9 653.73 411 662.35 410.5L816.17 400.37C828.93 399.63 837.96 386.62 835.01 373.21L823.86 322.54C821.85 313.38 814.29 306.87 805.54 306.79Z" fill="#636780"/>
<path d="M641.73 305.59C612.92 305.07 536.57 302.89 498.59 294.14C498.59 294.14 433.41 343.24 413.88 380.28C413.88 380.28 515.48 405.01 585.65 408.36C590.854 408.6 596.013 407.306 600.488 404.64C604.962 401.973 608.555 398.051 610.82 393.36L648.13 316.04C648.667 314.942 648.919 313.727 648.861 312.506C648.803 311.286 648.439 310.099 647.8 309.057C647.162 308.015 646.271 307.151 645.21 306.545C644.149 305.939 642.952 305.61 641.73 305.59Z" fill="#636780"/>
<path opacity="0.1" d="M605.2 316.78C593.2 316.57 569.79 315.95 546.93 314.24C530.095 312.957 513.192 315.582 497.539 321.912C481.887 328.242 467.91 338.105 456.7 350.73L455.96 351.57C454.337 353.44 453.229 355.702 452.747 358.131C452.265 360.56 452.424 363.073 453.21 365.421C453.995 367.77 455.38 369.873 457.226 371.523C459.073 373.173 461.318 374.313 463.74 374.83C488.96 380.24 531.92 388.5 565.08 390.1C568.812 390.288 572.518 389.372 575.732 387.465C578.946 385.558 581.526 382.746 583.15 379.38L609.77 324.21C610.148 323.428 610.322 322.563 610.278 321.695C610.234 320.828 609.972 319.985 609.517 319.245C609.062 318.505 608.428 317.892 607.674 317.461C606.919 317.03 606.069 316.796 605.2 316.78Z" fill="white"/>
<path d="M593.63 608.28V635.84L898.29 589.33C913.22 584.16 922.13 587.33 922.13 587.33C933.13 581.96 941.13 561.01 941.36 560.33L935.61 543.68L982.31 466.44L1044.44 469.02C1034.67 390.91 1006.54 387.18 1006.54 387.18L641.54 421.06L593.63 608.28Z" fill="#3F3D56"/>
<path opacity="0.1" d="M659.29 443.77C661.68 446.39 666.05 448.77 674.11 448.55C686.46 448.25 688.8 437.71 689.11 431.42C689.188 429.879 689.144 428.334 688.98 426.8L672.8 421.85L669.49 424.94L659.72 434.09C658.393 435.325 657.605 437.031 657.524 438.842C657.444 440.653 658.078 442.422 659.29 443.77Z" fill="black"/>
<path d="M659.29 442.91C661.68 445.53 666.05 447.91 674.11 447.69C686.46 447.39 688.8 436.85 689.11 430.56C689.188 429.019 689.144 427.474 688.98 425.94L672.8 420.99L669.49 424.08L659.72 433.23C658.393 434.465 657.605 436.171 657.524 437.982C657.444 439.793 658.078 441.562 659.29 442.91Z" fill="#DCE0ED"/>
<path opacity="0.1" d="M669.48 424.08C671.55 429.35 677.67 430.78 677.67 430.78L689.1 430.56C689.178 429.019 689.135 427.474 688.97 425.94L672.79 420.99L669.48 424.08Z" fill="black"/>
<path d="M710.72 383.73C710.72 383.73 736.56 387.19 729.67 410.55C724.45 428.25 712.8 429.44 707.46 428.99C704.351 428.712 701.23 428.598 698.11 428.65L677.68 429.06C677.68 429.06 666.14 426.37 669.37 414.74C672.6 403.11 687.46 381.79 710.72 383.73Z" fill="#F0F0F4"/>
<path opacity="0.2" d="M850.63 454.37C844.047 454.37 838.71 447.426 838.71 438.86C838.71 430.294 844.047 423.35 850.63 423.35C857.213 423.35 862.55 430.294 862.55 438.86C862.55 447.426 857.213 454.37 850.63 454.37Z" fill="black"/>
<path opacity="0.1" d="M830.113 436.053L864.04 432.433C866.924 432.125 869.51 434.213 869.818 437.096L869.819 437.106C870.126 439.989 868.039 442.576 865.155 442.883L831.228 446.503C828.345 446.811 825.758 444.723 825.451 441.84L825.45 441.83C825.142 438.947 827.23 436.36 830.113 436.053Z" fill="black"/>
<path d="M830.111 435.187L864.039 431.567C866.922 431.26 869.509 433.348 869.816 436.231L869.817 436.241C870.125 439.124 868.037 441.71 865.154 442.018L831.226 445.638C828.343 445.946 825.757 443.858 825.449 440.975L825.448 440.965C825.14 438.081 827.228 435.495 830.111 435.187Z" fill="#F0F0F4"/>
<path opacity="0.1" d="M593.63 607.42V634.98L898.29 588.46C913.22 583.3 922.13 586.46 922.13 586.46C933.13 581.09 941.13 560.14 941.36 559.46L921.11 559.03L862.53 567.21L649.62 597.79C649.62 597.79 611.86 602.1 609.71 603.79C607.56 605.48 593.63 607.42 593.63 607.42Z" fill="black"/>
<path d="M593.63 608.28V635.84L898.29 589.33C913.22 584.16 922.13 587.33 922.13 587.33C933.13 581.96 941.13 561.01 941.36 560.33L921.11 559.9L862.53 568.08L649.62 598.66C649.62 598.66 611.86 602.97 609.71 604.66C607.56 606.35 593.63 608.28 593.63 608.28Z" fill="#36334A"/>
<path opacity="0.2" d="M862.96 568.16C881.89 507.38 880.88 464.99 876.7 440.16C872.16 413.16 862.98 400.43 862.89 400.31L862.2 400.82C862.29 400.94 871.36 413.58 875.86 440.38C880.02 465.16 881.02 507.33 862.13 567.95L862.96 568.16Z" fill="black"/>
<path d="M179.58 541.53C178.82 544.36 177.05 552.18 179.86 554.29C180.93 555.09 181.86 557.06 182.58 559.4C183.707 563.371 184.523 567.423 185.02 571.52L214.32 604.25L263.85 623.64L382.3 631.82L453.8 515.53L614.45 421.05L570.59 418.62C526.72 416.18 402.19 388.62 402.19 388.62L261.32 419.74C238.537 424.737 218.41 437.992 204.82 456.95C187.67 480.95 179.82 506.95 179.82 506.95C177.7 509.49 176.88 513.65 176.76 518.21C176.6 525.64 178.3 534.1 179.23 538.14C179.58 539.65 179.82 540.55 179.82 540.55C179.82 540.55 179.74 540.89 179.58 541.53Z" fill="#3F3D56"/>
<path opacity="0.1" d="M609.72 602.96C609.72 602.96 618.33 510.83 553.72 485.83C553.72 485.83 462.84 447.47 409.43 551.71L382.3 611.16C382.3 611.16 374.55 625.8 353.44 625.37C353.44 625.37 253.95 622.37 201.44 588.76L185.07 569.76C185.07 569.76 193.25 596.46 201.44 602.49C201.44 602.49 233.74 640.39 351.33 647.29C351.33 647.29 399.42 652.45 413.92 606.8C413.92 606.8 433.59 503.43 533.52 504.29C533.52 504.29 592.23 505.44 593.67 606.51L609.72 602.96Z" fill="black"/>
<path d="M609.72 604.68C609.72 604.68 618.33 512.56 553.72 487.55C553.72 487.55 462.84 449.2 409.43 553.43L382.3 612.87C382.3 612.87 374.55 627.51 353.44 627.08C353.44 627.08 253.95 624.08 201.44 590.47L185.02 571.52C185.02 571.52 193.2 598.22 201.39 604.25C201.39 604.25 233.69 642.16 351.28 649.05C351.28 649.05 399.37 654.22 413.87 608.56C413.87 608.56 433.54 505.19 533.47 506.05C533.47 506.05 592.18 507.21 593.62 608.28L609.72 604.68Z" fill="#36334A"/>
<path opacity="0.2" d="M624.64 601.9L628.53 473.73C628.006 465.052 628.341 456.343 629.53 447.73C629.65 447.19 632.74 433.97 636.87 426.46C639.52 422.59 641.77 421.41 641.87 421.39L644.16 420.77L641.6 420.58C639.83 420.92 638.15 422.76 636.6 425.33C633.78 429.2 630.46 436 628.71 447.59C627.514 456.232 627.179 464.972 627.71 473.68L623.82 601.82L624.64 601.9Z" fill="black"/>
<path opacity="0.2" d="M545.55 506.84L546.39 506.98C546.39 506.88 548.18 496.25 554.08 487.8C566.45 470.09 570.49 458.08 570.95 450.06C571.175 447.281 570.834 444.484 569.95 441.84C568.02 436.43 562.85 432.43 555.83 430.45L554.33 430.7C561.08 432.6 567.33 437 569.18 442.13C570.063 444.737 570.403 447.497 570.18 450.24C569.68 458.09 565.63 469.87 553.46 487.32C547.36 495.92 545.56 506.73 545.55 506.84Z" fill="black"/>
<path opacity="0.2" d="M269.67 465.07C324.55 432.32 440.73 401.86 441.9 401.56L441.68 400.72C440.51 401.03 324.21 431.52 269.23 464.33L269.67 465.07Z" fill="black"/>
<path opacity="0.2" d="M189.88 510.46C210.6 474.01 266.39 443.96 309.55 425.16C338.744 412.533 368.688 401.712 399.21 392.76L398.98 391.93C368.419 400.891 338.439 411.725 309.21 424.37C265.93 443.22 209.97 473.37 189.13 510.03L189.88 510.46Z" fill="black"/>
<path opacity="0.1" d="M188.573 500.045C184.198 496.748 192.005 479.008 206.011 460.421C220.018 441.834 234.919 429.439 239.294 432.736C243.67 436.033 235.863 453.774 221.856 472.361C207.85 490.948 192.949 503.342 188.573 500.045Z" fill="black"/>
<path d="M188.568 498.322C184.193 495.025 192 477.284 206.006 458.697C220.013 440.11 234.914 427.715 239.289 431.013C243.665 434.31 235.858 452.05 221.851 470.637C207.845 489.224 192.944 501.619 188.568 498.322Z" fill="#DCE0ED"/>
<path opacity="0.1" d="M191.843 492.549C189.003 490.409 196.077 476.231 207.643 460.881C219.21 445.532 230.889 434.824 233.73 436.964C236.57 439.105 229.496 453.283 217.93 468.633C206.363 483.982 194.684 494.69 191.843 492.549Z" fill="black"/>
<path d="M191.841 491.693C189 489.552 196.074 475.374 207.641 460.024C219.207 444.675 230.886 433.967 233.727 436.108C236.567 438.248 229.494 452.426 217.927 467.776C206.36 483.125 194.681 493.833 191.841 491.693Z" fill="#F0F0F4"/>
<path opacity="0.1" d="M317.48 530.82C317.48 530.82 314.68 509.71 298.09 504.97C298.09 504.97 241.67 488.65 229.39 488.41C229.39 488.41 216.69 484.52 208.29 493.99L199.68 505.62C199.68 505.62 193.68 515.1 207 516.82C207 516.82 275.19 541.82 304.76 544.42C306.441 544.572 308.111 544.826 309.76 545.18C314.08 546.08 323.15 546.34 317.48 530.82Z" fill="black"/>
<path d="M316.61 529.96C316.61 529.96 313.81 508.85 297.23 504.11C297.23 504.11 240.81 487.79 228.53 487.55C228.53 487.55 215.83 483.65 207.43 493.13L198.81 504.76C198.81 504.76 192.81 514.23 206.14 515.96C206.14 515.96 274.32 540.96 303.89 543.56C305.57 543.712 307.24 543.965 308.89 544.32C313.22 545.22 322.29 545.48 316.61 529.96Z" fill="#F0F0F4"/>
<path opacity="0.1" d="M310.67 528.16C310.67 528.16 308.06 510.11 292.67 506.06C292.67 506.06 240.21 492.06 228.8 491.89C228.8 491.89 216.99 488.56 209.18 496.66L201.18 506.61C201.18 506.61 195.58 514.72 207.99 516.19C207.99 516.19 271.38 537.59 298.87 539.8C300.417 539.932 301.956 540.149 303.48 540.45C307.51 541.16 315.94 541.42 310.67 528.16Z" fill="black"/>
<path d="M309.8 527.28C309.8 527.28 307.2 509.28 291.8 505.18C291.8 505.18 239.34 491.18 227.93 491.01C227.93 491.01 216.12 487.67 208.31 495.78L200.31 505.78C200.31 505.78 194.71 513.88 207.12 515.36C207.12 515.36 270.52 536.76 298.01 538.97C299.551 539.102 301.084 539.319 302.6 539.62C306.65 540.34 315.08 540.56 309.8 527.28Z" fill="#636780"/>
<path d="M305.37 516.16L305.48 515.3C304.71 515.21 228.09 505.69 211.6 492.96L211.07 493.64C227.75 506.49 302.21 515.75 305.37 516.16Z" fill="#F0F0F4"/>
<path d="M309.4 526.08L309.55 525.23C308.71 525.08 224.42 509.47 206.24 498.23L205.78 498.96C224.1 510.29 308.55 525.92 309.4 526.08Z" fill="#F0F0F4"/>
<path d="M311.39 534.25L311.55 533.41C310.55 533.22 213.55 514.91 201.55 504.18L200.98 504.82C213.11 515.71 307.39 533.5 311.39 534.25Z" fill="#F0F0F4"/>
<path opacity="0.1" d="M210.44 534.69C210.44 534.69 247 549.94 285.44 556.78C288.84 557.393 292.203 558.153 295.53 559.06C299.43 560.12 304.97 561.32 307.98 560.54C312.93 559.24 315.67 565.27 310.32 570.01L309.98 570.31C308.046 572.011 305.79 573.304 303.344 574.111C300.899 574.919 298.316 575.225 295.75 575.01L287.52 574.32C287.52 574.32 220.75 559.68 202.13 548.26C202.13 548.26 193.63 542.43 192.98 535.87C192.33 529.31 191.56 524.14 198.3 528.02C205.04 531.9 210.44 534.69 210.44 534.69Z" fill="black"/>
<path d="M209.62 533.85C210.98 534.41 246.87 549.21 284.62 555.92C288.02 556.527 291.383 557.287 294.71 558.2C298.6 559.26 304.15 560.46 307.16 559.68C312.16 558.38 314.85 564.41 309.5 569.15L309.34 569.29C307.35 571.051 305.025 572.39 302.503 573.227C299.982 574.064 297.317 574.382 294.67 574.16L286.75 573.5H286.62C284.33 573 219.62 558.69 201.32 547.5H201.25C200.68 547.09 192.76 541.45 192.14 535.13C191.49 528.57 190.71 523.4 197.46 527.28C203.87 530.96 209.06 533.68 209.54 533.93L209.62 533.85Z" fill="#F0F0F4"/>
<path opacity="0.1" d="M214.5 538.67C214.5 538.67 244.5 551.15 276.71 558.24C279.91 558.94 283.08 559.76 286.23 560.67C289.38 561.58 293.88 562.67 296.38 562.35C300.66 561.78 302.7 566.05 297.9 568.92L297.75 569.01C294.117 571.18 289.85 572.041 285.66 571.45L278.24 570.45C278.24 570.45 222.05 556.31 206.75 547.39C206.75 547.39 199.75 542.9 199.57 538.39C199.39 533.88 198.95 530.39 204.5 533.39C210.05 536.39 214.5 538.67 214.5 538.67Z" fill="black"/>
<path d="M213.65 537.81C214.29 538.08 243.99 550.36 275.84 557.38C279.04 558.08 282.22 558.9 285.37 559.81C288.52 560.72 293.01 561.81 295.52 561.49C299.8 560.92 301.84 565.18 297.03 568.06C293.305 570.289 288.929 571.174 284.63 570.57L277.41 569.57C276.25 569.28 221.11 555.35 205.95 546.57C205.71 546.41 198.95 542 198.78 537.57C198.61 533.14 198.16 529.52 203.71 532.57C209.26 535.62 213.46 537.73 213.71 537.85L213.65 537.81Z" fill="#636780"/>
<path opacity="0.1" d="M335.974 574.787C335.661 568.541 339.156 563.29 343.778 563.059C348.401 562.828 352.401 567.704 352.714 573.951C353.026 580.197 349.532 585.448 344.909 585.679C340.287 585.91 336.286 581.034 335.974 574.787Z" fill="black"/>
<path d="M336.217 574.734C335.907 568.495 339.398 563.252 344.015 563.022C348.632 562.792 352.626 567.663 352.937 573.902C353.247 580.14 349.756 585.384 345.139 585.614C340.522 585.844 336.528 580.973 336.217 574.734Z" fill="#F0F0F4"/>
<path opacity="0.1" d="M295.16 582.93C295.16 582.93 339.01 589.61 350.64 590.26C362.27 590.91 364.02 597.36 364.02 597.36C364.02 597.36 366.82 613.73 350.67 608.99L293.39 602.53C293.39 602.53 285.63 602.75 285.63 592.19V589.82C285.607 588.494 285.473 587.173 285.23 585.87C284.92 584.22 285.77 581.54 295.16 582.93Z" fill="black"/>
<path d="M294.3 582.07C294.3 582.07 338.15 588.75 349.78 589.39C361.41 590.03 363.13 596.5 363.13 596.5C363.13 596.5 365.93 612.87 349.78 608.13L292.49 601.67C292.49 601.67 284.74 601.89 284.74 591.33V588.96C284.717 587.635 284.583 586.313 284.34 585.01C284.02 583.36 284.91 580.68 294.3 582.07Z" fill="#F0F0F4"/>
<path d="M179.86 554.29C180.93 555.09 181.86 557.06 182.58 559.4L196.78 569.46C196.953 569.583 197.157 569.655 197.368 569.67C197.58 569.685 197.792 569.642 197.98 569.545C198.169 569.448 198.328 569.301 198.439 569.121C198.55 568.94 198.609 568.732 198.61 568.52V557.96C198.611 556.446 198.22 554.958 197.475 553.641C196.731 552.323 195.657 551.22 194.36 550.44L179.58 541.53C178.82 544.36 177.02 552.16 179.86 554.29Z" fill="#F0F0F4"/>
<path d="M280.36 583.48L281.02 594.16C281.104 595.224 280.948 596.293 280.563 597.289C280.178 598.285 279.575 599.181 278.797 599.913C278.02 600.644 277.088 601.191 276.071 601.515C275.054 601.838 273.977 601.928 272.92 601.78C248.737 597.923 225.49 589.572 204.38 577.16L202.51 555.34C202.456 554.808 202.542 554.271 202.759 553.782C202.976 553.293 203.318 552.869 203.749 552.553C204.181 552.237 204.687 552.039 205.219 551.978C205.751 551.918 206.289 551.998 206.78 552.21C218.78 557.56 250.95 571.27 271.37 573.89C273.746 574.204 275.94 575.33 277.579 577.079C279.218 578.827 280.2 581.089 280.36 583.48Z" fill="#636780"/>
<path d="M273.76 577.98V595.34C273.76 595.34 220.35 582.72 208.51 574.21V557.74C229.308 567.24 251.236 574.041 273.76 577.98Z" fill="#3F3D56"/>
<path d="M180.13 538.97C182.84 538.78 185.01 534.13 185.01 528.44C185.01 522.75 182.75 517.9 180.01 517.9C179.571 517.92 179.14 518.03 178.746 518.225C178.352 518.419 178.003 518.694 177.72 519.03C177.5 526.46 179.2 534.92 180.13 538.97Z" fill="#61A199"/>
<path d="M179.27 538.1C181.98 537.92 184.14 533.27 184.14 527.58C184.14 521.89 181.89 517.03 179.14 517.03C178.699 517.053 178.267 517.166 177.872 517.362C177.476 517.558 177.125 517.833 176.84 518.17C176.64 525.6 178.34 534.06 179.27 538.1Z" fill="#F0F0F4"/>
<path d="M424.94 611.68C424.94 706.33 464.94 708.38 517.11 708.38C558.79 708.38 575.85 665.09 575.85 611.68C575.85 558.27 562.46 515.1 520.79 515.1C479.12 515.1 424.94 558.28 424.94 611.68Z" fill="#636780"/>
<path opacity="0.2" d="M424.94 611.68C424.94 706.33 464.94 708.38 517.11 708.38C558.79 708.38 575.85 665.09 575.85 611.68C575.85 558.27 562.46 515.1 520.79 515.1C479.12 515.1 424.94 558.28 424.94 611.68Z" fill="black"/>
<path d="M523.27 708.38C494.231 708.38 470.69 665.086 470.69 611.68C470.69 558.274 494.231 514.98 523.27 514.98C552.309 514.98 575.85 558.274 575.85 611.68C575.85 665.086 552.309 708.38 523.27 708.38Z" fill="#636780"/>
<path d="M514.1 615.72C514.1 650.49 521.51 678.34 536.9 678.34C552.29 678.34 570.59 650.15 570.59 615.34C570.59 580.53 564.19 549.98 548.8 549.98C533.41 549.98 514.1 580.95 514.1 615.72Z" fill="#F0F0F4"/>
<path d="M514.1 614.41C514.1 617.077 514.154 619.667 514.26 622.18C514.482 628.812 515.204 635.417 516.42 641.94C518.91 654.74 523.42 663.62 530.13 665.32C530.907 665.505 531.702 665.599 532.5 665.6C535.72 665.6 539.1 664.06 542.34 661.26C548.72 655.77 554.54 645.47 557.55 632.71C558.654 627.944 559.323 623.087 559.55 618.2C559.62 616.86 559.66 615.5 559.66 614.12C559.744 604.692 559.048 595.273 557.58 585.96C556.768 580.45 555.235 575.07 553.02 569.96C550.3 564.15 546.69 560.69 542.07 560.69C538.96 560.69 535.65 562.28 532.43 565.11C528.58 568.5 524.87 573.65 521.81 579.98C516.729 590.746 514.096 602.505 514.1 614.41Z" fill="#636780"/>
<path d="M514.26 622.16C514.481 628.792 515.204 635.397 516.42 641.92C516.73 641.42 525.42 627.74 532 636.52C536.8 642.96 532.76 657.61 530.13 665.3C530.906 665.485 531.702 665.579 532.5 665.58C535.72 665.58 539.1 664.04 542.34 661.24V660.24C542.34 660.24 538.47 643.85 548.8 633.75C548.8 633.75 553.8 631.04 557.55 632.67C558.653 627.904 559.322 623.047 559.55 618.16C558.67 617.21 552.63 610.16 555.1 596.93C556.04 591.93 556.88 588.36 557.58 585.93C556.768 580.42 555.235 575.04 553.02 569.93C553.02 569.93 551.02 584.57 543.44 585.43C535.86 586.29 532.53 565.65 532.44 565.08C528.59 568.47 524.88 573.62 521.82 579.95C521.82 579.95 533.95 586.81 530.41 605.04C527.92 618.01 519.13 621.33 514.26 622.16Z" fill="#F0F0F4"/>
<path d="M541.52 626.302C538.371 626.044 536.307 619.869 536.91 612.51C537.512 605.151 540.553 599.393 543.701 599.651C546.85 599.909 548.914 606.084 548.311 613.443C547.709 620.803 544.668 626.56 541.52 626.302Z" fill="#636780"/>
<path opacity="0.2" d="M397.39 464.31L397.74 465.1C398.08 464.94 427.86 452.1 538.29 433.36C543.45 432.487 548.783 431.597 554.29 430.69C554.8 430.62 555.29 430.53 555.82 430.45C573.49 427.57 593 424.58 614.52 421.45L614.4 420.59C585.25 424.79 559.8 428.79 537.6 432.59C427.45 451.31 397.74 464.16 397.39 464.31Z" fill="black"/>
<path opacity="0.1" d="M957.16 300.67C957.16 300.67 947.16 283.67 912.94 282.16C912.94 282.16 662.84 249.49 504.94 283.44C504.94 283.44 491.46 289.44 506.09 292.96C520.72 296.48 856.95 308.65 957.16 300.67Z" fill="black"/>
<path d="M957.16 298.95C957.16 298.95 947.16 281.95 912.94 280.43C912.94 280.43 662.84 247.77 504.94 281.72C504.94 281.72 491.46 287.72 506.09 291.24C520.72 294.76 856.95 306.93 957.16 298.95Z" fill="white"/>
<path opacity="0.1" d="M980.57 370.36C965.04 333.8 946.4 316.51 940.5 311.68C939.34 310.735 937.896 310.207 936.4 310.18L854.58 308.66C853.474 308.635 852.38 308.888 851.397 309.394C850.413 309.901 849.572 310.645 848.95 311.56C849.394 310.196 850.264 309.01 851.433 308.179C852.601 307.347 854.006 306.913 855.44 306.94L937.26 308.46C938.757 308.48 940.203 309.009 941.36 309.96C947.26 314.78 965.9 332.07 981.43 368.63C982.002 369.962 982.237 371.415 982.113 372.859C981.989 374.303 981.511 375.695 980.72 376.91C981.515 374.789 981.461 372.443 980.57 370.36Z" fill="black"/>
<path opacity="0.1" d="M833.29 374.44L822.14 323.77C820.14 314.6 812.56 308.1 803.82 308.02L698.44 307.02C694.423 306.992 690.526 308.388 687.44 310.96C689.053 309.207 691.014 307.808 693.197 306.852C695.379 305.897 697.737 305.406 700.12 305.41L805.5 306.41C814.25 306.5 821.81 313 823.82 322.17L835.02 372.83C835.96 376.916 835.766 381.18 834.458 385.164C833.151 389.147 830.779 392.697 827.6 395.43C830.193 392.664 832.068 389.304 833.061 385.644C834.053 381.984 834.131 378.137 833.29 374.44Z" fill="black"/>
<path opacity="0.1" d="M605.44 395.78L642.74 318.46C643.268 317.364 643.512 316.153 643.45 314.938C643.388 313.723 643.022 312.543 642.384 311.506C641.747 310.47 640.86 309.61 639.804 309.006C638.747 308.402 637.556 308.074 636.34 308.05C607.93 307.53 533.26 305.4 494.78 296.95C497.2 295.06 498.59 294.01 498.59 294.01C536.59 302.76 612.92 304.94 641.73 305.46C642.946 305.484 644.137 305.812 645.194 306.416C646.25 307.02 647.137 307.88 647.774 308.916C648.411 309.953 648.778 311.133 648.84 312.348C648.902 313.563 648.658 314.774 648.13 315.87L610.82 393.16C609.298 396.321 607.166 399.149 604.547 401.483C601.929 403.817 598.874 405.61 595.56 406.76C599.825 404.107 603.251 400.3 605.44 395.78Z" fill="black"/>
<path d="M593.63 604.68H609.71V609.63H593.63V604.68Z" fill="#36334A"/>
<path opacity="0.1" d="M533.48 674.48C549.1 674.48 567.68 646.23 567.68 611.38C567.68 587.49 564.68 565.57 557.68 554.15C566.68 563.84 570.55 588.28 570.55 615.24C570.55 650.09 551.97 678.34 536.35 678.34C531.07 678.34 526.72 675.14 523.27 669.58C526.17 672.74 529.57 674.48 533.48 674.48Z" fill="black"/>
<path opacity="0.1" d="M347.736 539.104C337.684 529.052 345.443 504.995 365.067 485.371C384.691 465.747 408.748 457.988 418.8 468.04C428.852 478.092 421.093 502.149 401.469 521.773C381.845 541.397 357.788 549.156 347.736 539.104Z" fill="black"/>
<path d="M346.875 538.248C336.823 528.196 344.583 504.139 364.207 484.515C383.831 464.891 407.888 457.132 417.94 467.184C427.992 477.236 420.232 501.293 400.609 520.917C380.985 540.541 356.928 548.3 346.875 538.248Z" fill="#DCE0ED"/>
<path opacity="0.1" d="M349.79 532.12C342.421 524.751 349.946 505.278 366.598 488.626C383.25 471.974 402.723 464.449 410.092 471.818C417.462 479.187 409.936 498.66 393.285 515.312C376.633 531.964 357.16 539.489 349.79 532.12Z" fill="black"/>
<path d="M349.788 531.252C342.419 523.883 349.944 504.41 366.596 487.758C383.248 471.106 402.721 463.581 410.09 470.95C417.46 478.319 409.935 497.792 393.283 514.444C376.631 531.096 357.158 538.621 349.788 531.252Z" fill="#F0F0F4"/>
<path d="M81.5501 668.29C81.5501 668.29 123.83 665.74 118.85 695.37C118.85 695.37 119.85 700.6 115.09 702.98C115.09 702.98 115.02 700.79 110.75 701.53C109.234 701.786 107.693 701.86 106.16 701.75C104.087 701.611 102.116 700.796 100.55 699.43C100.55 699.43 88.6601 694.52 84.0401 675.1C84.0401 675.1 80.6201 670.86 80.7601 669.77L87.8901 672.77C87.8901 672.77 85.4501 677.92 87.3701 682.2C87.3701 682.2 87.6 672.96 88.97 673.2C89.25 673.2 92.6801 674.98 92.6801 674.98C92.6801 674.98 88.4801 683.98 91.6801 690.46C91.6801 690.46 90.4801 679.46 94.0201 675.63L99.0201 678.56C99.0201 678.56 94.1201 687.82 97.4401 695.38C97.4401 695.38 96.5902 683.79 100.08 679.27L104.63 682.82C104.63 682.82 100.02 691.95 102.83 698.22C102.83 698.22 103.2 684.73 105.62 683.71C105.62 683.71 109.62 687.22 110.2 688.66C110.2 688.66 107.05 695.28 109.01 698.78C109.01 698.78 110.21 689.78 111.19 689.78C111.19 689.78 115.19 695.78 115.57 699.78C115.57 699.78 115.4 693.71 112.15 689.17C114.438 689.604 116.548 690.699 118.22 692.32C118.22 692.32 117.61 688.11 111.22 687.74C111.22 687.74 107.94 683.22 107.07 682.95C107.07 682.95 113.47 682.41 117.35 684.13C117.35 684.13 113.93 680.13 105.89 681.96L101.4 678.3C101.4 678.3 109.83 677.14 113.4 678.42C113.4 678.42 109.29 674.9 100.19 677.42L95.3001 674.5C95.3001 674.5 102.48 672.95 106.76 673.5C106.76 673.5 102.25 671.06 93.8601 673.7L90.3701 672.13C90.3701 672.13 95.6301 671.13 97.1701 670.94C98.7101 670.75 98.8001 670.35 98.8001 670.35C95.4652 669.794 92.0414 670.175 88.9101 671.45C88.9101 671.45 81.4301 668.76 81.5501 668.29Z" fill="#61A199"/>
<path opacity="0.1" d="M110.67 710.62C94.1455 710.62 80.7498 708.355 80.7498 705.56C80.7498 702.765 94.1455 700.5 110.67 700.5C127.194 700.5 140.59 702.765 140.59 705.56C140.59 708.355 127.194 710.62 110.67 710.62Z" fill="#61A199"/>
<path opacity="0.1" d="M16.8702 614.09C7.5532 614.09 0.000244141 612.814 0.000244141 611.24C0.000244141 609.666 7.5532 608.39 16.8702 608.39C26.1873 608.39 33.7402 609.666 33.7402 611.24C33.7402 612.814 26.1873 614.09 16.8702 614.09Z" fill="#61A199"/>
<path d="M141.14 604.72C141.14 604.72 169.92 602.99 166.53 623.15C166.705 624.174 166.551 625.228 166.092 626.16C165.632 627.092 164.889 627.855 163.97 628.34C163.97 628.34 163.92 626.84 160.97 627.34C159.936 627.515 158.886 627.565 157.84 627.49C156.429 627.392 155.088 626.837 154.02 625.91C154.02 625.91 145.93 622.57 142.78 609.35C142.78 609.35 140.46 606.46 140.55 605.72L145.4 607.79C145.4 607.79 143.75 611.3 145.05 614.21C145.05 614.21 145.21 607.92 146.14 608.07C146.33 608.07 148.66 609.28 148.66 609.28C148.66 609.28 145.81 615.39 147.96 619.82C147.96 619.82 147.15 612.3 149.56 609.73L152.97 611.73C152.97 611.73 149.64 618.04 151.9 623.18C151.9 623.18 151.32 615.29 153.69 612.18L156.79 614.59C156.79 614.59 153.66 620.81 155.57 625.07C155.57 625.07 155.82 615.89 157.46 615.19C157.46 615.19 160.17 617.58 160.59 618.57C160.59 618.57 158.44 623.08 159.77 625.46C159.77 625.46 160.59 619.34 161.26 619.31C161.26 619.31 163.96 623.31 164.26 626.14C164.125 623.571 163.322 621.083 161.93 618.92C163.488 619.217 164.927 619.96 166.07 621.06C166.07 621.06 165.65 618.2 161.27 617.95C161.27 617.95 159.03 614.87 158.44 614.68C158.44 614.68 162.79 614.32 165.44 615.49C165.44 615.49 163.11 612.79 157.64 614.02L154.58 611.52C154.58 611.52 160.32 610.73 162.75 611.6C162.75 611.6 159.95 609.21 153.75 610.95L150.42 608.95C150.42 608.95 155.31 607.9 158.22 608.28C158.22 608.28 155.15 606.62 149.44 608.42L147.06 607.35C147.06 607.35 150.64 606.64 151.69 606.53C152.74 606.42 152.8 606.13 152.8 606.13C150.531 605.752 148.201 606.012 146.07 606.88C146.07 606.88 141.02 605.04 141.14 604.72Z" fill="#61A199"/>
<path opacity="0.1" d="M160.96 633.53C149.71 633.53 140.59 631.99 140.59 630.09C140.59 628.19 149.71 626.65 160.96 626.65C172.21 626.65 181.33 628.19 181.33 630.09C181.33 631.99 172.21 633.53 160.96 633.53Z" fill="#61A199"/>
<path d="M479.02 384.79C476.16 377.11 481.26 369.02 481.26 369.02L481.67 351.44C479.42 346.79 487.17 335.27 487.17 335.27C487.17 335.27 489.01 326.57 490.64 325.77C492.27 324.97 494.1 321.32 494.1 321.32C494.112 320.817 494.264 320.328 494.54 319.907C494.815 319.486 495.203 319.151 495.66 318.94C498.56 313.695 501.047 308.231 503.1 302.6C504.24 299.48 505.25 296.15 504.6 292.89C504.416 292.067 504.172 291.258 503.87 290.47C503.8 290.3 503.74 290.14 503.68 289.97C503.62 289.8 503.68 289.83 503.6 289.77L503.53 289.59C502.763 287.966 502.354 286.196 502.33 284.4C502.56 280.65 506.01 277.91 509.44 276.32C512.87 274.73 516.72 273.7 519.44 271.05C522.82 267.74 523.6 262.71 524.44 258.05C525.28 253.39 526.44 248.36 530.26 245.56C533.64 243.08 538.26 243.03 542.39 243.73C547.983 244.686 553.312 246.808 558.03 249.96C562.58 253.02 566.64 257.07 571.9 258.66C573.83 259.24 575.9 259.47 577.78 260.1C579.794 260.824 581.624 261.985 583.136 263.5C584.649 265.014 585.808 266.845 586.53 268.86C586.6 269.05 586.65 269.24 586.72 269.43C586.79 269.62 586.88 269.9 586.95 270.14C587.02 270.38 587.05 270.55 587.09 270.75C587.13 270.95 587.21 271.22 587.25 271.46C587.29 271.7 587.32 271.87 587.34 272.07C587.36 272.27 587.41 272.56 587.43 272.8C587.45 273.04 587.43 273.2 587.43 273.4C587.43 273.6 587.43 273.91 587.43 274.16C589.615 276.22 591.501 278.576 593.03 281.16C599.75 291.82 608.12 307.23 611.84 314.16L612.02 314.5V314.29C612.02 314.29 628.43 330.76 618.85 328.54C618.19 328.385 617.522 328.265 616.85 328.18L617.02 330.06V330.11C618.55 332.03 625.18 338.67 612.85 343.59C602.62 347.67 581.71 348.71 574.85 348.95L575.45 351.84C586.05 360.53 581.97 370.44 582.17 376.91C582.37 383.38 583.4 391.06 583.4 391.06C583.4 391.06 587.89 398.34 587.27 402.18C586.65 406.02 590.53 412.29 590.53 412.29C590.53 412.29 596.24 418.55 595.63 422.6C595.02 426.65 596.63 431.89 596.63 431.89C596.63 431.89 600.5 438.97 598.87 443.01C597.24 447.05 598.05 449.28 598.05 449.28C598.05 449.28 606.41 450.49 607.05 454.94C607.69 459.39 615.2 461 615.2 461C615.2 461 628.65 465.85 631.92 468.08C635.19 470.31 652.5 486.47 652.5 486.47C652.5 486.47 669.89 504.36 670.81 506.16C671.73 507.96 681.97 515.71 677.23 522.99C676.99 523.35 676.75 523.72 676.5 524.08C671.558 531.284 665.147 537.36 657.69 541.91C654.41 543.91 651.14 546.19 650.17 547.7C648.03 551.04 612.25 573.93 612.25 573.93C612.25 573.93 596.53 587.75 586.41 597.38L585.64 602.01C585.77 602.21 585.9 602.42 586.03 602.66C586.13 603.165 586.09 603.687 585.913 604.17C585.737 604.653 585.432 605.079 585.03 605.4L584.89 606.22C584.89 606.22 580.81 640.59 577.14 656.66C574.71 667.29 576.44 675.31 577.88 679.52C581.68 675.31 582.13 673.79 582.13 673.79C583.284 676.517 584.155 679.355 584.73 682.26C584.79 682.69 584.83 683.09 584.85 683.47C584.901 683.466 584.953 683.475 585 683.496C585.047 683.517 585.089 683.549 585.12 683.59L586.55 685.59C588.11 687.74 589.48 690.03 590.87 692.29C594.08 697.5 604.15 699.93 604.15 699.93C604.996 700.393 605.906 700.73 606.85 700.93C609.678 701.412 612.558 701.5 615.41 701.19C616.271 701.318 617.118 701.525 617.94 701.81C618.61 702.033 619.254 702.328 619.86 702.69C624.25 705.53 622.65 710.77 622.65 710.77L622.54 710.84L622.43 710.91L622.25 711.02L621.98 711.19L621.75 711.32L621.51 711.47L621.26 711.61L620.95 711.78L620.69 711.93L620.03 712.28L619.72 712.45L619.29 712.67L618.94 712.84L618.47 713.07L618.01 713.28C617.75 713.41 617.48 713.53 617.2 713.65L616.73 713.86L616.19 714.08L615.67 714.29L615.13 714.5L614.13 714.87L613.63 715.04L612.92 715.28L612.38 715.45L611.56 715.69L611.11 715.81C610.7 715.93 610.28 716.03 609.85 716.13L609.43 716.22C609.1 716.3 608.77 716.37 608.43 716.43L608.18 716.49H607.97C607.61 716.56 607.25 716.61 606.88 716.67H606.56L605.12 716.84H604.79C604.41 716.84 604.03 716.9 603.64 716.92H603.16H602.06H601.62C601.12 716.92 600.62 716.9 600.12 716.86H599.81L598.58 716.74L598.04 716.66L596.96 716.48L596.45 716.38C595.93 716.27 595.45 716.15 594.88 716.01C583.491 712.901 571.632 711.885 559.88 713.01C550.88 713.77 548.62 710.69 548.62 710.69C548.449 710.446 548.298 710.189 548.17 709.92C548.121 709.819 548.077 709.716 548.04 709.61C547.96 709.427 547.89 709.24 547.83 709.05C547.83 708.92 547.75 708.79 547.72 708.66C547.69 708.53 547.63 708.27 547.59 708.07C547.55 707.87 547.59 707.79 547.52 707.65C547.45 707.51 547.52 707.49 547.52 707.41C547.493 707.214 547.476 707.017 547.47 706.82C547.387 705.085 547.508 703.347 547.83 701.64C548.566 697.876 549.665 694.192 551.11 690.64L551.75 691.08C551.823 690.753 551.893 690.42 551.96 690.08C554.16 678.23 554.96 649.8 554.96 646.79C553.718 646.802 552.51 646.386 551.54 645.61C551.37 645.47 551.28 645.38 551.28 645.38C543.64 639.17 547.39 610.81 549.91 606.87C552.43 602.93 552.91 582.69 553.81 576.25C554.24 573.19 555.81 572.3 557.94 572.25C558.236 572.235 558.534 572.235 558.83 572.25C559.13 566.25 558.25 552.14 557.57 542.51C557.57 541.89 557.48 541.28 557.44 540.7L555.51 540.8L552.66 523.8C552.66 523.8 551.02 517.6 541.02 499.81C531.02 482.02 530.02 462.62 530.02 462.62C530.02 462.62 526.96 456.76 527.78 454.13C527.99 453.45 528.32 451.53 528.71 449.04C525.31 446.985 521.732 445.238 518.02 443.82C507.33 439.5 499.31 431.41 495.59 427.4L495 426.76C494.08 428.155 493.239 429.601 492.48 431.09C492.48 431.09 483.71 425.02 479.23 419.76C478.745 419.161 478.363 418.485 478.1 417.76C475.4 411.04 478.16 396.67 478.16 396.67C474.65 390.46 479.02 384.79 479.02 384.79Z" fill="url(#paint0_linear_114_514)"/>
<g opacity="0.1">
<path opacity="0.1" d="M523.15 425.69C523.56 426.44 526.5 428.2 530.08 430.14C530.41 427.53 530.65 425.56 530.7 424.95C530.91 422.72 526.15 412.73 526.15 412.73C526.15 412.73 517.04 400.51 517.25 398.67C517.46 396.83 513.73 391.55 513.73 391.55L505.47 378.16C505.927 379.181 506.089 380.308 505.939 381.416C505.789 382.524 505.332 383.568 504.62 384.43C502.13 387.69 504.21 394.21 504.21 394.21L503.7 402.43V403.25C503.99 403.54 505.32 404.81 508.26 407.46C510.97 409.9 510.49 410.65 510.18 410.85C510.8 411.95 510.04 412.14 510.04 412.14C509.8 412.14 509.56 412.12 509.32 412.08L509.98 412.69C515.02 417.41 522.41 424.36 523.15 425.69Z" fill="url(#paint1_linear_114_514)"/>
</g>
<path d="M577.75 274.16C580.22 276.74 577.41 280.36 579.33 283.16C580.42 284.73 582.82 285.72 584.18 287.16C586.83 290.04 584.83 293.72 583.55 297C578.87 308.94 585.89 322.55 600.55 330C594.212 332.809 587.11 333.39 580.4 331.65C573.84 329.9 568.79 325.81 567.47 321.17C566.47 317.88 567.33 314.38 565.64 311.23C563.01 306.32 554.96 303.37 552.58 298.41C550.72 294.52 552.75 290.32 555.12 286.56C558.099 281.862 561.489 277.438 565.25 273.34C567.55 270.83 567.55 269.84 571.25 270.51C573.651 271.252 575.867 272.496 577.75 274.16Z" fill="#985C7E"/>
<path d="M555.86 309.16C556.16 312.706 556.951 316.192 558.21 319.52C559.61 323.76 561.05 328.05 563.46 331.82C565.87 335.59 569.41 338.82 573.73 339.97C572.292 341.254 570.584 342.199 568.732 342.733C566.88 343.268 564.931 343.38 563.03 343.06C560.28 342.57 557.5 341.18 554.84 342.06C553.617 342.599 552.436 343.23 551.31 343.95C547.39 345.95 542.31 344.47 539.47 341.1C538.134 339.354 537.247 337.306 536.887 335.138C536.526 332.969 536.702 330.745 537.4 328.66C538.2 326.13 539.63 323.82 540.4 321.26C541.49 317.48 541.06 313.26 542.89 309.78C545.55 304.78 552.89 301.78 557.95 299.78C558.2 302.5 555.74 305.96 555.86 309.16Z" fill="#985C7E"/>
<path opacity="0.1" d="M562.79 299.83C563.093 303.365 563.884 306.842 565.14 310.16C566.53 314.41 567.97 318.7 570.39 322.46C572.81 326.22 576.33 329.46 580.65 330.61C579.216 331.896 577.509 332.842 575.658 333.377C573.807 333.913 571.859 334.023 569.96 333.7C567.21 333.22 564.43 331.82 561.77 332.7C560.545 333.231 559.364 333.86 558.24 334.58C554.32 336.58 549.24 335.1 546.4 331.73C545.062 329.985 544.174 327.938 543.813 325.768C543.452 323.599 543.629 321.374 544.33 319.29C545.13 316.76 546.56 314.45 547.33 311.89C548.42 308.11 547.99 303.89 549.82 300.41C552.48 295.41 559.87 292.41 564.88 290.41C565.13 293.16 562.67 296.58 562.79 299.83Z" fill="black"/>
<path d="M557.83 533.08C557.83 533.08 560.83 569.76 559.54 574.67C558.25 579.58 556.02 645.93 556.02 645.93C556.02 645.93 555.12 684.61 552.11 692.73C549.1 700.85 572.46 698.54 573.26 698.44C574.06 698.34 579.87 681.9 579.87 681.9C579.87 681.9 574.16 671.9 577.77 655.9C581.38 639.9 585.38 605.9 585.38 605.9L592.02 565.85C592.02 565.85 591.12 556.43 594.62 551.12C598.12 545.81 602.62 511.04 601.62 508.03C600.62 505.02 576.8 498.41 576.8 498.41L566.54 511.84L557.83 533.08Z" fill="#ECB4B6"/>
<path opacity="0.07" d="M601.29 515.7C601.29 515.7 601.29 515.76 601.29 515.79C601.29 515.99 601.29 516.2 601.29 516.41C601.22 517.07 601.15 517.77 601.07 518.49C599.82 530.1 596.95 547.49 594.56 551.12C592.17 554.75 591.83 560.31 591.86 563.45C591.86 563.81 591.86 564.14 591.86 564.45C591.86 565.34 591.94 565.87 591.94 565.87L586.85 596.7L586.63 598.01L585.32 605.96C585.32 605.96 581.32 640.04 577.7 655.96C575.938 663.148 576.096 670.673 578.16 677.78C578.26 678.11 578.36 678.43 578.46 678.72C578.818 679.82 579.27 680.887 579.81 681.91C579.81 681.91 578.99 684.23 577.92 687.14L577.18 689.14C577.04 689.5 576.91 689.85 576.78 690.21C575.23 694.3 573.59 698.39 573.19 698.44C572.4 698.54 549.04 700.84 552.05 692.73C552.443 691.548 552.744 690.338 552.95 689.11C555.24 676.7 555.95 645.93 555.95 645.93C555.95 645.93 558.15 579.59 559.46 574.67C560.32 571.4 559.28 554.06 558.46 542.83C558.07 537.2 557.73 533.11 557.73 533.11L566.45 511.87L576.71 498.44C576.71 498.44 593.81 503.19 599.64 506.44L599.81 506.53C600.519 506.849 601.117 507.371 601.53 508.03C601.78 508.81 601.66 511.72 601.29 515.7Z" fill="black"/>
<path opacity="0.05" d="M585.79 562.05C585.79 562.05 574.47 565.05 575.47 568.36L585.79 562.05Z" fill="black"/>
<path opacity="0.1" d="M579.77 681.9C579.77 681.9 578.54 685.37 577.14 689.14C575.54 689.9 574.32 690.37 574.32 690.37C574.32 690.37 569.96 686.32 575.72 680.37C576.65 679.37 577.44 678.56 578.12 677.79C578.531 679.212 579.084 680.589 579.77 681.9Z" fill="black"/>
<path d="M585.3 683.86C584.86 686.26 579.59 688.92 576.74 690.21C575.66 690.69 574.92 690.98 574.92 690.98C574.388 690.431 573.976 689.777 573.71 689.06C573.05 687.31 572.93 684.46 576.32 680.95C577.12 680.13 577.81 679.39 578.42 678.71C582.24 674.46 582.69 672.94 582.69 672.94C583.817 675.647 584.668 678.462 585.23 681.34C585.385 682.171 585.409 683.021 585.3 683.86Z" fill="#CC8294"/>
<path opacity="0.1" d="M585.3 683.86C584.86 686.26 579.59 688.92 576.74 690.21C575.19 694.3 573.55 698.39 573.15 698.44C572.36 698.54 549 700.84 552.01 692.73C552.403 691.548 552.704 690.338 552.91 689.11L559.39 693.68C562.69 696.03 567.65 694.28 567.65 694.28L573.71 689.06L575.22 687.77C576.134 687.693 577.031 687.478 577.88 687.13C579.954 686.22 581.752 684.778 583.09 682.95C584.24 681.73 584.89 681.39 585.23 681.34C585.385 682.171 585.409 683.022 585.3 683.86Z" fill="black"/>
<path d="M622.52 709.56C618.146 712.355 613.285 714.302 608.19 715.3C603.859 716.175 599.385 716.048 595.11 714.93C583.932 711.845 572.284 710.828 560.74 711.93C551.92 712.68 549.67 709.63 549.67 709.63C548.2 707.63 548.25 704.15 548.84 700.63C549.55 696.9 550.615 693.247 552.02 689.72C552.02 689.72 556.02 692.53 559.34 694.88C562.66 697.23 567.6 695.49 567.6 695.49L575.17 688.97C579.98 688.62 583.04 684.16 583.04 684.16C585.15 681.9 585.58 682.65 585.58 682.65L587.02 684.59C588.56 686.73 589.91 688.99 591.28 691.24C594.43 696.4 604.28 698.82 604.28 698.82C605.117 699.251 606.009 699.567 606.93 699.76C609.715 700.236 612.552 700.32 615.36 700.01C616.849 700.202 618.284 700.692 619.58 701.45C624.14 704.24 622.52 709.56 622.52 709.56Z" fill="#CC8294"/>
<path d="M576.81 694.01C576.379 694.01 576.03 693.661 576.03 693.23C576.03 692.799 576.379 692.45 576.81 692.45C577.241 692.45 577.59 692.799 577.59 693.23C577.59 693.661 577.241 694.01 576.81 694.01Z" fill="#4B4B5B"/>
<path d="M586.41 698.1C585.979 698.1 585.63 697.751 585.63 697.32C585.63 696.889 585.979 696.54 586.41 696.54C586.841 696.54 587.19 696.889 587.19 697.32C587.19 697.751 586.841 698.1 586.41 698.1Z" fill="#4B4B5B"/>
<path d="M582.62 703.92C582.189 703.92 581.84 703.571 581.84 703.14C581.84 702.709 582.189 702.36 582.62 702.36C583.051 702.36 583.4 702.709 583.4 703.14C583.4 703.571 583.051 703.92 582.62 703.92Z" fill="#4B4B5B"/>
<path d="M595.83 701.95C595.399 701.95 595.05 701.601 595.05 701.17C595.05 700.739 595.399 700.39 595.83 700.39C596.261 700.39 596.61 700.739 596.61 701.17C596.61 701.601 596.261 701.95 595.83 701.95Z" fill="#4B4B5B"/>
<path d="M581.06 696.54C580.629 696.54 580.28 696.191 580.28 695.76C580.28 695.329 580.629 694.98 581.06 694.98C581.491 694.98 581.84 695.329 581.84 695.76C581.84 696.191 581.491 696.54 581.06 696.54Z" fill="#4B4B5B"/>
<path d="M577.31 703.51C576.879 703.51 576.53 703.161 576.53 702.73C576.53 702.299 576.879 701.95 577.31 701.95C577.741 701.95 578.09 702.299 578.09 702.73C578.09 703.161 577.741 703.51 577.31 703.51Z" fill="#4B4B5B"/>
<path d="M591.06 700.38C590.629 700.38 590.28 700.031 590.28 699.6C590.28 699.169 590.629 698.82 591.06 698.82C591.491 698.82 591.84 699.169 591.84 699.6C591.84 700.031 591.491 700.38 591.06 700.38Z" fill="#4B4B5B"/>
<path d="M600.99 703.14C600.559 703.14 600.21 702.791 600.21 702.36C600.21 701.929 600.559 701.58 600.99 701.58C601.421 701.58 601.77 701.929 601.77 702.36C601.77 702.791 601.421 703.14 600.99 703.14Z" fill="#4B4B5B"/>
<path opacity="0.1" d="M622.52 709.56C622.52 709.56 609.09 718.79 595.11 714.93C583.932 711.845 572.284 710.828 560.74 711.93C551.92 712.68 549.67 709.63 549.67 709.63C549.021 708.661 548.632 707.542 548.54 706.38C548.54 706.15 548.54 705.92 548.48 705.69C548.42 704.015 548.541 702.339 548.84 700.69C550.68 702.06 554.48 703.69 562.19 703.98C575.52 704.4 593.11 707.81 593.11 707.81L610.11 707.11C610.11 707.11 619.63 705.05 619.59 701.5C624.14 704.24 622.52 709.56 622.52 709.56Z" fill="black"/>
<path d="M598.68 712.86C598.4 712.913 598.115 712.937 597.83 712.93C594.83 712.93 587.59 711.35 583.27 710.34C582.049 710.049 580.804 709.871 579.55 709.81C575.55 709.6 565.76 709.13 560.24 709.17H560.11C556.102 709.042 552.163 708.089 548.54 706.37C548.54 706.14 548.54 705.91 548.48 705.68C552.15 707.467 556.16 708.449 560.24 708.56C565.76 708.56 575.6 709 579.58 709.21C580.87 709.275 582.152 709.456 583.41 709.75C587.24 710.65 596.41 712.7 598.57 712.27L598.68 712.86Z" fill="#CC8294"/>
<path opacity="0.03" d="M591.82 564.43C591.82 565.32 591.9 565.85 591.9 565.85L586.81 596.68C585.9 597.55 585.02 598.38 584.19 599.19C581.63 601.503 579.253 604.011 577.08 606.69C574.08 611.35 563.45 608.95 563.65 608.5C563.85 608.05 568.21 586.1 568.21 586.1L571.66 577.23C571.66 577.23 575.26 579.48 578.8 575.73C581.03 573.36 586.02 568.73 589.41 565.63L591.8 563.45C591.8 563.81 591.81 564.16 591.82 564.43Z" fill="black"/>
<path opacity="0.05" d="M601.28 515.79C601.28 515.99 601.28 516.2 601.28 516.41C601.21 517.07 601.14 517.77 601.06 518.49C600.32 518.22 599.59 517.93 598.87 517.61L597.87 517.15C594.575 515.559 591.455 513.628 588.56 511.39L597.28 507.64L599.86 506.53C600.569 506.849 601.167 507.371 601.58 508.03C601.78 508.81 601.66 511.77 601.28 515.79Z" fill="black"/>
<path d="M676.14 523.41C675.9 523.77 675.67 524.13 675.42 524.49C670.571 531.617 664.27 537.639 656.93 542.16C653.7 544.16 650.49 546.41 649.53 547.91C647.43 551.21 612.25 573.91 612.25 573.91C612.25 573.91 595.88 588.41 585.99 597.98L584.73 599.2L584.12 599.8C583.39 600.51 582.73 601.18 582.12 601.8C581.24 602.69 580.51 603.47 579.95 604.12C579.74 604.36 579.55 604.58 579.39 604.78C579.204 605.003 579.03 605.237 578.87 605.48C575.87 610.14 565.24 607.73 565.44 607.28C565.64 606.83 570.02 584.9 570.02 584.9L573.48 576.03C574.169 576.408 574.933 576.631 575.717 576.682C576.501 576.734 577.287 576.614 578.02 576.33C579.01 575.932 579.896 575.313 580.61 574.52C582.84 572.16 587.84 567.52 591.23 564.43C593.23 562.59 594.67 561.29 594.67 561.29L605.95 548.52C605.95 548.52 620.38 529.73 631.2 525.07C631.2 525.07 619.01 520.07 610.31 518.75C606.998 518.397 603.747 517.61 600.64 516.41L599.64 515.94C596.347 514.346 593.227 512.416 590.33 510.18L599.02 506.44L644.86 486.73C645.14 486.73 647.8 486.91 649.75 487.04L651.82 487.18C651.82 487.18 668.91 504.92 669.82 506.73C670.73 508.54 680.8 516.16 676.14 523.41Z" fill="#ECB4B6"/>
<path opacity="0.03" d="M625.63 515.16C625.63 515.16 645.32 517.57 649.23 521.63C649.23 521.63 631.94 522.83 631.23 525.09C631.23 525.09 641.11 518.4 643.86 520.09L625.63 515.16Z" fill="black"/>
<path opacity="0.05" d="M584.73 599.21L584.12 599.81C583.39 600.52 582.73 601.19 582.12 601.81C581.24 602.7 580.51 603.48 579.95 604.13L577.4 600.83C578.265 600.091 579.245 599.496 580.3 599.07C580.997 598.754 581.757 598.603 582.521 598.627C583.286 598.652 584.035 598.851 584.71 599.21H584.73Z" fill="black"/>
<path d="M583.48 606.58C582.817 606.918 582.128 607.202 581.42 607.43L579.42 604.79L576.83 601.43C577.694 600.692 578.674 600.101 579.73 599.68C580.426 599.363 581.186 599.21 581.95 599.232C582.715 599.255 583.464 599.452 584.14 599.81C585.148 600.439 585.962 601.335 586.49 602.4C586.49 602.4 587.25 604.65 583.48 606.58Z" fill="#CC8294"/>
<path opacity="0.05" d="M583.89 606.16L583.48 606.57C582.817 606.908 582.129 607.193 581.42 607.42L579.42 604.78C579.234 605.003 579.06 605.237 578.9 605.48C575.9 610.14 565.27 607.73 565.47 607.28C565.67 606.83 570.02 584.9 570.02 584.9L573.48 576.03C574.169 576.408 574.933 576.631 575.717 576.683C576.501 576.734 577.287 576.614 578.02 576.33C578.82 577.15 578.96 578.18 578.02 579.48C576.056 582.471 574.883 585.912 574.61 589.48C573.26 593.2 577.36 597.76 579.72 599.68C580.113 600.007 580.538 600.292 580.99 600.53C581.493 600.832 581.893 601.278 582.14 601.81C582.863 603.2 583.449 604.657 583.89 606.16Z" fill="black"/>
<path d="M582.69 606.16L578.13 610.74C571.749 614.792 566.895 620.849 564.33 627.96C563.865 629.324 563.321 630.66 562.7 631.96C562.003 633.757 561.601 635.655 561.51 637.58C561.4 638.75 561.35 639.9 561.31 640.9C561.283 642.181 560.801 643.411 559.95 644.37L559.89 644.43C558.974 645.455 557.7 646.092 556.33 646.209C554.96 646.326 553.597 645.915 552.52 645.06C552.36 644.93 552.27 644.84 552.27 644.84C544.76 638.68 548.44 610.56 550.92 606.65C553.4 602.74 553.85 582.65 554.76 576.29C555.18 573.29 556.76 572.37 558.82 572.29C560.88 572.21 563.59 573.1 565.94 573.36H566.32C570.99 573.73 579.94 575.11 576.81 579.44C574.84 582.428 573.666 585.871 573.4 589.44C571.74 594.02 578.4 599.89 579.78 600.44C581.16 600.99 582.69 606.16 582.69 606.16Z" fill="#CC8294"/>
<path d="M576.1 604.66C575.366 604.66 574.77 604.065 574.77 603.33C574.77 602.595 575.366 602 576.1 602C576.835 602 577.43 602.595 577.43 603.33C577.43 604.065 576.835 604.66 576.1 604.66Z" fill="#4B4B5B"/>
<path d="M574.07 609.64C573.335 609.64 572.74 609.045 572.74 608.31C572.74 607.575 573.335 606.98 574.07 606.98C574.804 606.98 575.4 607.575 575.4 608.31C575.4 609.045 574.804 609.64 574.07 609.64Z" fill="#4B4B5B"/>
<path d="M567.83 617.66C567.096 617.66 566.5 617.065 566.5 616.33C566.5 615.595 567.096 615 567.83 615C568.565 615 569.16 615.595 569.16 616.33C569.16 617.065 568.565 617.66 567.83 617.66Z" fill="#4B4B5B"/>
<path d="M570.92 613.54C570.185 613.54 569.59 612.945 569.59 612.21C569.59 611.475 570.185 610.88 570.92 610.88C571.655 610.88 572.25 611.475 572.25 612.21C572.25 612.945 571.655 613.54 570.92 613.54Z" fill="#4B4B5B"/>
<path d="M565.24 622.41C564.506 622.41 563.91 621.815 563.91 621.08C563.91 620.345 564.506 619.75 565.24 619.75C565.975 619.75 566.57 620.345 566.57 621.08C566.57 621.815 565.975 622.41 565.24 622.41Z" fill="#4B4B5B"/>
<path opacity="0.1" d="M559.94 625.16C559.94 625.16 558.83 638.21 559.94 644.31C559.027 645.357 557.746 646.012 556.363 646.141C554.98 646.269 553.6 645.861 552.51 645C552.35 644.87 552.26 644.78 552.26 644.78C544.75 638.62 548.43 610.5 550.91 606.59C553.39 602.68 553.84 582.59 554.75 576.23C555.17 573.23 556.75 572.31 558.81 572.23C560.87 572.15 563.58 573.04 565.93 573.3C565.93 579.67 565.57 594.3 563.93 599.16C561.74 605.44 559.94 625.16 559.94 625.16Z" fill="black"/>
<path opacity="0.1" d="M556.63 598.61C555.23 603.54 553.13 617.06 553.32 624.28C553.47 629.58 552.86 639.91 552.52 645.02C552.36 644.89 552.27 644.8 552.27 644.8C544.76 638.64 548.44 610.52 550.92 606.61C553.4 602.7 553.85 582.61 554.76 576.25C555.18 573.25 556.76 572.33 558.82 572.25C558.54 578.75 557.74 594.71 556.63 598.61Z" fill="black"/>
<path d="M561.75 572.6C561.47 577.73 560.63 591.41 559.25 595.32C557.53 600.22 555.71 623.66 555.63 624.66H556.23C556.23 624.41 558.13 600.29 559.82 595.47C561.23 591.47 562.07 577.89 562.34 572.67L561.75 572.6Z" fill="#CC8294"/>
<path d="M566.15 320.02C566.15 320.02 575.87 321.75 581.38 323.79C586.89 325.83 587.7 326.94 587.7 326.94L593.41 327.84V321.73C593.41 321.73 613.87 323.24 615.93 322.41C615.977 322.39 616.021 322.363 616.06 322.33C617.06 321.33 615.46 330.25 616.96 332.15C618.46 334.05 624.96 340.63 612.85 345.51C600.74 350.39 573.27 350.89 573.27 350.89L565.45 335.46L566.15 320.02Z" fill="#FF718D"/>
<path d="M535.39 349.49L557.02 344.88C554.009 339.755 551.892 334.155 550.76 328.32C549.97 323.69 550.08 318.74 552.21 314.41C558.43 301.79 535.39 295.16 535.39 295.16C535.39 295.16 526.96 308.16 519.39 314.75C516.85 316.94 514.39 318.41 512.39 318.41C504.32 318.42 535.39 349.49 535.39 349.49Z" fill="#ECB4B6"/>
<path opacity="0.1" d="M651.83 488.99C651.83 488.99 642.42 511.24 633.83 511.64C628.64 511.88 612.64 514.08 600.71 515.79L599.64 515.94C596.347 514.346 593.227 512.416 590.33 510.18L599.02 506.44L644.86 486.73C645.14 486.73 647.8 486.91 649.75 487.04L651.83 488.99Z" fill="black"/>
<path opacity="0.1" d="M584.49 508.43C576.31 509.61 586.7 517.85 586.7 517.85C586.7 517.85 582.7 520.85 578.08 531.85C573.46 542.85 571.26 542.07 571.26 542.07L558.45 542.77C558.06 537.14 557.72 533.05 557.72 533.05L566.44 511.81L576.7 498.38C576.7 498.38 593.8 503.13 599.63 506.38L599.8 506.47C600.509 506.789 601.107 507.311 601.52 507.97C601.78 508.81 584.86 504.45 584.49 508.43Z" fill="black"/>
<path opacity="0.1" d="M535.39 349.49L557.02 344.88C554.009 339.755 551.892 334.155 550.76 328.32L543.99 334.85C540.701 334.878 537.476 333.936 534.72 332.14C533.526 331.339 532.46 330.361 531.56 329.24C526.75 323.24 520.95 315.41 520.95 315.41C520.95 315.41 520.27 315.1 519.34 314.76C516.8 316.95 514.34 318.42 512.34 318.42C504.32 318.42 535.39 349.49 535.39 349.49Z" fill="black"/>
<path d="M651.83 487.16C651.83 487.16 642.42 509.41 633.83 509.82C625.24 510.23 586.73 516.03 586.73 516.03C586.73 516.03 582.73 519.03 578.11 530.03C573.49 541.03 571.29 540.26 571.29 540.26L556.46 541.06L553.65 524.23C553.65 524.23 552.05 518.01 542.23 500.37C532.41 482.73 531.41 463.5 531.41 463.5C531.41 463.5 528.41 457.68 529.2 455.08C529.99 452.48 532.61 431.82 532.81 429.62C533.01 427.42 528.4 417.62 528.4 417.62C528.4 417.62 519.58 405.62 519.78 403.79C519.98 401.96 516.37 396.79 516.37 396.79L508.37 383.6C508.809 384.606 508.964 385.713 508.818 386.801C508.672 387.889 508.23 388.916 507.54 389.77C505.14 392.98 507.15 399.39 507.15 399.39L506.66 407.48L506.55 409.42C506.55 409.42 507.75 410.62 511.03 413.63C514.31 416.64 512.76 417.03 512.76 417.03C502.53 415.63 494.52 432.27 494.52 432.27C494.52 432.27 485.9 426.27 481.52 421.04C481.048 420.461 480.674 419.809 480.41 419.11C477.75 412.44 480.47 398.19 480.47 398.19C477 391.98 481.32 386.36 481.32 386.36C478.51 378.75 483.52 370.73 483.52 370.73L483.92 353.29C481.72 348.69 489.34 337.29 489.34 337.29C489.34 337.29 491.14 328.67 492.75 327.87C494.36 327.07 496.15 323.46 496.15 323.46C495.95 319.46 506.58 319.05 507.57 318.85C508.853 318.277 510.07 317.566 511.2 316.73C512.225 316.038 513.291 315.407 514.39 314.84C516.2 314.04 521.01 316.25 521.01 316.25C521.01 316.25 526.81 324.06 531.63 330.08C532.524 331.203 533.587 332.181 534.78 332.98C537.531 334.759 540.744 335.691 544.02 335.66L550.92 329.01L571.28 330.25L576.02 353.7C586.45 362.31 582.44 372.14 582.64 378.55C582.84 384.96 583.84 392.55 583.84 392.55C583.84 392.55 588.25 399.77 587.65 403.55C587.05 407.33 590.86 413.55 590.86 413.55C590.86 413.55 596.47 419.76 595.86 423.77C595.25 427.78 596.86 432.99 596.86 432.99C596.86 432.99 600.66 439.99 599.06 443.99C597.46 447.99 598.26 450.21 598.26 450.21C598.26 450.21 606.48 451.41 607.08 455.82C607.68 460.23 615.08 461.82 615.08 461.82C615.08 461.82 628.3 466.63 631.52 468.82C634.74 471.01 651.83 487.16 651.83 487.16Z" fill="#FF718D"/>
<path opacity="0.1" d="M483.47 389.16C483.47 389.16 498.47 390.97 500.31 393.16C502.15 395.35 485.31 395.57 485.31 395.57L483.47 389.16Z" fill="black"/>
<path opacity="0.1" d="M505.72 401.1C505.72 401.1 494.72 397.19 494.4 398.39C494.08 399.59 505.72 406.21 505.72 406.21V401.1Z" fill="black"/>
<path opacity="0.1" d="M510.33 379.75C512.24 382.76 528.02 402.16 528.02 402.16L511.02 377.35L510.33 379.75Z" fill="black"/>
<path opacity="0.1" d="M512.64 374.44C513.84 376.04 526.57 396.89 526.57 396.89L513.74 373.44L512.64 374.44Z" fill="black"/>
<path opacity="0.1" d="M486.02 349.49C486.02 349.49 490.93 342.57 495.74 346.98C500.55 351.39 486.02 349.49 486.02 349.49Z" fill="black"/>
<path opacity="0.1" d="M520.35 343.57C520.35 343.57 532.88 343.57 538.99 346.38C545.1 349.19 533.58 337.96 520.35 343.57Z" fill="black"/>
<path opacity="0.1" d="M534.73 334.16H532.88C532.88 334.16 528.57 332.56 527.47 329.24C526.37 325.92 517.7 328.95 517.7 328.95C517.7 328.95 516.45 329.89 517.55 328.35C518.65 326.81 513.74 321.94 511.55 318.73C511.379 318.483 511.251 318.209 511.17 317.92C512.193 317.222 513.259 316.587 514.36 316.02C516.17 315.22 520.98 317.43 520.98 317.43C520.98 317.43 526.78 325.25 531.6 331.26C532.488 332.382 533.544 333.36 534.73 334.16Z" fill="black"/>
<path d="M534.73 332.95H532.88C532.88 332.95 528.57 331.35 527.47 328.03C526.37 324.71 517.7 327.74 517.7 327.74C517.7 327.74 516.45 328.68 517.55 327.14C518.65 325.6 513.74 320.73 511.55 317.52C511.379 317.27 511.25 316.993 511.17 316.7C512.195 316.008 513.26 315.377 514.36 314.81C516.17 314.01 520.98 316.22 520.98 316.22C520.98 316.22 526.78 324.03 531.6 330.05C532.488 331.172 533.544 332.15 534.73 332.95Z" fill="#FF718D"/>
<path d="M549.52 346.84C548.786 346.84 548.19 346.244 548.19 345.51C548.19 344.775 548.786 344.18 549.52 344.18C550.255 344.18 550.85 344.775 550.85 345.51C550.85 346.244 550.255 346.84 549.52 346.84Z" fill="#E7C7CA"/>
<path d="M572.38 377.94C571.645 377.94 571.05 377.345 571.05 376.61C571.05 375.875 571.645 375.28 572.38 375.28C573.115 375.28 573.71 375.875 573.71 376.61C573.71 377.345 573.115 377.94 572.38 377.94Z" fill="#E7C7CA"/>
<path d="M564.13 358.31C563.395 358.31 562.8 357.715 562.8 356.98C562.8 356.246 563.395 355.65 564.13 355.65C564.865 355.65 565.46 356.246 565.46 356.98C565.46 357.715 564.865 358.31 564.13 358.31Z" fill="#E7C7CA"/>
<path d="M576.07 398.16C575.335 398.16 574.74 397.565 574.74 396.83C574.74 396.095 575.335 395.5 576.07 395.5C576.804 395.5 577.4 396.095 577.4 396.83C577.4 397.565 576.804 398.16 576.07 398.16Z" fill="#E7C7CA"/>
<path d="M593.01 433.04C592.275 433.04 591.68 432.445 591.68 431.71C591.68 430.975 592.275 430.38 593.01 430.38C593.744 430.38 594.34 430.975 594.34 431.71C594.34 432.445 593.744 433.04 593.01 433.04Z" fill="#E7C7CA"/>
<path d="M594.34 450.91C593.605 450.91 593.01 450.315 593.01 449.58C593.01 448.845 593.605 448.25 594.34 448.25C595.074 448.25 595.67 448.845 595.67 449.58C595.67 450.315 595.074 450.91 594.34 450.91Z" fill="#E7C7CA"/>
<path d="M613.75 320.02L611.05 328.74L602.53 328.14L594.92 320.02C594.92 320.02 594.42 318.56 593.64 316.39C591.72 311.02 588.09 301.27 586.09 298.27C583.29 294.07 581.48 276.63 581.48 276.63C581.48 276.63 584.56 269.63 593.35 283.63C599.96 294.19 608.19 309.47 611.84 316.37C613.02 318.66 613.75 320.02 613.75 320.02Z" fill="#ECB4B6"/>
<path d="M576.02 442.09C576.02 444.23 567.02 445.23 562.77 445.59L560.59 445.74C561.59 448 556.28 465.24 556.28 465.24C555.83 465.214 555.382 465.157 554.94 465.07C547.94 463.66 534.13 454.01 534.13 454.01C534.13 454.01 533.83 450.7 519.55 444.9C509.04 440.61 501.17 432.59 497.5 428.61C496.803 427.774 496.051 426.986 495.25 426.25L507.93 413.16C507.93 413.16 509.98 415.06 512.68 417.61C517.62 422.28 524.75 429.11 525.47 430.43C526.57 432.43 546.41 442.13 546.41 442.13C550.82 438.32 560.34 437.52 560.34 437.52C560.34 437.52 576.02 439.28 576.02 442.09Z" fill="#ECB4B6"/>
<path opacity="0.1" d="M552.52 396.89C553.12 398.09 580.28 416.13 584.89 416.43C589.5 416.73 580.58 407.81 580.28 407.71C579.98 407.61 552.52 396.89 552.52 396.89Z" fill="black"/>
<path opacity="0.1" d="M699.02 683.3L700.02 683.07L699.02 683.3Z" fill="black"/>
<path opacity="0.3" d="M619.78 701.51C618.487 700.747 617.05 700.257 615.56 700.07C612.752 700.381 609.914 700.293 607.13 699.81C607.796 702.22 608.006 704.733 607.75 707.22L610.3 707.12C610.3 707.12 619.82 705.05 619.78 701.51Z" fill="white"/>
<path opacity="0.1" d="M698.38 683.43L698.92 683.32L698.38 683.43Z" fill="black"/>
<path opacity="0.3" d="M561.51 637.54C561.4 638.71 561.35 639.86 561.31 640.86C561.283 642.141 560.801 643.371 559.95 644.33L559.89 644.39C559.567 642.027 559.42 639.644 559.45 637.26C559.66 637.57 560.56 637.6 561.51 637.54Z" fill="white"/>
<path opacity="0.1" d="M512.68 417.57C506.15 417.16 500.58 423.94 497.55 428.57C496.853 427.734 496.102 426.946 495.3 426.21L507.93 413.16C507.93 413.16 510.02 415.02 512.68 417.57Z" fill="black"/>
<path opacity="0.1" d="M512.74 415.83C502.51 414.43 494.5 431.07 494.5 431.07C494.5 431.07 485.88 425.07 481.5 419.84C481.029 419.257 480.654 418.602 480.39 417.9C482.77 412.18 489.34 402.65 506.67 406.28L506.56 408.22C506.56 408.22 507.76 409.42 511.04 412.42C514.32 415.42 512.74 415.83 512.74 415.83Z" fill="black"/>
<path d="M512.74 417.03C502.51 415.63 494.5 432.27 494.5 432.27C494.5 432.27 485.88 426.27 481.5 421.04C481.029 420.461 480.654 419.809 480.39 419.11C482.77 413.39 489.34 403.85 506.67 407.48L506.56 409.42C506.56 409.42 507.76 410.62 511.04 413.63C514.32 416.64 512.74 417.03 512.74 417.03Z" fill="#FF718D"/>
<path opacity="0.1" d="M512.74 417.03C502.51 415.63 494.5 432.27 494.5 432.27C494.5 432.27 485.88 426.27 481.5 421.04C481.029 420.461 480.654 419.809 480.39 419.11C482.77 413.39 489.34 403.85 506.67 407.48L506.56 409.42C506.56 409.42 507.76 410.62 511.04 413.63C514.32 416.64 512.74 417.03 512.74 417.03Z" fill="white"/>
<path opacity="0.1" d="M613.75 320.02L611.05 328.74L602.53 328.14L594.92 320.02C594.92 320.02 594.42 318.56 593.64 316.39C594.72 317 602.08 321.08 606.54 321.3C610.09 321.48 611.4 318.16 611.84 316.39C613.02 318.66 613.75 320.02 613.75 320.02Z" fill="black"/>
<path opacity="0.1" d="M616.41 323.08L615.85 322.43C613.85 320.11 612.05 318.32 612.05 318.32C611.845 319.879 611.25 321.362 610.32 322.63C609.877 323.2 609.3 323.651 608.641 323.944C607.981 324.237 607.26 324.363 606.54 324.31C603.943 323.986 601.416 323.24 599.06 322.1C596.06 320.76 593.51 319.32 593.51 319.32V321.73L593.46 324.13V329.64C593.46 329.64 591.36 344.27 610.8 336.46C610.8 336.46 609.59 331.09 616.98 332.11L616.41 323.08Z" fill="black"/>
<path d="M593.51 317.52L593.41 322.33V327.84C593.41 327.84 591.31 342.47 610.75 334.66C610.75 334.66 609.34 328.44 618.75 330.66C628.16 332.88 612.02 316.52 612.02 316.52C612.02 316.52 611.34 322.75 606.51 322.52C601.68 322.29 593.51 317.52 593.51 317.52Z" fill="#FF718D"/>
<path opacity="0.1" d="M593.51 317.52L593.41 322.33V327.84C593.41 327.84 591.31 342.47 610.75 334.66C610.75 334.66 609.34 328.44 618.75 330.66C628.16 332.88 612.02 316.52 612.02 316.52C612.02 316.52 611.34 322.75 606.51 322.52C601.68 322.29 593.51 317.52 593.51 317.52Z" fill="white"/>
<path opacity="0.1" d="M556.43 470.65C556.63 470.35 557.43 446.4 560.54 445.8C563.65 445.2 571.36 448.4 571.36 448.4L569.96 467.54L556.43 470.65Z" fill="black"/>
<path opacity="0.1" d="M560.64 445.74C561.64 448 556.33 465.24 556.33 465.24C555.88 465.214 555.432 465.157 554.99 465.07C555.48 457.94 556.52 445.62 558.74 445.2C560.112 445.064 561.498 445.197 562.82 445.59L560.64 445.74Z" fill="black"/>
<path d="M555.23 470.05C555.43 469.75 556.23 445.8 559.34 445.19C562.45 444.58 570.16 447.8 570.16 447.8L568.76 466.94L555.23 470.05Z" fill="#FF718D"/>
<path opacity="0.1" d="M555.23 470.05C555.43 469.75 556.23 445.8 559.34 445.19C562.45 444.58 570.16 447.8 570.16 447.8L568.76 466.94L555.23 470.05Z" fill="white"/>
<path d="M583.02 327.77C580.6 324.01 579.16 319.72 577.77 315.47C577.056 313.428 576.455 311.348 575.97 309.24C574.025 312.084 571.509 314.492 568.582 316.31C565.655 318.128 562.382 319.317 558.97 319.8C558.221 321.357 557.553 322.953 556.97 324.58C556.267 326.661 556.086 328.883 556.443 331.051C556.801 333.218 557.686 335.265 559.02 337.01C561.82 340.39 566.94 341.83 570.86 339.86C571.983 339.138 573.164 338.509 574.39 337.98C577.05 337.14 579.83 338.53 582.58 338.98C584.48 339.301 586.428 339.188 588.279 338.652C590.13 338.115 591.836 337.168 593.27 335.88C588.92 334.77 585.39 331.53 583.02 327.77Z" fill="#985C7E"/>
<path opacity="0.1" d="M555.23 321.64C541.506 321.64 530.38 310.514 530.38 296.79C530.38 283.066 541.506 271.94 555.23 271.94C568.954 271.94 580.08 283.066 580.08 296.79C580.08 310.514 568.954 321.64 555.23 321.64Z" fill="black"/>
<path d="M555.23 320.02C541.506 320.02 530.38 308.894 530.38 295.17C530.38 281.446 541.506 270.32 555.23 270.32C568.954 270.32 580.08 281.446 580.08 295.17C580.08 308.894 568.954 320.02 555.23 320.02Z" fill="#ECB4B6"/>
<path d="M573.62 287.41C576.54 285.41 580.84 287 583.92 285.23C585.388 284.267 586.482 282.831 587.02 281.16C589.71 274.06 585.47 265.16 578.27 262.75C576.39 262.12 574.39 261.9 572.49 261.32C567.32 259.74 563.33 255.73 558.85 252.7C554.222 249.574 548.983 247.468 543.48 246.52C539.4 245.82 534.88 245.87 531.55 248.33C527.8 251.11 526.6 256.11 525.83 260.72C525.06 265.33 524.28 270.31 520.97 273.6C518.32 276.22 514.54 277.25 511.16 278.83C507.78 280.41 504.39 283.12 504.16 286.83C503.99 289.74 505.82 292.38 506.39 295.24C507.03 298.47 506.04 301.78 504.92 304.87C501.789 313.528 497.633 321.78 492.54 329.45C498.678 332.888 505.32 335.338 512.22 336.71C515.06 337.28 518.05 337.65 520.8 336.76C524.28 335.65 526.88 332.65 528.56 329.4C530.04 326.511 530.931 323.356 531.18 320.12C531.67 313.67 529.65 306.75 532.51 300.95C533.044 299.761 533.917 298.755 535.02 298.06C536.28 297.32 537.81 297.23 539.2 296.79C541.6 296.04 543.53 294.27 545.37 292.55L551.99 286.39C553.476 284.839 555.218 283.557 557.14 282.6C560.66 281.11 564.81 281.96 568.14 283.83C571.07 285.47 574.45 287.93 577.41 286.35" fill="#985C7E"/>
<g opacity="0.1">
<path opacity="0.1" d="M575.62 286.85L577.38 286.35C576.837 286.644 576.236 286.814 575.62 286.85Z" fill="black"/>
<path opacity="0.1" d="M575.62 286.85L573.62 287.41C573.97 287.167 574.35 286.968 574.75 286.82C575.039 286.85 575.33 286.86 575.62 286.85Z" fill="black"/>
<path opacity="0.1" d="M511.44 333.47C514.28 334.03 517.26 334.4 520.02 333.52C523.5 332.4 526.1 329.41 527.78 326.15C529.26 323.261 530.15 320.106 530.4 316.87C530.89 310.42 528.87 303.51 531.72 297.7C532.242 296.521 533.093 295.518 534.17 294.81C535.43 294.07 536.95 293.98 538.35 293.55C540.75 292.79 542.68 291.02 544.52 289.31L551.14 283.16C552.625 281.609 554.368 280.327 556.29 279.37C559.81 277.88 563.96 278.73 567.29 280.6C569.38 281.77 571.69 283.35 573.93 283.6C573.531 283.75 573.151 283.948 572.8 284.19L574.8 283.63C575.416 283.594 576.017 283.424 576.56 283.13L574.8 283.63C574.511 283.66 574.219 283.66 573.93 283.63C576.75 282.55 580.39 283.63 583.1 282.05C584.579 281.086 585.681 279.641 586.22 277.96C586.984 275.891 587.215 273.662 586.89 271.48C588.094 274.586 588.141 278.022 587.02 281.16C586.478 282.837 585.377 284.278 583.9 285.24C581.2 286.8 577.55 285.74 574.73 286.83C572.5 286.59 570.18 285.01 568.09 283.83C564.75 281.96 560.6 281.11 557.09 282.6C555.168 283.557 553.425 284.839 551.94 286.39L545.32 292.55C543.48 294.27 541.55 296.04 539.15 296.79C537.76 297.23 536.23 297.32 534.97 298.06C533.893 298.766 533.045 299.77 532.53 300.95C529.67 306.75 531.69 313.67 531.2 320.12C530.95 323.356 530.06 326.511 528.58 329.4C526.9 332.65 524.3 335.65 520.82 336.76C518.07 337.65 515.08 337.28 512.25 336.71C505.346 335.339 498.701 332.889 492.56 329.45C493.02 328.76 493.47 328.06 493.91 327.36C499.443 330.197 505.342 332.253 511.44 333.47Z" fill="black"/>
<path opacity="0.1" d="M504.21 287.78C504.782 289.149 505.25 290.56 505.61 292C505.67 292.31 505.71 292.63 505.74 292.94C504.999 291.297 504.484 289.561 504.21 287.78Z" fill="black"/>
</g>
<path opacity="0.1" d="M558.86 335.1C561.66 338.47 566.78 339.91 570.7 337.94C571.824 337.22 573.005 336.591 574.23 336.06C576.89 335.22 579.67 336.61 582.42 337.06C585.632 337.583 588.924 336.868 591.63 335.06C592.114 335.249 592.608 335.412 593.11 335.55C591.674 336.835 589.968 337.779 588.117 338.314C586.267 338.849 584.319 338.961 582.42 338.64C579.67 338.15 576.89 336.76 574.23 337.64C573.006 338.179 571.826 338.81 570.7 339.53C566.78 341.53 561.7 340.05 558.86 336.68C556.873 334.169 555.906 331.002 556.15 327.81C556.246 330.468 557.196 333.025 558.86 335.1Z" fill="black"/>
</g>
<defs>
<linearGradient id="paint0_linear_114_514" x1="577.64" y1="717.11" x2="577.64" y2="243.35" gradientUnits="userSpaceOnUse">
<stop stop-color="#808080" stop-opacity="0.25"/>
<stop offset="0.54" stop-color="#808080" stop-opacity="0.12"/>
<stop offset="1" stop-color="#808080" stop-opacity="0.1"/>
</linearGradient>
<linearGradient id="paint1_linear_114_514" x1="-16847.4" y1="27978.5" x2="-17593.2" y2="27978.5" gradientUnits="userSpaceOnUse">
<stop stop-color="#808080" stop-opacity="0.25"/>
<stop offset="0.54" stop-color="#808080" stop-opacity="0.12"/>
<stop offset="1" stop-color="#808080" stop-opacity="0.1"/>
</linearGradient>
<clipPath id="clip0_114_514">
<rect width="1134.04" height="812.32" fill="white" transform="matrix(-1 0 0 1 1134.04 -83)"/>
</clipPath>
</defs>
</svg>
