<svg width="500" height="258" viewBox="0 0 500 258" fill="none" xmlns="http://www.w3.org/2000/svg">
<g clip-path="url(#clip0_114_466)">
<path d="M316.01 143.671H148.83V257.568H316.01V143.671Z" fill="#61A199"/>
<path d="M325.334 130.349H160.819C160.289 130.35 159.781 130.561 159.407 130.935C159.032 131.31 158.821 131.818 158.82 132.348V243.579C158.82 243.842 158.872 244.102 158.972 244.344C159.073 244.587 159.22 244.807 159.406 244.993C159.591 245.179 159.812 245.326 160.054 245.426C160.297 245.527 160.557 245.579 160.819 245.579H325.334C325.597 245.579 325.857 245.527 326.099 245.426C326.342 245.326 326.562 245.179 326.748 244.993C326.933 244.807 327.081 244.587 327.181 244.344C327.282 244.102 327.333 243.842 327.333 243.579V132.348C327.333 131.818 327.122 131.31 326.747 130.935C326.372 130.561 325.864 130.35 325.334 130.349ZM326.001 243.579C326.001 243.667 325.984 243.754 325.95 243.835C325.917 243.916 325.868 243.989 325.806 244.051C325.744 244.113 325.671 244.162 325.59 244.196C325.509 244.229 325.422 244.246 325.334 244.246H160.819C160.732 244.246 160.645 244.229 160.564 244.196C160.483 244.162 160.41 244.113 160.348 244.051C160.286 243.989 160.237 243.916 160.203 243.835C160.17 243.754 160.153 243.667 160.153 243.579V132.348C160.153 132.171 160.224 132.002 160.348 131.877C160.473 131.752 160.643 131.682 160.819 131.682H325.334C325.511 131.682 325.68 131.752 325.805 131.877C325.93 132.002 326 132.171 326.001 132.348V243.579Z" fill="#3F3D56"/>
<path d="M241.771 208.945H168.452C167.915 208.945 167.479 209.38 167.479 209.918V216.631C167.479 217.168 167.915 217.604 168.452 217.604H241.771C242.308 217.604 242.744 217.168 242.744 216.631V209.918C242.744 209.38 242.308 208.945 241.771 208.945Z" fill="#3F3D56"/>
<path d="M311.346 201.619H287.372C287.11 201.619 286.85 201.671 286.607 201.771C286.365 201.872 286.144 202.019 285.959 202.204C285.773 202.39 285.626 202.611 285.525 202.853C285.425 203.096 285.373 203.356 285.373 203.618V222.266C285.373 222.529 285.425 222.789 285.525 223.031C285.626 223.274 285.773 223.494 285.959 223.68C286.144 223.865 286.365 224.013 286.607 224.113C286.85 224.213 287.11 224.265 287.372 224.265H311.346C311.609 224.265 311.869 224.213 312.111 224.113C312.354 224.013 312.574 223.865 312.76 223.68C312.945 223.494 313.092 223.274 313.193 223.031C313.293 222.789 313.345 222.529 313.345 222.266V203.618C313.345 203.356 313.293 203.096 313.193 202.853C313.092 202.611 312.945 202.39 312.76 202.204C312.574 202.019 312.354 201.872 312.111 201.771C311.869 201.671 311.609 201.619 311.346 201.619ZM312.012 222.266C312.012 222.443 311.942 222.612 311.817 222.737C311.692 222.862 311.523 222.932 311.346 222.932H287.372C287.195 222.932 287.026 222.862 286.901 222.737C286.776 222.612 286.706 222.443 286.706 222.266V203.618C286.705 203.53 286.723 203.444 286.756 203.363C286.789 203.282 286.838 203.208 286.9 203.146C286.962 203.084 287.036 203.035 287.117 203.002C287.198 202.968 287.285 202.951 287.372 202.952H311.346C311.434 202.951 311.52 202.968 311.601 203.002C311.682 203.035 311.756 203.084 311.818 203.146C311.88 203.208 311.929 203.282 311.962 203.363C311.996 203.444 312.013 203.53 312.012 203.618V222.266Z" fill="#3F3D56"/>
<path d="M306.558 205.922H292.159C291.622 205.922 291.187 206.358 291.187 206.895V208.331C291.187 208.868 291.622 209.303 292.159 209.303H306.558C307.095 209.303 307.531 208.868 307.531 208.331V206.895C307.531 206.358 307.095 205.922 306.558 205.922Z" fill="#3F3D56"/>
<path d="M306.558 211.25H292.159C291.622 211.25 291.187 211.686 291.187 212.223V213.659C291.187 214.196 291.622 214.632 292.159 214.632H306.558C307.095 214.632 307.531 214.196 307.531 213.659V212.223C307.531 211.686 307.095 211.25 306.558 211.25Z" fill="#3F3D56"/>
<path d="M306.558 216.579H292.159C291.622 216.579 291.187 217.014 291.187 217.552V218.988C291.187 219.525 291.622 219.96 292.159 219.96H306.558C307.095 219.96 307.531 219.525 307.531 218.988V217.552C307.531 217.014 307.095 216.579 306.558 216.579Z" fill="#3F3D56"/>
<path d="M203.14 138.343H170.45C169.913 138.343 169.478 138.778 169.478 139.316V152.023C169.478 152.561 169.913 152.996 170.45 152.996H203.14C203.677 152.996 204.112 152.561 204.112 152.023V139.316C204.112 138.778 203.677 138.343 203.14 138.343Z" fill="#3F3D56"/>
<path d="M189.459 145.669C189.459 148.244 188.266 150.332 186.795 150.332C185.324 150.332 184.131 148.244 184.131 145.669C184.131 143.094 186.795 141.007 186.795 141.007C186.795 141.007 189.459 143.094 189.459 145.669Z" fill="#61A199"/>
<path d="M438.715 78.7151H437.742V187.478H327.333V188.45H438.715V78.7151Z" fill="#3F3D56"/>
<path d="M148.83 188.45H37.4482V78.7151H38.421V187.478H148.83V188.45Z" fill="#3F3D56"/>
<path d="M499.689 18.39H499.065V17.2991H499.533C499.615 17.2991 499.695 17.2662 499.753 17.2078C499.812 17.1493 499.844 17.07 499.844 16.9874V11.3769C499.844 11.2942 499.812 11.2149 499.753 11.1565C499.695 11.098 499.615 11.0652 499.533 11.0652H499.065V7.87886C499.065 6.98745 498.89 6.10476 498.549 5.28121C498.207 4.45765 497.707 3.70935 497.077 3.07903C496.447 2.4487 495.698 1.94871 494.875 1.60759C494.051 1.26646 493.169 1.0909 492.277 1.09091H491.585V0.311664C491.585 0.228998 491.552 0.149717 491.493 0.0912632C491.435 0.0328093 491.355 -2.92276e-05 491.273 -3.05176e-05H485.662C485.58 -2.92276e-05 485.5 0.0328093 485.442 0.0912632C485.383 0.149717 485.351 0.228998 485.351 0.311664V1.09091H383.98C383.089 1.0909 382.206 1.26646 381.383 1.60759C380.559 1.94871 379.811 2.4487 379.181 3.07903C378.55 3.70935 378.05 4.45765 377.709 5.28121C377.368 6.10476 377.192 6.98745 377.192 7.87886V152.332C377.192 153.224 377.368 154.106 377.709 154.93C378.05 155.754 378.55 156.502 379.181 157.132C379.811 157.763 380.559 158.263 381.383 158.604C382.206 158.945 383.089 159.12 383.98 159.12H492.277C493.169 159.12 494.051 158.945 494.875 158.604C495.698 158.263 496.447 157.763 497.077 157.132C497.707 156.502 498.207 155.754 498.549 154.93C498.89 154.106 499.065 153.224 499.065 152.332V24.6239H499.689C499.771 24.6239 499.851 24.5911 499.909 24.5326C499.967 24.4741 500 24.3949 500 24.3122V18.7017C500 18.6608 499.992 18.6202 499.977 18.5824C499.961 18.5446 499.938 18.5102 499.909 18.4813C499.88 18.4523 499.846 18.4294 499.808 18.4137C499.77 18.3981 499.73 18.39 499.689 18.39Z" fill="#3F3D56"/>
<path d="M493.463 5.53101H383.728C383.217 5.53101 382.802 5.9458 382.802 6.45747V152.663C382.802 153.175 383.217 153.589 383.728 153.589H493.463C493.975 153.589 494.39 153.175 494.39 152.663V6.45747C494.39 5.9458 493.975 5.53101 493.463 5.53101Z" fill="#D0CDE1"/>
<path d="M443.952 78.0931H426.755C426.218 78.0931 425.782 78.5286 425.782 79.0658V82.793C425.782 83.3302 426.218 83.7658 426.755 83.7658H443.952C444.489 83.7658 444.925 83.3302 444.925 82.793V79.0658C444.925 78.5286 444.489 78.0931 443.952 78.0931Z" fill="#3F3D56"/>
<path d="M467.094 33.9272H403.612C403.075 33.9272 402.64 34.3627 402.64 34.9V35.3856C402.64 35.9228 403.075 36.3583 403.612 36.3583H467.094C467.631 36.3583 468.067 35.9228 468.067 35.3856V34.9C468.067 34.3627 467.631 33.9272 467.094 33.9272Z" fill="#3F3D56"/>
<path d="M467.094 41.6259H403.612C403.075 41.6259 402.64 42.0614 402.64 42.5986V43.0842C402.64 43.6215 403.075 44.057 403.612 44.057H467.094C467.631 44.057 468.067 43.6215 468.067 43.0842V42.5986C468.067 42.0614 467.631 41.6259 467.094 41.6259Z" fill="#3F3D56"/>
<path d="M467.094 49.3245H403.612C403.075 49.3245 402.64 49.76 402.64 50.2972V50.7829C402.64 51.3201 403.075 51.7556 403.612 51.7556H467.094C467.631 51.7556 468.067 51.3201 468.067 50.7829V50.2972C468.067 49.76 467.631 49.3245 467.094 49.3245Z" fill="#3F3D56"/>
<path d="M467.094 57.0231H403.612C403.075 57.0231 402.64 57.4586 402.64 57.9959V58.4815C402.64 59.0187 403.075 59.4543 403.612 59.4543H467.094C467.631 59.4543 468.067 59.0187 468.067 58.4815V57.9959C468.067 57.4586 467.631 57.0231 467.094 57.0231Z" fill="#3F3D56"/>
<path d="M467.094 64.7218H403.612C403.075 64.7218 402.64 65.1573 402.64 65.6945V66.1802C402.64 66.7174 403.075 67.1529 403.612 67.1529H467.094C467.631 67.1529 468.067 66.7174 468.067 66.1802V65.6945C468.067 65.1573 467.631 64.7218 467.094 64.7218Z" fill="#3F3D56"/>
<path d="M433.037 147.743C444.26 147.743 453.358 138.645 453.358 127.422C453.358 116.199 444.26 107.101 433.037 107.101C421.814 107.101 412.716 116.199 412.716 127.422C412.716 138.645 421.814 147.743 433.037 147.743Z" fill="#61A199"/>
<path d="M439.027 143.096C433.988 143.096 429.062 141.602 424.872 138.803C420.682 136.003 417.417 132.024 415.488 127.369C413.56 122.713 413.055 117.59 414.038 112.648C415.021 107.706 417.448 103.166 421.011 99.6032C424.574 96.04 429.114 93.6135 434.056 92.6304C438.998 91.6474 444.121 92.1519 448.777 94.0803C453.432 96.0086 457.411 99.2742 460.211 103.464C463.01 107.654 464.504 112.58 464.504 117.619C464.497 124.373 461.81 130.849 457.034 135.626C452.257 140.402 445.781 143.089 439.027 143.096ZM439.027 93.0674C434.171 93.0674 429.424 94.5073 425.387 97.205C421.349 99.9027 418.202 103.737 416.344 108.223C414.486 112.709 414 117.646 414.947 122.408C415.894 127.171 418.233 131.546 421.666 134.979C425.1 138.413 429.474 140.751 434.237 141.698C438.999 142.646 443.936 142.159 448.422 140.301C452.908 138.443 456.743 135.296 459.44 131.259C462.138 127.221 463.578 122.474 463.578 117.619C463.571 111.11 460.982 104.869 456.379 100.266C451.776 95.6637 445.536 93.0747 439.027 93.0674Z" fill="#3F3D56"/>
<path d="M75.629 42.7589H74.7956V19.9288C74.7956 18.1936 74.4538 16.4753 73.7898 14.8722C73.1258 13.2691 72.1525 11.8124 70.9255 10.5855C69.6985 9.35847 68.2418 8.38517 66.6387 7.72114C65.0356 7.0571 63.3173 6.71533 61.5821 6.71533H13.2135C11.4783 6.71533 9.76003 7.0571 8.1569 7.72114C6.55377 8.38517 5.09712 9.35847 3.87014 10.5855C2.64315 11.8124 1.66985 13.2691 1.00582 14.8722C0.341776 16.4754 -1.91619e-06 18.1936 0 19.9288V145.177C-1.9162e-06 146.912 0.341775 148.63 1.00582 150.233C1.66985 151.836 2.64315 153.293 3.87014 154.52C5.09713 155.747 6.55377 156.72 8.15691 157.384C9.76005 158.048 11.4783 158.39 13.2135 158.39H61.5821C63.3174 158.39 65.0356 158.048 66.6387 157.384C68.2419 156.72 69.6985 155.747 70.9255 154.52C72.1525 153.293 73.1258 151.836 73.7898 150.233C74.4538 148.63 74.7956 146.912 74.7956 145.177V59.0098H75.629V42.7589Z" fill="#3F3D56"/>
<path d="M71.9821 20.7054V145.771C71.9825 148.388 70.9433 150.898 69.093 152.749C67.2427 154.6 64.733 155.64 62.1158 155.64H13.5137C10.8965 155.64 8.38676 154.6 6.53649 152.749C4.68622 150.898 3.64701 148.388 3.64746 145.771V20.7054C3.64774 18.0888 4.6873 15.5794 6.53751 13.7292C8.38773 11.879 10.8971 10.8395 13.5137 10.8392H19.4102C19.1201 11.551 19.0094 12.3232 19.0879 13.0879C19.1665 13.8525 19.4319 14.5862 19.8608 15.2241C20.2896 15.862 20.8688 16.3847 21.5472 16.746C22.2256 17.1074 22.9825 17.2964 23.7512 17.2964H51.4613C52.23 17.2964 52.9869 17.1074 53.6654 16.7461C54.3438 16.3847 54.923 15.862 55.3518 15.2241C55.7807 14.5862 56.0461 13.8526 56.1247 13.0879C56.2032 12.3232 56.0925 11.551 55.8023 10.8392H62.1158C64.7324 10.8395 67.2418 11.879 69.092 13.7293C70.9422 15.5795 71.9818 18.0888 71.9821 20.7054Z" fill="#D0CDE1"/>
<path d="M43.3517 84.5206H32.2775C31.7402 84.5206 31.3047 84.9561 31.3047 85.4934V87.4061C31.3047 87.9434 31.7402 88.3789 32.2775 88.3789H43.3517C43.8889 88.3789 44.3244 87.9434 44.3244 87.4061V85.4934C44.3244 84.9561 43.8889 84.5206 43.3517 84.5206Z" fill="#3F3D56"/>
<path d="M59.2381 54.4811H16.3912C15.9346 54.4811 15.5645 54.8512 15.5645 55.3079C15.5645 55.7645 15.9346 56.1346 16.3912 56.1346H59.2381C59.6947 56.1346 60.0648 55.7645 60.0648 55.3079C60.0648 54.8512 59.6947 54.4811 59.2381 54.4811Z" fill="#3F3D56"/>
<path d="M59.2381 59.7173H16.3912C15.9346 59.7173 15.5645 60.0875 15.5645 60.5441C15.5645 61.0007 15.9346 61.3709 16.3912 61.3709H59.2381C59.6947 61.3709 60.0648 61.0007 60.0648 60.5441C60.0648 60.0875 59.6947 59.7173 59.2381 59.7173Z" fill="#3F3D56"/>
<path d="M59.2381 64.9536H16.3912C15.9346 64.9536 15.5645 65.3237 15.5645 65.7803C15.5645 66.237 15.9346 66.6071 16.3912 66.6071H59.2381C59.6947 66.6071 60.0648 66.237 60.0648 65.7803C60.0648 65.3237 59.6947 64.9536 59.2381 64.9536Z" fill="#3F3D56"/>
<path d="M59.2381 70.1898H16.3912C15.9346 70.1898 15.5645 70.56 15.5645 71.0166C15.5645 71.4732 15.9346 71.8434 16.3912 71.8434H59.2381C59.6947 71.8434 60.0648 71.4732 60.0648 71.0166C60.0648 70.56 59.6947 70.1898 59.2381 70.1898Z" fill="#3F3D56"/>
<path d="M59.2381 75.4261H16.3912C15.9346 75.4261 15.5645 75.7962 15.5645 76.2528C15.5645 76.7095 15.9346 77.0796 16.3912 77.0796H59.2381C59.6947 77.0796 60.0648 76.7095 60.0648 76.2528C60.0648 75.7962 59.6947 75.4261 59.2381 75.4261Z" fill="#3F3D56"/>
<path d="M33.9858 138.701C41.7256 138.701 48 132.427 48 124.687C48 116.947 41.7256 110.673 33.9858 110.673C26.246 110.673 19.9717 116.947 19.9717 124.687C19.9717 132.427 26.246 138.701 33.9858 138.701Z" fill="#61A199"/>
<path d="M38.1164 135.497C34.6413 135.497 31.2442 134.466 28.3548 132.535C25.4653 130.605 23.2133 127.861 21.8834 124.65C20.5535 121.44 20.2056 117.907 20.8835 114.498C21.5615 111.09 23.2349 107.959 25.6922 105.502C28.1494 103.045 31.2802 101.371 34.6885 100.693C38.0969 100.015 41.6297 100.363 44.8403 101.693C48.0509 103.023 50.795 105.275 52.7257 108.165C54.6564 111.054 55.6869 114.451 55.6869 117.926C55.6816 122.585 53.8287 127.051 50.5348 130.345C47.2408 133.638 42.7748 135.491 38.1164 135.497ZM38.1164 100.995C34.7677 100.995 31.4941 101.988 28.7097 103.848C25.9254 105.709 23.7552 108.353 22.4737 111.447C21.1922 114.541 20.8569 117.945 21.5102 121.229C22.1635 124.514 23.7761 127.531 26.144 129.899C28.5119 132.266 31.5288 133.879 34.8132 134.532C38.0976 135.186 41.502 134.85 44.5958 133.569C47.6897 132.287 50.334 130.117 52.1945 127.333C54.0549 124.548 55.048 121.275 55.048 117.926C55.0429 113.437 53.2574 109.133 50.0832 105.959C46.9091 102.785 42.6054 101 38.1164 100.995Z" fill="#3F3D56"/>
<path d="M85.3629 182.487H71.7441V196.105H85.3629V182.487Z" fill="#D0CDE1"/>
<path d="M93.6318 188.323H77.0947V171.786H93.6318V188.323ZM77.8137 187.604H92.9128V172.505H77.8137V187.604Z" fill="#3F3D56"/>
<path d="M390.326 182.487H376.707V196.105H390.326V182.487Z" fill="#D0CDE1"/>
<path d="M398.595 188.323H382.058V171.786H398.595V188.323ZM382.777 187.604H397.876V172.505H382.777V187.604Z" fill="#3F3D56"/>
</g>
<defs>
<clipPath id="clip0_114_466">
<rect width="500" height="257.568" fill="white"/>
</clipPath>
</defs>
</svg>
