<svg width="502" height="267" viewBox="0 0 502 267" fill="none" xmlns="http://www.w3.org/2000/svg">
<g clip-path="url(#clip0_114_264)">
<path opacity="0.1" d="M251 267C389.623 267 502 232.001 502 188.828C502 145.656 389.623 110.657 251 110.657C112.377 110.657 0 145.656 0 188.828C0 232.001 112.377 267 251 267Z" fill="#61A199"/>
<g opacity="0.8">
<path opacity="0.8" d="M182.411 15.9161C186.666 21.8728 189.931 39.2205 190.841 44.4479L198.447 44.293C198.053 39.802 189.205 21.5349 186.745 16.5227C185.376 16.3085 183.915 16.0993 182.411 15.9161Z" fill="#65617D"/>
<path opacity="0.8" d="M87.4812 12.0404L87.3916 16.778L90.7606 16.8415L90.8503 12.1039L87.4812 12.0404Z" fill="#DCE0ED"/>
<path opacity="0.1" d="M87.4813 12.0404L87.4521 13.583C87.6889 13.6553 87.9349 13.6932 88.1825 13.6954L90.8198 13.7227L90.8504 12.1039L87.4813 12.0404Z" fill="black"/>
<path opacity="0.8" d="M92.5017 0.0606984L89.3207 0.000727199C88.5611 -0.0134505 87.8144 0.198958 87.1763 0.610783C86.5383 1.02261 86.0378 1.61511 85.739 2.31248C84.764 4.5841 83.9067 8.20937 85.9105 11.8788C86.1344 12.2888 86.4637 12.6317 86.8646 12.8723C87.2655 13.1128 87.7233 13.2423 88.1911 13.2473L92.2515 13.2892L92.5017 0.0606984Z" fill="#DCE0ED"/>
<path opacity="0.8" d="M95.7828 6.73912C95.8519 3.08618 94.3828 0.0961314 92.5015 0.0606612C90.6201 0.025191 89.039 2.95773 88.9699 6.61068C88.9008 10.2636 90.3699 13.2537 92.2512 13.2891C94.1326 13.3246 95.7137 10.3921 95.7828 6.73912Z" fill="#F0F0F4"/>
<path opacity="0.8" d="M117.409 12.6607L117.33 16.8087L120.699 16.8722L120.778 12.7243L117.409 12.6607Z" fill="#DCE0ED"/>
<path opacity="0.1" d="M117.409 12.6608L117.384 13.9791C117.621 14.0515 117.867 14.0894 118.114 14.0916L120.751 14.1189L120.778 12.7243L117.409 12.6608Z" fill="black"/>
<path opacity="0.8" d="M122.428 0.680999L119.247 0.621027C118.488 0.606851 117.741 0.819264 117.103 1.23109C116.465 1.64292 115.965 2.23542 115.666 2.93279C114.691 5.2044 113.833 8.82968 115.837 12.4991C116.061 12.9091 116.39 13.252 116.791 13.4926C117.192 13.7331 117.65 13.8626 118.118 13.8676L122.178 13.9095L122.428 0.680999Z" fill="#DCE0ED"/>
<path opacity="0.8" d="M125.71 7.35941C125.779 3.70648 124.31 0.716438 122.428 0.680974C120.547 0.645509 118.966 3.57805 118.897 7.23099C118.828 10.8839 120.297 13.874 122.178 13.9094C124.059 13.9449 125.64 11.0124 125.71 7.35941Z" fill="#F0F0F4"/>
<path opacity="0.8" d="M121.533 3.0827C121.533 3.0827 122.786 3.30709 122.101 4.95054C121.739 5.74867 121.47 6.58567 121.3 7.44506C121.3 7.44506 120.031 8.07364 120.122 5.91707C120.213 3.7605 121.533 3.0827 121.533 3.0827Z" fill="#DCE0ED"/>
<path opacity="0.8" d="M267.298 100.381C267.525 88.3697 258.81 78.4647 247.832 78.2578C236.854 78.0508 227.771 87.6202 227.543 99.6316C227.316 111.643 236.031 121.548 247.009 121.755C257.987 121.962 267.071 112.392 267.298 100.381Z" fill="#636780"/>
<path opacity="0.1" d="M240.358 79.474C250.747 80.3685 258.808 89.9738 258.589 101.531C258.413 110.847 252.909 118.692 245.326 121.648C234.937 120.754 226.877 111.148 227.095 99.5914C227.271 90.2757 232.775 82.4303 240.358 79.474Z" fill="black"/>
<path opacity="0.8" d="M108.879 49.8444C109.099 38.2458 102.053 28.7071 93.1425 28.5391C84.232 28.3711 76.8306 37.6374 76.6112 49.236C76.3918 60.8346 83.4373 70.3734 92.3479 70.5414C101.258 70.7094 108.66 61.443 108.879 49.8444Z" fill="#636780"/>
<path opacity="0.1" d="M97.635 29.5038C104.278 32.1898 109.011 40.3338 108.831 49.8723C108.638 60.0656 102.898 68.4563 95.4617 70.2263C88.8187 67.5402 84.0853 59.3963 84.2657 49.8578C84.4586 39.6645 90.1987 31.2738 97.635 29.5038Z" fill="black"/>
<path opacity="0.8" d="M153.436 46.1986L153.28 38.5698C153.28 38.5698 154.84 35.3096 156.343 35.0389C157.846 34.7682 161.293 34.6462 161.293 34.6462C161.293 34.6462 163.781 45.6461 161.922 48.9006C160.063 52.1552 153.436 46.1986 153.436 46.1986Z" fill="#65617D"/>
<path opacity="0.1" d="M153.436 46.1986L153.28 38.5698C153.28 38.5698 154.84 35.3096 156.343 35.0389C157.846 34.7682 161.293 34.6462 161.293 34.6462C161.293 34.6462 163.781 45.6461 161.922 48.9006C160.063 52.1552 153.436 46.1986 153.436 46.1986Z" fill="black"/>
<path opacity="0.8" d="M181.077 45.8974C181.077 45.8974 182.205 35.3445 176.389 35.0446C175.64 35.006 174.892 34.9739 174.148 34.8878C170.121 34.4219 159.138 33.3673 160.408 35.9005C160.408 35.9005 162.855 45.1426 161.014 47.4256L181.077 45.8974Z" fill="#65617D"/>
<path opacity="0.8" d="M98.2398 63.9424L90.4306 64.0195C90.4306 64.0195 89.3545 49.6445 88.9265 48.515C88.4985 47.3855 88.3757 42.0002 89.8504 41.243C91.3252 40.4857 96.2284 39.6249 96.2284 39.6249L99.6672 47.8764L99.808 55.2807L98.2398 63.9424Z" fill="#65617D"/>
<path opacity="0.1" d="M98.2398 63.9424L90.4306 64.0195C90.4306 64.0195 89.3545 49.6445 88.9265 48.515C88.4985 47.3855 88.3757 42.0002 89.8504 41.243C91.3252 40.4857 96.2284 39.6249 96.2284 39.6249L99.6672 47.8764L99.808 55.2807L98.2398 63.9424Z" fill="black"/>
<path opacity="0.8" d="M117.557 40.4757L117.622 38.8783C117.627 38.7523 117.606 38.6267 117.561 38.509C117.515 38.3914 117.446 38.2844 117.358 38.1945C117.269 38.1046 117.163 38.0338 117.046 37.9864C116.929 37.939 116.804 37.9161 116.677 37.9191C112.806 38.0091 98.7171 38.4168 96.228 39.6249C96.228 39.6249 98.5447 59.6866 95.4785 64.395L96.1859 80.4452L130.711 78.5168L117.557 40.4757Z" fill="#65617D"/>
<path opacity="0.1" d="M120.73 15.2556C119.775 15.1434 118.638 15.0188 117.366 14.8961L117.33 16.8086L120.699 16.8722L120.73 15.2556Z" fill="black"/>
<path opacity="0.1" d="M87.3962 16.5359L87.3916 16.778L90.7607 16.8415L90.7882 15.3864C89.614 15.6271 88.4745 16.0132 87.3962 16.5359Z" fill="black"/>
<path opacity="0.8" d="M69.5928 63.9069L74.6831 64.0769L85.5649 45.1903L87.3813 42.0373L86.1863 33.9406L85.1142 35.8763L69.5928 63.9069Z" fill="#DCE0ED"/>
<path opacity="0.8" d="M116.081 41.3068L118.117 44.4853L124.544 36.1462L127.485 32.3257L125.807 29.9775L124.458 31.5488L116.081 41.3068Z" fill="#DCE0ED"/>
<path opacity="0.1" d="M124.458 31.5489C124.445 31.7101 124.433 31.8759 124.419 32.0438L124.544 36.1462L127.485 32.3259L125.806 29.9774L124.458 31.5489Z" fill="black"/>
<path opacity="0.1" d="M85.1143 35.8763L85.5649 45.1903L87.3814 42.0373L86.1863 33.9406L85.1143 35.8763Z" fill="black"/>
<path opacity="0.8" d="M130.306 37.6133C130.306 37.6133 133.174 18.9157 124.076 15.9404C123.959 15.903 123.839 15.876 123.717 15.8598C121.616 15.5663 102.025 12.9364 91.7801 15.4297C91.7801 15.4297 84.7976 16.3448 84.8018 20.083L87.0074 65.8053L92.0235 65.8999L90.9477 35.675C90.9477 35.675 88.8008 22.4761 92.7858 21.6541C96.7707 20.832 114.842 19.6775 121.172 21.5911C121.172 21.5911 125.834 20.6323 124.869 32.053L125.052 38.1871L130.306 37.6133Z" fill="#DCE0ED"/>
<path opacity="0.8" d="M114.927 42.8933C114.895 42.3978 114.991 41.9023 115.206 41.4546C115.421 41.0069 115.748 40.622 116.155 40.3371C117.579 39.2986 121.946 37.0819 121.946 37.0819L123.348 37.2205L127.362 47.7257L126.662 69.8613L118.905 79.0792L114.927 42.8933Z" fill="#65617D"/>
<path opacity="0.1" d="M114.927 42.8933C114.895 42.3978 114.991 41.9023 115.206 41.4546C115.421 41.0069 115.748 40.622 116.155 40.3371C117.579 39.2986 121.946 37.0819 121.946 37.0819L123.348 37.2205L127.362 47.7257L126.662 69.8613L118.905 79.0792L114.927 42.8933Z" fill="black"/>
<path opacity="0.8" d="M144.735 66.6694L145.015 43.9465C145.015 43.9465 145.855 35.1402 140.58 34.8912C140.58 34.8912 128.13 34.747 122.69 36.3978C122.518 36.4494 122.36 36.5386 122.227 36.6588C122.094 36.779 121.99 36.9273 121.921 37.0928C121.853 37.2584 121.822 37.4371 121.832 37.6159C121.841 37.7947 121.89 37.9692 121.976 38.1267C123.017 40.0181 124.739 45.0047 125.375 57.7253L125.117 71.3461L144.735 66.6694Z" fill="#65617D"/>
<path opacity="0.8" d="M118.2 80.6918L140.859 80.592L140.882 80.5924L152.018 80.5447L151.007 65.6662L144.826 65.7742L125.091 69.7755L118.905 79.0792L118.2 80.6918Z" fill="#65617D"/>
<path opacity="0.1" d="M118.2 80.6918L140.859 80.592L140.882 80.5924L152.018 80.5447L151.007 65.6662L144.826 65.7742L125.091 69.7755L118.905 79.0792L118.2 80.6918Z" fill="black"/>
<path opacity="0.8" d="M118.2 80.6918L140.859 80.592L141.42 70.6442L125.091 69.7755L118.905 79.0792L118.2 80.6918Z" fill="#65617D"/>
<path opacity="0.1" d="M140.882 80.5926L152.018 80.5446L151.008 65.6663C151.008 65.6663 147.421 71.1499 141.421 70.6442L140.882 80.5926Z" fill="white"/>
<path opacity="0.8" d="M60.765 91.1042C61.1336 95.3727 64.1785 94.7572 64.1785 94.7572L64.7455 94.7163L70.3657 94.3131L70.2662 87.6946C68.3643 87.5497 66.452 87.6281 64.5683 87.9281C62.4556 88.3234 60.6009 89.2081 60.765 91.1042Z" fill="#DCE0ED"/>
<path opacity="0.1" d="M60.765 91.1041C61.1336 95.3726 64.1785 94.7571 64.1785 94.7571L64.7455 94.7162C65.3718 93.7729 65.7039 92.6654 65.6999 91.5336C65.7715 90.2348 65.3695 88.954 64.5683 87.9281C62.4556 88.3234 60.6009 89.208 60.765 91.1041Z" fill="black"/>
<path opacity="0.8" d="M139.072 49.2549C138.942 56.1686 142.992 61.8517 148.119 61.9484C153.246 62.045 157.509 56.5187 157.64 49.6049C157.77 42.6912 153.72 37.0081 148.593 36.9114C143.466 36.8147 139.203 42.3411 139.072 49.2549ZM142.576 50.1433C142.671 45.1282 145.915 41.1224 149.822 41.1961C153.73 41.2698 156.821 45.395 156.726 50.4101C156.631 55.4251 153.386 59.4309 149.479 59.3573C145.571 59.2836 142.481 55.1584 142.576 50.1433V50.1433Z" fill="#636780"/>
<path opacity="0.8" d="M147.834 53.2703L143.411 57.4484L141.911 53.6072L148.27 50.0638L147.834 53.2703Z" fill="#636780"/>
<path opacity="0.8" d="M142.23 10.987L138.441 11.3752L137.007 13.0122L138.953 22.6037L143.18 38.0774L145.944 48.6982L147.908 55.153L149.076 63.6685L150.295 69.5304L154.206 73.5853L162.493 64.1867L163.883 61.0279L167.195 54.588L159.029 50.5853L150.007 49.619L145.96 38.6608L142.744 25.9928L142.23 10.987Z" fill="#61A199"/>
<path opacity="0.8" d="M217.847 57.9545L222.005 99.4525L159.839 95.6635L167.411 75.4705L179.537 67.9235L152.127 67.8556L152.192 56.4926L163.318 54.3099L185.662 52.937L202.447 52.5056L218.37 58.0396" fill="#65617D"/>
<path opacity="0.1" d="M217.847 57.9545L222.005 99.4525L159.839 95.6635L167.411 75.4705L179.537 67.9235L152.127 67.8556L152.192 56.4926L163.318 54.3099L185.662 52.937L202.447 52.5056L218.37 58.0396" fill="black"/>
<path opacity="0.8" d="M132.068 97.6162C131.873 107.905 135.12 117.336 144.642 116.49C156.632 116.459 157.726 108.392 157.921 98.1036C158.116 87.8147 152.473 80.0485 145.334 79.9139C138.195 79.7793 132.262 87.3273 132.068 97.6162Z" fill="#636780"/>
<path opacity="0.1" d="M131.993 97.6322C132.143 89.6665 135.734 83.3448 140.66 80.9581C146.904 82.2657 151.585 89.5517 151.407 98.9386C151.248 107.37 150.482 114.309 143.613 116.556C134.828 116.705 131.805 107.569 131.993 97.6322Z" fill="black"/>
<path opacity="0.8" d="M120.163 81.238L123.738 85.4854L117.181 84.2339L112.35 79.6307L108.13 70.7926L102.022 66.8952L86.8331 68.6658L72.8028 68.9321L67.7139 64.2456L73.5026 63.5704L79.3522 63.5484L94.0432 63.4935L111.527 63.3585L114.935 72.978L117.535 79.5956L120.163 81.238Z" fill="#61A199"/>
<path opacity="0.8" d="M69.5601 97.3258C69.8503 97.7799 79.6305 99.4603 79.6305 99.4603L106.638 104.904L153.194 106.455L158.747 101.923L161.607 102.486L161.724 102.509L199.935 110.027L200.561 109.949L211.04 108.66L265.77 101.922L265.309 94.0005L265.036 89.3256L264.471 79.6189L263.994 77.0664L259.142 76.5308L256.875 76.2795L221.509 72.3672L216.886 71.8562L214.294 71.5696L189.053 67.6553L152.127 67.8563L152.192 56.4926L138.441 11.3751C135.212 11.8368 135.245 14.0063 135.245 14.0063L146.874 56.4664L146.534 82.4038C120.637 84.5218 119.91 78.8851 115.784 80.7026L111.141 64.8406L67.7144 64.2462C65.9521 66.3056 69.5601 97.3258 69.5601 97.3258Z" fill="#65617D"/>
<path opacity="0.8" d="M177.74 75.8146L163.405 105.076L158.735 106.483L157.703 101.679L163.179 85.4089L168.674 76.0175L177.74 75.8146Z" fill="#65617D"/>
<path opacity="0.15" d="M177.74 75.8146L163.405 105.076L158.735 106.483L157.703 101.679L163.179 85.4089L168.674 76.0175L177.74 75.8146Z" fill="black"/>
<path opacity="0.8" d="M211.039 108.965C211.334 93.3622 200.403 80.5034 186.624 80.2437C172.845 79.984 161.436 92.4216 161.141 108.024C160.846 123.626 171.776 136.485 185.555 136.745C199.334 137.005 210.743 124.567 211.039 108.965Z" fill="#636780"/>
<path opacity="0.1" d="M177.693 81.8383C190.732 82.9917 200.841 95.4619 200.557 110.474C200.328 122.575 193.414 132.77 183.894 136.617C170.855 135.463 160.745 122.993 161.029 107.981C161.258 95.88 168.173 85.6847 177.693 81.8383Z" fill="black"/>
<path opacity="0.8" d="M253.9 60.3549L255.026 66.1897L258.469 84.0656L274.746 82.8025C274.746 82.8025 275.776 79.8321 273.252 78.663C273.252 78.663 272.608 68.5286 269.665 65.2859C269.35 64.9166 268.951 64.6276 268.502 64.4431L253.9 60.3549Z" fill="#65617D"/>
<path opacity="0.1" d="M255.026 66.1896L258.47 84.0655L274.747 82.8024C274.747 82.8024 275.776 79.8319 273.253 78.6629C273.253 78.6629 272.609 68.5285 269.666 65.2858L255.026 66.1896Z" fill="white"/>
<path opacity="0.8" d="M217.261 61.234C215.099 64.7057 219.576 97.1643 219.576 97.1643L259.606 91.3383L258.72 62.9869C257.992 57.8884 255.009 57.2356 255.009 57.2356C241.068 49.8694 208.753 47.7642 208.753 47.7642C179.235 48.3291 152.192 56.4926 152.192 56.4926C185.83 51.9681 217.261 61.234 217.261 61.234Z" fill="#65617D"/>
<path opacity="0.1" d="M219.576 97.1643L259.606 91.3383L258.72 62.9869C257.992 57.8884 255.009 57.2356 255.009 57.2356C255.009 57.2356 225.937 53.9197 217.261 61.234C215.099 64.7057 219.576 97.1643 219.576 97.1643Z" fill="black"/>
<path opacity="0.8" d="M223.83 95.3747L257.302 90.3911L256.571 66.2023C255.963 61.8526 253.47 61.2965 253.47 61.2965C253.47 61.2965 229.163 58.4768 221.906 64.7201C220.097 67.6828 223.83 95.3747 223.83 95.3747Z" fill="#65617D"/>
<path opacity="0.1" d="M231.517 75.6325C231.604 71.0508 229.63 67.2981 227.107 67.2506C224.585 67.203 222.47 70.8786 222.384 75.4603C222.297 80.0419 224.271 83.7947 226.794 83.8422C229.316 83.8898 231.431 80.2141 231.517 75.6325Z" fill="black"/>
<path opacity="0.8" d="M231.522 75.4082C231.609 70.8266 229.635 67.0739 227.112 67.0263C224.59 66.9788 222.475 70.6544 222.388 75.236C222.302 79.8177 224.276 83.5704 226.798 83.618C229.321 83.6655 231.436 79.9899 231.522 75.4082Z" fill="#DCE0ED"/>
<path opacity="0.8" d="M226.472 69.1824C226.472 69.1824 228.338 69.5167 227.318 71.9646C226.779 73.1535 226.379 74.4002 226.125 75.6803C226.125 75.6803 224.235 76.6166 224.37 73.4044C224.506 70.1921 226.472 69.1824 226.472 69.1824Z" fill="#F0F0F4"/>
<path opacity="0.1" d="M255.762 72.7999C255.843 68.5187 253.998 65.0121 251.641 64.9677C249.284 64.9232 247.308 68.3578 247.227 72.639C247.146 76.9203 248.991 80.4269 251.348 80.4713C253.704 80.5158 255.681 77.0812 255.762 72.7999Z" fill="black"/>
<path opacity="0.8" d="M255.767 72.5757C255.848 68.2945 254.003 64.7879 251.646 64.7434C249.289 64.699 247.313 68.1336 247.232 72.4148C247.151 76.696 248.996 80.2026 251.352 80.2471C253.709 80.2915 255.686 76.8569 255.767 72.5757Z" fill="#DCE0ED"/>
<path opacity="0.8" d="M251.016 66.3555C251.016 66.3555 252.882 66.6898 251.862 69.1377C251.323 70.3266 250.923 71.5733 250.669 72.8534C250.669 72.8534 248.779 73.7897 248.914 70.5774C249.05 67.3651 251.016 66.3555 251.016 66.3555Z" fill="#F0F0F4"/>
<path opacity="0.1" d="M232.325 68.6191C232.566 71.6897 233.634 94.4373 233.634 94.4373L236.183 94.0614L237.6 93.8549L239.488 93.5765L239.716 93.5426L247.153 92.4493L246.145 68.3211C246.112 67.5461 245.782 66.8134 245.223 66.2747C244.664 65.736 243.919 65.4325 243.141 65.4272C243.067 65.4281 242.991 65.4289 242.914 65.4342C242.401 65.4694 241.848 65.5128 241.272 65.5647C241.029 65.587 240.783 65.6093 240.533 65.636C239.82 65.7078 239.083 65.7971 238.36 65.9023C237.991 65.9582 237.628 66.0163 237.269 66.0791C236.663 66.1888 236.076 66.3101 235.535 66.4502C235.167 66.5441 234.816 66.6474 234.495 66.7603C233.147 67.2193 232.262 67.8262 232.325 68.6191Z" fill="black"/>
<path opacity="0.8" d="M243.141 65.4272L244.079 92.5416L244.905 92.4831L243.976 65.5506C243.705 65.4709 243.424 65.4294 243.141 65.4272Z" fill="#65617D"/>
<path opacity="0.8" d="M240.533 65.636L241.375 93.0132L242.648 93.0372L241.271 65.5647C241.028 65.587 240.783 65.6094 240.533 65.636Z" fill="#65617D"/>
<path opacity="0.8" d="M237.269 66.0792L238.892 93.5653L239.716 93.5808L239.715 93.5427L238.359 65.9023C237.99 65.9582 237.627 66.0164 237.269 66.0792Z" fill="#65617D"/>
<path opacity="0.8" d="M234.495 66.7603L236.183 94.0615L236.186 94.1131L237.611 93.9897L237.6 93.8549L235.535 66.4502C235.167 66.5442 234.816 66.6475 234.495 66.7603Z" fill="#65617D"/>
<path opacity="0.1" d="M264.547 88.4417C264.547 88.4417 267.566 74.3122 261.291 73.4649C255.016 72.6177 234.324 73.7415 234.831 79.5827C235.339 85.4238 235.845 94.2928 235.845 94.2928L240.131 93.4204C240.131 93.4204 237.182 80.0195 242.189 79.6092C247.196 79.199 259.464 78.0284 259.464 78.0284C259.464 78.0284 262.787 77.5304 260.656 89.2094L264.547 88.4417Z" fill="black"/>
<path opacity="0.8" d="M264.522 89.787C264.522 89.787 267.559 74.7606 261.284 73.9133C255.008 73.0661 234.316 74.1899 234.824 80.0311C235.331 85.8722 235.837 94.7413 235.837 94.7413L240.123 93.8688C240.123 93.8688 237.175 80.4679 242.181 80.0577C247.188 79.6474 259.456 78.4769 259.456 78.4769C259.456 78.4769 262.762 78.8756 260.632 90.5547L264.522 89.787Z" fill="#DCE0ED"/>
<path opacity="0.8" d="M153.194 106.455L158.734 106.483C163.114 88.7722 169.987 77.8375 169.987 77.8375C172.256 76.6825 196.809 77.2957 196.809 77.2957C199.347 77.7922 199.868 85.8765 199.868 85.8765C199.868 85.8765 197.661 87.7032 199.734 88.94C200.661 89.4913 203.74 89.6503 207.295 89.5356C211.708 89.3901 216.855 88.8187 219.523 88.0414C224.345 86.6363 220.579 83.7997 220.579 83.7997C220.579 83.7997 219.922 82.8902 219.566 77.9491C219.312 75.0636 218.432 72.2679 216.986 69.7564C216.786 69.4095 216.66 69.2209 216.66 69.2209C216.412 68.9769 216.118 68.7853 215.794 68.6573C209.497 65.892 178.339 67.8256 178.339 67.8256L166.741 71.2718C166.42 71.3936 165.912 72.196 165.282 73.4805C161.491 81.2121 153.194 106.455 153.194 106.455Z" fill="#65617D"/>
<path opacity="0.1" d="M153.194 106.455L158.734 106.483C163.114 88.7722 169.987 77.8375 169.987 77.8375C172.256 76.6825 196.809 77.2957 196.809 77.2957C199.347 77.7922 199.868 85.8765 199.868 85.8765C199.868 85.8765 197.661 87.7032 199.734 88.94C200.661 89.4913 203.74 89.6503 207.295 89.5356C211.708 89.3901 216.855 88.8187 219.523 88.0414C224.345 86.6363 220.579 83.7997 220.579 83.7997C220.579 83.7997 219.922 82.8902 219.566 77.9491C219.312 75.0636 218.432 72.2679 216.986 69.7564C216.786 69.4095 216.66 69.2209 216.66 69.2209C216.412 68.9769 216.118 68.7853 215.794 68.6573C209.497 65.892 178.339 67.8256 178.339 67.8256L166.741 71.2718C166.42 71.3936 165.912 72.196 165.282 73.4805C161.491 81.2121 153.194 106.455 153.194 106.455Z" fill="black"/>
<path opacity="0.8" d="M165.282 73.4805C176.004 69.5534 205.294 72.297 205.294 72.297C208.459 69.6966 214.323 69.6322 216.987 69.7564C216.787 69.4095 216.66 69.2209 216.66 69.2209C216.413 68.9769 216.118 68.7853 215.795 68.6573C209.497 65.892 178.34 67.8256 178.34 67.8256L166.742 71.2718C166.42 71.3936 165.913 72.196 165.282 73.4805Z" fill="#65617D"/>
<path opacity="0.8" d="M203.549 73.3856C204.179 75.7144 206.773 85.0355 206.773 85.0355C207.034 86.5244 207.208 88.0269 207.295 89.5357C211.708 89.3901 216.855 88.8188 219.523 88.0415C224.345 86.6363 220.579 83.7998 220.579 83.7998C220.579 83.7998 219.922 82.8903 219.566 77.9491C219.295 74.8528 218.299 71.8633 216.66 69.221C216.412 68.977 216.118 68.7853 215.794 68.6574C211.614 69.5587 203.073 71.6227 203.549 73.3856Z" fill="#65617D"/>
<path opacity="0.1" d="M203.549 73.3856C204.179 75.7144 206.773 85.0355 206.773 85.0355C207.034 86.5244 207.208 88.0269 207.295 89.5357C211.708 89.3901 216.855 88.8188 219.523 88.0415C224.345 86.6363 220.579 83.7998 220.579 83.7998C220.579 83.7998 219.922 82.8903 219.566 77.9491C219.295 74.8528 218.299 71.8633 216.66 69.221C216.412 68.977 216.118 68.7853 215.794 68.6574C211.614 69.5587 203.073 71.6227 203.549 73.3856Z" fill="white"/>
<path opacity="0.8" d="M138.441 11.3751L152.192 56.4926L209.531 48.2095L201.955 21.0956C201.955 21.0956 200.78 14.9055 197.813 14.4009C197.813 14.4009 151.976 5.57438 138.441 11.3751ZM144.823 18.4484C142.973 12.3577 170.214 15.3946 170.214 15.3946C173.882 15.1116 178.302 15.4192 182.411 15.9161C183.916 16.0992 185.377 16.3084 186.745 16.5227C189.799 17.0019 192.391 17.5128 193.942 17.8359C194.929 18.0406 195.495 18.1702 195.495 18.1702C200.91 19.9545 203.574 42.4338 203.574 42.4338C203.978 44.7965 201.18 44.2391 201.18 44.2391L200.998 44.2424L198.447 44.293L190.841 44.4479L153.754 45.1954C151.568 44.9299 151.28 42.3451 151.28 42.3451C150.136 40.4731 144.823 18.4484 144.823 18.4484H144.823Z" fill="#65617D"/>
<path opacity="0.8" d="M200.998 44.2424L201.18 44.2391C201.18 44.2391 203.978 44.7965 203.573 42.4338C203.573 42.4338 200.909 19.9544 195.494 18.1701C195.494 18.1701 194.928 18.0406 193.941 17.8358C195.847 21.7251 201.943 35.0351 200.998 44.2424Z" fill="#65617D"/>
<path opacity="0.1" d="M200.998 44.2424L201.18 44.2391C201.18 44.2391 203.978 44.7965 203.573 42.4338C203.573 42.4338 200.909 19.9544 195.494 18.1701C195.494 18.1701 194.928 18.0406 193.941 17.8358C195.847 21.7251 201.943 35.0351 200.998 44.2424Z" fill="black"/>
<path opacity="0.1" d="M194.921 99.4471C195.235 100.058 195.717 100.566 196.31 100.913C196.903 101.26 197.583 101.431 198.27 101.406L199.414 101.378L210.217 101.117L214.111 101.022L217.71 100.792L265.31 94.0006L265.036 89.3257L259.564 90.003L257.3 90.2834L223.706 94.4363L219.285 94.9832L217.141 95.2479L208.081 95.012L198.274 94.7553C197.779 94.7411 197.285 94.8263 196.823 95.0061C195.974 95.3248 195.282 95.9576 194.888 96.7729C194.683 97.1898 194.579 97.6493 194.584 98.1139C194.59 98.5786 194.705 99.0353 194.921 99.4471Z" fill="black"/>
<path opacity="0.8" d="M194.912 99.8955C195.226 100.506 195.708 101.015 196.301 101.361C196.894 101.708 197.574 101.879 198.261 101.854L214.102 101.471L217.701 101.24L268.462 93.9972L272.451 93.4287L274.626 93.1175C278.91 92.3012 277.717 88.0171 277.717 88.0171C277.455 86.0676 270.151 84.1355 267.756 84.1666C266.144 84.1856 265.873 86.6589 265.869 88.2804C265.868 89.0744 265.928 89.6632 265.928 89.6632L263.555 89.9571L217.132 95.6962L198.266 95.2037C197.566 95.178 196.875 95.3548 196.274 95.7128C195.673 96.0708 195.189 96.5947 194.88 97.2213C194.674 97.6382 194.57 98.0976 194.575 98.5623C194.581 99.0269 194.696 99.4837 194.912 99.8955Z" fill="#DCE0ED"/>
<path opacity="0.1" d="M271.148 86.9214C271.148 86.9214 269.08 89.3496 265.929 89.664C265.929 89.664 267.254 86.9227 271.148 86.9214Z" fill="black"/>
<path opacity="0.1" d="M271.541 93.8818C271.541 93.8818 278.207 93.8579 278.139 97.4453C278.071 101.033 273.867 101.552 273.867 101.552L214.131 111.864L197.205 111.844C197.205 111.844 191.38 107.024 197.559 105.047L214.62 105.818L271.566 96.499C271.566 96.499 270.107 94.4529 271.541 93.8818Z" fill="black"/>
<path opacity="0.8" d="M197.196 112.293L214.121 112.313L267.237 103.143L271.123 102.472L273.857 102.001C273.857 102.001 278.062 101.481 278.13 97.8937C278.179 95.3198 274.757 94.6048 272.822 94.4068C272.061 94.3297 271.531 94.3309 271.531 94.3309C270.098 94.9005 271.558 96.9467 271.558 96.9467L269.484 97.2866L214.611 106.267L197.549 105.496C191.371 107.473 197.196 112.293 197.196 112.293Z" fill="#DCE0ED"/>
<path opacity="0.8" d="M266.58 90.8724L263.09 89.2366L261.295 89.128L261.159 104.228L266.721 103.211L269.07 101.76L270.312 95.5034C270.312 95.5034 269.912 92.8791 269.692 92.6507C269.471 92.4222 266.58 90.8724 266.58 90.8724Z" fill="#DCE0ED"/>
<path opacity="0.1" d="M266.58 90.8724L263.09 89.2366L261.295 89.128L261.159 104.228L266.721 103.211L269.07 101.76L270.312 95.5034C270.312 95.5034 269.912 92.8791 269.692 92.6507C269.471 92.4222 266.58 90.8724 266.58 90.8724Z" fill="black"/>
<path opacity="0.1" d="M267.238 103.143C267.194 103.194 267.171 103.22 267.171 103.22L271.077 102.545C271.094 102.521 271.11 102.496 271.124 102.472C273.239 99.2078 273.465 96.5295 272.822 94.4068C272.062 94.3297 271.532 94.3309 271.532 94.3309C270.099 94.9005 271.559 96.9467 271.559 96.9467L269.485 97.2866C269.568 100.244 267.626 102.684 267.238 103.143Z" fill="black"/>
<path opacity="0.1" d="M261.743 89.1357C262.396 89.4015 263 89.6753 263.554 89.9571C266.049 91.2153 267.58 92.6034 268.461 93.9971L272.451 93.4287C270.794 89.8177 266.706 88.1078 266.706 88.1078L265.869 88.2804L261.743 89.1357Z" fill="black"/>
<path opacity="0.8" d="M266.257 88.1002C266.257 88.1002 277.106 92.641 270.628 102.537L266.72 103.211C266.72 103.211 274.599 94.5376 261.295 89.1281L266.257 88.1002Z" fill="#DCE0ED"/>
<path opacity="0.8" d="M240.111 92.4669L236.071 92.2411L236.438 108.472L242.974 107.399L245.77 106.106L247.104 102.916L248.063 99.7193L245.947 96.7638L243.507 95.0728L240.111 92.4669Z" fill="#DCE0ED"/>
<path opacity="0.1" d="M240.111 92.4669L236.071 92.2411L236.438 108.472L242.974 107.399L245.77 106.106L247.104 102.916L248.063 99.7193L245.947 96.7638L243.507 95.0728L240.111 92.4669Z" fill="black"/>
<path opacity="0.8" d="M242.349 100.883C242.383 99.0665 241.54 97.5778 240.465 97.5575C239.389 97.5372 238.49 98.9931 238.456 100.809C238.421 102.625 239.265 104.114 240.34 104.134C241.415 104.155 242.314 102.699 242.349 100.883Z" fill="#DCE0ED"/>
<path opacity="0.8" d="M258.883 105.66C259.019 105.719 259.14 105.805 259.24 105.914C259.341 106.022 259.417 106.151 259.464 106.29C259.511 106.43 259.529 106.578 259.515 106.725C259.501 106.872 259.457 107.014 259.385 107.143C258.928 107.959 258.379 109.015 258.423 109.297C258.498 109.776 257.439 109.363 257.301 109.248C257.162 109.134 255.223 109.209 255.136 107.89C255.125 107.492 255.218 107.098 255.407 106.747C255.596 106.397 255.874 106.102 256.213 105.891L255.818 102.996L258.489 102.822L258.411 105.456L258.883 105.66Z" fill="#636780"/>
<path opacity="0.1" d="M258.883 105.66C259.019 105.719 259.14 105.805 259.24 105.914C259.341 106.022 259.417 106.151 259.464 106.29C259.511 106.43 259.529 106.578 259.515 106.725C259.501 106.872 259.457 107.014 259.385 107.143C258.928 107.959 258.379 109.015 258.423 109.297C258.498 109.776 257.439 109.363 257.301 109.248C257.162 109.134 255.223 109.209 255.136 107.89C255.125 107.492 255.218 107.098 255.407 106.747C255.596 106.397 255.874 106.102 256.213 105.891L255.818 102.996L258.489 102.822L258.411 105.456L258.883 105.66Z" fill="black"/>
<path opacity="0.1" d="M258.156 105.592C258.156 105.592 257.199 108.658 257.59 108.777C257.981 108.897 258.156 105.592 258.156 105.592Z" fill="black"/>
<path opacity="0.1" d="M257.16 104.844C257.16 104.844 256.203 107.91 256.594 108.029C256.985 108.149 257.16 104.844 257.16 104.844Z" fill="black"/>
<path opacity="0.8" d="M246.572 95.3541L247.895 104.651C247.895 104.651 249.753 104.433 250.779 104.232C251.004 104.206 251.223 104.143 251.427 104.045C251.48 103.994 251.59 104.001 251.735 104.033L251.738 104.033C252.234 104.143 253.116 104.573 253.295 104.228C253.309 104.202 253.326 104.177 253.346 104.155L253.349 104.153C253.527 103.966 253.866 104.111 254.195 104.167C254.371 104.214 254.559 104.193 254.72 104.107C255 103.928 255.553 104.235 256.01 104.342C256.298 104.41 256.548 104.402 256.667 104.144C256.713 104.06 256.778 103.989 256.857 103.935C256.935 103.881 257.026 103.846 257.12 103.834L257.123 103.834C257.556 103.734 258.159 103.82 258.508 103.752C258.646 103.728 258.741 103.678 258.774 103.585C258.845 103.384 259.233 103.295 259.648 103.224C260.151 103.137 260.691 103.078 260.736 102.875C260.748 102.808 260.798 102.779 260.872 102.779C261.15 102.825 261.424 102.898 261.688 102.996L261.69 102.996C261.914 103.056 262.1 103.062 262.157 102.902C262.219 102.726 262.477 102.751 262.77 102.828C263.007 102.891 263.268 102.988 263.469 103.038C263.65 103.082 263.78 103.091 263.805 103.007C263.884 102.71 264.844 103.401 265.08 102.806C265.316 102.212 268.461 98.3103 264.59 93.0786C264.59 93.0786 263.515 93.1324 262.692 93.2649C262.419 93.2967 262.152 93.3664 261.898 93.4719C261.893 93.4719 261.891 93.4741 261.886 93.4762C261.415 93.5984 260.927 93.6452 260.441 93.6149C260.162 93.6131 259.886 93.673 259.634 93.7904C259.534 93.8426 259.454 93.9251 259.404 94.026C259.273 94.3084 258.985 94.3613 258.671 94.3374C258.246 94.3048 257.778 94.1345 257.603 94.2164C257.598 94.2189 257.593 94.2211 257.587 94.2228C257.27 94.3514 256.098 94.1992 255.895 94.3905C255.889 94.3958 255.883 94.4017 255.879 94.4082C255.791 94.5321 255.333 94.3911 254.865 94.3195L254.862 94.3195C254.707 94.2735 254.543 94.2612 254.382 94.2833C254.222 94.3054 254.067 94.3615 253.93 94.4477C253.72 94.6071 253.457 94.6793 253.196 94.6491C252.878 94.6198 252.559 94.6266 252.243 94.6693C252.169 94.6878 252.103 94.7279 252.052 94.7846C251.857 95.0164 251.401 94.9764 250.994 94.9889C250.786 94.9762 250.578 95.0245 250.396 95.1279C250.331 95.1721 250.257 95.2014 250.179 95.2135C249.575 95.2573 248.967 95.2157 248.375 95.0898L246.572 95.3541Z" fill="#636780"/>
<path opacity="0.1" d="M262.77 102.828C263.007 102.891 263.268 102.988 263.469 103.038C266.599 98.3874 264.106 94.7629 262.692 93.2649C262.419 93.2967 262.151 93.3664 261.897 93.472C264.883 97.0474 263.383 101.415 262.77 102.828Z" fill="black"/>
<path opacity="0.1" d="M260.872 102.779C261.15 102.825 261.423 102.898 261.688 102.996L261.69 102.996C264.38 98.451 261.768 94.9656 260.441 93.615C260.162 93.6131 259.886 93.673 259.633 93.7904C262.486 97.0246 261.546 100.963 260.872 102.779Z" fill="black"/>
<path opacity="0.1" d="M258.508 103.752C258.645 103.728 258.74 103.678 258.774 103.585C258.845 103.384 259.233 103.295 259.648 103.224C262.008 99.106 260.027 95.8725 258.67 94.3374C258.246 94.3047 257.777 94.1344 257.603 94.2163C257.598 94.2189 257.592 94.221 257.587 94.2228C260.74 97.8888 259.099 102.422 258.508 103.752Z" fill="black"/>
<path opacity="0.1" d="M256.009 104.342C256.298 104.411 256.547 104.402 256.667 104.144C256.713 104.06 256.778 103.989 256.856 103.935C256.935 103.881 257.025 103.846 257.12 103.834L257.122 103.834C259.874 99.2497 257.224 95.7344 255.894 94.3905C255.888 94.3958 255.883 94.4017 255.878 94.4082C255.79 94.5321 255.332 94.3912 254.864 94.3195C258.574 98.2024 256.534 103.228 256.009 104.342Z" fill="black"/>
<path opacity="0.1" d="M253.348 104.153C253.527 103.966 253.866 104.111 254.195 104.167C257.056 99.6182 254.572 96.0948 253.195 94.6491C252.878 94.6198 252.558 94.6266 252.242 94.6693C255.415 98.2101 253.995 102.618 253.348 104.153Z" fill="black"/>
<path opacity="0.1" d="M250.779 104.232C251.004 104.206 251.223 104.143 251.427 104.045C251.48 103.994 251.59 104.001 251.735 104.033L251.737 104.033C254.276 99.8776 252.375 96.594 250.994 94.9889C250.785 94.9762 250.578 95.0246 250.396 95.1279C250.331 95.1722 250.257 95.2014 250.179 95.2135C252.802 98.7283 251.371 102.873 250.779 104.232Z" fill="black"/>
<path opacity="0.8" d="M190.277 109.919C190.464 100.013 185.152 91.8792 178.412 91.7522C171.673 91.6251 166.057 99.5527 165.87 109.459C165.682 119.365 170.994 127.499 177.734 127.626C184.474 127.753 190.089 119.825 190.277 109.919Z" fill="#636780"/>
<path opacity="0.1" d="M187.352 110.126C187.504 102.097 183.655 95.5144 178.755 95.4221C173.855 95.3297 169.76 101.763 169.608 109.791C169.456 117.819 173.305 124.402 178.205 124.495C183.105 124.587 187.2 118.154 187.352 110.126Z" fill="black"/>
<path opacity="0.8" d="M187.359 109.677C187.511 101.649 183.662 95.066 178.763 94.9737C173.863 94.8813 169.768 101.315 169.616 109.343C169.464 117.371 173.313 123.954 178.213 124.046C183.112 124.139 187.208 117.706 187.359 109.677Z" fill="#F0F0F4"/>
<path opacity="0.8" d="M178.111 99.7462C178.129 98.7556 177.675 97.9436 177.096 97.9327C176.518 97.9218 176.033 98.716 176.014 99.7067C175.996 100.697 176.45 101.509 177.029 101.52C177.607 101.531 178.092 100.737 178.111 99.7462Z" fill="#636780"/>
<path opacity="0.8" d="M173.621 115.362C173.64 114.371 173.186 113.559 172.607 113.548C172.028 113.538 171.544 114.332 171.525 115.322C171.506 116.313 171.96 117.125 172.539 117.136C173.118 117.147 173.603 116.353 173.621 115.362Z" fill="#636780"/>
<path opacity="0.8" d="M185.068 108.101C185.086 107.111 184.632 106.299 184.054 106.288C183.475 106.277 182.99 107.071 182.971 108.062C182.953 109.053 183.407 109.864 183.986 109.875C184.565 109.886 185.049 109.092 185.068 108.101Z" fill="#636780"/>
<path opacity="0.8" d="M181.8 118.507C181.819 117.516 181.365 116.704 180.786 116.693C180.207 116.682 179.723 117.477 179.704 118.467C179.685 119.458 180.139 120.27 180.718 120.281C181.297 120.292 181.781 119.497 181.8 118.507Z" fill="#636780"/>
<path opacity="0.8" d="M89.3837 74.8218C89.3837 74.8218 80.183 97.9746 80.6046 99.4405C80.6046 99.4405 76.8562 101.613 75.9684 101.035C75.0806 100.458 76.0619 90.1589 76.0619 90.1589L77.9182 81.1101L79.9291 75.765L89.3837 74.8218Z" fill="#65617D"/>
<path opacity="0.15" d="M89.3837 74.8218C89.3837 74.8218 80.183 97.9746 80.6046 99.4405C80.6046 99.4405 76.8562 101.613 75.9684 101.035C75.0806 100.458 76.0619 90.1589 76.0619 90.1589L77.9182 81.1101L79.9291 75.765L89.3837 74.8218Z" fill="black"/>
<path opacity="0.8" d="M172.308 105.618C172.327 104.627 171.873 103.815 171.294 103.804C170.715 103.794 170.23 104.588 170.212 105.578C170.193 106.569 170.647 107.381 171.226 107.392C171.805 107.403 172.289 106.609 172.308 105.618Z" fill="#636780"/>
<path opacity="0.8" d="M179.938 110.098C179.982 107.745 178.644 105.812 176.949 105.78C175.253 105.748 173.843 107.63 173.798 109.982C173.754 112.335 175.092 114.268 176.787 114.3C178.483 114.332 179.893 112.451 179.938 110.098Z" fill="#636780"/>
<path opacity="0.8" d="M79.0234 105.803C78.7681 119.3 83.0277 131.672 95.5186 130.562C111.247 130.522 112.683 119.94 112.939 106.442C113.194 92.9451 105.792 82.7571 96.4264 82.5805C87.061 82.4039 79.2788 92.3057 79.0234 105.803Z" fill="#636780"/>
<path opacity="0.1" d="M78.9248 105.824C79.1225 95.3743 83.8324 87.0813 90.2951 83.9503C98.4856 85.6657 104.627 95.2237 104.394 107.538C104.185 118.599 103.18 127.701 94.1688 130.649C82.6441 130.845 78.6782 118.86 78.9248 105.824Z" fill="black"/>
<path opacity="0.1" d="M72.5059 99.9607C72.5059 99.9607 74.7158 101.909 75.9766 100.587C75.9766 100.587 79.4669 76.4291 83.2873 76.389L96.4287 76.5246C96.4287 76.5246 97.9882 77.2269 98.6068 80.1544L106.647 104.455L153.203 106.006L156.9 98.636L118.378 98.0219L118.374 98.0039C118.179 97.2555 112.178 74.1929 107.906 71.2571C107.904 71.2548 107.902 71.2548 107.9 71.2525C107.755 71.1509 107.597 71.0701 107.43 71.0126C107.43 71.0126 91.4113 68.5799 86.1055 69.9377C86.1055 69.9377 80.5794 71.0671 79.1999 72.7233C79.1958 72.7275 79.192 72.7319 79.1885 72.7365C79.0052 72.9215 76.8766 75.2252 76.1041 81.973L72.5059 99.9607Z" fill="black"/>
<path opacity="0.8" d="M72.4971 100.409C72.4971 100.409 74.707 102.357 75.9678 101.035C75.9678 101.035 79.4581 76.8776 83.2785 76.8375L96.4199 76.9731C96.4199 76.9731 97.9794 77.6754 98.598 80.6029L106.638 104.904L153.195 106.455L156.891 99.0845L118.369 98.4704L118.365 98.4523C118.17 97.704 112.169 74.6414 107.898 71.7056C107.895 71.7033 107.893 71.7033 107.891 71.701C107.746 71.5994 107.588 71.5186 107.421 71.4611C107.421 71.4611 91.4025 69.0283 86.0967 70.3862C86.0967 70.3862 80.5706 71.5156 79.1912 73.1718C79.1871 73.176 79.1832 73.1804 79.1797 73.185C78.9964 73.37 76.8678 75.6737 76.0953 82.4215L72.4971 100.409Z" fill="#65617D"/>
<path opacity="0.1" d="M72.4971 100.409C72.4971 100.409 74.707 102.357 75.9678 101.035C75.9678 101.035 79.4581 76.8776 83.2785 76.8375L96.4199 76.9731C96.4199 76.9731 97.9794 77.6754 98.598 80.6029L106.638 104.904L153.195 106.455L156.891 99.0845L118.369 98.4704L118.365 98.4523C118.17 97.704 112.169 74.6414 107.898 71.7056C107.895 71.7033 107.893 71.7033 107.891 71.701C107.746 71.5994 107.588 71.5186 107.421 71.4611C107.421 71.4611 91.4025 69.0283 86.0967 70.3862C86.0967 70.3862 80.5706 71.5156 79.1912 73.1718C79.1871 73.176 79.1832 73.1804 79.1797 73.185C78.9964 73.37 76.8678 75.6737 76.0953 82.4215L72.4971 100.409Z" fill="black"/>
<path opacity="0.8" d="M101.522 74.4899C102.605 76.6411 111.767 103.056 111.767 103.056L118.369 98.4703L118.365 98.4523C118.17 97.7039 112.163 74.6165 107.891 71.7009C105.07 72.1277 100.786 73.0293 101.522 74.4899Z" fill="#65617D"/>
<path opacity="0.8" d="M114.327 62.7318L119.278 80.0956L146.807 79.8296L146.534 82.4038C146.534 82.4038 124.912 85.1362 115.784 80.7026L111.141 64.8399L67.7139 64.2454L76.0235 62.4582L114.327 62.7318Z" fill="#65617D"/>
<path opacity="0.1" d="M114.327 62.7318L119.278 80.0956L146.807 79.8296L146.534 82.4038C146.534 82.4038 124.912 85.1362 115.784 80.7026L111.141 64.8399L67.7139 64.2454L76.0235 62.4582L114.327 62.7318Z" fill="white"/>
<path opacity="0.1" d="M242.809 92.3681C242.809 92.3681 257.418 100.045 246.356 106.79L243.424 107.407C243.424 107.407 254.275 99.9112 236.521 92.2496L242.809 92.3681Z" fill="black"/>
<path opacity="0.8" d="M242.36 92.3596C242.36 92.3596 256.969 100.037 245.907 106.781L242.974 107.399C242.974 107.399 253.826 99.9027 236.071 92.2411L242.36 92.3596Z" fill="#DCE0ED"/>
<path opacity="0.8" d="M97.6289 108.06C97.7754 100.321 94.2237 93.9779 89.696 93.8925C85.1684 93.8072 81.3793 100.012 81.2329 107.751C81.0865 115.49 84.6381 121.834 89.1658 121.919C93.6934 122.004 97.4825 115.8 97.6289 108.06Z" fill="#636780"/>
<path opacity="0.1" d="M95.662 108.326C95.7807 102.054 93.2086 96.9189 89.917 96.8568C86.6254 96.7948 83.8609 101.829 83.7422 108.101C83.6235 114.373 86.1957 119.508 89.4873 119.57C92.7788 119.632 95.5434 114.598 95.662 108.326Z" fill="black"/>
<path opacity="0.8" d="M95.6708 107.877C95.7895 101.605 93.2174 96.4705 89.9258 96.4084C86.6342 96.3464 83.8697 101.381 83.751 107.653C83.6323 113.925 86.2045 119.059 89.4961 119.122C92.7876 119.184 95.5522 114.149 95.6708 107.877Z" fill="#F0F0F4"/>
<path opacity="0.8" d="M89.4777 100.138C89.4924 99.3642 89.189 98.7309 88.8001 98.7235C88.4112 98.7162 88.0841 99.3377 88.0695 100.112C88.0548 100.886 88.3582 101.519 88.7471 101.526C89.136 101.534 89.4631 100.912 89.4777 100.138Z" fill="#636780"/>
<path opacity="0.8" d="M86.4289 112.347C86.4435 111.573 86.1402 110.939 85.7513 110.932C85.3624 110.925 85.0353 111.546 85.0207 112.32C85.006 113.094 85.3094 113.727 85.6983 113.735C86.0871 113.742 86.4143 113.121 86.4289 112.347Z" fill="#636780"/>
<path opacity="0.8" d="M94.134 106.651C94.1486 105.877 93.8452 105.244 93.4564 105.236C93.0675 105.229 92.7404 105.851 92.7257 106.624C92.7111 107.398 93.0145 108.032 93.4033 108.039C93.7922 108.046 94.1193 107.425 94.134 106.651Z" fill="#636780"/>
<path opacity="0.8" d="M91.9172 114.786C91.9318 114.013 91.6284 113.379 91.2396 113.372C90.8507 113.365 90.5236 113.986 90.5089 114.76C90.4943 115.534 90.7977 116.167 91.1865 116.175C91.5754 116.182 91.9025 115.56 91.9172 114.786Z" fill="#636780"/>
<path opacity="0.8" d="M85.5666 104.737C85.5812 103.963 85.2779 103.33 84.889 103.323C84.5001 103.315 84.173 103.937 84.1583 104.711C84.1437 105.485 84.4471 106.118 84.836 106.125C85.2248 106.133 85.552 105.511 85.5666 104.737Z" fill="#636780"/>
<path opacity="0.8" d="M90.6832 108.221C90.718 106.383 89.823 104.876 88.6841 104.854C87.5452 104.833 86.5938 106.306 86.5591 108.144C86.5243 109.982 87.4193 111.489 88.5582 111.511C89.697 111.532 90.6485 110.059 90.6832 108.221Z" fill="#636780"/>
<path opacity="0.1" d="M209.651 47.8193C209.651 47.8193 184.703 48.2461 152.192 56.4927L209.651 47.8193Z" fill="black"/>
<path opacity="0.8" d="M91.5235 2.008C91.5235 2.008 92.8732 2.24974 92.1354 4.02033C91.7455 4.88021 91.4558 5.78196 91.272 6.70784C91.272 6.70784 89.905 7.38505 90.0031 5.06165C90.1012 2.73824 91.5235 2.008 91.5235 2.008Z" fill="#DCE0ED"/>
<path opacity="0.8" d="M143.991 44.6154L145.978 52.5115L152.825 46.5227" stroke="black" stroke-miterlimit="10"/>
<path opacity="0.8" d="M155.818 53.9174L135.577 50.4494L132.163 70.307L152.404 73.775L155.818 53.9174Z" fill="white"/>
<path opacity="0.8" d="M141.447 70.9414L141.827 68.7271C140.64 68.5197 139.534 67.9863 138.633 67.1866L139.413 65.8079C140.342 66.5956 141.464 67.1229 142.664 67.3356C144.223 67.6028 145.432 66.8844 145.647 65.6346C145.854 64.4288 145.126 63.5366 143.613 62.6004C141.524 61.3396 140.564 60.1369 140.892 58.2294C141.205 56.4097 142.613 55.2291 144.69 55.2463L145.071 53.032L146.182 53.2223L145.816 55.349C146.817 55.5285 147.755 55.9612 148.54 56.6056L147.742 57.9585C147.04 57.3219 146.166 56.9053 145.228 56.7605C143.537 56.4707 142.977 57.4129 142.826 58.2899C142.63 59.43 143.094 60.0965 144.869 61.2132C146.973 62.5215 148.17 63.9002 147.834 65.8515C147.537 67.5835 146.05 68.9991 143.724 68.9842L143.331 71.2644L141.447 70.9414Z" fill="#636780"/>
<path opacity="0.8" d="M141.102 142.9C141.277 142.894 141.443 142.82 141.565 142.694C141.687 142.569 141.755 142.4 141.755 142.225C141.755 142.05 141.687 141.882 141.565 141.756C141.443 141.63 141.277 141.557 141.102 141.551C140.927 141.557 140.761 141.63 140.639 141.756C140.517 141.882 140.449 142.05 140.449 142.225C140.449 142.4 140.517 142.569 140.639 142.694C140.761 142.82 140.927 142.894 141.102 142.9Z" fill="#65617D"/>
</g>
<path opacity="0.1" d="M299.176 204.584C303.824 204.584 307.592 203.948 307.592 203.163C307.592 202.379 303.824 201.743 299.176 201.743C294.528 201.743 290.76 202.379 290.76 203.163C290.76 203.948 294.528 204.584 299.176 204.584Z" fill="#61A199"/>
<path d="M293.523 196.564C293.523 196.564 298.324 196.416 299.771 195.388C301.218 194.359 307.156 193.131 307.515 194.781C307.874 196.43 314.729 202.984 309.309 203.028C303.889 203.071 296.716 202.185 295.272 201.307C293.827 200.429 293.523 196.564 293.523 196.564Z" fill="#A8A8A8"/>
<path opacity="0.2" d="M309.406 202.454C303.986 202.497 296.812 201.611 295.368 200.733C294.269 200.064 293.83 197.665 293.684 196.557C293.582 196.562 293.523 196.564 293.523 196.564C293.523 196.564 293.828 200.429 295.272 201.307C296.716 202.185 303.889 203.071 309.309 203.028C310.874 203.015 311.414 202.46 311.385 201.637C311.167 202.134 310.571 202.444 309.406 202.454Z" fill="black"/>
<path opacity="0.1" d="M347.991 187.707C351.568 187.707 354.467 187.218 354.467 186.614C354.467 186.011 351.568 185.521 347.991 185.521C344.414 185.521 341.515 186.011 341.515 186.614C341.515 187.218 344.414 187.707 347.991 187.707Z" fill="#61A199"/>
<path d="M343.642 181.536C343.642 181.536 347.336 181.422 348.449 180.631C349.563 179.839 354.132 178.894 354.408 180.164C354.684 181.433 359.96 186.476 355.789 186.51C351.618 186.543 346.098 185.861 344.987 185.186C343.876 184.51 343.642 181.536 343.642 181.536Z" fill="#A8A8A8"/>
<path opacity="0.2" d="M355.863 186.068C351.693 186.102 346.172 185.42 345.061 184.744C344.215 184.229 343.878 182.383 343.765 181.531C343.687 181.534 343.642 181.536 343.642 181.536C343.642 181.536 343.876 184.51 344.987 185.186C346.098 185.861 351.618 186.543 355.789 186.51C356.993 186.5 357.409 186.073 357.386 185.439C357.219 185.822 356.759 186.061 355.863 186.068Z" fill="black"/>
<path opacity="0.1" d="M318.607 258.317C327.145 258.317 334.067 257.149 334.067 255.708C334.067 254.267 327.145 253.099 318.607 253.099C310.068 253.099 303.146 254.267 303.146 255.708C303.146 257.149 310.068 258.317 318.607 258.317Z" fill="#61A199"/>
<path d="M308.224 243.584C308.224 243.584 317.043 243.313 319.701 241.424C322.358 239.534 333.267 237.278 333.926 240.308C334.585 243.338 347.179 255.378 337.223 255.459C327.266 255.539 314.088 253.91 311.435 252.297C308.782 250.684 308.224 243.584 308.224 243.584Z" fill="#A8A8A8"/>
<path opacity="0.2" d="M337.4 254.404C327.444 254.484 314.265 252.856 311.613 251.243C309.592 250.014 308.787 245.606 308.518 243.573C308.332 243.581 308.224 243.584 308.224 243.584C308.224 243.584 308.782 250.684 311.435 252.297C314.088 253.91 327.266 255.539 337.223 255.459C340.097 255.435 341.09 254.415 341.035 252.903C340.636 253.816 339.54 254.387 337.4 254.404Z" fill="black"/>
<path d="M481.852 163.866C481.853 174.225 477.846 184.184 470.667 191.665C463.489 199.145 453.694 203.57 443.326 204.015C432.959 204.46 422.82 200.891 415.025 194.052C407.23 187.214 402.381 177.635 401.491 167.314C401.433 166.662 401.389 166.009 401.369 165.347V165.312C401.35 164.83 401.34 164.348 401.34 163.866C401.343 153.21 405.586 142.992 413.135 135.459C420.684 127.925 430.922 123.693 441.596 123.693C452.27 123.693 462.508 127.925 470.057 135.459C477.606 142.992 481.849 153.21 481.852 163.866Z" fill="#65617D"/>
<path opacity="0.2" d="M481.852 163.866C481.853 174.225 477.846 184.184 470.667 191.665C463.489 199.145 453.694 203.57 443.326 204.015C432.959 204.46 422.82 200.891 415.025 194.052C407.23 187.214 402.381 177.635 401.491 167.314C401.433 166.662 401.389 166.009 401.369 165.347V165.312C401.35 164.83 401.34 164.348 401.34 163.866C401.343 153.21 405.586 142.992 413.135 135.459C420.684 127.925 430.922 123.693 441.596 123.693C452.27 123.693 462.508 127.925 470.057 135.459C477.606 142.992 481.849 153.21 481.852 163.866Z" fill="black"/>
<path d="M441.595 185.785C453.722 185.785 463.553 175.972 463.553 163.866C463.553 151.76 453.722 141.946 441.595 141.946C429.468 141.946 419.637 151.76 419.637 163.866C419.637 175.972 429.468 185.785 441.595 185.785Z" fill="#DCE0ED"/>
<path d="M441.595 177.018C448.871 177.018 454.77 171.129 454.77 163.866C454.77 156.602 448.871 150.714 441.595 150.714C434.318 150.714 428.42 156.602 428.42 163.866C428.42 171.129 434.318 177.018 441.595 177.018Z" fill="#65617D"/>
<path d="M266.942 163.866C266.943 174.225 262.935 184.184 255.757 191.665C248.579 199.145 238.784 203.57 228.416 204.015C218.049 204.46 207.91 200.891 200.115 194.052C192.32 187.214 187.471 177.635 186.581 167.314C186.522 166.662 186.479 166.009 186.459 165.347V165.312C186.439 164.83 186.43 164.348 186.43 163.866C186.433 153.21 190.676 142.992 198.225 135.459C205.774 127.925 216.012 123.693 226.686 123.693C237.36 123.693 247.598 127.925 255.147 135.459C262.696 142.992 266.939 153.21 266.942 163.866Z" fill="#65617D"/>
<path opacity="0.2" d="M266.942 163.866C266.943 174.225 262.935 184.184 255.757 191.665C248.579 199.145 238.784 203.57 228.416 204.015C218.049 204.46 207.91 200.891 200.115 194.052C192.32 187.214 187.471 177.635 186.581 167.314C186.522 166.662 186.479 166.009 186.459 165.347V165.312C186.439 164.83 186.43 164.348 186.43 163.866C186.433 153.21 190.676 142.992 198.225 135.459C205.774 127.925 216.012 123.693 226.686 123.693C237.36 123.693 247.598 127.925 255.147 135.459C262.696 142.992 266.939 153.21 266.942 163.866Z" fill="black"/>
<path d="M226.685 185.785C238.812 185.785 248.642 175.972 248.642 163.866C248.642 151.76 238.812 141.946 226.685 141.946C214.557 141.946 204.727 151.76 204.727 163.866C204.727 175.972 214.557 185.785 226.685 185.785Z" fill="#DCE0ED"/>
<path d="M226.685 177.018C233.961 177.018 239.859 171.129 239.859 163.866C239.859 156.602 233.961 150.714 226.685 150.714C219.408 150.714 213.51 156.602 213.51 163.866C213.51 171.129 219.408 177.018 226.685 177.018Z" fill="#65617D"/>
<path d="M494.408 156.336L480.976 155.753L468.713 133.017L425.497 129.519L404.473 156.919L405.641 164.497L402.721 171.493L265.482 172.659V169.161H264.314L263.146 163.914H273.658L266.066 155.753L239.203 133.017C239.203 133.017 193.067 134.182 192.483 133.017C191.899 131.851 195.111 119.9 195.111 119.9L214.967 114.07L282.71 108.823C297.602 85.2125 311.034 74.136 311.034 74.136H485.064L493.24 116.11V116.209L494.408 156.336Z" fill="#444053"/>
<path d="M397.465 159.251C397.465 159.251 414.985 126.604 428.417 126.604H461.121C461.121 126.604 469.297 126.604 472.8 133.017L486.232 159.251H475.72C475.72 159.251 466.961 134.766 457.033 134.183C447.105 133.6 430.169 134.183 430.169 134.183C430.169 134.183 424.329 134.183 420.825 141.178C417.321 148.174 405.474 163.413 405.474 163.413C405.474 163.413 392.793 167.412 397.465 159.251Z" fill="#33323D"/>
<path d="M502 154.004H480.033L479.809 171.493L502 166.246V154.004Z" fill="#33323D"/>
<path d="M184.307 143.51C184.307 143.51 185.475 134.766 193.651 131.268L247.378 128.353C247.378 128.353 256.138 128.936 260.81 140.012L275.994 162.748V166.246H259.058C259.058 166.246 250.882 135.348 227.522 136.514H199.49C199.49 136.514 193.067 136.514 190.731 147.008L184.307 143.51Z" fill="#33323D"/>
<path d="M310.45 77.6339H489.736C489.736 75.9332 489.059 74.3021 487.854 73.0994C486.65 71.8968 485.016 71.2212 483.312 71.2212H316.874C316.03 71.2212 315.195 71.3871 314.415 71.7093C313.636 72.0316 312.928 72.504 312.331 73.0994C311.735 73.6949 311.262 74.4018 310.939 75.1799C310.616 75.9579 310.45 76.7918 310.45 77.6339Z" fill="#33323D"/>
<path opacity="0.3" d="M348.872 112.03H299.26C298.701 112.03 298.151 111.89 297.66 111.624C297.168 111.358 296.752 110.973 296.447 110.506C296.142 110.038 295.96 109.502 295.916 108.945C295.872 108.389 295.967 107.831 296.194 107.321L304.045 89.6884C305.256 86.968 307.232 84.6566 309.732 83.0345C312.233 81.4123 315.151 80.5488 318.133 80.5488H348.276C348.831 80.5488 349.38 80.6578 349.892 80.8696C350.404 81.0814 350.869 81.3918 351.261 81.7831C351.653 82.1744 351.964 82.6389 352.176 83.1502C352.388 83.6614 352.498 84.2094 352.498 84.7628V108.41C352.498 108.885 352.404 109.356 352.222 109.795C352.039 110.234 351.772 110.633 351.436 110.969C351.099 111.305 350.699 111.572 350.259 111.754C349.819 111.936 349.348 112.03 348.872 112.03Z" fill="#61A199"/>
<path opacity="0.3" d="M411.321 80.5488H367.841C366.463 80.5488 365.345 81.6644 365.345 83.0406V109.538C365.345 110.914 366.463 112.029 367.841 112.029H411.321C412.699 112.029 413.817 110.914 413.817 109.538V83.0406C413.817 81.6644 412.699 80.5488 411.321 80.5488Z" fill="#61A199"/>
<path d="M493.24 116.11V116.21L417.904 117.276L415.942 74.1363H485.064L493.24 116.11Z" fill="#33323D"/>
<path opacity="0.3" d="M477.312 80.5488H426.825C425.446 80.5488 424.329 81.6644 424.329 83.0406V109.538C424.329 110.914 425.446 112.029 426.825 112.029H477.312C478.691 112.029 479.808 110.914 479.808 109.538V83.0406C479.808 81.6644 478.691 80.5488 477.312 80.5488Z" fill="#61A199"/>
<path d="M355.208 123.106H338.107C337.669 123.106 337.313 123.46 337.313 123.898V125.812C337.313 126.249 337.669 126.604 338.107 126.604H355.208C355.646 126.604 356.001 126.249 356.001 125.812V123.898C356.001 123.46 355.646 123.106 355.208 123.106Z" fill="#33323D"/>
<path d="M408.936 123.106H391.834C391.396 123.106 391.041 123.46 391.041 123.898V125.812C391.041 126.249 391.396 126.604 391.834 126.604H408.936C409.374 126.604 409.729 126.249 409.729 125.812V123.898C409.729 123.46 409.374 123.106 408.936 123.106Z" fill="#33323D"/>
<path d="M450.51 77.0673H428.884V98.2832H450.51V77.0673Z" fill="white"/>
<path d="M438.632 97.291V94.9252C437.362 94.9211 436.119 94.5642 435.042 93.8945L435.605 92.325C436.709 92.9773 437.968 93.3249 439.251 93.3323C440.917 93.3323 442.044 92.3718 442.044 91.0366C442.044 89.7483 441.129 88.9519 439.392 88.2491C436.999 87.3122 435.788 86.2346 435.788 84.1966C435.788 82.2525 437.039 80.7768 439.198 80.4254V78.0596H440.385V80.3317C441.455 80.3401 442.505 80.6224 443.435 81.1516L442.849 82.6975C442.006 82.1617 441.025 81.8848 440.026 81.9012C438.219 81.9012 437.806 82.9786 437.806 83.9156C437.806 85.1336 438.407 85.7428 440.448 86.5861C442.865 87.5698 444.353 88.7879 444.353 90.8727C444.353 92.7232 443.062 94.4567 440.646 94.8548V97.291L438.632 97.291Z" fill="#636780"/>
<path d="M191.031 209.188C191.031 215.421 188.62 221.414 184.301 225.915C179.981 230.417 174.087 233.079 167.849 233.347C161.61 233.615 155.509 231.467 150.819 227.352C146.128 223.237 143.211 217.473 142.675 211.263C142.64 210.87 142.613 210.477 142.602 210.079V210.058C142.59 209.768 142.584 209.478 142.584 209.188C142.592 202.78 145.148 196.637 149.69 192.109C154.232 187.581 160.388 185.038 166.807 185.038C173.227 185.038 179.383 187.581 183.925 192.109C188.467 196.637 191.023 202.78 191.031 209.188Z" fill="#65617D"/>
<path d="M166.807 222.377C174.104 222.377 180.019 216.472 180.019 209.188C180.019 201.903 174.104 195.998 166.807 195.998C159.509 195.998 153.594 201.903 153.594 209.188C153.594 216.472 159.509 222.377 166.807 222.377Z" fill="#DCE0ED"/>
<path d="M166.807 217.102C171.185 217.102 174.734 213.558 174.734 209.188C174.734 204.817 171.185 201.274 166.807 201.274C162.428 201.274 158.879 204.817 158.879 209.188C158.879 213.558 162.428 217.102 166.807 217.102Z" fill="#65617D"/>
<path d="M103.192 163.267L44.8613 164.439V155.842C45.384 148.934 52.4807 146.51 58.9579 145.751C64.0082 145.178 69.1212 145.561 74.0294 146.879C86.4054 150.15 94.2978 150.783 98.1736 150.845C99.0262 150.858 99.8482 151.164 100.501 151.712C101.153 152.26 101.597 153.016 101.756 153.852C101.941 154.834 102.123 155.904 102.293 156.959C102.422 157.786 102.546 158.6 102.657 159.36C102.977 161.561 103.192 163.267 103.192 163.267Z" fill="#65617D"/>
<path d="M149.728 210.75H28.5543C27.6187 210.76 26.701 210.494 25.9153 209.987C25.1295 209.48 24.5106 208.754 24.1354 207.898C23.2222 205.72 24.4994 204.331 25.8618 203.516C28.6499 201.866 30.7634 199.285 31.8282 196.229C33.1201 192.434 34.3826 186.457 34.8788 177.142C35.3897 167.508 38.8838 162.745 42.6597 160.438H42.6627C47.5397 157.46 52.8864 158.577 52.8864 158.577L102.018 158.97C102.892 159.366 103.701 159.893 104.416 160.532C108.794 164.6 102.411 169.911 102.411 169.911C88.7079 184.37 99.0814 199.026 99.0814 199.026H124.221C128.918 199.05 133.511 197.646 137.39 195.001C140.787 192.659 142.102 190.391 142.61 189.019C142.998 187.97 143.391 186.923 143.861 185.909C150.456 171.632 142.502 148.406 139.069 139.722C138.218 137.561 137.645 136.301 137.645 136.301L145.529 135.706L150.515 135.328L150.564 135.325C161.552 154.242 165.636 173.681 167.01 188.084C167.139 189.441 167.245 190.757 167.33 192.02C167.486 194.423 167.147 196.832 166.333 199.098C165.519 201.364 164.247 203.44 162.597 205.195C160.947 206.951 158.953 208.35 156.74 209.306C154.526 210.261 152.139 210.753 149.728 210.75Z" fill="#61A199"/>
<path opacity="0.1" d="M102.657 159.36H44.8613V156.959H102.293C102.422 157.786 102.546 158.6 102.657 159.36Z" fill="black"/>
<path opacity="0.1" d="M104.416 160.532H43.126C42.9666 160.533 42.8086 160.501 42.6621 160.438C47.5391 157.46 52.8859 158.577 52.8859 158.577L102.017 158.97C102.892 159.366 103.701 159.893 104.416 160.532Z" fill="black"/>
<path d="M104.927 157.547H21.6822C21.0185 157.547 20.4805 158.084 20.4805 158.746C20.4805 159.409 21.0185 159.946 21.6822 159.946H104.927C105.591 159.946 106.129 159.409 106.129 158.746C106.129 158.084 105.591 157.547 104.927 157.547Z" fill="#DCE0ED"/>
<path opacity="0.1" d="M167.009 188.084C164.217 191.115 162.162 192.308 162.259 189.11C162.552 179.437 145.528 135.706 145.528 135.706L150.564 135.325C161.551 154.242 165.635 173.681 167.009 188.084Z" fill="black"/>
<path opacity="0.1" d="M190.884 206.538C187.992 207.23 184.416 207.933 180.006 208.578C178.367 208.818 176.609 209.049 174.732 209.27C170.231 209.803 165.025 210.269 159.012 210.627C157.309 210.729 155.54 210.822 153.706 210.905C150.271 211.061 146.594 211.18 142.675 211.263L142.602 210.079V210.058C148.078 207.851 156.692 201.963 158.081 186.624C161.542 185.293 165.263 184.773 168.957 185.103C172.65 185.433 176.219 186.605 179.388 188.529C182.557 190.452 185.241 193.076 187.234 196.199C189.227 199.321 190.476 202.858 190.884 206.538Z" fill="black"/>
<path d="M138.035 210.75C138.035 210.75 165.841 207.743 156.269 165.446C156.269 165.446 170.009 178.018 178.554 185.006C187.1 191.995 202.332 201.629 202.332 201.629C202.332 201.629 193.235 210.115 138.035 210.75Z" fill="#61A199"/>
<path opacity="0.1" d="M138.035 210.75C138.035 210.75 165.841 207.743 156.269 165.446C156.269 165.446 170.009 178.018 178.554 185.006C187.1 191.995 202.332 201.629 202.332 201.629C202.332 201.629 193.235 210.115 138.035 210.75Z" fill="white"/>
<path d="M63.7499 233.369C77.1281 233.369 87.9734 222.543 87.9734 209.188C87.9734 195.833 77.1281 185.006 63.7499 185.006C50.3716 185.006 39.5264 195.833 39.5264 209.188C39.5264 222.543 50.3716 233.369 63.7499 233.369Z" fill="#65617D"/>
<path d="M63.7499 222.377C71.0472 222.377 76.9628 216.472 76.9628 209.188C76.9628 201.903 71.0472 195.998 63.7499 195.998C56.4527 195.998 50.5371 201.903 50.5371 209.188C50.5371 216.472 56.4527 222.377 63.7499 222.377Z" fill="#DCE0ED"/>
<path d="M63.75 217.102C68.1283 217.102 71.6776 213.558 71.6776 209.188C71.6776 204.817 68.1283 201.274 63.75 201.274C59.3716 201.274 55.8223 204.817 55.8223 209.188C55.8223 213.558 59.3716 217.102 63.75 217.102Z" fill="#65617D"/>
<path opacity="0.1" d="M90.9099 201.926C90.9099 186.31 78.4872 173.65 63.1629 173.65C47.8387 173.65 35.416 186.31 35.416 201.926C35.416 202.585 35.44 203.238 35.4835 203.885H90.8424C90.8859 203.238 90.9099 202.585 90.9099 201.926Z" fill="black"/>
<path d="M89.8819 201.438C89.8819 186.401 77.9193 174.21 63.1626 174.21C48.406 174.21 36.4434 186.401 36.4434 201.438C36.4434 202.073 36.4664 202.702 36.5083 203.326H89.8169C89.8588 202.702 89.8819 202.073 89.8819 201.438Z" fill="#61A199"/>
<path opacity="0.1" d="M89.8819 201.438C89.8819 201.875 89.8702 202.308 89.8496 202.739C89.8408 202.936 89.829 203.129 89.8173 203.326H36.5079C36.4962 203.129 36.4845 202.936 36.4756 202.739C36.4551 202.308 36.4434 201.875 36.4434 201.438C36.4434 186.402 48.4054 174.211 63.1626 174.211C77.9199 174.211 89.8819 186.402 89.8819 201.438Z" fill="white"/>
<path opacity="0.1" d="M89.8495 202.739C89.8407 202.936 89.829 203.129 89.8172 203.326H36.5079C36.4962 203.129 36.4844 202.936 36.4756 202.739H89.8495Z" fill="black"/>
<path opacity="0.1" d="M162.234 162.536C164.003 161.737 163.804 157.483 161.789 153.034C159.773 148.585 156.705 145.626 154.936 146.425C153.166 147.224 153.365 151.478 155.38 155.927C157.396 160.376 160.464 163.335 162.234 162.536Z" fill="black"/>
<path d="M162.528 162.243C164.297 161.444 164.098 157.19 162.083 152.741C160.067 148.292 156.999 145.333 155.229 146.132C153.46 146.931 153.659 151.185 155.674 155.634C157.69 160.082 160.758 163.041 162.528 162.243Z" fill="#DCE0ED"/>
<path opacity="0.1" d="M150.514 135.328V139.921H141.558C140.724 139.922 139.892 139.855 139.069 139.722C138.217 137.561 137.645 136.301 137.645 136.301L145.528 135.706L150.514 135.328Z" fill="black"/>
<path d="M150.514 139.334H141.559C133.694 139.334 127.318 133.46 127.318 126.214V124.997C127.318 117.751 133.694 111.876 141.559 111.876L150.514 112.688V139.334Z" fill="#61A199"/>
<path d="M135.76 119.644C135.76 119.644 141.118 122.502 138.035 127.338C138.035 127.338 134.255 133.53 128.309 132.943L126.144 119.644C126.144 119.644 133.264 118.984 135.76 119.644Z" fill="#61A199"/>
<path opacity="0.1" d="M133.703 119.385C134.553 119.419 135.386 119.642 136.139 120.038C136.892 120.435 137.546 120.995 138.053 121.677C139.008 122.996 139.577 124.92 138.035 127.338C138.035 127.338 134.255 133.53 128.309 132.943L126.144 119.644C128.656 119.414 131.18 119.328 133.703 119.385Z" fill="black"/>
<path opacity="0.1" d="M150.221 112.688C151.165 112.688 152.101 112.874 152.974 113.235C153.846 113.595 154.639 114.124 155.307 114.791C155.975 115.458 156.505 116.25 156.867 117.121C157.228 117.992 157.414 118.926 157.414 119.869V132.153C157.414 134.058 156.656 135.884 155.307 137.231C153.958 138.578 152.129 139.334 150.221 139.334V112.688Z" fill="black"/>
<path d="M150.514 112.688C152.422 112.688 154.251 113.445 155.6 114.791C156.949 116.138 157.707 117.965 157.707 119.869V132.153C157.707 134.058 156.949 135.884 155.6 137.231C154.251 138.578 152.422 139.334 150.514 139.334V112.688Z" fill="#DCE0ED"/>
<path d="M125.524 133.786C128.81 133.786 131.473 130.551 131.473 126.561C131.473 122.57 128.81 119.335 125.524 119.335C122.238 119.335 119.574 122.57 119.574 126.561C119.574 130.551 122.238 133.786 125.524 133.786Z" fill="#61A199"/>
<path d="M62.166 159.963L64.7657 165.741L69.1102 159.963" stroke="black" stroke-miterlimit="10"/>
<path d="M75.14 165.983H53.9414V186.779H75.14V165.983Z" fill="white"/>
<path d="M63.4968 185.807V183.488C62.2525 183.484 61.0339 183.134 59.9775 182.477L60.5296 180.939C61.6125 181.578 62.8462 181.919 64.1044 181.926C65.7374 181.926 66.8415 180.985 66.8415 179.676C66.8415 178.413 65.9445 177.632 64.2422 176.944C61.8961 176.025 60.7094 174.969 60.7094 172.971C60.7094 171.065 61.9353 169.619 64.0516 169.274V166.955H65.2151V169.182C66.2643 169.191 67.2939 169.467 68.2055 169.986L67.6303 171.502C66.8045 170.976 65.8424 170.705 64.8633 170.721C63.0922 170.721 62.6876 171.777 62.6876 172.696C62.6876 173.89 63.2762 174.487 65.2774 175.313C67.6465 176.278 69.105 177.472 69.105 179.515C69.105 181.329 67.84 183.028 65.4709 183.419V185.807L63.4968 185.807Z" fill="#636780"/>
<path d="M26.1368 111.008H22.9824V159.591H26.1368V111.008Z" fill="#DCE0ED"/>
<path d="M22.982 111.008C22.982 111.008 11.2657 111.458 9.01257 112.357C6.75943 113.257 0 112.807 0 112.807V125.403C0 125.403 7.66068 123.603 11.7163 124.953C15.772 126.302 24.3339 123.154 24.3339 123.154L22.982 111.008Z" fill="#DCE0ED"/>
</g>
<defs>
<clipPath id="clip0_114_264">
<rect width="502" height="267" fill="white"/>
</clipPath>
</defs>
</svg>
