<svg width="375" height="283" viewBox="0 0 375 283" fill="none" xmlns="http://www.w3.org/2000/svg">
<g clip-path="url(#clip0_114_4319)">
<path opacity="0.1" d="M165.999 283C133.164 283 106.545 280.055 106.545 276.422C106.545 272.79 133.164 269.845 165.999 269.845C198.834 269.845 225.452 272.79 225.452 276.422C225.452 280.055 198.834 283 165.999 283Z" fill="#61A199"/>
<path opacity="0.1" d="M-0.888153 192.037C8.36301 211.132 27.158 223.9 46.6286 232.321C72.8461 243.66 101.718 248.158 130.192 246.256C135.185 245.926 140.16 245.395 145.117 244.664C162.344 242.146 179.138 237.25 195.02 230.115C199.595 228.048 204.088 225.8 208.5 223.371C215.846 219.298 222.884 214.694 229.559 209.595C231.238 208.313 232.893 206.999 234.526 205.652C235.658 204.718 236.779 203.763 237.918 202.837C240.322 200.882 242.795 199.025 245.553 197.635C246.386 197.216 247.239 196.839 248.11 196.507C256.845 193.183 266.919 194.437 276.013 197.029C282.924 198.984 289.656 201.684 296.577 203.61C299.651 204.493 302.783 205.159 305.951 205.603C313.024 206.504 320.209 205.878 327.02 203.767L327.602 203.586C328.577 203.279 329.544 202.944 330.503 202.579L331.085 202.356C332.014 201.998 332.923 201.614 333.812 201.203L334.394 200.938C335.323 200.506 336.232 200.05 337.121 199.569C337.441 199.402 337.758 199.22 338.072 199.05C343.132 196.223 347.731 192.641 351.712 188.428C351.827 188.313 351.935 188.194 352.06 188.079C352.614 187.48 353.157 186.87 353.683 186.247C353.878 186.017 354.073 185.787 354.265 185.55C354.89 184.786 355.492 184.007 356.073 183.212C356.16 183.097 356.243 182.979 356.327 182.864C358.707 179.572 360.68 176.004 362.203 172.238C362.252 172.123 362.297 172.005 362.339 171.89C362.803 170.694 363.227 169.478 363.61 168.242C363.767 167.727 363.917 167.197 364.049 166.681C364.094 166.528 364.136 166.371 364.174 166.218C366.08 158.651 366.285 150.781 366.285 142.956C366.285 142.044 366.285 141.132 366.285 140.222C366.229 127.565 366.034 114.692 364.167 102.209C364.167 102.122 364.143 102.035 364.129 101.951C363.504 97.7491 362.654 93.5834 361.583 89.4723C360.462 85.1586 359.029 80.932 357.295 76.8259C353.001 66.7227 346.755 57.5289 339.82 49.0074C322.37 27.5782 299.461 9.56324 272.648 2.8429C243.756 -4.41396 211.645 2.5398 188.339 21.0983C181.234 26.756 174.849 33.4555 166.869 37.7929C159.903 41.5694 151.749 43.1336 144.288 40.1619C138.123 37.7232 134.111 36.4864 127.186 36.8592C112.851 37.6681 98.7195 40.6264 85.2634 45.635C84.72 45.8336 84.1767 46.0391 83.6368 46.2447C48.5583 59.6749 18.3979 86.3438 2.7308 120.614C2.31516 121.52 1.91229 122.433 1.52219 123.353C-7.82303 145.169 -11.1947 170.764 -0.888153 192.037Z" fill="#61A199"/>
<path opacity="0.1" d="M296.577 71.5165V203.61C299.651 204.493 302.783 205.159 305.951 205.603C313.024 206.504 320.209 205.878 327.02 203.767L327.602 203.586C328.577 203.279 329.544 202.944 330.503 202.579L331.085 202.356C332.014 201.998 332.923 201.614 333.812 201.203L334.394 200.938C335.323 200.506 336.232 200.05 337.121 199.569C337.441 199.402 337.758 199.22 338.072 199.05C343.132 196.223 347.731 192.641 351.712 188.428C351.827 188.313 351.935 188.194 352.06 188.079C352.614 187.48 353.157 186.87 353.683 186.247C353.878 186.017 354.073 185.787 354.265 185.55C354.89 184.786 355.492 184.007 356.073 183.212C356.16 183.097 356.243 182.979 356.327 182.864C358.707 179.572 360.68 176.004 362.203 172.238C362.252 172.123 362.297 172.005 362.339 171.89C362.803 170.694 363.227 169.478 363.61 168.242C363.767 167.726 363.917 167.197 364.049 166.681C364.094 166.528 364.136 166.371 364.174 166.218C366.08 158.651 366.285 150.781 366.285 142.956C366.285 142.044 366.285 141.132 366.285 140.221C366.229 127.565 366.034 114.692 364.167 102.209C364.167 102.122 364.143 102.035 364.129 101.951C363.504 97.7491 362.654 93.5834 361.583 89.4722H326.024V71.5165H318.915V57.0968H303.652V71.5165H296.577Z" fill="#61A199"/>
<path opacity="0.1" d="M-0.888031 192.037C8.36313 211.132 27.1581 223.9 46.6287 232.32C72.8462 243.66 101.718 248.158 130.192 246.256C135.185 245.926 140.16 245.395 145.117 244.664C162.344 242.146 179.139 237.25 195.02 230.115C199.595 228.048 204.088 225.8 208.5 223.37C215.846 219.298 222.884 214.694 229.559 209.595C231.238 208.313 232.893 206.999 234.526 205.652C235.658 204.718 236.779 203.763 237.918 202.837C240.322 200.882 242.795 199.025 245.553 197.635C246.386 197.216 247.239 196.839 248.11 196.507V142.451H183.467V154.481H155.097V66.4858H121.704V101.673H105.187V80.8393H91.5401V58.5844H85.2705V45.6176C84.7271 45.8161 84.1837 46.0217 83.6438 46.2272V58.5844H77.5344V80.8532H63.8911V101.687H43.783V181.059H11.8219V123.335H1.52231C-7.82291 145.169 -11.1946 170.764 -0.888031 192.037Z" fill="#61A199"/>
<path opacity="0.1" d="M130.193 79.7244H145.118V94.6527H130.193V79.7244Z" fill="#61A199"/>
<path opacity="0.1" d="M130.193 110.671H145.118V125.6H130.193V110.671Z" fill="#61A199"/>
<path opacity="0.1" d="M130.193 141.615H145.118V156.543H130.193V141.615Z" fill="#61A199"/>
<path opacity="0.1" d="M130.193 172.562H145.118V187.49H130.193V172.562Z" fill="#61A199"/>
<path opacity="0.1" d="M130.193 203.509H145.118V218.437H130.193V203.509Z" fill="#61A199"/>
<path opacity="0.1" d="M130.193 234.453V246.242C135.185 245.912 140.16 245.381 145.118 244.65V234.453H130.193Z" fill="#61A199"/>
<path opacity="0.1" d="M190.945 161.745H243.188V168.507H190.945V161.745Z" fill="#61A199"/>
<path opacity="0.1" d="M190.945 182.278H243.188V189.041H190.945V182.278Z" fill="#61A199"/>
<path opacity="0.1" d="M190.945 202.816V209.574H229.552C231.231 208.292 232.886 206.978 234.519 205.631C235.651 204.697 236.772 203.742 237.911 202.816H190.945Z" fill="#61A199"/>
<path opacity="0.1" d="M190.945 223.37V230.133H195.02C199.594 228.054 204.088 225.8 208.5 223.37H190.945Z" fill="#61A199"/>
<path opacity="0.1" d="M95.5492 120.147H105.264V129.864H95.5492V120.147Z" fill="#61A199"/>
<path opacity="0.1" d="M305.93 74.8645H315.644V84.5809H305.93V74.8645Z" fill="#61A199"/>
<path opacity="0.1" d="M305.93 97.4398H315.644V107.156H305.93V97.4398Z" fill="#61A199"/>
<path opacity="0.1" d="M305.93 120.015H315.644V129.732H305.93V120.015Z" fill="#61A199"/>
<path opacity="0.1" d="M305.93 142.587H315.644V152.303H305.93V142.587Z" fill="#61A199"/>
<path opacity="0.1" d="M305.93 165.162H315.644V174.879H305.93V165.162Z" fill="#61A199"/>
<path opacity="0.1" d="M305.93 187.738H315.644V197.454H305.93V187.738Z" fill="#61A199"/>
<path opacity="0.1" d="M58.454 120.147H68.1685V129.864H58.454V120.147Z" fill="#61A199"/>
<path opacity="0.1" d="M95.5492 144.12H105.264V153.836H95.5492V144.12Z" fill="#61A199"/>
<path opacity="0.1" d="M58.454 144.12H68.1685V153.836H58.454V144.12Z" fill="#61A199"/>
<path opacity="0.1" d="M95.5492 168.089H105.264V177.805H95.5492V168.089Z" fill="#61A199"/>
<path opacity="0.1" d="M58.454 168.089H68.1685V177.805H58.454V168.089Z" fill="#61A199"/>
<path opacity="0.1" d="M95.5492 192.061H105.264V201.777H95.5492V192.061Z" fill="#61A199"/>
<path opacity="0.1" d="M58.454 192.061H68.1685V201.777H58.454V192.061Z" fill="#61A199"/>
<path opacity="0.1" d="M95.5492 216.033H105.264V225.75H95.5492V216.033Z" fill="#61A199"/>
<path opacity="0.1" d="M58.454 216.033H68.1685V225.75H58.454V216.033Z" fill="#61A199"/>
<path opacity="0.1" d="M105.264 246.27V240.002H95.5492V245.378L105.264 246.27Z" fill="#61A199"/>
<path opacity="0.1" d="M364.175 101.951V107.525H327.02V101.951H364.175ZM360.866 107.177H363.593V102.3H360.866V107.177ZM357.557 107.177H360.284V102.3H357.557V107.177ZM354.248 107.177H356.975V102.3H354.248V107.177ZM350.939 107.177H353.666V102.3H350.939V107.177ZM347.63 107.177H350.357V102.3H347.63V107.177ZM344.321 107.177H347.048V102.3H344.321V107.177ZM341.012 107.177H343.739V102.3H341.012V107.177ZM337.703 107.177H340.43V102.3H337.703V107.177ZM334.394 107.177H337.121V102.3H334.394V107.177ZM331.085 107.177H333.812V102.3H331.085V107.177ZM327.602 107.177H330.503V102.3H327.602V107.177Z" fill="#61A199"/>
<path opacity="0.1" d="M364.175 118.137V123.694H327.02V118.137H364.175ZM360.866 123.346H363.593V118.486H360.866V123.346ZM357.557 123.346H360.284V118.486H357.557V123.346ZM354.248 123.346H356.975V118.486H354.248V123.346ZM350.939 123.346H353.666V118.486H350.939V123.346ZM347.63 123.346H350.357V118.486H347.63V123.346ZM344.321 123.346H347.048V118.486H344.321V123.346ZM341.012 123.346H343.739V118.486H341.012V123.346ZM337.703 123.346H340.43V118.486H337.703V123.346ZM334.394 123.346H337.121V118.486H334.394V123.346ZM331.085 123.346H333.812V118.486H331.085V123.346ZM327.602 123.346H330.503V118.486H327.602V123.346Z" fill="#61A199"/>
<path opacity="0.1" d="M364.175 134.32V139.877H327.02V134.32H364.175ZM360.866 139.528H363.593V134.668H360.866V139.528ZM357.557 139.528H360.284V134.668H357.557V139.528ZM354.248 139.528H356.975V134.668H354.248V139.528ZM350.939 139.528H353.666V134.668H350.939V139.528ZM347.63 139.528H350.357V134.668H347.63V139.528ZM344.321 139.528H347.048V134.668H344.321V139.528ZM341.012 139.528H343.739V134.668H341.012V139.528ZM337.703 139.528H340.43V134.668H337.703V139.528ZM334.394 139.528H337.121V134.668H334.394V139.528ZM331.085 139.528H333.812V134.668H331.085V139.528ZM327.602 139.528H330.503V134.668H327.602V139.528Z" fill="#61A199"/>
<path opacity="0.1" d="M364.175 150.502V156.076H327.02V150.502H364.175ZM360.866 155.728H363.593V150.851H360.866V155.728ZM357.557 155.728H360.284V150.851H357.557V155.728ZM354.248 155.728H356.975V150.851H354.248V155.728ZM350.939 155.728H353.666V150.851H350.939V155.728ZM347.63 155.728H350.357V150.851H347.63V155.728ZM344.321 155.728H347.048V150.851H344.321V155.728ZM341.012 155.728H343.739V150.851H341.012V155.728ZM337.703 155.728H340.43V150.851H337.703V155.728ZM334.394 155.728H337.121V150.851H334.394V155.728ZM331.085 155.728H333.812V150.851H331.085V155.728ZM327.602 155.728H330.503V150.851H327.602V155.728Z" fill="#61A199"/>
<path opacity="0.1" d="M364.032 166.685C363.899 167.207 363.75 167.73 363.593 168.245V167.033H360.866V171.91H362.322C362.28 172.025 362.234 172.144 362.186 172.259H327.006V166.685H364.032ZM357.557 171.91H360.284V167.033H357.557V171.91ZM354.248 171.91H356.975V167.033H354.248V171.91ZM350.939 171.91H353.666V167.033H350.939V171.91ZM347.63 171.91H350.357V167.033H347.63V171.91ZM344.321 171.91H347.048V167.033H344.321V171.91ZM341.012 171.91H343.739V167.033H341.012V171.91ZM337.703 171.91H340.43V167.033H337.703V171.91ZM334.394 171.91H337.121V167.033H334.394V171.91ZM331.085 171.91H333.812V167.033H331.085V171.91ZM327.602 171.91H330.503V167.033H327.602V171.91Z" fill="#61A199"/>
<path opacity="0.1" d="M356.31 182.867C356.226 182.982 356.142 183.101 356.055 183.216H354.248V185.553C354.056 185.787 353.861 186.017 353.666 186.25V183.219H350.939V188.096H352.043C351.935 188.211 351.827 188.33 351.694 188.445H327.003V182.871L356.31 182.867ZM347.63 188.093H350.357V183.216H347.63V188.093ZM344.321 188.093H347.048V183.216H344.321V188.093ZM341.012 188.093H343.739V183.216H341.012V188.093ZM337.703 188.093H340.43V183.216H337.703V188.093ZM334.394 188.093H337.121V183.216H334.394V188.093ZM331.085 188.093H333.812V183.216H331.085V188.093ZM327.602 188.093H330.503V183.216H327.602V188.093Z" fill="#61A199"/>
<path opacity="0.1" d="M338.072 199.05C337.758 199.227 337.441 199.398 337.121 199.569V199.398H334.394V200.938L333.812 201.203V199.398H331.085V202.356L330.503 202.579V199.398H327.602V203.579L327.02 203.76V199.05H338.072Z" fill="#61A199"/>
<path opacity="0.1" d="M223.505 53.7069C223.505 53.7069 231.805 53.2088 230.82 59.0268C230.87 59.3216 230.827 59.6249 230.695 59.8934C230.563 60.1618 230.349 60.3816 230.085 60.5213C230.085 60.5213 230.067 60.0893 229.231 60.2357C228.934 60.2876 228.631 60.3028 228.329 60.281C227.922 60.2534 227.536 60.0931 227.228 59.8246C227.228 59.8246 224.895 58.8595 223.986 55.0447C223.986 55.0447 223.313 54.2121 223.341 53.9996L224.735 54.5988C224.735 54.5988 224.257 55.6091 224.634 56.4487C224.634 56.4487 224.679 54.6336 224.947 54.6789C225.003 54.6789 225.675 55.0273 225.675 55.0273C225.675 55.0273 224.853 56.7901 225.473 58.0687C225.473 58.0687 225.236 55.8983 225.933 55.1562L226.918 55.7311C226.918 55.7311 225.957 57.5496 226.608 59.0337C226.608 59.0337 226.441 56.7588 227.127 55.8704L228.019 56.5672C228.019 56.5672 227.117 58.3614 227.671 59.5912C227.671 59.5912 227.744 56.9434 228.218 56.7414C228.556 57.0283 228.859 57.3546 229.12 57.7134C229.12 57.7134 228.5 59.0163 228.883 59.7026C228.883 59.7026 229.12 57.9363 229.311 57.9294C229.311 57.9294 230.092 59.0999 230.172 59.9012C230.134 59.1577 229.902 58.437 229.499 57.8109C229.949 57.8956 230.365 58.1099 230.694 58.4276C230.694 58.4276 230.572 57.6019 229.301 57.5287C229.301 57.5287 228.657 56.6403 228.486 56.5881C228.486 56.5881 229.743 56.4836 230.506 56.8215C230.506 56.8215 229.834 56.0411 228.256 56.393L227.371 55.6753C227.371 55.6753 229.05 55.4489 229.747 55.6927C229.747 55.6927 228.939 54.996 227.152 55.5046L226.19 54.9298C226.93 54.7679 227.688 54.7023 228.444 54.7347C228.444 54.7347 227.556 54.2574 225.912 54.7765L225.215 54.4664C225.215 54.4664 226.26 54.2644 226.553 54.233C226.845 54.2016 226.873 54.1145 226.873 54.1145C226.218 54.0055 225.545 54.0803 224.93 54.3305C224.93 54.3305 223.477 53.7871 223.505 53.7069Z" fill="#61A199"/>
<path opacity="0.1" d="M245.302 82.0064C245.302 82.0064 248.138 89.8276 242.283 90.5418C242.014 90.6736 241.71 90.7172 241.415 90.6666C241.12 90.6159 240.848 90.4735 240.639 90.2596C240.639 90.2596 241.05 90.1203 240.67 89.3608C240.539 89.0887 240.439 88.8023 240.374 88.5073C240.284 88.1097 240.327 87.6938 240.496 87.3227C240.496 87.3227 240.757 84.8109 244.16 82.8564C244.16 82.8564 244.766 81.975 244.979 81.9402L244.801 83.4522C244.801 83.4522 243.697 83.2815 243 83.8807C243 83.8807 244.742 83.4104 244.787 83.6786C244.787 83.7344 244.658 84.4764 244.658 84.4764C244.658 84.4764 242.735 84.1873 241.684 85.1488C241.684 85.1488 243.697 84.3057 244.609 84.7621L244.338 85.87C244.338 85.87 242.317 85.4624 241.081 86.511C241.081 86.511 243.216 85.7028 244.261 86.1104L243.847 87.1555C243.847 87.1555 241.872 86.8071 240.848 87.6781C240.848 87.6781 243.408 86.9813 243.735 87.3924C243.557 87.7981 243.33 88.1806 243.059 88.5316C243.059 88.5316 241.635 88.3087 241.084 88.88C241.084 88.88 242.843 88.6048 242.906 88.7895C242.906 88.7895 242.007 89.8695 241.262 90.183C241.962 89.9364 242.585 89.5112 243.07 88.9497C243.114 89.404 243.026 89.8614 242.816 90.2666C242.816 90.2666 243.575 89.9182 243.282 88.6849C243.282 88.6849 243.951 87.814 243.955 87.6398C243.955 87.6398 244.411 88.8138 244.303 89.6395C244.303 89.6395 244.864 88.7755 244.073 87.3611L244.515 86.3159C244.515 86.3159 245.212 87.8384 245.16 88.5804C245.16 88.5804 245.592 87.6119 244.602 86.0407L244.881 84.9572C245.246 85.615 245.524 86.3177 245.707 87.0475C245.707 87.0475 245.912 86.0616 244.947 84.6297L245.048 83.8807C245.048 83.8807 245.539 84.8144 245.654 85.0966C245.769 85.3788 245.856 85.3718 245.856 85.3718C245.776 84.7124 245.513 84.0886 245.097 83.5706C245.097 83.5706 245.205 82.0099 245.302 82.0064Z" fill="#61A199"/>
<path opacity="0.1" d="M190.255 75.4183C190.255 75.4183 193.094 83.2361 187.235 83.9503C186.967 84.0833 186.664 84.1277 186.369 84.077C186.074 84.0263 185.803 83.8831 185.594 83.6681C185.594 83.6681 186.002 83.5322 185.626 82.7692C185.494 82.4982 185.393 82.213 185.326 81.9192C185.238 81.5201 185.282 81.1031 185.452 80.7312C185.452 80.7312 185.713 78.2193 189.112 76.2649C189.112 76.2649 189.718 75.387 189.931 75.3486L189.757 76.8641C189.757 76.8641 188.646 76.7004 187.949 77.2926C187.949 77.2926 189.691 76.8188 189.736 77.0906C189.736 77.1463 189.607 77.8884 189.607 77.8884C189.607 77.8884 187.684 77.5992 186.636 78.5573C186.636 78.5573 188.649 77.7142 189.558 78.1706L189.287 79.2784C189.287 79.2784 187.27 78.8743 186.033 79.9194C186.033 79.9194 188.168 79.1147 189.21 79.5188L188.795 80.564C188.795 80.564 186.82 80.2156 185.796 81.083C185.796 81.083 188.36 80.3863 188.684 80.7974C188.506 81.2042 188.279 81.5879 188.008 81.9401C188.008 81.9401 186.584 81.7136 186.037 82.2885C186.037 82.2885 187.796 82.0132 187.858 82.1944C187.858 82.1944 186.956 83.2744 186.211 83.5879C186.911 83.3402 187.534 82.9138 188.019 82.3512C188.065 82.8067 187.976 83.2658 187.764 83.6716C187.764 83.6716 188.524 83.3232 188.235 82.0864C188.235 82.0864 188.903 81.2189 188.903 81.0412C188.903 81.0412 189.363 82.2153 189.252 83.0445C189.252 83.0445 189.809 82.1805 189.022 80.766L189.461 79.7209C189.461 79.7209 190.157 81.2433 190.109 81.9888C190.109 81.9888 190.54 81.0169 189.551 79.4456L189.826 78.3622C190.191 79.0202 190.468 79.7229 190.652 80.4525C190.652 80.4525 190.861 79.4665 189.896 78.0347L189.997 77.2891C189.997 77.2891 190.485 78.2228 190.603 78.505C190.722 78.7872 190.802 78.7767 190.802 78.7767C190.721 78.1179 190.46 77.4943 190.046 76.9756C190.046 76.9756 190.161 75.4183 190.255 75.4183Z" fill="#61A199"/>
<path opacity="0.1" d="M268.943 139.34C268.943 139.34 271.778 147.161 265.923 147.872C265.654 148.005 265.35 148.049 265.055 147.998C264.759 147.948 264.488 147.805 264.279 147.59C264.279 147.59 264.69 147.454 264.31 146.694C264.178 146.423 264.078 146.136 264.014 145.841C263.925 145.442 263.967 145.025 264.136 144.653C264.136 144.653 264.397 142.141 267.797 140.187C267.797 140.187 268.406 139.309 268.619 139.27L268.441 140.786C268.441 140.786 267.337 140.615 266.637 141.214C266.637 141.214 268.378 140.741 268.427 141.012C268.427 141.068 268.298 141.81 268.298 141.81C268.298 141.81 266.376 141.521 265.324 142.479C265.324 142.479 267.337 141.636 268.249 142.092L267.974 143.2C267.974 143.2 265.958 142.796 264.721 143.841C264.721 143.841 266.856 143.036 267.901 143.441L267.487 144.486C267.487 144.486 265.512 144.137 264.488 145.005C264.488 145.005 267.048 144.308 267.375 144.719C267.197 145.127 266.969 145.51 266.696 145.862C266.696 145.862 265.275 145.635 264.725 146.21C264.725 146.21 266.484 145.935 266.546 146.116C266.546 146.116 265.648 147.196 264.902 147.51C265.601 147.261 266.223 146.835 266.706 146.273C266.753 146.728 266.666 147.187 266.456 147.593C266.456 147.593 267.212 147.245 266.922 146.008C266.922 146.008 267.591 145.141 267.595 144.963C267.595 144.963 268.051 146.141 267.943 146.966C267.943 146.966 268.5 146.102 267.713 144.688L268.152 143.643C268.152 143.643 268.849 145.165 268.8 145.911C268.8 145.911 269.232 144.939 268.243 143.371L268.521 142.284C268.886 142.942 269.163 143.645 269.347 144.374C269.347 144.374 269.552 143.388 268.587 141.956L268.688 141.211C268.688 141.211 269.179 142.145 269.294 142.427C269.409 142.709 269.496 142.698 269.496 142.698C269.414 142.04 269.151 141.416 268.737 140.897C268.737 140.897 268.845 139.34 268.943 139.34Z" fill="#61A199"/>
<path opacity="0.1" d="M280.2 65.6217C280.2 65.6217 283.038 73.443 277.183 74.1572C276.914 74.2889 276.611 74.3326 276.316 74.2819C276.021 74.2312 275.749 74.0889 275.539 73.875C275.539 73.875 275.947 73.7356 275.571 72.9761C275.438 72.7047 275.338 72.4181 275.275 72.1226C275.185 71.7238 275.228 71.3069 275.396 70.9346C275.396 70.9346 275.658 68.4227 279.057 66.4718C279.057 66.4718 279.663 65.5904 279.879 65.5555L279.702 67.0675C279.702 67.0675 278.597 66.8968 277.897 67.496C277.897 67.496 279.639 67.0257 279.684 67.294C279.684 67.3497 279.555 68.0918 279.555 68.0918C279.555 68.0918 277.636 67.8026 276.584 68.7607C276.584 68.7607 278.597 67.9211 279.507 68.374L279.235 69.4853C279.235 69.4853 277.218 69.0777 275.982 70.1264C275.982 70.1264 278.117 69.3181 279.158 69.7222L278.744 70.7674C278.744 70.7674 276.769 70.419 275.748 71.2865C275.748 71.2865 278.308 70.5897 278.636 71.0043C278.457 71.4106 278.229 71.7933 277.957 72.1435C277.957 72.1435 276.535 71.9205 275.985 72.4919C275.985 72.4919 277.744 72.2167 277.807 72.4013C277.807 72.4013 276.905 73.4813 276.163 73.7948C276.862 73.5485 277.484 73.1233 277.967 72.5616C278.013 73.016 277.925 73.4739 277.713 73.8785C277.713 73.8785 278.472 73.5301 278.183 72.2968C278.183 72.2968 278.852 71.4258 278.855 71.2516C278.855 71.2516 279.312 72.4292 279.204 73.2548C279.204 73.2548 279.761 72.3909 278.974 70.9764L279.413 69.9313C279.413 69.9313 280.109 71.4537 280.06 72.1958C280.06 72.1958 280.492 71.2272 279.503 69.656L279.782 68.5726C280.145 69.231 280.423 69.9336 280.607 70.6629C280.607 70.6629 280.813 69.6734 279.848 68.2451L279.949 67.496C279.949 67.496 280.437 68.4297 280.555 68.7119C280.673 68.9941 280.757 68.9837 280.757 68.9837C280.675 68.3248 280.412 67.7015 279.998 67.1825C279.998 67.1825 280.106 65.6252 280.2 65.6217Z" fill="#61A199"/>
<path opacity="0.1" d="M259.151 108.198C259.151 108.198 256.96 116.211 251.767 113.424C251.471 113.377 251.198 113.238 250.986 113.026C250.774 112.815 250.634 112.542 250.586 112.246C250.586 112.246 251.001 112.372 251.13 111.532C251.18 111.234 251.263 110.941 251.377 110.661C251.536 110.285 251.812 109.969 252.164 109.762C252.164 109.762 253.826 107.864 257.737 108.226C257.737 108.226 258.74 107.857 258.932 107.951L257.918 109.086C257.918 109.086 257.114 108.309 256.198 108.39C256.198 108.39 257.901 109.013 257.772 109.254C257.748 109.306 257.208 109.832 257.208 109.832C257.208 109.832 255.815 108.487 254.393 108.665C254.393 108.665 256.525 109.139 257.006 110.034L256.142 110.786C256.142 110.786 254.731 109.288 253.115 109.431C253.115 109.431 255.323 110.003 255.943 110.936L254.996 111.56C254.996 111.56 253.603 110.128 252.248 110.253C252.248 110.253 254.735 111.173 254.77 111.685C254.391 111.916 253.985 112.098 253.561 112.229C253.561 112.229 252.516 111.225 251.753 111.368C251.753 111.368 253.348 112.156 253.296 112.344C253.296 112.344 251.938 112.692 251.154 112.525C251.868 112.727 252.622 112.738 253.342 112.556C253.116 112.955 252.78 113.279 252.373 113.49C252.373 113.49 253.195 113.64 253.669 112.466C253.669 112.466 254.714 112.142 254.822 111.995C254.822 111.995 254.519 113.218 253.955 113.831C253.955 113.831 254.909 113.448 255.08 111.839L256.044 111.232C256.044 111.232 255.727 112.873 255.264 113.459C255.264 113.459 256.177 112.915 256.274 111.062L257.128 110.337C257.045 111.089 256.863 111.827 256.588 112.532C256.588 112.532 257.326 111.835 257.365 110.118L257.877 109.567C257.877 109.567 257.737 110.612 257.671 110.908C257.605 111.205 257.671 111.257 257.671 111.257C257.985 110.672 258.13 110.011 258.089 109.348C258.089 109.348 259.075 108.142 259.151 108.198Z" fill="#61A199"/>
<path opacity="0.1" d="M199.719 115.371C199.719 115.371 197.528 123.384 192.332 120.597C192.036 120.55 191.763 120.411 191.552 120.199C191.34 119.988 191.201 119.715 191.154 119.419C191.154 119.419 191.565 119.545 191.698 118.705C191.745 118.406 191.828 118.113 191.945 117.834C192.102 117.458 192.377 117.143 192.729 116.935C192.729 116.935 194.39 115.037 198.302 115.399C198.302 115.399 199.305 115.03 199.5 115.124L198.483 116.259C198.483 116.259 197.678 115.483 196.762 115.563C196.762 115.563 198.465 116.186 198.34 116.43C198.316 116.479 197.776 117.005 197.776 117.005C197.776 117.005 196.382 115.66 194.961 115.838C194.961 115.838 197.089 116.312 197.57 117.207L196.71 117.96C196.71 117.96 195.296 116.462 193.683 116.604C193.683 116.604 195.891 117.176 196.511 118.109L195.564 118.733C195.564 118.733 194.171 117.301 192.812 117.427C192.812 117.427 195.299 118.346 195.338 118.862C194.957 119.091 194.55 119.272 194.125 119.402C194.125 119.402 193.08 118.399 192.321 118.541C192.321 118.541 193.916 119.332 193.861 119.517C193.861 119.517 192.502 119.865 191.719 119.698C192.432 119.9 193.187 119.911 193.906 119.729C193.681 120.129 193.345 120.453 192.938 120.663C192.938 120.663 193.76 120.813 194.237 119.639C194.237 119.639 195.282 119.315 195.39 119.168C195.39 119.168 195.083 120.391 194.519 121.008C194.519 121.008 195.473 120.621 195.644 119.012L196.609 118.406C196.609 118.406 196.295 120.046 195.832 120.632C195.832 120.632 196.745 120.088 196.842 118.235L197.692 117.51C197.609 118.262 197.429 119 197.156 119.705C197.156 119.705 197.894 119.008 197.929 117.291L198.441 116.74C198.441 116.74 198.302 117.785 198.235 118.082C198.169 118.378 198.235 118.43 198.235 118.43C198.55 117.845 198.694 117.184 198.653 116.521C198.653 116.521 199.639 115.298 199.719 115.371Z" fill="#61A199"/>
<path d="M53.5181 234.125L50.0106 237.828L44.448 228.025L44.9496 226.924L53.5181 234.125Z" fill="#61A199"/>
<path opacity="0.2" d="M53.5181 234.125L50.0106 237.828L44.448 228.025L44.9496 226.924L53.5181 234.125Z" fill="black"/>
<path d="M300.089 225.732C300.089 244.336 312.826 248.283 325.592 248.283C338.358 248.283 345.543 232.606 345.543 213.995C345.543 195.385 335.195 180.307 322.429 180.307C309.664 180.307 300.089 207.129 300.089 225.732Z" fill="#636780"/>
<path opacity="0.2" d="M300.089 225.732C300.089 244.336 312.826 248.283 325.592 248.283C338.358 248.283 345.543 232.606 345.543 213.995C345.543 195.385 335.195 180.307 322.429 180.307C309.664 180.307 300.089 207.129 300.089 225.732Z" fill="black"/>
<path d="M308.915 214.595C308.915 233.198 317.114 248.283 327.229 248.283C337.344 248.283 345.944 233.198 345.944 214.595C345.944 212.024 346.341 209.522 346.045 207.118C344.196 192.113 335.944 180.909 327.236 180.909C317.114 180.909 308.915 195.991 308.915 214.595Z" fill="#636780"/>
<path d="M310.74 132.592C310.74 132.592 326.794 150.596 331.893 165.601L193.265 180.909L119.005 165.601C119.005 165.601 148.416 130.352 156.365 128.99C164.313 127.627 310.74 132.592 310.74 132.592Z" fill="#36334A"/>
<path d="M209.019 178.394L186.768 240.831V225.029L180.575 207.338L163.418 199.739L141.662 209.613L133.881 212.044L133.201 197.642L159.067 184.888L171.108 179.108L198.67 176.704L206.274 175.346L209.019 178.394Z" fill="#3F3D56"/>
<path d="M199.095 184.888L178.851 187.212C179.771 179.126 173.77 179.126 173.77 179.126L194.02 175.621H203.474" fill="#3F3D56"/>
<path d="M186.769 250.433H172.418L130.861 249.039C130.861 249.039 129.962 256.965 119.018 255.101C119.018 255.101 112.993 255.488 112.345 252.213C111.697 248.938 126.068 218.674 126.068 218.674L145.661 204.042L163.425 199.729L176.176 203.481L184.278 216.371L189.377 234.017L186.769 250.433Z" fill="#636780"/>
<path opacity="0.2" d="M186.769 250.433H172.418L130.861 249.039C130.861 249.039 129.962 256.965 119.018 255.101C119.018 255.101 112.993 255.488 112.345 252.213C111.697 248.938 126.068 218.674 126.068 218.674L145.661 204.042L163.425 199.729L176.176 203.481L184.278 216.371L189.377 234.017L186.769 250.433Z" fill="black"/>
<path d="M307.947 136.901C310.002 138.58 316.494 144.604 321.903 157.341C322.091 157.779 322.175 158.254 322.147 158.73C322.12 159.206 321.983 159.668 321.747 160.082C321.51 160.496 321.181 160.849 320.785 161.114C320.39 161.379 319.938 161.548 319.465 161.609L286.87 165.835C285.668 165.991 284.451 165.699 283.451 165.014C282.451 164.328 281.739 163.298 281.45 162.121L275.721 138.741C275.635 138.393 275.631 138.031 275.708 137.681C275.785 137.331 275.941 137.004 276.164 136.725C276.388 136.445 276.673 136.221 276.997 136.069C277.321 135.917 277.676 135.842 278.034 135.849L306.515 136.379C307.038 136.386 307.542 136.57 307.947 136.901Z" fill="#636780"/>
<path d="M260.579 135.797L223.874 135.448C221.23 135.424 218.862 137.19 217.97 139.887L206.525 165.887C205.511 168.932 207.702 172.102 210.704 171.928L264.282 168.399C268.726 168.141 271.872 163.608 270.844 158.937L266.96 141.284C266.26 138.093 263.627 135.825 260.579 135.797Z" fill="#636780"/>
<path d="M203.522 135.379C193.487 135.198 166.894 134.438 153.665 131.39C153.665 131.39 130.962 148.496 124.159 161.4C124.159 161.4 159.548 170.015 183.989 171.182C185.801 171.266 187.598 170.815 189.157 169.886C190.716 168.957 191.967 167.591 192.756 165.957L205.751 139.02C205.939 138.637 206.026 138.214 206.006 137.788C205.986 137.363 205.859 136.95 205.637 136.587C205.414 136.224 205.104 135.923 204.734 135.712C204.365 135.5 203.948 135.386 203.522 135.379Z" fill="#636780"/>
<path opacity="0.1" d="M190.799 139.277C186.619 139.204 178.465 138.988 170.503 138.392C164.639 137.945 158.751 138.86 153.299 141.065C147.847 143.271 142.979 146.707 139.074 151.105L138.817 151.398C138.251 152.049 137.866 152.837 137.698 153.683C137.53 154.529 137.585 155.405 137.859 156.223C138.132 157.041 138.615 157.774 139.258 158.349C139.901 158.924 140.683 159.321 141.527 159.501C150.311 161.386 165.275 164.263 176.825 164.821C178.125 164.886 179.415 164.567 180.535 163.903C181.654 163.239 182.553 162.259 183.119 161.086L192.391 141.866C192.522 141.593 192.583 141.292 192.567 140.99C192.552 140.687 192.461 140.394 192.302 140.136C192.144 139.878 191.923 139.665 191.66 139.515C191.398 139.364 191.101 139.283 190.799 139.277Z" fill="white"/>
<path d="M186.768 240.831V250.433L292.885 234.23C298.085 232.428 301.189 233.533 301.189 233.533C305.02 231.662 307.807 224.363 307.887 224.126L305.884 218.326L322.15 191.417L343.791 192.315C340.388 165.103 330.59 163.804 330.59 163.804L203.456 175.607L186.768 240.831Z" fill="#3F3D56"/>
<path opacity="0.1" d="M209.639 183.519C210.471 184.431 211.993 185.261 214.801 185.184C219.103 185.079 219.918 181.407 220.026 179.216C220.053 178.679 220.037 178.141 219.98 177.607L214.345 175.882L213.192 176.959L209.789 180.146C209.326 180.576 209.052 181.171 209.024 181.802C208.996 182.433 209.217 183.049 209.639 183.519Z" fill="black"/>
<path d="M209.639 183.219C210.471 184.132 211.993 184.961 214.801 184.884C219.103 184.78 219.918 181.108 220.026 178.917C220.053 178.38 220.037 177.842 219.98 177.307L214.345 175.583L213.192 176.659L209.789 179.847C209.326 180.277 209.052 180.871 209.024 181.502C208.996 182.133 209.217 182.75 209.639 183.219Z" fill="#DCE0ED"/>
<path opacity="0.1" d="M213.188 176.659C213.909 178.495 216.041 178.993 216.041 178.993L220.022 178.917C220.049 178.38 220.034 177.842 219.977 177.307L214.341 175.583L213.188 176.659Z" fill="black"/>
<path d="M227.553 162.602C227.553 162.602 236.553 163.807 234.153 171.945C232.335 178.112 228.277 178.526 226.417 178.37C225.334 178.273 224.247 178.233 223.16 178.251L216.044 178.394C216.044 178.394 212.025 177.457 213.15 173.405C214.275 169.353 219.451 161.926 227.553 162.602Z" fill="#F0F0F4"/>
<path opacity="0.2" d="M276.285 187.212C273.992 187.212 272.133 184.792 272.133 181.808C272.133 178.824 273.992 176.405 276.285 176.405C278.578 176.405 280.437 178.824 280.437 181.808C280.437 184.792 278.578 187.212 276.285 187.212Z" fill="black"/>
<path opacity="0.1" d="M269.138 180.83L280.956 179.569C281.96 179.462 282.861 180.189 282.968 181.194L282.968 181.197C283.075 182.201 282.348 183.103 281.344 183.21L269.527 184.471C268.522 184.578 267.621 183.851 267.514 182.846L267.514 182.843C267.407 181.838 268.134 180.937 269.138 180.83Z" fill="black"/>
<path d="M269.138 180.529L280.955 179.268C281.959 179.16 282.86 179.888 282.967 180.892L282.968 180.896C283.075 181.9 282.348 182.801 281.343 182.908L269.526 184.169C268.522 184.277 267.621 183.549 267.514 182.545L267.513 182.541C267.406 181.537 268.134 180.636 269.138 180.529Z" fill="#F0F0F4"/>
<path opacity="0.1" d="M345.094 217.072C345.094 217.072 352.544 209.717 343.495 192.016C343.495 192.016 331.893 174.457 313.889 193.667C313.889 193.667 303.537 205.22 300.538 223.677L307.588 223.827C307.588 223.827 314.342 191.114 334.143 192.765C334.143 192.761 348.546 195.312 345.094 217.072Z" fill="black"/>
<path opacity="0.1" d="M345.386 217.97C345.386 217.97 352.84 210.62 343.788 192.911C343.788 192.911 332.185 175.356 314.181 194.562C314.181 194.562 303.829 206.118 300.827 224.572L307.88 224.722C307.88 224.722 314.641 192.016 334.443 193.664C334.443 193.664 348.845 196.214 345.386 217.97Z" fill="black"/>
<path d="M345.386 217.371C345.386 217.371 352.84 210.017 343.788 192.312C343.788 192.312 332.185 174.757 314.181 193.963C314.181 193.963 303.829 205.516 300.827 223.973L307.88 224.123C307.88 224.123 314.641 191.413 334.443 193.061C334.443 193.061 348.845 195.615 345.386 217.371Z" fill="#36334A"/>
<path opacity="0.1" d="M186.769 240.532V250.133L292.885 233.927C298.086 232.129 301.189 233.23 301.189 233.23C305.021 231.359 307.807 224.06 307.887 223.823L300.834 223.674L280.43 226.523L206.271 237.177C206.271 237.177 193.118 238.679 192.369 239.267C191.621 239.856 186.769 240.532 186.769 240.532Z" fill="black"/>
<path d="M186.769 240.832V250.433L292.885 234.23C298.086 232.429 301.189 233.533 301.189 233.533C305.021 231.662 307.807 224.363 307.887 224.126L300.834 223.977L280.43 226.826L206.271 237.48C206.271 237.48 193.118 238.982 192.369 239.57C191.621 240.159 186.769 240.832 186.769 240.832Z" fill="#36334A"/>
<path opacity="0.2" d="M280.579 226.854C287.173 205.679 286.821 190.911 285.365 182.261C283.784 172.855 280.586 168.42 280.555 168.378L280.314 168.556C280.346 168.597 283.505 173.001 285.072 182.338C286.521 190.971 286.87 205.662 280.29 226.781L280.579 226.854Z" fill="black"/>
<path d="M42.55 217.577C42.2853 218.563 41.6688 221.287 42.6475 222.022C43.0202 222.301 43.3441 222.987 43.5949 223.802C43.9873 225.186 44.2715 226.597 44.4448 228.025L54.6504 239.428L71.9023 246.183L113.16 249.032L138.064 208.519L194.021 175.603L178.744 174.757C163.463 173.907 120.088 164.305 120.088 164.305L71.021 175.147C63.0852 176.888 56.0748 181.506 51.3414 188.11C45.3678 196.472 42.6336 205.53 42.6336 205.53C41.8952 206.415 41.6096 207.864 41.5677 209.452C41.512 212.041 42.1042 214.988 42.4281 216.396C42.55 216.922 42.6336 217.235 42.6336 217.235C42.6336 217.235 42.6057 217.354 42.55 217.577Z" fill="#3F3D56"/>
<path opacity="0.1" d="M192.373 238.978C192.373 238.978 195.372 206.881 172.868 198.172C172.868 198.172 141.213 184.808 122.61 221.123L113.16 241.835C113.16 241.835 110.46 246.935 103.108 246.785C103.108 246.785 68.454 245.74 50.1642 234.031L44.4623 227.412C44.4623 227.412 47.3115 236.713 50.1642 238.814C50.1642 238.814 61.4147 252.018 102.373 254.422C102.373 254.422 119.123 256.22 124.174 240.316C124.174 240.316 131.025 204.303 165.832 204.603C165.832 204.603 186.281 205.003 186.783 240.215L192.373 238.978Z" fill="black"/>
<path d="M192.373 239.577C192.373 239.577 195.372 207.484 172.868 198.771C172.868 198.771 141.213 185.41 122.61 221.722L113.16 242.43C113.16 242.43 110.46 247.531 103.108 247.381C103.108 247.381 68.454 246.336 50.1641 234.627L44.4448 228.025C44.4448 228.025 47.294 237.327 50.1467 239.427C50.1467 239.427 61.3972 252.635 102.355 255.035C102.355 255.035 119.106 256.836 124.156 240.929C124.156 240.929 131.007 204.916 165.814 205.216C165.814 205.216 186.264 205.62 186.765 240.831L192.373 239.577Z" fill="#36334A"/>
<path opacity="0.2" d="M197.57 238.609L198.925 193.956C198.742 190.933 198.859 187.899 199.273 184.898C199.315 184.71 200.391 180.105 201.829 177.488C202.752 176.14 203.536 175.729 203.571 175.722L204.369 175.506L203.477 175.44C202.86 175.558 202.275 176.199 201.735 177.095C200.753 178.443 199.597 180.812 198.987 184.85C198.571 187.86 198.454 190.905 198.639 193.939L197.284 238.581L197.57 238.609Z" fill="black"/>
<path opacity="0.2" d="M170.022 205.491L170.314 205.54C170.314 205.505 170.938 201.802 172.993 198.858C177.301 192.688 178.708 188.504 178.869 185.71C178.947 184.742 178.828 183.768 178.52 182.846C177.848 180.962 176.047 179.568 173.602 178.878L173.08 178.965C175.431 179.627 177.608 181.16 178.252 182.947C178.56 183.855 178.678 184.817 178.6 185.773C178.426 188.508 177.016 192.611 172.777 198.691C170.652 201.687 170.025 205.453 170.022 205.491Z" fill="black"/>
<path opacity="0.2" d="M73.9292 190.939C93.0445 179.53 133.511 168.918 133.919 168.813L133.842 168.521C133.435 168.629 92.9261 179.251 73.7759 190.681L73.9292 190.939Z" fill="black"/>
<path opacity="0.2" d="M46.1375 206.753C53.3546 194.054 72.7869 183.585 87.8201 177.035C97.9889 172.636 108.418 168.866 119.05 165.748L118.97 165.458C108.325 168.58 97.8826 172.355 87.7017 176.76C72.6267 183.327 53.1351 193.831 45.8763 206.603L46.1375 206.753Z" fill="black"/>
<path opacity="0.1" d="M45.6826 203.124C44.1586 201.976 46.8779 195.795 51.7565 189.32C56.635 182.844 61.8253 178.526 63.3494 179.675C64.8734 180.823 62.1541 187.004 57.2755 193.479C52.397 199.955 47.2066 204.273 45.6826 203.124Z" fill="black"/>
<path d="M45.6806 202.524C44.1566 201.375 46.876 195.194 51.7545 188.719C56.6331 182.244 61.8234 177.926 63.3474 179.074C64.8715 180.223 62.1521 186.403 57.2735 192.879C52.395 199.354 47.2046 203.672 45.6806 202.524Z" fill="#DCE0ED"/>
<path opacity="0.1" d="M46.8211 200.513C45.8318 199.767 48.2957 194.827 52.3245 189.48C56.3533 184.132 60.4213 180.402 61.4107 181.148C62.4001 181.893 59.9362 186.833 55.9074 192.18C51.8786 197.528 47.8105 201.258 46.8211 200.513Z" fill="black"/>
<path d="M46.8207 200.214C45.8313 199.469 48.2952 194.529 52.324 189.181C56.3528 183.834 60.4208 180.104 61.4102 180.849C62.3996 181.595 59.9357 186.534 55.9069 191.882C51.8781 197.229 47.8101 200.96 46.8207 200.214Z" fill="#F0F0F4"/>
<path opacity="0.1" d="M90.5822 213.846C90.5822 213.846 89.6069 206.491 83.8285 204.84C83.8285 204.84 64.1767 199.154 59.8994 199.071C59.8994 199.071 55.4759 197.715 52.5501 201.015L49.5511 205.066C49.5511 205.066 47.4612 208.369 52.1007 208.968C52.1007 208.968 75.8521 217.678 86.1517 218.584C86.737 218.637 87.3186 218.725 87.8932 218.848C89.3979 219.162 92.5571 219.253 90.5822 213.846Z" fill="black"/>
<path d="M90.2791 213.546C90.2791 213.546 89.3038 206.192 83.5288 204.54C83.5288 204.54 63.877 198.855 59.5998 198.771C59.5998 198.771 55.1762 197.412 52.2504 200.715L49.2479 204.767C49.2479 204.767 47.158 208.066 51.801 208.669C51.801 208.669 75.549 217.378 85.8486 218.284C86.4339 218.337 87.0155 218.425 87.5901 218.549C89.0983 218.862 92.2575 218.953 90.2791 213.546Z" fill="#F0F0F4"/>
<path opacity="0.1" d="M88.2103 212.919C88.2103 212.919 87.3012 206.631 81.9406 205.22C81.9406 205.22 63.6682 200.342 59.6939 200.283C59.6939 200.283 55.5804 199.123 52.86 201.945L50.0735 205.411C50.0735 205.411 48.123 208.237 52.4456 208.749C52.4456 208.749 74.5251 216.204 84.1002 216.974C84.6392 217.02 85.1752 217.096 85.7059 217.201C87.1096 217.448 90.0459 217.538 88.2103 212.919Z" fill="black"/>
<path d="M87.9067 212.612C87.9067 212.612 87.0011 206.341 81.6371 204.913C81.6371 204.913 63.3646 200.036 59.3904 199.976C59.3904 199.976 55.2768 198.813 52.5565 201.638L49.77 205.122C49.77 205.122 47.8194 207.944 52.142 208.46C52.142 208.46 74.225 215.915 83.8001 216.685C84.3368 216.731 84.8705 216.806 85.3989 216.911C86.8095 217.162 89.7458 217.239 87.9067 212.612Z" fill="#636780"/>
<path d="M86.364 208.738L86.4023 208.439C86.1341 208.407 59.4465 205.091 53.7028 200.656L53.5182 200.893C59.3281 205.369 85.2633 208.595 86.364 208.738Z" fill="#F0F0F4"/>
<path d="M87.7681 212.194L87.8203 211.898C87.5277 211.846 58.1686 206.408 51.8363 202.492L51.6761 202.746C58.0571 206.693 87.472 212.138 87.7681 212.194Z" fill="#F0F0F4"/>
<path d="M88.4609 215.041L88.5166 214.748C88.1683 214.682 54.3821 208.303 50.2023 204.565L50.0038 204.788C54.2288 208.581 87.0676 214.779 88.4609 215.041Z" fill="#F0F0F4"/>
<path opacity="0.1" d="M53.299 215.194C53.299 215.194 66.0332 220.507 79.4223 222.89C80.6066 223.103 81.7781 223.368 82.9368 223.684C84.2952 224.053 86.2249 224.471 87.2733 224.2C88.9974 223.747 89.9518 225.847 88.0883 227.499L87.9699 227.603C87.2965 228.196 86.5103 228.646 85.6586 228.928C84.807 229.209 83.9072 229.315 83.0134 229.241L80.1468 229C80.1468 229 56.89 223.9 50.4045 219.921C50.4045 219.921 47.4438 217.89 47.2174 215.605C46.991 213.32 46.7228 211.518 49.0705 212.87C51.4181 214.222 53.299 215.194 53.299 215.194Z" fill="black"/>
<path d="M53.0133 214.901C53.487 215.096 65.988 220.252 79.1368 222.59C80.321 222.801 81.4925 223.066 82.6513 223.384C84.0062 223.754 85.9393 224.172 86.9878 223.9C88.7293 223.447 89.6663 225.548 87.8028 227.199L87.7471 227.248C87.0542 227.861 86.2441 228.328 85.3659 228.62C84.4877 228.911 83.5595 229.022 82.6373 228.945L79.8787 228.715H79.8334C79.0358 228.54 56.4965 223.555 50.1223 219.657H50.098C49.8994 219.514 47.1408 217.549 46.9248 215.347C46.6984 213.062 46.4267 211.261 48.7779 212.612C51.0105 213.894 52.8183 214.842 52.9855 214.929L53.0133 214.901Z" fill="#F0F0F4"/>
<path opacity="0.1" d="M54.7129 216.58C54.7129 216.58 65.1622 220.928 76.3814 223.398C77.496 223.642 78.6001 223.928 79.6973 224.245C80.7945 224.562 82.3619 224.942 83.2326 224.83C84.7234 224.632 85.434 226.119 83.7621 227.119L83.7098 227.15C82.4444 227.906 80.9583 228.206 79.4988 228L76.9143 227.652C76.9143 227.652 57.3426 222.726 52.0135 219.618C52.0135 219.618 49.5753 218.054 49.5126 216.483C49.4499 214.912 49.2966 213.696 51.2298 214.741C53.1629 215.786 54.7129 216.58 54.7129 216.58Z" fill="black"/>
<path d="M54.4168 216.281C54.6397 216.375 64.9846 220.653 76.0783 223.099C77.1929 223.343 78.3005 223.628 79.3977 223.945C80.4949 224.262 82.0588 224.642 82.9331 224.531C84.4239 224.332 85.1344 225.816 83.459 226.819C82.1615 227.596 80.6372 227.904 79.14 227.694L76.6252 227.345C76.2211 227.244 57.0152 222.391 51.7348 219.333C51.6512 219.277 49.2966 217.74 49.2374 216.197C49.1782 214.654 49.0214 213.393 50.9546 214.455C52.8877 215.518 54.3506 216.253 54.4377 216.295L54.4168 216.281Z" fill="#636780"/>
<path opacity="0.1" d="M97.0241 229.163C96.9153 226.987 98.1323 225.158 99.7425 225.077C101.353 224.997 102.746 226.696 102.855 228.872C102.964 231.048 101.747 232.877 100.136 232.958C98.5263 233.038 97.1328 231.339 97.0241 229.163Z" fill="black"/>
<path d="M97.1086 229.145C97.0004 226.971 98.2163 225.144 99.8244 225.064C101.433 224.984 102.824 226.681 102.932 228.855C103.04 231.028 101.824 232.855 100.216 232.935C98.6081 233.015 97.2167 231.318 97.1086 229.145Z" fill="#F0F0F4"/>
<path opacity="0.1" d="M82.808 232C82.808 232 98.0815 234.327 102.132 234.554C106.183 234.78 106.793 237.027 106.793 237.027C106.793 237.027 107.768 242.73 102.143 241.079L82.1914 238.828C82.1914 238.828 79.4885 238.905 79.4885 235.226V234.4C79.4804 233.939 79.4338 233.478 79.3492 233.024C79.2412 232.449 79.5373 231.516 82.808 232Z" fill="black"/>
<path d="M82.5084 231.7C82.5084 231.7 97.7819 234.027 101.833 234.25C105.884 234.473 106.483 236.727 106.483 236.727C106.483 236.727 107.458 242.431 101.833 240.779L81.878 238.529C81.878 238.529 79.1785 238.605 79.1785 234.926V234.101C79.1704 233.639 79.1239 233.179 79.0392 232.725C78.9278 232.15 79.2378 231.216 82.5084 231.7Z" fill="#F0F0F4"/>
<path d="M42.6474 222.022C43.0201 222.301 43.344 222.987 43.5948 223.802L48.5408 227.307C48.6011 227.35 48.672 227.375 48.7457 227.38C48.8194 227.386 48.8931 227.371 48.9588 227.337C49.0245 227.303 49.0797 227.252 49.1184 227.189C49.1571 227.126 49.1778 227.054 49.1782 226.98V223.301C49.1785 222.773 49.0423 222.255 48.7829 221.796C48.5235 221.337 48.1497 220.953 47.6979 220.681L42.5499 217.577C42.2851 218.563 41.6582 221.28 42.6474 222.022Z" fill="#F0F0F4"/>
<path d="M77.6526 232.192L77.8825 235.912C77.9116 236.283 77.8572 236.656 77.7232 237.002C77.5893 237.349 77.3791 237.662 77.1083 237.916C76.8375 238.171 76.513 238.362 76.1587 238.475C75.8044 238.587 75.4293 238.619 75.0612 238.567C66.6379 237.223 58.5407 234.314 51.1878 229.99L50.5365 222.388C50.5176 222.203 50.5475 222.015 50.6232 221.845C50.6989 221.675 50.8178 221.527 50.9681 221.417C51.1184 221.307 51.2949 221.238 51.4801 221.217C51.6652 221.196 51.8527 221.224 52.0238 221.298C56.2035 223.161 67.4087 227.938 74.5213 228.851C75.3488 228.96 76.1129 229.352 76.6838 229.961C77.2547 230.57 77.597 231.359 77.6526 232.192Z" fill="#636780"/>
<path d="M75.354 230.275V236.323C75.354 236.323 56.7507 231.927 52.6266 228.962V223.224C59.8711 226.534 67.5088 228.903 75.354 230.275Z" fill="#3F3D56"/>
<path d="M42.7416 216.685C43.6856 216.619 44.4414 214.999 44.4414 213.016C44.4414 211.034 43.6542 209.344 42.6998 209.344C42.5469 209.351 42.3971 209.39 42.2598 209.458C42.1225 209.525 42.0008 209.621 41.9022 209.738C41.8256 212.327 42.4177 215.274 42.7416 216.685Z" fill="#61A199"/>
<path d="M42.4419 216.382C43.3858 216.319 44.1382 214.699 44.1382 212.717C44.1382 210.734 43.3545 209.041 42.3966 209.041C42.2431 209.049 42.0927 209.089 41.955 209.157C41.8172 209.225 41.6949 209.321 41.5955 209.438C41.5259 212.027 42.118 214.974 42.4419 216.382Z" fill="#F0F0F4"/>
<path d="M128.012 242.016C128.012 274.991 141.944 275.705 160.116 275.705C174.633 275.705 180.576 260.623 180.576 242.016C180.576 223.409 175.912 208.369 161.398 208.369C146.883 208.369 128.012 223.412 128.012 242.016Z" fill="#636780"/>
<path opacity="0.2" d="M128.012 242.016C128.012 274.991 141.944 275.705 160.116 275.705C174.633 275.705 180.576 260.623 180.576 242.016C180.576 223.409 175.912 208.369 161.398 208.369C146.883 208.369 128.012 223.412 128.012 242.016Z" fill="black"/>
<path d="M162.261 275.705C152.147 275.705 143.947 260.622 143.947 242.016C143.947 223.41 152.147 208.327 162.261 208.327C172.376 208.327 180.576 223.41 180.576 242.016C180.576 260.622 172.376 275.705 162.261 275.705Z" fill="#636780"/>
<path d="M319.19 222.022C319.19 232.125 322.116 240.229 328.194 240.229C334.272 240.229 341.496 232.031 341.496 221.921C341.496 211.811 338.971 202.917 332.893 202.917C326.815 202.917 319.19 211.912 319.19 222.022Z" fill="#F0F0F4"/>
<path d="M319.193 221.628C319.193 222.395 319.214 223.147 319.256 223.886C319.343 225.828 319.628 227.757 320.106 229.641C321.092 233.362 322.892 235.947 325.519 236.438C325.828 236.495 326.142 236.523 326.456 236.522C327.844 236.477 329.192 236.04 330.343 235.261C332.847 233.665 335.157 230.686 336.33 226.962C336.769 225.594 337.04 224.177 337.135 222.743C337.163 222.353 337.177 221.956 337.177 221.559C337.208 218.807 336.934 216.06 336.358 213.368C336.03 211.729 335.432 210.157 334.589 208.714C333.516 207.024 332.091 206.017 330.266 206.017C328.901 206.073 327.579 206.519 326.459 207.303C324.786 208.444 323.363 209.915 322.279 211.626C320.31 214.594 319.238 218.067 319.193 221.628Z" fill="#636780"/>
<path d="M319.263 223.9C319.348 225.837 319.631 227.761 320.106 229.641C320.231 229.498 323.673 225.52 326.257 228.074C328.155 229.944 326.557 234.205 325.519 236.435C325.828 236.491 326.141 236.519 326.456 236.518C327.844 236.473 329.192 236.036 330.343 235.257V234.972C330.343 234.972 328.814 230.206 332.892 227.269C332.892 227.269 334.874 226.481 336.348 226.955C336.787 225.587 337.057 224.17 337.152 222.736C336.804 222.461 334.418 220.416 335.393 216.563C335.657 215.477 335.985 214.408 336.376 213.361C336.042 211.724 335.438 210.153 334.589 208.714C334.589 208.714 333.805 212.968 330.806 213.222C327.807 213.476 326.497 207.467 326.459 207.299C324.785 208.44 323.363 209.911 322.279 211.623C322.279 211.623 327.069 213.616 325.672 218.918C324.648 222.674 321.179 223.653 319.263 223.9Z" fill="#F0F0F4"/>
<path d="M328.895 224.654C327.665 224.48 326.912 222.609 327.214 220.476C327.516 218.342 328.757 216.754 329.988 216.928C331.218 217.102 331.971 218.973 331.669 221.106C331.368 223.239 330.126 224.828 328.895 224.654Z" fill="#636780"/>
<path d="M159.067 243.423C159.067 255.537 161.648 265.239 167.009 265.239C172.37 265.239 178.744 255.418 178.744 243.291C178.744 231.164 176.514 220.521 171.154 220.521C165.793 220.521 159.067 231.31 159.067 243.423Z" fill="#F0F0F4"/>
<path d="M159.067 242.967C159.067 243.896 159.086 244.798 159.123 245.674C159.2 247.984 159.451 250.286 159.875 252.558C160.742 257.017 162.313 260.111 164.65 260.703C164.921 260.768 165.198 260.801 165.476 260.801C166.598 260.801 167.775 260.264 168.903 259.289C171.126 257.376 173.153 253.788 174.201 249.342C174.585 247.682 174.819 245.99 174.898 244.287C174.922 243.821 174.936 243.347 174.936 242.866C174.965 239.581 174.723 236.3 174.212 233.056C173.929 231.136 173.395 229.262 172.623 227.481C171.676 225.457 170.419 224.252 168.809 224.252C167.726 224.252 166.573 224.806 165.452 225.792C164.111 226.973 162.818 228.767 161.753 230.972C159.983 234.723 159.066 238.819 159.067 242.967Z" fill="#636780"/>
<path d="M159.123 245.667C159.201 247.977 159.452 250.279 159.876 252.551C159.984 252.377 163.011 247.611 165.302 250.67C166.974 252.913 165.567 258.017 164.651 260.696C164.922 260.761 165.199 260.794 165.477 260.794C166.598 260.794 167.775 260.257 168.904 259.282V258.934C168.904 258.934 167.556 253.224 171.154 249.705C171.154 249.705 172.896 248.761 174.202 249.329C174.586 247.668 174.819 245.976 174.898 244.274C174.592 243.943 172.488 241.486 173.348 236.877C173.676 235.135 173.968 233.892 174.212 233.045C173.929 231.125 173.395 229.251 172.624 227.471C172.624 227.471 171.927 232.571 169.287 232.871C166.647 233.171 165.487 225.98 165.456 225.781C164.115 226.962 162.822 228.756 161.757 230.962C161.757 230.962 165.982 233.352 164.749 239.703C163.881 244.221 160.82 245.378 159.123 245.667Z" fill="#F0F0F4"/>
<path d="M168.618 247.11C167.521 247.02 166.802 244.869 167.012 242.305C167.222 239.741 168.281 237.735 169.378 237.825C170.474 237.915 171.193 240.066 170.983 242.63C170.773 245.194 169.714 247.2 168.618 247.11Z" fill="#636780"/>
<path opacity="0.2" d="M118.416 190.675L118.538 190.95C118.656 190.894 129.029 186.421 167.493 179.892C169.29 179.588 171.148 179.278 173.066 178.962C173.244 178.937 173.414 178.906 173.599 178.878C179.754 177.875 186.549 176.833 194.045 175.743L194.003 175.443C183.85 176.906 174.985 178.3 167.253 179.624C128.886 186.146 118.538 190.622 118.416 190.675Z" fill="black"/>
<path opacity="0.1" d="M313.391 133.665C313.391 133.665 309.908 127.742 297.988 127.216C297.988 127.216 210.875 115.834 155.877 127.662C155.877 127.662 151.182 129.752 156.277 130.979C161.373 132.205 278.486 136.445 313.391 133.665Z" fill="black"/>
<path d="M313.391 133.066C313.391 133.066 309.908 127.143 297.988 126.613C297.988 126.613 210.875 115.235 155.877 127.063C155.877 127.063 151.182 129.153 156.277 130.379C161.373 131.606 278.486 135.846 313.391 133.066Z" fill="white"/>
<path opacity="0.1" d="M321.545 157.944C316.135 145.207 309.643 139.183 307.588 137.501C307.184 137.171 306.681 136.987 306.16 136.978L277.661 136.448C277.276 136.44 276.894 136.528 276.552 136.704C276.209 136.881 275.917 137.14 275.7 137.459C275.854 136.983 276.157 136.571 276.565 136.281C276.972 135.991 277.461 135.84 277.96 135.849L306.459 136.379C306.981 136.386 307.484 136.57 307.887 136.901C309.942 138.581 316.435 144.604 321.844 157.341C322.044 157.805 322.125 158.311 322.082 158.814C322.039 159.318 321.872 159.802 321.597 160.226C321.874 159.487 321.855 158.669 321.545 157.944Z" fill="black"/>
<path opacity="0.1" d="M270.245 159.365L266.361 141.713C265.665 138.518 263.025 136.253 259.98 136.225L223.275 135.877C221.876 135.867 220.519 136.354 219.444 137.25C220.006 136.639 220.689 136.152 221.449 135.819C222.209 135.486 223.03 135.315 223.86 135.316L260.565 135.665C263.613 135.696 266.246 137.96 266.947 141.155L270.848 158.804C271.175 160.228 271.108 161.713 270.652 163.101C270.197 164.489 269.37 165.726 268.263 166.678C269.166 165.714 269.82 164.543 270.165 163.269C270.511 161.994 270.538 160.653 270.245 159.365Z" fill="black"/>
<path opacity="0.1" d="M190.882 166.8L203.874 139.863C204.058 139.481 204.143 139.059 204.122 138.636C204.1 138.212 203.972 137.801 203.75 137.44C203.529 137.079 203.219 136.779 202.852 136.569C202.484 136.359 202.069 136.244 201.645 136.236C191.75 136.055 165.741 135.313 152.338 132.369C153.181 131.71 153.665 131.345 153.665 131.345C166.901 134.393 193.488 135.152 203.523 135.334C203.946 135.342 204.361 135.456 204.729 135.667C205.097 135.877 205.406 136.177 205.628 136.538C205.85 136.899 205.977 137.31 205.999 137.733C206.021 138.156 205.936 138.578 205.752 138.96L192.756 165.887C192.226 166.988 191.484 167.973 190.571 168.787C189.659 169.6 188.595 170.224 187.441 170.625C188.927 169.701 190.12 168.375 190.882 166.8Z" fill="black"/>
<path d="M186.769 239.577H192.37V241.302H186.769V239.577Z" fill="#36334A"/>
<path d="M301.095 222.51L307.981 223.698C307.939 223.936 307.873 224.17 307.783 224.395C307.647 224.743 300.12 224.126 300.12 224.126L300.845 223.977L301.095 222.51Z" fill="#36334A"/>
<path opacity="0.2" d="M301.095 222.51L307.981 223.698C307.939 223.936 307.873 224.17 307.783 224.395C307.647 224.743 300.12 224.126 300.12 224.126L300.845 223.977L301.095 222.51Z" fill="#36334A"/>
<path opacity="0.1" d="M327.076 239.396C333.151 239.396 340.378 231.199 340.378 221.089C340.378 214.159 339.19 207.798 336.487 204.484C339.97 207.296 341.496 214.386 341.496 222.207C341.496 232.31 334.269 240.515 328.194 240.515C326.139 240.515 324.45 239.588 323.105 237.971C324.219 238.901 325.626 239.406 327.076 239.396Z" fill="black"/>
<path opacity="0.1" d="M165.818 263.895C171.258 263.895 177.73 254.053 177.73 241.911C177.73 233.589 176.685 225.952 174.247 221.973C177.382 225.349 178.729 233.864 178.729 243.256C178.729 255.397 172.258 265.239 166.817 265.239C164.978 265.239 163.463 264.124 162.261 262.187C163.271 263.288 164.456 263.895 165.818 263.895Z" fill="black"/>
<path opacity="0.1" d="M101.121 216.732C97.6195 213.23 100.322 204.849 107.157 198.012C113.993 191.175 122.372 188.472 125.873 191.974C129.375 195.476 126.672 203.857 119.837 210.694C113.001 217.53 104.622 220.234 101.121 216.732Z" fill="black"/>
<path d="M100.821 216.433C97.3197 212.932 100.022 204.55 106.858 197.714C113.693 190.877 122.072 188.174 125.573 191.676C129.075 195.178 126.372 203.559 119.537 210.396C112.702 217.232 104.322 219.935 100.821 216.433Z" fill="#DCE0ED"/>
<path opacity="0.1" d="M101.836 214.299C99.2695 211.731 101.891 204.947 107.691 199.146C113.491 193.345 120.273 190.723 122.84 193.29C125.407 195.858 122.786 202.642 116.986 208.443C111.186 214.244 104.403 216.866 101.836 214.299Z" fill="black"/>
<path d="M101.836 213.996C99.269 211.429 101.89 204.645 107.69 198.843C113.49 193.042 120.273 190.421 122.84 192.988C125.407 195.555 122.785 202.339 116.985 208.14C111.185 213.942 104.403 216.563 101.836 213.996Z" fill="#F0F0F4"/>
<path d="M8.40499 261.738C8.40499 261.738 23.1316 260.85 21.397 271.172C21.397 271.172 21.7453 272.994 20.0874 273.824C20.0874 273.824 20.063 273.061 18.5757 273.318C18.0477 273.408 17.511 273.433 16.977 273.395C16.2548 273.347 15.5684 273.063 15.0229 272.587C15.0229 272.587 10.8815 270.876 9.27229 264.111C9.27229 264.111 8.08105 262.633 8.12981 262.254L10.6133 263.299C10.6133 263.299 9.7634 265.093 10.4322 266.584C10.4322 266.584 10.5123 263.365 10.9894 263.449C11.087 263.449 12.2817 264.069 12.2817 264.069C12.2817 264.069 10.8188 267.204 11.9334 269.462C11.9334 269.462 11.5154 265.63 12.7484 264.295L14.49 265.316C14.49 265.316 12.7833 268.542 13.9397 271.176C13.9397 271.176 13.6436 267.138 14.8592 265.563L16.444 266.8C16.444 266.8 14.8383 269.981 15.8171 272.165C15.8171 272.165 15.9459 267.466 16.7889 267.11C16.7889 267.11 18.1821 268.333 18.3842 268.835C18.3842 268.835 17.287 271.141 17.9696 272.36C17.9696 272.36 18.3876 269.225 18.729 269.225C18.729 269.225 20.1222 271.315 20.2546 272.709C20.2546 272.709 20.1954 270.594 19.0634 269.012C19.8602 269.164 20.5953 269.545 21.1776 270.11C21.1776 270.11 20.9651 268.643 18.7394 268.514C18.7394 268.514 17.597 266.94 17.2939 266.845C17.2939 266.845 19.5231 266.657 20.8746 267.257C20.8746 267.257 19.6833 265.863 16.8829 266.501L15.319 265.225C15.319 265.225 18.2553 264.821 19.4987 265.267C19.4987 265.267 18.0672 264.041 14.8975 264.919L13.1943 263.902C13.1943 263.902 15.6952 263.362 17.1859 263.553C17.1859 263.553 15.615 262.703 12.6927 263.623L11.4771 263.076C11.4771 263.076 13.3092 262.728 13.8456 262.661C14.382 262.595 14.4134 262.456 14.4134 262.456C13.2518 262.262 12.0592 262.395 10.9686 262.839C10.9686 262.839 8.3632 261.902 8.40499 261.738Z" fill="#61A199"/>
<path opacity="0.1" d="M18.5478 276.485C12.7922 276.485 8.12631 275.696 8.12631 274.722C8.12631 273.749 12.7922 272.959 18.5478 272.959C24.3034 272.959 28.9692 273.749 28.9692 274.722C28.9692 275.696 24.3034 276.485 18.5478 276.485Z" fill="#61A199"/>
<path d="M29.1608 239.591C29.1608 239.591 39.1852 238.988 38.0044 246.012C38.0653 246.369 38.0118 246.736 37.8517 247.061C37.6916 247.385 37.4329 247.651 37.1127 247.82C37.1127 247.82 37.0953 247.297 36.0678 247.472C35.7078 247.532 35.3418 247.55 34.9776 247.524C34.4861 247.49 34.0191 247.296 33.647 246.973C33.647 246.973 30.8292 245.81 29.732 241.204C29.732 241.204 28.9239 240.197 28.9553 239.94L30.6446 240.661C30.6446 240.661 30.0699 241.884 30.5227 242.897C30.5227 242.897 30.5784 240.706 30.9023 240.758C30.9685 240.758 31.7801 241.18 31.7801 241.18C31.7801 241.18 30.7874 243.308 31.5363 244.852C31.5363 244.852 31.2541 242.232 32.0936 241.337L33.2813 242.033C33.2813 242.033 32.1214 244.232 32.9086 246.022C32.9086 246.022 32.7066 243.274 33.5321 242.19L34.6119 243.03C34.6119 243.03 33.5216 245.197 34.1869 246.681C34.1869 246.681 34.274 243.483 34.8452 243.239C34.8452 243.239 35.7891 244.071 35.9354 244.416C35.9354 244.416 35.1866 245.988 35.6498 246.817C35.6498 246.817 35.9354 244.685 36.1688 244.674C36.1688 244.674 37.1092 246.068 37.2137 247.054C37.1668 246.159 36.887 245.292 36.4022 244.538C36.9449 244.642 37.4459 244.901 37.8442 245.284C37.8442 245.284 37.6979 244.287 36.1723 244.2C36.1723 244.2 35.3921 243.127 35.1866 243.061C35.1866 243.061 36.7017 242.936 37.6247 243.343C37.6247 243.343 36.8132 242.403 34.9079 242.831L33.8421 241.96C33.8421 241.96 35.8414 241.685 36.6878 241.988C36.6878 241.988 35.7125 241.155 33.553 241.762L32.3931 241.065C32.3931 241.065 34.0963 240.699 35.1099 240.831C35.1099 240.831 34.0406 240.253 32.0518 240.88L31.2228 240.507C31.2228 240.507 32.4697 240.26 32.8355 240.222C33.2012 240.183 33.2221 240.082 33.2221 240.082C32.4316 239.951 31.6201 240.041 30.878 240.344C30.878 240.344 29.119 239.703 29.1608 239.591Z" fill="#61A199"/>
<path opacity="0.1" d="M36.0646 249.628C32.146 249.628 28.9695 249.092 28.9695 248.43C28.9695 247.768 32.146 247.231 36.0646 247.231C39.9831 247.231 43.1597 247.768 43.1597 248.43C43.1597 249.092 39.9831 249.628 36.0646 249.628Z" fill="#61A199"/>
<path opacity="0.1" d="M364.578 261.08C358.823 261.08 354.157 260.29 354.157 259.317C354.157 258.343 358.823 257.554 364.578 257.554C370.334 257.554 375 258.343 375 259.317C375 260.29 370.334 261.08 364.578 261.08Z" fill="#61A199"/>
<path d="M371.576 251.126C371.576 251.126 365.634 250.945 363.84 249.667C362.046 248.388 354.697 246.879 354.251 248.914C353.805 250.949 345.317 259.094 352.029 259.146C358.741 259.198 367.623 258.101 369.413 257.011C371.203 255.92 371.576 251.126 371.576 251.126Z" fill="#A8A8A8"/>
<path opacity="0.2" d="M351.91 258.435C358.622 258.488 367.504 257.39 369.291 256.3C370.653 255.471 371.196 252.492 371.381 251.119H371.58C371.58 251.119 371.203 255.917 369.417 257.003C367.63 258.09 358.744 259.195 352.032 259.139C350.096 259.139 349.427 258.442 349.462 257.397C349.73 258.038 350.468 258.421 351.91 258.435Z" fill="black"/>
<path d="M146.849 162.971C145.852 160.295 147.629 157.477 147.629 157.477L147.772 151.352C146.988 149.732 149.687 145.719 149.687 145.719C149.687 145.719 150.328 142.688 150.896 142.409C151.464 142.131 152.101 140.859 152.101 140.859C152.105 140.684 152.158 140.513 152.254 140.367C152.35 140.22 152.485 140.103 152.645 140.03C153.655 138.202 154.521 136.299 155.236 134.337C155.633 133.25 155.985 132.09 155.758 130.954C155.694 130.667 155.609 130.386 155.504 130.111C155.48 130.052 155.459 129.996 155.438 129.937C155.417 129.878 155.438 129.888 155.41 129.867L155.386 129.805C155.119 129.239 154.976 128.622 154.968 127.997C155.048 126.69 156.25 125.736 157.444 125.182C158.639 124.628 159.98 124.269 160.927 123.346C162.105 122.192 162.376 120.44 162.669 118.817C162.962 117.193 163.366 115.441 164.696 114.465C165.873 113.601 167.483 113.584 168.921 113.828C170.869 114.161 172.725 114.9 174.369 115.998C175.954 117.064 177.368 118.475 179.2 119.029C179.872 119.231 180.593 119.311 181.248 119.531C181.95 119.783 182.587 120.188 183.114 120.715C183.64 121.243 184.044 121.881 184.296 122.583C184.32 122.649 184.337 122.715 184.362 122.781C184.386 122.847 184.418 122.945 184.442 123.029C184.466 123.112 184.477 123.171 184.491 123.241C184.505 123.311 184.533 123.405 184.546 123.488C184.56 123.572 184.571 123.631 184.578 123.701C184.585 123.771 184.602 123.872 184.609 123.955C184.616 124.039 184.609 124.095 184.609 124.164C184.609 124.234 184.609 124.342 184.609 124.429C185.37 125.147 186.027 125.968 186.56 126.868C188.9 130.582 191.816 135.95 193.111 138.365L193.174 138.483V138.41C193.174 138.41 198.89 144.148 195.553 143.374C195.323 143.32 195.091 143.279 194.856 143.249L194.916 143.904V143.921C195.449 144.59 197.758 146.903 193.463 148.617C189.9 150.039 182.617 150.401 180.227 150.485L180.436 151.492C184.128 154.519 182.707 157.972 182.777 160.226C182.847 162.48 183.205 165.155 183.205 165.155C183.205 165.155 184.769 167.692 184.553 169.029C184.337 170.367 185.689 172.552 185.689 172.552C185.689 172.552 187.678 174.732 187.465 176.143C187.253 177.554 187.814 179.38 187.814 179.38C187.814 179.38 189.162 181.846 188.594 183.254C188.026 184.661 188.308 185.438 188.308 185.438C188.308 185.438 191.22 185.86 191.443 187.41C191.666 188.96 194.282 189.521 194.282 189.521C194.282 189.521 198.967 191.211 200.106 191.988C201.245 192.765 207.274 198.395 207.274 198.395C207.274 198.395 213.331 204.627 213.651 205.254C213.972 205.882 217.539 208.581 215.888 211.118C215.804 211.243 215.72 211.372 215.633 211.497C213.912 214.007 211.679 216.124 209.082 217.709C207.939 218.406 206.8 219.2 206.462 219.726C205.717 220.89 193.254 228.864 193.254 228.864C193.254 228.864 187.779 233.679 184.254 237.034L183.986 238.647C184.031 238.717 184.076 238.79 184.122 238.874C184.156 239.049 184.142 239.231 184.081 239.4C184.019 239.568 183.913 239.716 183.773 239.828L183.724 240.114C183.724 240.114 182.303 252.088 181.025 257.686C180.179 261.39 180.781 264.184 181.283 265.65C182.606 264.184 182.763 263.654 182.763 263.654C183.165 264.604 183.469 265.593 183.669 266.605C183.69 266.755 183.704 266.894 183.71 267.027C183.728 267.025 183.746 267.028 183.763 267.036C183.779 267.043 183.794 267.054 183.805 267.068L184.303 267.765C184.846 268.514 185.323 269.312 185.807 270.099C186.925 271.914 190.433 272.761 190.433 272.761C190.728 272.922 191.045 273.04 191.373 273.109C192.358 273.277 193.362 273.308 194.355 273.2C194.655 273.244 194.95 273.317 195.236 273.416C195.469 273.494 195.694 273.597 195.905 273.723C197.434 274.712 196.877 276.537 196.877 276.537L196.838 276.562L196.8 276.586L196.737 276.625L196.643 276.684L196.563 276.729L196.48 276.781L196.393 276.83L196.285 276.889L196.194 276.942L195.964 277.064L195.856 277.123L195.706 277.199L195.584 277.259L195.421 277.339L195.261 277.412C195.17 277.457 195.076 277.499 194.978 277.541L194.815 277.614L194.627 277.691L194.445 277.764L194.257 277.837L193.909 277.966L193.735 278.025L193.488 278.109L193.3 278.168L193.014 278.252L192.857 278.293C192.714 278.335 192.568 278.37 192.418 278.405L192.272 278.436C192.157 278.464 192.042 278.488 191.924 278.509L191.837 278.53H191.763C191.638 278.555 191.513 278.572 191.384 278.593H191.272L190.771 278.652H190.656C190.523 278.652 190.391 278.673 190.255 278.68H190.088H189.705H189.552C189.378 278.68 189.203 278.673 189.029 278.659H188.921L188.493 278.617L188.305 278.589L187.929 278.527L187.751 278.492C187.57 278.454 187.403 278.412 187.204 278.363C183.237 277.28 179.107 276.926 175.013 277.318C171.878 277.583 171.091 276.51 171.091 276.51C171.032 276.425 170.979 276.335 170.934 276.241C170.917 276.206 170.902 276.17 170.889 276.133C170.861 276.07 170.837 276.005 170.816 275.938C170.816 275.893 170.788 275.848 170.778 275.802C170.767 275.757 170.746 275.666 170.732 275.597C170.718 275.527 170.732 275.499 170.708 275.451C170.684 275.402 170.708 275.395 170.708 275.367C170.699 275.299 170.693 275.23 170.691 275.161C170.662 274.557 170.704 273.951 170.816 273.357C171.072 272.045 171.455 270.762 171.958 269.524L172.181 269.678C172.207 269.564 172.231 269.448 172.255 269.329C173.021 265.201 173.299 255.296 173.299 254.248C172.867 254.252 172.446 254.107 172.108 253.837C172.049 253.788 172.018 253.757 172.018 253.757C169.357 251.593 170.663 241.713 171.54 240.34C172.418 238.968 172.585 231.916 172.899 229.673C173.049 228.607 173.595 228.297 174.337 228.279C174.441 228.274 174.544 228.274 174.647 228.279C174.752 226.189 174.445 221.273 174.209 217.918C174.209 217.702 174.177 217.49 174.163 217.288L173.491 217.322L172.498 211.4C172.498 211.4 171.927 209.24 168.444 203.042C164.961 196.844 164.613 190.086 164.613 190.086C164.613 190.086 163.547 188.044 163.832 187.128C163.905 186.891 164.02 186.222 164.156 185.355C162.972 184.639 161.726 184.03 160.433 183.536C156.709 182.031 153.916 179.213 152.62 177.816L152.415 177.593C152.094 178.079 151.801 178.582 151.537 179.101C151.537 179.101 148.482 176.986 146.922 175.154C146.753 174.945 146.62 174.71 146.528 174.457C145.588 172.116 146.549 167.11 146.549 167.11C145.326 164.946 146.849 162.971 146.849 162.971Z" fill="url(#paint0_linear_114_4319)"/>
<g opacity="0.1">
<path opacity="0.1" d="M162.219 177.22C162.362 177.481 163.386 178.094 164.633 178.77C164.748 177.861 164.832 177.175 164.849 176.962C164.922 176.185 163.264 172.705 163.264 172.705C163.264 172.705 160.091 168.448 160.164 167.807C160.238 167.165 158.938 165.326 158.938 165.326L156.061 160.661C156.22 161.017 156.277 161.41 156.225 161.796C156.172 162.181 156.013 162.545 155.765 162.846C154.898 163.981 155.622 166.253 155.622 166.253L155.445 169.116V169.402C155.546 169.503 156.009 169.946 157.033 170.869C157.977 171.719 157.81 171.98 157.702 172.05C157.918 172.433 157.653 172.499 157.653 172.499C157.57 172.499 157.486 172.492 157.402 172.478L157.632 172.691C159.388 174.335 161.962 176.757 162.219 177.22Z" fill="url(#paint1_linear_114_4319)"/>
</g>
<path d="M181.238 124.429C182.098 125.328 181.119 126.589 181.788 127.565C182.168 128.112 183.004 128.456 183.477 128.958C184.4 129.961 183.704 131.243 183.258 132.386C181.628 136.546 184.073 141.287 189.179 143.883C186.972 144.861 184.498 145.064 182.161 144.458C179.876 143.848 178.117 142.423 177.657 140.807C177.309 139.66 177.608 138.441 177.02 137.344C176.104 135.633 173.3 134.605 172.471 132.877C171.823 131.522 172.53 130.059 173.355 128.749C174.393 127.113 175.574 125.571 176.884 124.143C177.685 123.269 177.685 122.924 178.974 123.157C179.81 123.416 180.582 123.849 181.238 124.429Z" fill="#985C7E"/>
<path d="M173.613 136.623C173.717 137.858 173.993 139.072 174.431 140.232C174.919 141.709 175.42 143.204 176.26 144.517C177.099 145.83 178.332 146.956 179.837 147.356C179.336 147.804 178.741 148.133 178.096 148.319C177.451 148.505 176.772 148.544 176.11 148.433C175.152 148.262 174.184 147.778 173.257 148.084C172.831 148.272 172.42 148.492 172.028 148.743C170.662 149.44 168.893 148.924 167.904 147.75C167.439 147.142 167.13 146.428 167.004 145.673C166.878 144.917 166.94 144.142 167.183 143.416C167.461 142.535 167.959 141.73 168.228 140.838C168.607 139.521 168.458 138.051 169.095 136.839C170.021 135.097 172.578 134.052 174.341 133.355C174.428 134.302 173.571 135.508 173.613 136.623Z" fill="#985C7E"/>
<path opacity="0.1" d="M176.026 133.372C176.132 134.604 176.407 135.815 176.845 136.971C177.329 138.452 177.83 139.946 178.673 141.256C179.516 142.566 180.742 143.695 182.247 144.095C181.747 144.544 181.153 144.873 180.508 145.06C179.864 145.246 179.185 145.284 178.524 145.172C177.566 145.005 176.597 144.517 175.671 144.824C175.244 145.009 174.833 145.228 174.441 145.478C173.076 146.175 171.307 145.66 170.317 144.486C169.851 143.878 169.542 143.164 169.416 142.409C169.291 141.653 169.352 140.878 169.596 140.152C169.875 139.27 170.373 138.466 170.641 137.574C171.021 136.257 170.871 134.787 171.509 133.574C172.435 131.832 175.009 130.787 176.754 130.09C176.841 131.048 175.984 132.24 176.026 133.372Z" fill="black"/>
<path d="M174.299 214.633C174.299 214.633 175.344 227.412 174.895 229.122C174.445 230.833 173.669 253.948 173.669 253.948C173.669 253.948 173.355 267.424 172.307 270.253C171.258 273.081 179.395 272.277 179.674 272.242C179.952 272.207 181.976 266.48 181.976 266.48C181.976 266.48 179.987 262.996 181.244 257.422C182.502 251.847 183.895 240.002 183.895 240.002L186.208 226.05C186.208 226.05 185.894 222.768 187.114 220.918C188.333 219.068 189.9 206.955 189.552 205.906C189.203 204.857 180.907 202.554 180.907 202.554L177.333 207.233L174.299 214.633Z" fill="#ECB4B6"/>
<path opacity="0.07" d="M189.436 208.578C189.436 208.578 189.436 208.599 189.436 208.609C189.436 208.679 189.436 208.752 189.436 208.825C189.412 209.055 189.388 209.299 189.36 209.55C188.924 213.595 187.925 219.653 187.092 220.918C186.26 222.182 186.141 224.119 186.152 225.213C186.152 225.339 186.152 225.454 186.152 225.562C186.152 225.872 186.18 226.057 186.18 226.057L184.407 236.797L184.33 237.254L183.874 240.023C183.874 240.023 182.481 251.896 181.22 257.442C180.606 259.947 180.661 262.568 181.38 265.044C181.415 265.159 181.45 265.271 181.484 265.372C181.609 265.755 181.767 266.127 181.955 266.483C181.955 266.483 181.669 267.291 181.296 268.305L181.039 269.002C180.99 269.127 180.945 269.249 180.899 269.375C180.359 270.8 179.788 272.224 179.649 272.242C179.374 272.277 171.237 273.078 172.286 270.253C172.423 269.841 172.527 269.419 172.599 268.991C173.397 264.668 173.644 253.948 173.644 253.948C173.644 253.948 174.41 230.836 174.867 229.122C175.166 227.983 174.804 221.942 174.518 218.03C174.382 216.068 174.264 214.643 174.264 214.643L177.301 207.244L180.875 202.565C180.875 202.565 186.831 204.22 188.862 205.352L188.921 205.383C189.168 205.495 189.376 205.676 189.52 205.906C189.607 206.178 189.565 207.191 189.436 208.578Z" fill="black"/>
<path opacity="0.05" d="M184.038 224.726C184.038 224.726 180.095 225.771 180.443 226.924L184.038 224.726Z" fill="black"/>
<path opacity="0.1" d="M181.941 266.48C181.941 266.48 181.512 267.688 181.025 269.002C180.468 269.267 180.043 269.43 180.043 269.43C180.043 269.43 178.524 268.019 180.53 265.947C180.854 265.598 181.129 265.316 181.366 265.048C181.509 265.543 181.702 266.023 181.941 266.48Z" fill="black"/>
<path d="M183.867 267.163C183.714 267.999 181.878 268.925 180.886 269.375C180.509 269.542 180.252 269.643 180.252 269.643C180.066 269.452 179.923 269.224 179.83 268.974C179.6 268.364 179.559 267.372 180.739 266.149C181.018 265.863 181.258 265.605 181.471 265.368C182.801 263.888 182.958 263.358 182.958 263.358C183.351 264.301 183.647 265.282 183.843 266.285C183.897 266.574 183.905 266.87 183.867 267.163Z" fill="#CC8294"/>
<path opacity="0.1" d="M183.867 267.162C183.714 267.999 181.878 268.925 180.886 269.375C180.346 270.8 179.775 272.224 179.635 272.242C179.36 272.277 171.223 273.078 172.272 270.253C172.409 269.841 172.514 269.419 172.585 268.991L174.842 270.584C175.992 271.402 177.719 270.793 177.719 270.793L179.83 268.974L180.356 268.525C180.675 268.498 180.987 268.423 181.283 268.302C182.005 267.985 182.631 267.482 183.097 266.845C183.498 266.42 183.724 266.302 183.843 266.285C183.897 266.574 183.905 266.87 183.867 267.162Z" fill="black"/>
<path d="M196.831 276.116C195.308 277.09 193.614 277.768 191.84 278.116C190.331 278.42 188.773 278.376 187.284 277.987C183.391 276.912 179.333 276.558 175.313 276.942C172.24 277.203 171.457 276.14 171.457 276.14C170.945 275.443 170.962 274.231 171.168 273.005C171.415 271.705 171.786 270.433 172.275 269.204C172.275 269.204 173.669 270.183 174.825 271.002C175.981 271.82 177.702 271.214 177.702 271.214L180.339 268.943C182.014 268.821 183.08 267.267 183.08 267.267C183.815 266.48 183.965 266.741 183.965 266.741L184.466 267.417C185.003 268.162 185.473 268.95 185.95 269.733C187.047 271.531 190.478 272.374 190.478 272.374C190.77 272.524 191.08 272.634 191.401 272.702C192.371 272.868 193.359 272.897 194.337 272.789C194.856 272.856 195.356 273.026 195.807 273.29C197.396 274.262 196.831 276.116 196.831 276.116Z" fill="#CC8294"/>
<path d="M180.91 270.698C180.76 270.698 180.638 270.577 180.638 270.427C180.638 270.277 180.76 270.155 180.91 270.155C181.06 270.155 181.182 270.277 181.182 270.427C181.182 270.577 181.06 270.698 180.91 270.698Z" fill="#4B4B5B"/>
<path d="M184.254 272.123C184.104 272.123 183.982 272.002 183.982 271.852C183.982 271.702 184.104 271.58 184.254 271.58C184.404 271.58 184.525 271.702 184.525 271.852C184.525 272.002 184.404 272.123 184.254 272.123Z" fill="#4B4B5B"/>
<path d="M182.933 274.151C182.783 274.151 182.662 274.029 182.662 273.879C182.662 273.729 182.783 273.607 182.933 273.607C183.083 273.607 183.205 273.729 183.205 273.879C183.205 274.029 183.083 274.151 182.933 274.151Z" fill="#4B4B5B"/>
<path d="M187.535 273.465C187.385 273.465 187.263 273.343 187.263 273.193C187.263 273.043 187.385 272.921 187.535 272.921C187.685 272.921 187.807 273.043 187.807 273.193C187.807 273.343 187.685 273.465 187.535 273.465Z" fill="#4B4B5B"/>
<path d="M182.39 271.58C182.24 271.58 182.119 271.458 182.119 271.308C182.119 271.158 182.24 271.036 182.39 271.036C182.54 271.036 182.662 271.158 182.662 271.308C182.662 271.458 182.54 271.58 182.39 271.58Z" fill="#4B4B5B"/>
<path d="M181.084 274.008C180.934 274.008 180.813 273.887 180.813 273.736C180.813 273.586 180.934 273.465 181.084 273.465C181.234 273.465 181.356 273.586 181.356 273.736C181.356 273.887 181.234 274.008 181.084 274.008Z" fill="#4B4B5B"/>
<path d="M185.873 272.918C185.723 272.918 185.602 272.796 185.602 272.646C185.602 272.496 185.723 272.374 185.873 272.374C186.023 272.374 186.145 272.496 186.145 272.646C186.145 272.796 186.023 272.918 185.873 272.918Z" fill="#4B4B5B"/>
<path d="M189.332 273.879C189.182 273.879 189.061 273.758 189.061 273.608C189.061 273.457 189.182 273.336 189.332 273.336C189.482 273.336 189.604 273.457 189.604 273.608C189.604 273.758 189.482 273.879 189.332 273.879Z" fill="#4B4B5B"/>
<path opacity="0.1" d="M196.832 276.116C196.832 276.116 192.154 279.331 187.284 277.987C183.391 276.912 179.334 276.558 175.313 276.942C172.241 277.203 171.457 276.14 171.457 276.14C171.231 275.803 171.096 275.413 171.063 275.008C171.063 274.928 171.063 274.848 171.043 274.768C171.022 274.184 171.064 273.6 171.168 273.026C171.809 273.503 173.132 274.071 175.818 274.172C180.461 274.318 186.588 275.506 186.588 275.506L192.509 275.262C192.509 275.262 195.825 274.545 195.811 273.308C197.396 274.263 196.832 276.116 196.832 276.116Z" fill="black"/>
<path d="M188.528 277.266C188.43 277.284 188.331 277.292 188.232 277.29C187.187 277.29 184.665 276.74 183.16 276.388C182.735 276.286 182.301 276.224 181.865 276.203C180.471 276.13 177.061 275.966 175.139 275.98H175.093C173.697 275.936 172.325 275.604 171.063 275.005C171.063 274.924 171.063 274.844 171.043 274.764C172.321 275.387 173.717 275.729 175.139 275.768C177.061 275.768 180.489 275.921 181.875 275.994C182.324 276.017 182.771 276.08 183.209 276.182C184.543 276.496 187.737 277.21 188.49 277.06L188.528 277.266Z" fill="#CC8294"/>
<path opacity="0.03" d="M186.138 225.555C186.138 225.865 186.166 226.05 186.166 226.05L184.393 236.79C184.076 237.093 183.77 237.382 183.481 237.665C182.589 238.471 181.761 239.344 181.004 240.278C179.959 241.901 176.256 241.065 176.326 240.908C176.396 240.751 177.914 233.104 177.914 233.104L179.116 230.014C179.116 230.014 180.37 230.798 181.603 229.492C182.38 228.666 184.118 227.053 185.299 225.973L186.131 225.213C186.131 225.339 186.135 225.461 186.138 225.555Z" fill="black"/>
<path opacity="0.05" d="M189.433 208.609C189.433 208.679 189.433 208.752 189.433 208.825C189.409 209.055 189.384 209.299 189.356 209.55C189.099 209.456 188.844 209.355 188.594 209.243L188.245 209.083C187.098 208.529 186.011 207.856 185.002 207.076L188.04 205.77L188.938 205.383C189.185 205.495 189.394 205.676 189.537 205.906C189.607 206.178 189.565 207.209 189.433 208.609Z" fill="black"/>
<path d="M215.508 211.264C215.424 211.389 215.344 211.515 215.257 211.64C213.568 214.123 211.373 216.221 208.817 217.796C207.692 218.493 206.574 219.277 206.239 219.799C205.508 220.949 193.254 228.857 193.254 228.857C193.254 228.857 187.552 233.909 184.107 237.243L183.669 237.668L183.456 237.877C183.202 238.124 182.972 238.358 182.759 238.574C182.453 238.884 182.199 239.156 182.004 239.382C181.931 239.466 181.864 239.542 181.809 239.612C181.744 239.69 181.683 239.771 181.627 239.856C180.583 241.479 176.88 240.64 176.95 240.483C177.019 240.326 178.545 232.686 178.545 232.686L179.75 229.596C179.99 229.728 180.256 229.805 180.529 229.823C180.802 229.841 181.076 229.799 181.331 229.701C181.676 229.562 181.985 229.346 182.234 229.07C183.01 228.248 184.752 226.631 185.933 225.555C186.629 224.914 187.131 224.461 187.131 224.461L191.06 220.012C191.06 220.012 196.086 213.466 199.855 211.842C199.855 211.842 195.609 210.1 192.578 209.641C191.425 209.518 190.292 209.243 189.21 208.825L188.862 208.662C187.715 208.106 186.628 207.434 185.619 206.655L188.646 205.352L204.613 198.485C204.71 198.485 205.637 198.548 206.316 198.593L207.037 198.642C207.037 198.642 212.99 204.822 213.306 205.453C213.623 206.084 217.131 208.738 215.508 211.264Z" fill="#ECB4B6"/>
<path opacity="0.03" d="M197.915 208.39C197.915 208.39 204.773 209.229 206.135 210.644C206.135 210.644 200.112 211.062 199.865 211.849C199.865 211.849 203.306 209.519 204.264 210.107L197.915 208.39Z" fill="black"/>
<path opacity="0.05" d="M183.668 237.672L183.456 237.881C183.202 238.128 182.972 238.361 182.759 238.577C182.453 238.887 182.199 239.159 182.004 239.386L181.115 238.236C181.417 237.978 181.758 237.771 182.125 237.623C182.368 237.513 182.633 237.46 182.899 237.469C183.165 237.477 183.426 237.546 183.661 237.672H183.668Z" fill="black"/>
<path d="M183.233 240.239C183.002 240.357 182.762 240.456 182.515 240.535L181.819 239.616L180.917 238.445C181.218 238.188 181.559 237.982 181.927 237.835C182.169 237.725 182.434 237.672 182.7 237.679C182.966 237.687 183.227 237.756 183.463 237.881C183.814 238.1 184.097 238.412 184.281 238.783C184.281 238.783 184.546 239.567 183.233 240.239Z" fill="#CC8294"/>
<path opacity="0.05" d="M183.376 240.093L183.233 240.236C183.002 240.353 182.762 240.453 182.516 240.532L181.819 239.612C181.754 239.69 181.694 239.771 181.638 239.856C180.593 241.479 176.89 240.64 176.96 240.483C177.03 240.326 178.545 232.686 178.545 232.686L179.75 229.596C179.99 229.728 180.256 229.805 180.529 229.823C180.802 229.841 181.076 229.799 181.331 229.7C181.61 229.986 181.659 230.345 181.331 230.798C180.647 231.84 180.239 233.039 180.144 234.282C179.673 235.578 181.102 237.166 181.924 237.835C182.06 237.949 182.209 238.048 182.366 238.131C182.541 238.237 182.68 238.392 182.766 238.577C183.018 239.062 183.222 239.569 183.376 240.093Z" fill="black"/>
<path d="M182.958 240.093L181.37 241.689C179.147 243.1 177.456 245.211 176.563 247.688C176.401 248.163 176.212 248.628 175.995 249.081C175.753 249.707 175.613 250.369 175.581 251.039C175.542 251.447 175.525 251.847 175.511 252.196C175.502 252.642 175.334 253.071 175.037 253.405L175.017 253.426C174.697 253.783 174.254 254.005 173.777 254.045C173.299 254.086 172.825 253.943 172.449 253.645C172.394 253.6 172.362 253.568 172.362 253.568C169.747 251.422 171.028 241.626 171.892 240.264C172.756 238.901 172.913 231.902 173.23 229.687C173.376 228.642 173.926 228.321 174.644 228.293C175.361 228.265 176.305 228.575 177.124 228.666H177.256C178.883 228.795 182 229.276 180.91 230.784C180.224 231.825 179.815 233.024 179.722 234.268C179.144 235.864 181.464 237.909 181.944 238.1C182.425 238.292 182.958 240.093 182.958 240.093Z" fill="#CC8294"/>
<path d="M180.663 239.57C180.407 239.57 180.199 239.363 180.199 239.107C180.199 238.851 180.407 238.644 180.663 238.644C180.919 238.644 181.126 238.851 181.126 239.107C181.126 239.363 180.919 239.57 180.663 239.57Z" fill="#4B4B5B"/>
<path d="M179.956 241.305C179.7 241.305 179.492 241.098 179.492 240.842C179.492 240.586 179.7 240.379 179.956 240.379C180.212 240.379 180.419 240.586 180.419 240.842C180.419 241.098 180.212 241.305 179.956 241.305Z" fill="#4B4B5B"/>
<path d="M177.782 244.099C177.526 244.099 177.319 243.892 177.319 243.636C177.319 243.38 177.526 243.173 177.782 243.173C178.038 243.173 178.246 243.38 178.246 243.636C178.246 243.892 178.038 244.099 177.782 244.099Z" fill="#4B4B5B"/>
<path d="M178.859 242.664C178.603 242.664 178.395 242.457 178.395 242.201C178.395 241.945 178.603 241.737 178.859 241.737C179.114 241.737 179.322 241.945 179.322 242.201C179.322 242.457 179.114 242.664 178.859 242.664Z" fill="#4B4B5B"/>
<path d="M176.88 245.754C176.624 245.754 176.417 245.547 176.417 245.291C176.417 245.035 176.624 244.828 176.88 244.828C177.136 244.828 177.343 245.035 177.343 245.291C177.343 245.547 177.136 245.754 176.88 245.754Z" fill="#4B4B5B"/>
<path opacity="0.1" d="M175.034 246.712C175.034 246.712 174.648 251.259 175.034 253.384C174.716 253.749 174.27 253.977 173.788 254.022C173.307 254.066 172.826 253.924 172.446 253.624C172.391 253.579 172.359 253.548 172.359 253.548C169.743 251.402 171.025 241.605 171.889 240.243C172.753 238.881 172.909 231.882 173.226 229.666C173.373 228.621 173.923 228.3 174.641 228.272C175.358 228.244 176.302 228.554 177.121 228.645C177.121 230.864 176.995 235.961 176.424 237.654C175.661 239.842 175.034 246.712 175.034 246.712Z" fill="black"/>
<path opacity="0.1" d="M173.881 237.463C173.393 239.18 172.662 243.89 172.728 246.406C172.78 248.252 172.568 251.851 172.449 253.631C172.393 253.586 172.362 253.555 172.362 253.555C169.746 251.408 171.028 241.612 171.892 240.25C172.756 238.887 172.912 231.888 173.229 229.673C173.376 228.628 173.926 228.307 174.644 228.279C174.546 230.544 174.267 236.104 173.881 237.463Z" fill="black"/>
<path d="M175.665 228.401C175.567 230.188 175.274 234.954 174.794 236.316C174.195 238.023 173.561 246.19 173.533 246.538H173.742C173.742 246.451 174.404 238.048 174.992 236.369C175.483 234.975 175.776 230.244 175.87 228.426L175.665 228.401Z" fill="#CC8294"/>
<path d="M177.197 140.406C177.197 140.406 180.583 141.009 182.502 141.719C184.421 142.43 184.703 142.817 184.703 142.817L186.692 143.13V141.002C186.692 141.002 193.818 141.528 194.536 141.239C194.552 141.232 194.568 141.222 194.581 141.211C194.93 140.862 194.372 143.97 194.895 144.632C195.417 145.294 197.681 147.586 193.463 149.286C189.245 150.986 179.677 151.161 179.677 151.161L176.953 145.785L177.197 140.406Z" fill="#FF718D"/>
<path d="M166.483 150.673L174.017 149.067C172.968 147.281 172.231 145.331 171.837 143.298C171.561 141.685 171.6 139.96 172.342 138.452C174.508 134.055 166.483 131.745 166.483 131.745C166.483 131.745 163.547 136.274 160.91 138.57C160.025 139.333 159.169 139.845 158.472 139.845C155.661 139.849 166.483 150.673 166.483 150.673Z" fill="#ECB4B6"/>
<path opacity="0.1" d="M207.041 199.273C207.041 199.273 203.763 207.024 200.771 207.164C198.963 207.247 193.39 208.014 189.235 208.609L188.862 208.662C187.715 208.106 186.628 207.434 185.619 206.655L188.646 205.352L204.613 198.485C204.71 198.485 205.637 198.548 206.316 198.593L207.041 199.273Z" fill="black"/>
<path opacity="0.1" d="M183.585 206.045C180.736 206.456 184.355 209.327 184.355 209.327C184.355 209.327 182.961 210.372 181.352 214.204C179.743 218.037 178.977 217.765 178.977 217.765L174.515 218.009C174.379 216.047 174.26 214.622 174.26 214.622L177.298 207.223L180.871 202.544C180.871 202.544 186.828 204.199 188.858 205.331L188.917 205.362C189.164 205.474 189.373 205.655 189.517 205.885C189.607 206.178 183.714 204.659 183.585 206.045Z" fill="black"/>
<path opacity="0.1" d="M166.483 150.673L174.017 149.067C172.968 147.281 172.231 145.33 171.837 143.298L169.479 145.573C168.333 145.582 167.21 145.254 166.25 144.628C165.834 144.349 165.463 144.009 165.149 143.618C163.474 141.528 161.453 138.8 161.453 138.8C161.453 138.8 161.217 138.692 160.893 138.573C160.008 139.336 159.151 139.849 158.454 139.849C155.661 139.849 166.483 150.673 166.483 150.673Z" fill="black"/>
<path d="M207.041 198.635C207.041 198.635 203.763 206.387 200.771 206.53C197.779 206.672 184.365 208.693 184.365 208.693C184.365 208.693 182.972 209.738 181.363 213.57C179.754 217.403 178.987 217.134 178.987 217.134L173.822 217.413L172.843 211.55C172.843 211.55 172.286 209.383 168.866 203.237C165.445 197.092 165.097 190.392 165.097 190.392C165.097 190.392 164.052 188.365 164.327 187.459C164.602 186.553 165.515 179.356 165.584 178.589C165.654 177.823 164.048 174.408 164.048 174.408C164.048 174.408 160.976 170.228 161.046 169.59C161.116 168.953 159.858 167.152 159.858 167.152L157.072 162.556C157.225 162.907 157.279 163.293 157.228 163.672C157.177 164.051 157.023 164.408 156.783 164.706C155.947 165.824 156.647 168.057 156.647 168.057L156.476 170.876L156.438 171.552C156.438 171.552 156.856 171.97 157.998 173.018C159.141 174.067 158.601 174.203 158.601 174.203C155.037 173.715 152.248 179.512 152.248 179.512C152.248 179.512 149.245 177.422 147.719 175.6C147.555 175.398 147.425 175.171 147.333 174.928C146.406 172.604 147.354 167.639 147.354 167.639C146.145 165.476 147.65 163.518 147.65 163.518C146.671 160.867 148.416 158.073 148.416 158.073L148.555 151.997C147.789 150.394 150.443 146.423 150.443 146.423C150.443 146.423 151.07 143.42 151.631 143.141C152.192 142.862 152.815 141.605 152.815 141.605C152.746 140.211 156.448 140.068 156.793 139.998C157.24 139.799 157.664 139.551 158.057 139.26C158.414 139.019 158.786 138.799 159.168 138.601C159.799 138.323 161.474 139.093 161.474 139.093C161.474 139.093 163.495 141.814 165.173 143.911C165.485 144.302 165.855 144.643 166.271 144.921C167.229 145.541 168.348 145.866 169.489 145.855L171.892 143.538L178.984 143.97L180.635 152.14C184.268 155.139 182.871 158.564 182.941 160.797C183.01 163.03 183.359 165.674 183.359 165.674C183.359 165.674 184.895 168.19 184.686 169.507C184.477 170.824 185.804 172.991 185.804 172.991C185.804 172.991 187.758 175.154 187.545 176.551C187.333 177.948 187.894 179.763 187.894 179.763C187.894 179.763 189.217 182.202 188.66 183.595C188.103 184.989 188.381 185.762 188.381 185.762C188.381 185.762 191.245 186.18 191.454 187.717C191.663 189.253 194.24 189.807 194.24 189.807C194.24 189.807 198.845 191.483 199.966 192.246C201.088 193.009 207.041 198.635 207.041 198.635Z" fill="#FF718D"/>
<path opacity="0.1" d="M148.398 164.493C148.398 164.493 153.623 165.124 154.264 165.887C154.905 166.65 149.039 166.727 149.039 166.727L148.398 164.493Z" fill="black"/>
<path opacity="0.1" d="M156.148 168.653C156.148 168.653 152.317 167.291 152.206 167.709C152.094 168.127 156.148 170.433 156.148 170.433V168.653Z" fill="black"/>
<path opacity="0.1" d="M157.754 161.215C158.42 162.264 163.916 169.022 163.916 169.022L157.995 160.379L157.754 161.215Z" fill="black"/>
<path opacity="0.1" d="M158.559 159.365C158.977 159.923 163.411 167.186 163.411 167.186L158.942 159.017L158.559 159.365Z" fill="black"/>
<path opacity="0.1" d="M149.287 150.673C149.287 150.673 150.997 148.262 152.673 149.799C154.348 151.335 149.287 150.673 149.287 150.673Z" fill="black"/>
<path opacity="0.1" d="M161.244 148.611C161.244 148.611 165.608 148.611 167.737 149.59C169.865 150.569 165.852 146.656 161.244 148.611Z" fill="black"/>
<path opacity="0.1" d="M166.253 145.332H165.609C165.609 145.332 164.107 144.775 163.724 143.618C163.341 142.462 160.321 143.517 160.321 143.517C160.321 143.517 159.886 143.845 160.269 143.308C160.652 142.772 158.942 141.075 158.179 139.957C158.119 139.871 158.075 139.775 158.047 139.675C158.403 139.431 158.774 139.21 159.158 139.013C159.788 138.734 161.464 139.504 161.464 139.504C161.464 139.504 163.484 142.228 165.163 144.322C165.472 144.713 165.84 145.053 166.253 145.332Z" fill="black"/>
<path d="M166.253 144.911H165.609C165.609 144.911 164.107 144.353 163.724 143.197C163.341 142.04 160.321 143.096 160.321 143.096C160.321 143.096 159.886 143.423 160.269 142.887C160.652 142.35 158.942 140.653 158.179 139.535C158.119 139.448 158.075 139.351 158.047 139.249C158.404 139.008 158.775 138.788 159.158 138.591C159.788 138.312 161.464 139.082 161.464 139.082C161.464 139.082 163.484 141.803 165.163 143.9C165.472 144.291 165.84 144.632 166.253 144.911Z" fill="#FF718D"/>
<path d="M171.405 149.75C171.149 149.75 170.942 149.542 170.942 149.286C170.942 149.031 171.149 148.823 171.405 148.823C171.661 148.823 171.868 149.031 171.868 149.286C171.868 149.542 171.661 149.75 171.405 149.75Z" fill="#E7C7CA"/>
<path d="M179.367 160.584C179.111 160.584 178.904 160.377 178.904 160.121C178.904 159.865 179.111 159.658 179.367 159.658C179.623 159.658 179.83 159.865 179.83 160.121C179.83 160.377 179.623 160.584 179.367 160.584Z" fill="#E7C7CA"/>
<path d="M176.493 153.746C176.237 153.746 176.03 153.538 176.03 153.282C176.03 153.027 176.237 152.819 176.493 152.819C176.749 152.819 176.957 153.027 176.957 153.282C176.957 153.538 176.749 153.746 176.493 153.746Z" fill="#E7C7CA"/>
<path d="M180.652 167.629C180.396 167.629 180.189 167.421 180.189 167.165C180.189 166.91 180.396 166.702 180.652 166.702C180.908 166.702 181.115 166.91 181.115 167.165C181.115 167.421 180.908 167.629 180.652 167.629Z" fill="#E7C7CA"/>
<path d="M186.553 179.78C186.297 179.78 186.09 179.573 186.09 179.317C186.09 179.061 186.297 178.854 186.553 178.854C186.809 178.854 187.016 179.061 187.016 179.317C187.016 179.573 186.809 179.78 186.553 179.78Z" fill="#E7C7CA"/>
<path d="M187.016 186.006C186.76 186.006 186.553 185.799 186.553 185.543C186.553 185.287 186.76 185.079 187.016 185.079C187.272 185.079 187.479 185.287 187.479 185.543C187.479 185.799 187.272 186.006 187.016 186.006Z" fill="#E7C7CA"/>
<path d="M193.777 140.406L192.836 143.444L189.869 143.235L187.218 140.406C187.218 140.406 187.044 139.897 186.772 139.141C186.104 137.271 184.839 133.874 184.143 132.829C183.167 131.365 182.537 125.29 182.537 125.29C182.537 125.29 183.61 122.851 186.671 127.728C188.974 131.407 191.84 136.731 193.112 139.134C193.523 139.932 193.777 140.406 193.777 140.406Z" fill="#ECB4B6"/>
<path d="M180.635 182.933C180.635 183.679 177.5 184.027 176.02 184.153L175.26 184.205C175.609 184.992 173.759 190.998 173.759 190.998C173.602 190.989 173.446 190.969 173.292 190.939C170.854 190.448 166.044 187.086 166.044 187.086C166.044 187.086 165.939 185.933 160.966 183.912C157.305 182.418 154.564 179.624 153.285 178.237C153.043 177.946 152.781 177.671 152.502 177.415L156.918 172.855C156.918 172.855 157.632 173.517 158.573 174.405C160.293 176.032 162.777 178.411 163.028 178.871C163.411 179.568 170.321 182.947 170.321 182.947C171.857 181.62 175.173 181.341 175.173 181.341C175.173 181.341 180.635 181.954 180.635 182.933Z" fill="#ECB4B6"/>
<path opacity="0.1" d="M172.45 167.186C172.659 167.604 182.119 173.889 183.725 173.994C185.33 174.098 182.224 170.991 182.119 170.956C182.015 170.921 172.45 167.186 172.45 167.186Z" fill="black"/>
<path opacity="0.1" d="M223.475 266.968L223.825 266.887L223.475 266.968Z" fill="black"/>
<path opacity="0.3" d="M195.877 273.311C195.426 273.046 194.926 272.875 194.407 272.81C193.429 272.918 192.44 272.887 191.471 272.719C191.703 273.559 191.776 274.434 191.687 275.301L192.575 275.266C192.575 275.266 195.891 274.545 195.877 273.311Z" fill="white"/>
<path opacity="0.1" d="M223.254 267.013L223.442 266.974L223.254 267.013Z" fill="black"/>
<path opacity="0.3" d="M175.581 251.025C175.543 251.433 175.525 251.833 175.511 252.182C175.502 252.628 175.334 253.057 175.038 253.391L175.017 253.412C174.904 252.589 174.853 251.758 174.864 250.928C174.937 251.036 175.25 251.046 175.581 251.025Z" fill="white"/>
<path opacity="0.1" d="M158.573 174.391C156.298 174.248 154.358 176.61 153.303 178.223C153.06 177.932 152.798 177.657 152.519 177.401L156.918 172.855C156.918 172.855 157.646 173.503 158.573 174.391Z" fill="black"/>
<path opacity="0.1" d="M158.594 173.785C155.03 173.297 152.24 179.094 152.24 179.094C152.24 179.094 149.238 177.004 147.712 175.182C147.548 174.979 147.418 174.751 147.326 174.506C148.155 172.513 150.443 169.193 156.479 170.458L156.441 171.134C156.441 171.134 156.859 171.552 158.001 172.597C159.144 173.642 158.594 173.785 158.594 173.785Z" fill="black"/>
<path d="M158.594 174.203C155.03 173.715 152.24 179.512 152.24 179.512C152.24 179.512 149.238 177.422 147.712 175.6C147.548 175.398 147.417 175.171 147.326 174.928C148.155 172.935 150.443 169.611 156.479 170.876L156.441 171.552C156.441 171.552 156.859 171.97 158.001 173.018C159.144 174.067 158.594 174.203 158.594 174.203Z" fill="#FF718D"/>
<path opacity="0.1" d="M158.594 174.203C155.03 173.715 152.24 179.512 152.24 179.512C152.24 179.512 149.238 177.422 147.712 175.6C147.548 175.398 147.417 175.171 147.326 174.928C148.155 172.935 150.443 169.611 156.479 170.876L156.441 171.552C156.441 171.552 156.859 171.97 158.001 173.018C159.144 174.067 158.594 174.203 158.594 174.203Z" fill="white"/>
<path opacity="0.1" d="M193.777 140.406L192.836 143.444L189.869 143.235L187.218 140.406C187.218 140.406 187.044 139.897 186.772 139.141C187.148 139.354 189.712 140.775 191.266 140.852C192.502 140.915 192.958 139.758 193.112 139.141C193.523 139.932 193.777 140.406 193.777 140.406Z" fill="black"/>
<path opacity="0.1" d="M194.703 141.472L194.508 141.246C193.811 140.437 193.184 139.814 193.184 139.814C193.113 140.357 192.906 140.873 192.582 141.315C192.427 141.514 192.226 141.671 191.997 141.773C191.767 141.875 191.516 141.919 191.265 141.901C190.36 141.788 189.48 141.528 188.66 141.131C187.615 140.664 186.726 140.162 186.726 140.162V141.002L186.709 141.838V143.757C186.709 143.757 185.978 148.854 192.749 146.133C192.749 146.133 192.327 144.263 194.901 144.618L194.703 141.472Z" fill="black"/>
<path d="M186.727 139.535L186.692 141.211V143.13C186.692 143.13 185.961 148.227 192.732 145.506C192.732 145.506 192.241 143.34 195.518 144.113C198.796 144.886 193.174 139.187 193.174 139.187C193.174 139.187 192.937 141.357 191.255 141.277C189.573 141.197 186.727 139.535 186.727 139.535Z" fill="#FF718D"/>
<path opacity="0.1" d="M186.727 139.535L186.692 141.211V143.13C186.692 143.13 185.961 148.227 192.732 145.506C192.732 145.506 192.241 143.34 195.518 144.113C198.796 144.886 193.174 139.187 193.174 139.187C193.174 139.187 192.937 141.357 191.255 141.277C189.573 141.197 186.727 139.535 186.727 139.535Z" fill="white"/>
<path opacity="0.1" d="M173.811 192.883C173.881 192.779 174.16 184.435 175.243 184.226C176.326 184.017 179.012 185.132 179.012 185.132L178.524 191.8L173.811 192.883Z" fill="black"/>
<path opacity="0.1" d="M175.278 184.205C175.626 184.992 173.777 190.998 173.777 190.998C173.62 190.989 173.464 190.969 173.31 190.939C173.48 188.455 173.843 184.163 174.616 184.017C175.094 183.97 175.577 184.016 176.037 184.153L175.278 184.205Z" fill="black"/>
<path d="M173.393 192.674C173.463 192.57 173.742 184.226 174.825 184.013C175.908 183.801 178.594 184.923 178.594 184.923L178.106 191.591L173.393 192.674Z" fill="#FF718D"/>
<path opacity="0.1" d="M173.393 192.674C173.463 192.57 173.742 184.226 174.825 184.013C175.908 183.801 178.594 184.923 178.594 184.923L178.106 191.591L173.393 192.674Z" fill="white"/>
<path d="M183.073 143.106C182.23 141.796 181.729 140.301 181.245 138.821C180.996 138.109 180.787 137.385 180.618 136.65C179.94 137.641 179.064 138.48 178.044 139.114C177.025 139.747 175.885 140.161 174.696 140.329C174.435 140.872 174.203 141.428 174 141.995C173.755 142.72 173.692 143.494 173.816 144.249C173.941 145.004 174.249 145.717 174.714 146.325C175.689 147.503 177.473 148.004 178.838 147.318C179.229 147.066 179.64 146.847 180.067 146.663C180.994 146.37 181.962 146.855 182.92 147.011C183.582 147.123 184.261 147.084 184.905 146.897C185.55 146.71 186.144 146.38 186.644 145.931C185.128 145.545 183.899 144.416 183.073 143.106Z" fill="#985C7E"/>
<path opacity="0.1" d="M173.393 140.97C168.613 140.97 164.738 137.094 164.738 132.313C164.738 127.532 168.613 123.656 173.393 123.656C178.174 123.656 182.049 127.532 182.049 132.313C182.049 137.094 178.174 140.97 173.393 140.97Z" fill="black"/>
<path d="M173.393 140.406C168.613 140.406 164.738 136.53 164.738 131.749C164.738 126.967 168.613 123.091 173.393 123.091C178.174 123.091 182.049 126.967 182.049 131.749C182.049 136.53 178.174 140.406 173.393 140.406Z" fill="#ECB4B6"/>
<path d="M179.799 129.045C180.816 128.348 182.314 128.902 183.386 128.286C183.898 127.95 184.279 127.45 184.466 126.868C185.403 124.394 183.926 121.294 181.418 120.454C180.764 120.235 180.067 120.158 179.405 119.956C177.604 119.405 176.215 118.008 174.654 116.953C173.042 115.864 171.218 115.13 169.301 114.8C167.88 114.556 166.305 114.573 165.145 115.43C163.839 116.399 163.421 118.141 163.153 119.747C162.885 121.353 162.613 123.088 161.46 124.234C160.537 125.147 159.22 125.506 158.043 126.056C156.866 126.606 155.685 127.551 155.605 128.843C155.546 129.857 156.183 130.777 156.382 131.773C156.605 132.898 156.26 134.051 155.87 135.128C154.779 138.144 153.331 141.019 151.558 143.691C153.696 144.889 156.009 145.743 158.412 146.221C159.402 146.419 160.443 146.548 161.401 146.238C162.613 145.851 163.519 144.806 164.104 143.674C164.619 142.667 164.93 141.568 165.016 140.441C165.187 138.194 164.483 135.783 165.48 133.762C165.666 133.348 165.97 132.998 166.354 132.755C166.793 132.498 167.326 132.466 167.81 132.313C168.646 132.052 169.318 131.435 169.959 130.836L172.265 128.69C172.782 128.15 173.389 127.703 174.059 127.369C175.285 126.85 176.73 127.146 177.89 127.798C178.911 128.369 180.088 129.226 181.119 128.676" fill="#985C7E"/>
<g opacity="0.1">
<path opacity="0.1" d="M180.496 128.85L181.109 128.676C180.92 128.778 180.71 128.838 180.496 128.85Z" fill="black"/>
<path opacity="0.1" d="M180.496 128.85L179.799 129.045C179.921 128.96 180.053 128.891 180.193 128.84C180.293 128.85 180.394 128.854 180.496 128.85Z" fill="black"/>
<path opacity="0.1" d="M158.141 145.092C159.13 145.287 160.168 145.416 161.13 145.109C162.342 144.719 163.247 143.677 163.833 142.542C164.348 141.535 164.658 140.436 164.745 139.309C164.916 137.062 164.212 134.654 165.205 132.63C165.387 132.219 165.683 131.87 166.058 131.623C166.497 131.365 167.027 131.334 167.514 131.184C168.35 130.92 169.022 130.303 169.663 129.707L171.969 127.565C172.487 127.024 173.093 126.578 173.763 126.244C174.989 125.725 176.434 126.021 177.594 126.673C178.322 127.08 179.127 127.631 179.907 127.718C179.768 127.77 179.636 127.839 179.514 127.923L180.21 127.728C180.425 127.716 180.634 127.656 180.823 127.554L180.21 127.728C180.109 127.739 180.008 127.739 179.907 127.728C180.889 127.352 182.157 127.728 183.101 127.178C183.616 126.842 184 126.339 184.188 125.753C184.454 125.032 184.534 124.256 184.421 123.495C184.841 124.578 184.857 125.775 184.467 126.868C184.278 127.452 183.894 127.954 183.38 128.289C182.439 128.833 181.168 128.463 180.186 128.843C179.409 128.76 178.601 128.209 177.873 127.798C176.71 127.147 175.264 126.85 174.042 127.37C173.372 127.703 172.765 128.15 172.248 128.69L169.942 130.836C169.301 131.435 168.629 132.052 167.793 132.313C167.309 132.466 166.776 132.498 166.337 132.756C165.962 133.001 165.666 133.351 165.487 133.762C164.491 135.783 165.194 138.194 165.024 140.441C164.937 141.568 164.627 142.667 164.111 143.674C163.526 144.806 162.62 145.851 161.408 146.238C160.45 146.548 159.409 146.419 158.423 146.221C156.019 145.743 153.704 144.89 151.565 143.691C151.725 143.451 151.882 143.207 152.035 142.963C153.962 143.952 156.017 144.668 158.141 145.092Z" fill="black"/>
<path opacity="0.1" d="M155.623 129.174C155.822 129.651 155.985 130.143 156.11 130.644C156.131 130.752 156.145 130.864 156.156 130.972C155.898 130.399 155.718 129.795 155.623 129.174Z" fill="black"/>
</g>
<path opacity="0.1" d="M174.658 145.66C175.633 146.834 177.416 147.335 178.782 146.649C179.173 146.398 179.585 146.179 180.011 145.994C180.938 145.702 181.906 146.186 182.864 146.343C183.983 146.525 185.129 146.276 186.072 145.646C186.241 145.712 186.413 145.769 186.587 145.817C186.087 146.264 185.493 146.593 184.848 146.78C184.204 146.966 183.526 147.005 182.864 146.893C181.906 146.722 180.938 146.238 180.011 146.545C179.585 146.732 179.174 146.952 178.782 147.203C177.416 147.9 175.647 147.384 174.658 146.21C173.966 145.335 173.629 144.232 173.714 143.12C173.747 144.046 174.078 144.937 174.658 145.66Z" fill="black"/>
</g>
<defs>
<linearGradient id="paint0_linear_114_4319" x1="181.199" y1="278.746" x2="181.199" y2="113.695" gradientUnits="userSpaceOnUse">
<stop stop-color="#808080" stop-opacity="0.25"/>
<stop offset="0.54" stop-color="#808080" stop-opacity="0.12"/>
<stop offset="1" stop-color="#808080" stop-opacity="0.1"/>
</linearGradient>
<linearGradient id="paint1_linear_114_4319" x1="-5888.14" y1="9776.19" x2="-6147.93" y2="9776.19" gradientUnits="userSpaceOnUse">
<stop stop-color="#808080" stop-opacity="0.25"/>
<stop offset="0.54" stop-color="#808080" stop-opacity="0.12"/>
<stop offset="1" stop-color="#808080" stop-opacity="0.1"/>
</linearGradient>
<clipPath id="clip0_114_4319">
<rect width="395" height="283" fill="white" transform="matrix(-1 0 0 1 375 0)"/>
</clipPath>
</defs>
</svg>
