<svg width="456" height="338" viewBox="0 0 456 338" fill="none" xmlns="http://www.w3.org/2000/svg">
<g opacity="0.3">
<path opacity="0.3" d="M314.673 187.717H266.376C264.666 187.717 263.279 189.102 263.279 190.812V201.084C263.279 202.794 264.666 204.18 266.376 204.18H314.673C316.383 204.18 317.77 202.794 317.77 201.084V190.812C317.77 189.102 316.383 187.717 314.673 187.717Z" fill="#F2F2F2"/>
<path opacity="0.3" d="M371.698 204.18H323.402C321.691 204.18 320.305 205.565 320.305 207.275V217.548C320.305 219.257 321.691 220.643 323.402 220.643H371.698C373.409 220.643 374.795 219.257 374.795 217.548V207.275C374.795 205.565 373.409 204.18 371.698 204.18Z" fill="#F2F2F2"/>
<path opacity="0.3" d="M428.727 220.647H380.43C378.72 220.647 377.333 222.032 377.333 223.742V234.015C377.333 235.724 378.72 237.11 380.43 237.11H428.727C430.437 237.11 431.824 235.724 431.824 234.015V223.742C431.824 222.032 430.437 220.647 428.727 220.647Z" fill="#F2F2F2"/>
<path opacity="0.3" d="M314.673 163.018H266.376C264.666 163.018 263.279 164.404 263.279 166.113V176.386C263.279 178.095 264.666 179.481 266.376 179.481H314.673C316.383 179.481 317.77 178.095 317.77 176.386V166.113C317.77 164.404 316.383 163.018 314.673 163.018Z" fill="#F2F2F2"/>
<path opacity="0.3" d="M371.698 179.485H323.402C321.691 179.485 320.305 180.871 320.305 182.58V192.853C320.305 194.562 321.691 195.948 323.402 195.948H371.698C373.409 195.948 374.795 194.562 374.795 192.853V182.58C374.795 180.871 373.409 179.485 371.698 179.485Z" fill="#F2F2F2"/>
<path opacity="0.3" d="M428.727 195.948H380.43C378.72 195.948 377.333 197.334 377.333 199.043V209.316C377.333 211.026 378.72 212.411 380.43 212.411H428.727C430.437 212.411 431.824 211.026 431.824 209.316V199.043C431.824 197.334 430.437 195.948 428.727 195.948Z" fill="#F2F2F2"/>
<path opacity="0.3" d="M314.673 130.092H266.376C264.666 130.092 263.279 131.478 263.279 133.187V143.46C263.279 145.169 264.666 146.555 266.376 146.555H314.673C316.383 146.555 317.77 145.169 317.77 143.46V133.187C317.77 131.478 316.383 130.092 314.673 130.092Z" fill="#F2F2F2"/>
<path opacity="0.3" d="M371.698 146.555H323.402C321.691 146.555 320.305 147.941 320.305 149.65V159.923C320.305 161.632 321.691 163.018 323.402 163.018H371.698C373.409 163.018 374.795 161.632 374.795 159.923V149.65C374.795 147.941 373.409 146.555 371.698 146.555Z" fill="#F2F2F2"/>
<path opacity="0.3" d="M428.727 163.018H380.43C378.72 163.018 377.333 164.404 377.333 166.113V176.386C377.333 178.095 378.72 179.481 380.43 179.481H428.727C430.437 179.481 431.824 178.095 431.824 176.386V166.113C431.824 164.404 430.437 163.018 428.727 163.018Z" fill="#F2F2F2"/>
<path opacity="0.3" d="M314.673 105.393H266.376C264.666 105.393 263.279 106.779 263.279 108.488V118.761C263.279 120.471 264.666 121.856 266.376 121.856H314.673C316.383 121.856 317.77 120.471 317.77 118.761V108.488C317.77 106.779 316.383 105.393 314.673 105.393Z" fill="#F2F2F2"/>
<path opacity="0.3" d="M371.698 121.856H323.402C321.691 121.856 320.305 123.242 320.305 124.952V135.224C320.305 136.934 321.691 138.319 323.402 138.319H371.698C373.409 138.319 374.795 136.934 374.795 135.224V124.952C374.795 123.242 373.409 121.856 371.698 121.856Z" fill="#F2F2F2"/>
<path opacity="0.3" d="M428.727 138.323H380.43C378.72 138.323 377.333 139.709 377.333 141.419V151.691C377.333 153.401 378.72 154.786 380.43 154.786H428.727C430.437 154.786 431.824 153.401 431.824 151.691V141.419C431.824 139.709 430.437 138.323 428.727 138.323Z" fill="#F2F2F2"/>
<path opacity="0.1" d="M314.673 187.717H266.376C264.666 187.717 263.279 189.102 263.279 190.812V201.084C263.279 202.794 264.666 204.18 266.376 204.18H314.673C316.383 204.18 317.77 202.794 317.77 201.084V190.812C317.77 189.102 316.383 187.717 314.673 187.717Z" fill="#61A199"/>
<path opacity="0.1" d="M371.698 204.18H323.402C321.691 204.18 320.305 205.565 320.305 207.275V217.548C320.305 219.257 321.691 220.643 323.402 220.643H371.698C373.409 220.643 374.795 219.257 374.795 217.548V207.275C374.795 205.565 373.409 204.18 371.698 204.18Z" fill="#61A199"/>
<path opacity="0.1" d="M428.727 220.647H380.43C378.72 220.647 377.333 222.032 377.333 223.742V234.015C377.333 235.724 378.72 237.11 380.43 237.11H428.727C430.437 237.11 431.824 235.724 431.824 234.015V223.742C431.824 222.032 430.437 220.647 428.727 220.647Z" fill="#61A199"/>
<path opacity="0.1" d="M314.673 163.018H266.376C264.666 163.018 263.279 164.404 263.279 166.113V176.386C263.279 178.095 264.666 179.481 266.376 179.481H314.673C316.383 179.481 317.77 178.095 317.77 176.386V166.113C317.77 164.404 316.383 163.018 314.673 163.018Z" fill="#61A199"/>
<path opacity="0.1" d="M371.698 179.485H323.402C321.691 179.485 320.305 180.871 320.305 182.58V192.853C320.305 194.562 321.691 195.948 323.402 195.948H371.698C373.409 195.948 374.795 194.562 374.795 192.853V182.58C374.795 180.871 373.409 179.485 371.698 179.485Z" fill="#61A199"/>
<path opacity="0.1" d="M428.727 195.948H380.43C378.72 195.948 377.333 197.334 377.333 199.043V209.316C377.333 211.026 378.72 212.411 380.43 212.411H428.727C430.437 212.411 431.824 211.026 431.824 209.316V199.043C431.824 197.334 430.437 195.948 428.727 195.948Z" fill="#61A199"/>
<path opacity="0.1" d="M314.673 130.092H266.376C264.666 130.092 263.279 131.478 263.279 133.187V143.46C263.279 145.169 264.666 146.555 266.376 146.555H314.673C316.383 146.555 317.77 145.169 317.77 143.46V133.187C317.77 131.478 316.383 130.092 314.673 130.092Z" fill="#61A199"/>
<path opacity="0.1" d="M371.698 146.555H323.402C321.691 146.555 320.305 147.941 320.305 149.65V159.923C320.305 161.632 321.691 163.018 323.402 163.018H371.698C373.409 163.018 374.795 161.632 374.795 159.923V149.65C374.795 147.941 373.409 146.555 371.698 146.555Z" fill="#61A199"/>
<path opacity="0.1" d="M428.727 163.018H380.43C378.72 163.018 377.333 164.404 377.333 166.113V176.386C377.333 178.095 378.72 179.481 380.43 179.481H428.727C430.437 179.481 431.824 178.095 431.824 176.386V166.113C431.824 164.404 430.437 163.018 428.727 163.018Z" fill="#61A199"/>
<path opacity="0.1" d="M314.673 105.393H266.376C264.666 105.393 263.279 106.779 263.279 108.488V118.761C263.279 120.471 264.666 121.856 266.376 121.856H314.673C316.383 121.856 317.77 120.471 317.77 118.761V108.488C317.77 106.779 316.383 105.393 314.673 105.393Z" fill="#61A199"/>
<path opacity="0.1" d="M371.698 121.856H323.402C321.691 121.856 320.305 123.242 320.305 124.952V135.224C320.305 136.934 321.691 138.319 323.402 138.319H371.698C373.409 138.319 374.795 136.934 374.795 135.224V124.952C374.795 123.242 373.409 121.856 371.698 121.856Z" fill="#61A199"/>
<path opacity="0.1" d="M428.727 138.323H380.43C378.72 138.323 377.333 139.709 377.333 141.419V151.691C377.333 153.401 378.72 154.786 380.43 154.786H428.727C430.437 154.786 431.824 153.401 431.824 151.691V141.419C431.824 139.709 430.437 138.323 428.727 138.323Z" fill="#61A199"/>
</g>
<g opacity="0.3">
<path opacity="0.3" d="M101.262 82.3235H52.9651C51.2547 82.3235 49.8682 83.7092 49.8682 85.4186V95.6914C49.8682 97.4008 51.2547 98.7865 52.9651 98.7865H101.262C102.972 98.7865 104.359 97.4008 104.359 95.6914V85.4186C104.359 83.7092 102.972 82.3235 101.262 82.3235Z" fill="#F2F2F2"/>
<path opacity="0.3" d="M158.287 98.7864H109.991C108.28 98.7864 106.894 100.172 106.894 101.882V112.154C106.894 113.864 108.28 115.249 109.991 115.249H158.287C159.998 115.249 161.384 113.864 161.384 112.154V101.882C161.384 100.172 159.998 98.7864 158.287 98.7864Z" fill="#F2F2F2"/>
<path opacity="0.3" d="M215.316 115.254H167.019C165.308 115.254 163.922 116.639 163.922 118.349V128.622C163.922 130.331 165.308 131.717 167.019 131.717H215.316C217.026 131.717 218.413 130.331 218.413 128.622V118.349C218.413 116.639 217.026 115.254 215.316 115.254Z" fill="#F2F2F2"/>
<path opacity="0.3" d="M101.262 57.6248H52.9651C51.2547 57.6248 49.8682 59.0105 49.8682 60.7199V70.9926C49.8682 72.702 51.2547 74.0878 52.9651 74.0878H101.262C102.972 74.0878 104.359 72.702 104.359 70.9926V60.7199C104.359 59.0105 102.972 57.6248 101.262 57.6248Z" fill="#F2F2F2"/>
<path opacity="0.3" d="M158.287 74.0918H109.991C108.28 74.0918 106.894 75.4775 106.894 77.1869V87.4597C106.894 89.1691 108.28 90.5548 109.991 90.5548H158.287C159.998 90.5548 161.384 89.1691 161.384 87.4597V77.1869C161.384 75.4775 159.998 74.0918 158.287 74.0918Z" fill="#F2F2F2"/>
<path opacity="0.3" d="M215.316 90.5549H167.019C165.308 90.5549 163.922 91.9407 163.922 93.6501V103.923C163.922 105.632 165.308 107.018 167.019 107.018H215.316C217.026 107.018 218.413 105.632 218.413 103.923V93.6501C218.413 91.9407 217.026 90.5549 215.316 90.5549Z" fill="#F2F2F2"/>
<path opacity="0.3" d="M101.262 24.6987H52.9651C51.2547 24.6987 49.8682 26.0845 49.8682 27.7939V38.0666C49.8682 39.776 51.2547 41.1617 52.9651 41.1617H101.262C102.972 41.1617 104.359 39.776 104.359 38.0666V27.7939C104.359 26.0845 102.972 24.6987 101.262 24.6987Z" fill="#F2F2F2"/>
<path opacity="0.3" d="M158.287 41.1616H109.991C108.28 41.1616 106.894 42.5474 106.894 44.2568V54.5295C106.894 56.2389 108.28 57.6246 109.991 57.6246H158.287C159.998 57.6246 161.384 56.2389 161.384 54.5295V44.2568C161.384 42.5474 159.998 41.1616 158.287 41.1616Z" fill="#F2F2F2"/>
<path opacity="0.3" d="M215.316 57.6248H167.019C165.308 57.6248 163.922 59.0105 163.922 60.7199V70.9926C163.922 72.702 165.308 74.0878 167.019 74.0878H215.316C217.026 74.0878 218.413 72.702 218.413 70.9926V60.7199C218.413 59.0105 217.026 57.6248 215.316 57.6248Z" fill="#F2F2F2"/>
<path opacity="0.3" d="M101.262 0H52.9651C51.2547 0 49.8682 1.38574 49.8682 3.09515V13.3679C49.8682 15.0773 51.2547 16.463 52.9651 16.463H101.262C102.972 16.463 104.359 15.0773 104.359 13.3679V3.09515C104.359 1.38574 102.972 0 101.262 0Z" fill="#F2F2F2"/>
<path opacity="0.3" d="M158.287 16.463H109.991C108.28 16.463 106.894 17.8488 106.894 19.5582V29.8309C106.894 31.5403 108.28 32.926 109.991 32.926H158.287C159.998 32.926 161.384 31.5403 161.384 29.8309V19.5582C161.384 17.8488 159.998 16.463 158.287 16.463Z" fill="#F2F2F2"/>
<path opacity="0.3" d="M215.316 32.9302H167.019C165.308 32.9302 163.922 34.3159 163.922 36.0253V46.298C163.922 48.0074 165.308 49.3932 167.019 49.3932H215.316C217.026 49.3932 218.413 48.0074 218.413 46.298V36.0253C218.413 34.3159 217.026 32.9302 215.316 32.9302Z" fill="#F2F2F2"/>
<path opacity="0.1" d="M101.262 82.3235H52.9651C51.2547 82.3235 49.8682 83.7092 49.8682 85.4186V95.6914C49.8682 97.4008 51.2547 98.7865 52.9651 98.7865H101.262C102.972 98.7865 104.359 97.4008 104.359 95.6914V85.4186C104.359 83.7092 102.972 82.3235 101.262 82.3235Z" fill="#61A199"/>
<path opacity="0.1" d="M158.287 98.7864H109.991C108.28 98.7864 106.894 100.172 106.894 101.882V112.154C106.894 113.864 108.28 115.249 109.991 115.249H158.287C159.998 115.249 161.384 113.864 161.384 112.154V101.882C161.384 100.172 159.998 98.7864 158.287 98.7864Z" fill="#61A199"/>
<path opacity="0.1" d="M215.316 115.254H167.019C165.308 115.254 163.922 116.639 163.922 118.349V128.622C163.922 130.331 165.308 131.717 167.019 131.717H215.316C217.026 131.717 218.413 130.331 218.413 128.622V118.349C218.413 116.639 217.026 115.254 215.316 115.254Z" fill="#61A199"/>
<path opacity="0.1" d="M101.262 57.6248H52.9651C51.2547 57.6248 49.8682 59.0105 49.8682 60.7199V70.9926C49.8682 72.702 51.2547 74.0878 52.9651 74.0878H101.262C102.972 74.0878 104.359 72.702 104.359 70.9926V60.7199C104.359 59.0105 102.972 57.6248 101.262 57.6248Z" fill="#61A199"/>
<path opacity="0.1" d="M158.287 74.0918H109.991C108.28 74.0918 106.894 75.4775 106.894 77.1869V87.4597C106.894 89.1691 108.28 90.5548 109.991 90.5548H158.287C159.998 90.5548 161.384 89.1691 161.384 87.4597V77.1869C161.384 75.4775 159.998 74.0918 158.287 74.0918Z" fill="#61A199"/>
<path opacity="0.1" d="M215.316 90.5549H167.019C165.308 90.5549 163.922 91.9407 163.922 93.6501V103.923C163.922 105.632 165.308 107.018 167.019 107.018H215.316C217.026 107.018 218.413 105.632 218.413 103.923V93.6501C218.413 91.9407 217.026 90.5549 215.316 90.5549Z" fill="#61A199"/>
<path opacity="0.1" d="M101.262 24.6987H52.9651C51.2547 24.6987 49.8682 26.0845 49.8682 27.7939V38.0666C49.8682 39.776 51.2547 41.1617 52.9651 41.1617H101.262C102.972 41.1617 104.359 39.776 104.359 38.0666V27.7939C104.359 26.0845 102.972 24.6987 101.262 24.6987Z" fill="#61A199"/>
<path opacity="0.1" d="M158.287 41.1616H109.991C108.28 41.1616 106.894 42.5474 106.894 44.2568V54.5295C106.894 56.2389 108.28 57.6246 109.991 57.6246H158.287C159.998 57.6246 161.384 56.2389 161.384 54.5295V44.2568C161.384 42.5474 159.998 41.1616 158.287 41.1616Z" fill="#61A199"/>
<path opacity="0.1" d="M215.316 57.6248H167.019C165.308 57.6248 163.922 59.0105 163.922 60.7199V70.9926C163.922 72.702 165.308 74.0878 167.019 74.0878H215.316C217.026 74.0878 218.413 72.702 218.413 70.9926V60.7199C218.413 59.0105 217.026 57.6248 215.316 57.6248Z" fill="#61A199"/>
<path opacity="0.1" d="M101.262 0H52.9651C51.2547 0 49.8682 1.38574 49.8682 3.09515V13.3679C49.8682 15.0773 51.2547 16.463 52.9651 16.463H101.262C102.972 16.463 104.359 15.0773 104.359 13.3679V3.09515C104.359 1.38574 102.972 0 101.262 0Z" fill="#61A199"/>
<path opacity="0.1" d="M158.287 16.463H109.991C108.28 16.463 106.894 17.8488 106.894 19.5582V29.8309C106.894 31.5403 108.28 32.926 109.991 32.926H158.287C159.998 32.926 161.384 31.5403 161.384 29.8309V19.5582C161.384 17.8488 159.998 16.463 158.287 16.463Z" fill="#61A199"/>
<path opacity="0.1" d="M215.316 32.9302H167.019C165.308 32.9302 163.922 34.3159 163.922 36.0253V46.298C163.922 48.0074 165.308 49.3932 167.019 49.3932H215.316C217.026 49.3932 218.413 48.0074 218.413 46.298V36.0253C218.413 34.3159 217.026 32.9302 215.316 32.9302Z" fill="#61A199"/>
</g>
<g opacity="0.1">
<path opacity="0.1" d="M123.215 230.032C123.221 232.394 122.978 234.749 122.49 237.06C122.398 237.477 122.298 237.922 122.198 238.339C119.626 248.657 112.361 256.206 103.695 256.668C103.408 256.668 103.116 256.693 102.816 256.693C93.646 256.693 85.9015 248.778 83.3464 237.914C83.2713 237.622 83.2088 237.335 83.1463 237.043C82.6578 234.733 82.4147 232.377 82.421 230.016C82.421 215.273 91.5494 203.355 102.816 203.355C114.083 203.355 123.215 215.29 123.215 230.032Z" fill="#3F3D56"/>
<path opacity="0.1" d="M123.216 230.032C123.222 232.394 122.979 234.75 122.491 237.06C122.399 237.477 122.299 237.922 122.199 238.339C121.891 238.339 121.59 238.339 121.286 238.301C119.042 238.179 116.812 237.874 114.617 237.389C112.671 237.989 110.683 238.443 108.669 238.747C107.125 238.973 105.569 239.112 104.009 239.164C103.484 239.164 102.959 239.193 102.433 239.193C100.565 239.192 98.6997 239.068 96.848 238.822C93.8596 238.419 90.9243 237.69 88.0948 236.648C86.5442 237.158 84.9644 237.575 83.3639 237.897C83.2889 237.606 83.2264 237.318 83.1639 237.027C82.6754 234.716 82.4323 232.361 82.4386 229.999C82.4386 215.257 91.5669 203.338 102.834 203.338C114.1 203.338 123.216 215.29 123.216 230.032Z" fill="black"/>
<path opacity="0.1" d="M166.727 180.323C166.736 173.837 165.215 167.44 162.288 161.652L138.3 169.104L159.354 156.732C155.824 151.632 151.192 147.39 145.801 144.319C140.411 141.248 134.399 139.427 128.209 138.99C127.226 137.496 126.147 136.067 124.979 134.712L90.4952 145.43L118.751 128.826C113.347 124.688 107.007 121.943 100.29 120.835C93.5727 119.726 86.6859 120.288 80.2375 122.47C73.7892 124.652 67.9778 128.388 63.3165 133.347C58.6552 138.306 55.2875 144.336 53.5109 150.904L83.0258 184.859L50.9641 161.731C42.8564 167.478 37.0843 175.945 34.6994 185.59C32.3146 195.234 33.4756 205.413 37.971 214.274C42.4664 223.134 49.9971 230.086 59.1911 233.862C68.3851 237.638 78.6305 237.988 88.061 234.848C96.5989 237.981 105.928 238.237 114.625 235.577C120.685 236.916 126.968 236.878 133.011 235.468C139.054 234.058 144.704 231.31 149.544 227.428C154.384 223.545 158.29 218.627 160.975 213.036C163.661 207.444 165.057 201.322 165.06 195.119C165.06 194.199 165.027 193.286 164.968 192.378C166.146 188.468 166.738 184.406 166.727 180.323Z" fill="#61A199"/>
<path opacity="0.1" d="M166.014 188.008C153.346 185.608 140.355 185.443 127.63 187.521C113.228 189.904 98.5064 195.14 84.418 191.312C76.1524 189.062 68.9957 183.863 60.9302 180.981C53.1387 178.256 44.7425 177.75 36.6797 179.518C33.6043 186.864 32.7107 194.939 34.1055 202.779C35.5004 210.619 39.1247 217.891 44.5453 223.727C49.9659 229.562 56.9534 233.714 64.6725 235.687C72.3915 237.659 80.5156 237.368 88.0735 234.848C96.6076 237.978 105.932 238.234 114.625 235.577C120.684 236.916 126.967 236.878 133.011 235.468C139.054 234.058 144.704 231.31 149.544 227.428C154.384 223.545 158.29 218.627 160.975 213.036C163.661 207.444 165.057 201.321 165.06 195.119C165.06 194.199 165.027 193.286 164.968 192.378C165.397 190.942 165.746 189.483 166.014 188.008Z" fill="black"/>
</g>
<path opacity="0.1" d="M228 332.884C353.921 332.884 456 314.327 456 291.435C456 268.543 353.921 249.986 228 249.986C102.079 249.986 0 268.543 0 291.435C0 314.327 102.079 332.884 228 332.884Z" fill="#61A199"/>
<path d="M302.894 296.213C303.2 294.961 303.809 293.802 304.666 292.837C305.524 291.873 306.604 291.133 307.813 290.681C309.021 290.23 310.323 290.08 311.602 290.246C312.882 290.411 314.102 290.887 315.156 291.631L315.482 291.869C322.455 297.092 318.316 306.674 315.482 306.89C312.647 307.107 307.195 307.34 307.195 307.34C307.195 307.34 300.772 304.691 302.894 296.213Z" fill="#192534"/>
<path d="M365.808 289.702V291.444C365.808 291.444 337.465 293.401 334.439 293.401H328.774C328.774 293.401 328.691 293.489 328.553 293.647C328.32 293.91 327.924 294.372 327.486 294.947C326.594 296.105 325.531 297.721 325.285 299.063C324.868 301.458 323.326 302.329 323.326 302.329L317.662 300.808L312.197 294.276L311.401 293.51L309.134 291.348L307.195 289.494L307.291 288.453V288.294C307.755 286.057 308.347 283.848 309.067 281.679C309.067 281.621 309.104 281.558 309.125 281.5C310.697 276.784 313.318 271.056 317.095 269.353C317.382 269.224 317.682 269.099 318.003 268.986L318.387 268.853C325.631 266.428 339.32 267.391 339.32 267.391C339.32 267.391 349.773 270.44 350.649 271.748C351.524 273.056 361.432 283.829 361.432 283.829C362.301 284.484 363.103 285.225 363.824 286.041C364.754 287.07 365.617 288.365 365.808 289.702Z" fill="#61A199"/>
<path opacity="0.1" d="M306.332 304.074C308.017 304.074 309.383 301.93 309.383 299.284C309.383 296.638 308.017 294.493 306.332 294.493C304.647 294.493 303.281 296.638 303.281 299.284C303.281 301.93 304.647 304.074 306.332 304.074Z" fill="white"/>
<path opacity="0.1" d="M318.971 270.977C318.971 270.977 316.47 274.81 313.828 279.725C313.826 279.738 313.826 279.75 313.828 279.763C313.123 281.071 312.406 282.45 311.723 283.862L311.694 283.929C311.694 283.929 310.247 282.783 309.109 281.667C309.109 281.608 309.147 281.546 309.168 281.488C310.739 276.772 313.361 271.044 317.137 269.34C317.425 269.211 317.725 269.086 318.046 268.974L318.971 270.977Z" fill="black"/>
<path opacity="0.1" d="M311.564 283.825C311.564 283.825 327.033 288.407 330.08 286.436C330.08 286.436 331.172 272.502 323.982 271.631C323.982 271.631 319.842 270.54 318.98 271.215C318.117 271.89 311.564 283.825 311.564 283.825Z" fill="white"/>
<path opacity="0.1" d="M331.604 273.589C331.604 273.589 334.656 285.128 336.836 285.349C339.016 285.57 361.011 285.128 360.144 283.604C359.277 282.079 349.686 272.285 349.686 272.285L331.604 273.589Z" fill="white"/>
<path d="M327.861 294.468C327.861 294.468 331.821 289.265 338.794 294.493C345.767 299.721 341.624 309.298 338.794 309.515C335.964 309.731 330.537 309.952 330.537 309.952C330.537 309.952 321.938 306.42 327.861 294.468Z" fill="#192534"/>
<path d="M368.989 295.793C368.699 294.97 368.242 294.217 367.645 293.581C367.049 292.944 366.328 292.438 365.526 292.094C364.724 291.75 363.86 291.577 362.987 291.584C362.115 291.591 361.253 291.779 360.457 292.135C359.678 292.502 358.941 292.95 358.256 293.472C352.05 298.121 355.755 306.649 358.256 306.844C359.161 306.911 360.365 306.982 361.537 307.044C362.736 307.108 363.933 306.893 365.035 306.415C366.137 305.938 367.113 305.212 367.886 304.293C368.659 303.375 369.209 302.29 369.492 301.124C369.774 299.957 369.782 298.741 369.515 297.571C369.373 296.969 369.198 296.375 368.989 295.793Z" fill="#192534"/>
<path opacity="0.1" d="M329.646 306.686C331.331 306.686 332.697 304.541 332.697 301.896C332.697 299.25 331.331 297.105 329.646 297.105C327.961 297.105 326.595 299.25 326.595 301.896C326.595 304.541 327.961 306.686 329.646 306.686Z" fill="white"/>
<path opacity="0.1" d="M338.14 292.752C338.14 292.752 337.723 286.436 344.459 289.048C351.195 291.66 346.855 294.493 346.855 294.493L338.14 292.752Z" fill="white"/>
<path opacity="0.1" d="M365.809 289.702V290.573L364.721 290.99L362.499 290.573C362.499 290.573 362.024 287.007 363.846 285.991C364.754 287.07 365.617 288.365 365.809 289.702Z" fill="white"/>
<path opacity="0.1" d="M365.808 289.744V291.444C365.808 291.444 337.465 293.402 334.439 293.402H334.414C332.846 292.568 331.279 292.198 329.962 292.752C329.561 292.917 329.184 293.136 328.841 293.402C328.741 293.481 328.645 293.564 328.553 293.647C328.138 294.028 327.778 294.465 327.486 294.947C325.535 298.101 325.952 302.983 325.952 302.983C320.288 304.724 314.406 300.154 314.406 300.154C313.339 296.955 312.343 294.868 311.43 293.489C310.597 292.239 309.838 291.627 309.163 291.327L307.195 289.494L307.291 288.453L323.101 299.942C323.101 299.942 324.627 290.144 328.103 290.798C331.579 291.452 338.561 291.452 338.561 291.452L365.808 289.744Z" fill="black"/>
<path d="M306.333 288.394C306.333 288.394 305.024 291.66 306.333 291.881C307.641 292.102 310.58 289.382 314.394 300.808C314.394 300.808 320.275 305.391 325.94 303.637C325.94 303.637 325.265 295.364 329.962 293.402C334.66 291.439 342.496 301.241 342.496 301.241V303.42L361.015 301.458C361.015 301.458 366.68 297.105 366.463 290.356L338.578 292.098C338.578 292.098 331.604 292.098 328.12 291.444C324.635 290.79 323.118 300.608 323.118 300.608L306.333 288.394Z" fill="#61A199"/>
<path d="M227.908 228.845H227.904C221.468 228.845 216.25 234.06 216.25 240.492V240.497C216.25 246.929 221.468 252.144 227.904 252.144H227.908C234.345 252.144 239.563 246.929 239.563 240.497V240.492C239.563 234.06 234.345 228.845 227.908 228.845Z" fill="#192534"/>
<path d="M221.802 270.473C223.365 269.103 224.953 267.707 226.078 265.962C227.112 264.362 227.721 262.533 228.292 260.717C229.923 255.527 231.328 250.271 232.506 244.95C226.091 243.971 221.302 238.31 215.029 236.648C214.879 236.606 210.081 265.416 209.731 268.049C209.443 270.223 206.959 280.609 209.789 280.667C211.302 280.7 214.462 276.918 215.579 275.922L221.802 270.473Z" fill="#3F3D56"/>
<path opacity="0.1" d="M221.802 270.473C223.365 269.103 224.953 267.707 226.078 265.962C227.112 264.362 227.721 262.533 228.292 260.717C229.923 255.527 231.328 250.271 232.506 244.95C226.091 243.971 221.302 238.31 215.029 236.648C214.879 236.606 210.081 265.416 209.731 268.049C209.443 270.223 206.959 280.609 209.789 280.667C211.302 280.7 214.462 276.918 215.579 275.922L221.802 270.473Z" fill="black"/>
<path d="M142.527 197.781C141.818 197.89 141.068 197.944 140.485 198.356C139.651 198.939 139.438 200.022 139.042 200.964C138.522 202.172 137.642 203.191 136.521 203.88C135.566 204.463 134.403 204.855 133.832 205.813C133.509 206.458 133.356 207.175 133.386 207.896C133.311 210.03 133.407 212.167 133.674 214.286C133.807 215.348 133.982 216.431 133.761 217.477C133.507 218.697 132.74 219.735 132.011 220.747C130.26 223.167 128.547 225.825 128.405 228.808C128.334 230.307 128.668 231.845 128.288 233.298C127.617 235.877 124.883 237.56 124.35 240.168C124.191 240.938 124.233 241.755 123.933 242.475C123.408 243.725 121.961 244.408 121.59 245.696C121.311 246.662 121.719 247.683 121.749 248.687C121.79 250.157 121.019 251.515 120.277 252.782L115.938 260.155C114.529 262.546 113.087 265.045 112.849 267.812C112.637 270.265 113.4 272.694 114.238 275.01C116.101 280.155 118.868 285.603 123.974 287.582C126.98 288.749 130.327 288.499 133.54 288.232C137.942 287.87 142.373 287.499 146.62 286.295C148.725 285.699 150.788 284.904 152.914 284.479C154.331 284.2 155.786 284.062 157.153 283.608C158.631 283.077 159.938 282.159 160.938 280.95C161.938 279.74 162.595 278.285 162.839 276.735C164.656 277.451 166.34 275.068 166.081 273.135C165.823 271.202 164.523 269.565 163.997 267.691C163.247 265.104 163.997 262.296 165.248 259.913C166.498 257.53 168.224 255.423 169.587 253.102C171.105 250.505 172.16 247.663 172.705 244.704C173.434 240.709 173.213 236.606 172.988 232.553L172.13 217.06C171.971 214.223 171.792 211.295 170.541 208.729C169.17 205.934 166.669 203.884 164.172 202.022C160.488 199.221 156.624 196.663 152.606 194.365C150.013 192.916 150.196 193.478 148.133 195.198C146.535 196.554 144.596 197.447 142.527 197.781Z" fill="#3F3D56"/>
<path d="M177.565 240.884C174.618 243.208 171.633 245.566 169.366 248.557C166.627 252.194 165.073 256.585 164.914 261.134C164.888 263.263 165.037 265.39 165.36 267.495C165.806 270.932 166.611 274.76 169.507 276.659C171.333 277.855 173.842 278.155 175.089 279.946C175.48 280.509 175.71 281.196 176.168 281.692C177.002 282.591 178.302 282.787 179.503 282.854C181.297 282.955 183.096 282.899 184.88 282.687C186.918 282.441 188.99 281.996 191.007 282.379C194.933 283.116 197.864 286.82 201.844 287.315C205.15 287.732 208.247 285.812 211.014 283.983C213.869 282.096 216.85 280.075 218.396 277.022C219.901 274.056 219.818 270.565 219.701 267.237C219.572 263.542 219.438 259.801 218.45 256.235C218.143 255.301 217.908 254.346 217.746 253.377C217.45 250.878 218.58 248.42 219.413 246.029C220.71 242.392 221.276 237.91 218.7 235.035C217.613 233.819 216.099 233.069 214.566 232.536C207.792 230.103 200.315 231.028 193.366 232.119C186.735 233.123 182.766 236.789 177.565 240.884Z" fill="#3F3D56"/>
<path d="M235.003 226.487C232.318 230.515 229.626 234.573 227.688 238.984C226.365 242.186 225.252 245.47 224.353 248.816C221.677 258.059 219.022 267.503 213.678 275.505C212.911 276.655 212.061 277.851 211.982 279.23C211.907 280.521 212.524 281.729 213.12 282.879C214.37 285.312 215.679 287.769 217.463 289.861C219.247 291.952 221.381 293.535 223.532 295.151C227.996 298.484 232.956 302.016 238.537 301.766C239.692 301.712 240.926 301.446 241.697 300.583C242.468 299.721 242.576 298.53 242.439 297.421C242.022 293.993 239.438 291.298 237.095 288.757C234.753 286.216 232.398 283.245 232.585 279.779C232.731 276.918 234.607 274.477 236.403 272.244C238.458 269.686 240.517 267.132 242.455 264.487C250.838 253.052 256.89 240.051 261.687 226.708C263.709 221.076 265.547 215.161 264.918 209.212C260.333 208.087 251.163 204.33 247.291 208.208C244.944 210.557 243.285 214.04 241.455 216.81L235.003 226.487Z" fill="#FBBEBE"/>
<path d="M273.717 187.375C270.812 192.439 268.539 197.839 266.948 203.455C266.56 204.813 266.214 206.246 266.51 207.621C266.831 209.095 267.836 210.307 268.594 211.607C269.353 212.907 269.886 214.552 269.199 215.894C265.947 216.148 262.725 215.26 259.583 214.382L249.729 211.632C248.912 211.475 248.147 211.12 247.499 210.599C246.357 209.52 246.444 207.708 246.665 206.158C248.595 193.469 254.793 181.772 257.115 169.154C257.453 167.334 257.807 165.317 259.257 164.155C263.426 160.864 272.862 163.651 275.021 168.417C277.435 173.707 276.447 182.622 273.717 187.375Z" fill="#61A199"/>
<path d="M220.968 144.01C220.597 144.201 220.18 144.426 220.068 144.818C220.043 145.031 220.065 145.247 220.132 145.451C220.2 145.655 220.312 145.841 220.459 145.997L224.665 151.912C228.812 157.744 232.968 163.614 237.766 168.933C241.387 172.947 245.354 176.635 249.62 179.956C250.821 180.889 252.1 181.86 252.688 183.264C250.067 175.506 250.532 167.038 253.988 159.615C255.364 156.699 257.181 153.995 258.611 151.096C258.746 150.936 258.837 150.745 258.876 150.54C258.915 150.335 258.901 150.124 258.834 149.926C258.768 149.728 258.651 149.551 258.496 149.411C258.341 149.272 258.152 149.175 257.948 149.129C254.305 147.255 250.32 146.122 246.694 144.214C243.847 142.714 241.275 140.765 238.72 138.844C236.44 137.132 233.406 134.108 230.592 133.387C227.554 132.604 227.675 135.374 226.695 137.686C225.569 140.388 223.546 142.621 220.968 144.01Z" fill="#FBBEBE"/>
<path opacity="0.1" d="M220.968 144.01C220.597 144.201 220.18 144.426 220.068 144.818C220.043 145.031 220.065 145.247 220.132 145.451C220.2 145.655 220.312 145.841 220.459 145.997L224.665 151.912C228.812 157.744 232.968 163.614 237.766 168.933C241.387 172.947 245.354 176.635 249.62 179.956C250.821 180.889 252.1 181.86 252.688 183.264C250.067 175.506 250.532 167.038 253.988 159.615C255.364 156.699 257.181 153.995 258.611 151.096C258.746 150.936 258.837 150.745 258.876 150.54C258.915 150.335 258.901 150.124 258.834 149.926C258.768 149.728 258.651 149.551 258.496 149.411C258.341 149.272 258.152 149.175 257.948 149.129C254.305 147.255 250.32 146.122 246.694 144.214C243.847 142.714 241.275 140.765 238.72 138.844C236.44 137.132 233.406 134.108 230.592 133.387C227.554 132.604 227.675 135.374 226.695 137.686C225.569 140.388 223.546 142.621 220.968 144.01Z" fill="black"/>
<path d="M246.756 167.584C244.851 165.434 242.28 164.014 240.025 162.231C236.782 159.665 234.218 156.357 231.742 153.045C227.199 146.951 222.618 139.486 224.882 132.217C222.477 131.983 220.401 133.958 219.267 136.087C218.133 138.215 217.55 140.64 216.137 142.593C213.99 145.564 210.339 146.947 206.938 148.305C199.461 151.295 192.238 154.882 185.338 159.031C182.566 160.698 179.807 162.485 177.689 164.926C175.422 167.53 174.001 170.758 172.075 173.612C168.323 179.223 162.621 183.434 156.294 185.817C154.21 186.609 151.976 187.225 150.113 188.483C146.12 191.178 144.456 196.552 145.403 201.276C146.349 206 149.571 210.024 153.443 212.882C157.315 215.74 161.725 217.427 166.194 219.093C169.939 220.468 173.709 221.779 177.502 223.026C180.293 223.991 183.146 224.765 186.042 225.342C191.374 226.321 196.855 226.079 202.244 226.675C207.171 227.216 212.01 228.462 216.958 228.808C221.906 229.153 227.145 228.495 231.176 225.617C234.381 223.33 236.515 219.876 238.487 216.452C243.605 207.623 248.176 198.488 252.175 189.1C253.355 186.321 264.3 170.583 261.574 168.55C247.848 158.315 252.404 174.578 251.095 173.328C249.345 171.654 248.34 169.371 246.756 167.584Z" fill="#61A199"/>
<path d="M229.754 158.169C226.807 152.245 224.815 145.905 222.835 139.598C222.289 137.849 221.739 135.957 222.327 134.224C223.035 132.141 225.303 130.363 224.636 128.276C219.334 129.942 213.177 132.554 212.131 138.015C211.902 139.207 211.944 140.477 211.389 141.552C210.31 143.66 207.559 144.11 205.22 144.468C198.418 145.555 191.657 148.296 186.997 153.366C186.213 154.199 185.476 155.145 184.496 155.77C183.787 156.187 183.034 156.522 182.249 156.769C177.689 158.406 173 160.448 170.066 164.301C168.553 166.284 167.586 168.662 165.898 170.504C163.613 173.003 160.25 174.253 157.778 176.582C156.111 178.131 154.923 180.097 153.822 182.085C149.587 189.733 146.482 198.702 148.729 207.154C149.9 211.574 152.48 215.51 153.868 219.868C155.781 225.804 155.594 232.573 159.183 237.676C161.446 240.884 164.947 243.004 168.532 244.604C176.508 248.15 185.271 249.56 193.958 248.695C197.179 248.32 200.379 247.781 203.545 247.078C211.102 245.52 218.738 243.825 225.603 240.301C237.311 234.29 245.735 223.546 253.78 213.132C255.309 211.149 256.852 209.149 257.948 206.883C259.019 204.721 259.665 202.38 260.386 200.081C262.825 192.328 266.255 184.609 265.934 176.494C265.947 175.522 265.755 174.559 265.371 173.666C265.046 172.999 264.538 172.416 264.25 171.745C263.742 170.545 263.971 169.158 263.612 167.904C262.616 164.405 258.015 163.739 254.372 163.768L253.204 184.301C253.025 187.383 252.696 190.803 250.399 192.87C249.417 193.714 248.19 194.224 246.898 194.325C245.606 194.427 244.315 194.114 243.213 193.432C240.762 191.845 240.416 189.075 240.433 186.421C240.458 183.088 240.187 180.035 239.124 176.84C236.924 170.212 232.847 164.397 229.754 158.169Z" fill="#192534"/>
<path d="M231.206 216.681C245.719 224.034 260.316 231.44 273.304 241.23C276.306 243.488 279.223 245.879 282.395 247.895C291.486 253.669 302.765 256.481 309.78 264.645C311.256 266.357 312.506 268.282 314.207 269.765C315.683 270.976 317.332 271.959 319.1 272.681C324.736 275.167 330.839 276.418 336.999 276.351C338.612 276.33 340.271 276.209 341.721 275.518C345.627 273.627 346.515 268.561 346.911 264.241C347.044 262.779 347.073 261.055 345.923 260.146C345.302 259.659 344.48 259.534 343.701 259.413C331.026 257.414 319.33 251.315 308.738 244.071C298.147 236.827 288.439 228.37 277.994 220.918C274.322 218.297 270.562 215.802 266.802 213.307L254.635 205.234C248.199 200.964 241.422 196.565 233.736 195.761C233.299 195.685 232.85 195.715 232.427 195.848C231.752 196.111 231.377 196.81 231.047 197.452C228.792 201.843 226.046 205.829 223.282 209.895C221.802 212.07 221.636 212.632 224.186 213.794C226.483 214.844 228.917 215.523 231.206 216.681Z" fill="#FBBEBE"/>
<path d="M259.724 338C259.89 338 260.049 337.934 260.166 337.817C260.283 337.7 260.349 337.541 260.349 337.375C260.349 337.209 260.283 337.05 260.166 336.933C260.049 336.816 259.89 336.75 259.724 336.75C259.558 336.75 259.399 336.816 259.282 336.933C259.165 337.05 259.099 337.209 259.099 337.375C259.099 337.541 259.165 337.7 259.282 337.817C259.399 337.934 259.558 338 259.724 338Z" fill="black"/>
<path d="M264.285 172.128C286.304 172.128 304.153 154.289 304.153 132.283C304.153 110.277 286.304 92.4377 264.285 92.4377C242.266 92.4377 224.416 110.277 224.416 132.283C224.416 154.289 242.266 172.128 264.285 172.128Z" fill="#FBBEBE"/>
<path d="M232.948 147.821C233.657 144.243 237.767 142.435 241.405 142.193C245.087 141.996 248.757 142.771 252.044 144.441C255.331 146.112 258.119 148.618 260.129 151.708C260.972 149.474 261.54 147.147 261.821 144.776L268.49 145.272C269.235 145.387 269.996 145.318 270.708 145.072C271.566 144.689 272.096 143.822 272.542 142.989C275.459 137.544 277.41 130.863 282.887 127.992V135.491C284.387 135.199 285.799 134.567 287.016 133.643C288.232 132.719 289.22 131.529 289.902 130.163C290.278 132.238 290.876 134.268 291.686 136.216C291.82 136.541 292.007 136.899 292.345 136.982C292.51 136.994 292.675 136.971 292.83 136.914C292.986 136.857 293.127 136.768 293.245 136.653C295.799 134.716 298.109 132.478 300.127 129.988L308.046 143.71C312.622 132.162 312.872 119.352 308.75 107.635C304.629 95.9177 296.413 86.0819 285.613 79.9364C283.782 78.8821 281.871 77.9726 279.899 77.2162C274.743 75.275 269.186 74.6543 263.688 74.2793C255.873 73.7461 247.624 73.767 240.763 77.512C237.075 79.524 234.011 82.49 231.052 85.4727C227.05 89.4968 223.049 93.75 220.919 99.0114C219.447 102.644 218.943 106.581 218.497 110.471C218.226 112.825 217.976 115.258 218.647 117.528C219.114 119.099 219.993 120.511 220.585 122.04C221.569 124.581 221.723 127.355 222.102 130.054C222.944 136.02 224.894 141.776 227.85 147.026C228.476 148.138 229.276 149.321 230.522 149.604C231.768 149.888 233.265 148.513 232.606 147.43" fill="#192534"/>
<path d="M232.948 147.821C233.657 144.243 237.767 142.435 241.405 142.193C245.088 141.996 248.757 142.771 252.044 144.441C255.331 146.112 258.119 148.618 260.129 151.708C260.972 149.474 261.54 147.147 261.821 144.776L268.49 145.272C269.235 145.387 269.996 145.318 270.708 145.072C271.566 144.689 272.096 143.822 272.542 142.989C275.459 137.544 277.41 130.863 282.887 127.992V135.491C284.387 135.199 285.799 134.567 287.016 133.643C288.232 132.719 289.22 131.529 289.902 130.163C290.278 132.238 290.876 134.268 291.686 136.216C291.82 136.541 292.007 136.899 292.345 136.982C292.51 136.994 292.675 136.971 292.83 136.914C292.986 136.857 293.127 136.768 293.245 136.653C295.799 134.716 298.109 132.478 300.127 129.988L308.046 143.71C312.622 132.162 312.872 119.352 308.75 107.635C304.629 95.9177 296.413 86.0819 285.613 79.9364C283.782 78.8821 281.871 77.9726 279.899 77.2162C274.743 75.275 269.186 74.6543 263.688 74.2793C255.873 73.7461 247.624 73.767 240.763 77.512C237.075 79.524 234.011 82.49 231.052 85.4727C227.05 89.4968 223.049 93.75 220.919 99.0114C219.447 102.644 218.943 106.581 218.497 110.471C218.226 112.825 217.976 115.258 218.647 117.528C219.114 119.099 219.993 120.511 220.585 122.04C221.569 124.581 221.723 127.355 222.102 130.054C222.944 136.02 224.894 141.776 227.85 147.026C228.476 148.138 229.276 149.321 230.522 149.604C231.768 149.888 233.265 148.513 232.606 147.43" stroke="black" stroke-miterlimit="10"/>
<path d="M187.19 186.063C188.799 190.483 192.842 193.482 196.677 196.215L206.68 203.347C209.34 205.242 212.07 207.208 213.8 209.974C211.27 210.932 210.115 214.182 210.944 216.756C211.774 219.331 214.154 221.176 216.747 222.009C219.339 222.842 222.09 222.813 224.795 222.659C227.901 222.488 231.152 222.113 233.715 220.351L228.084 216.885C226.6 215.965 224.895 214.498 225.437 212.844L231.377 212.786C232.002 212.786 232.681 212.757 233.178 212.37C233.674 211.982 233.844 211.386 234.053 210.82C234.936 208.529 236.444 206.531 238.405 205.053C240.366 203.574 242.702 202.675 245.149 202.455C246.616 202.347 248.304 202.409 249.317 201.318C249.975 200.593 250.117 199.552 250.234 198.581C250.455 196.731 250.671 194.832 250.305 193.02C249.938 191.208 248.879 189.408 247.178 188.646C245.928 188.079 244.482 188.133 243.114 187.95C236.825 187.117 232.465 181.418 229.089 176.048C225.712 170.679 222.09 164.738 216.071 162.739C214.192 162.177 212.243 161.878 210.282 161.852C205.943 161.672 201.474 162.027 197.523 163.826C190.158 167.18 184.322 178.198 187.19 186.063Z" fill="#61A199"/>
<path opacity="0.1" d="M308.084 136.295L300.164 122.573C298.148 125.064 295.837 127.302 293.282 129.238C293.165 129.355 293.024 129.445 292.869 129.503C292.713 129.56 292.547 129.584 292.382 129.571C292.044 129.488 291.857 129.13 291.724 128.805C290.914 126.855 290.316 124.825 289.94 122.748C289.258 124.115 288.27 125.306 287.054 126.231C285.837 127.156 284.425 127.788 282.924 128.08V120.582C277.447 123.46 275.513 130.142 272.579 135.578C272.133 136.411 271.604 137.265 270.745 137.661C270.033 137.908 269.272 137.976 268.528 137.861L261.858 137.365C261.577 139.736 261.009 142.064 260.166 144.297C258.157 141.207 255.368 138.701 252.081 137.03C248.794 135.36 245.125 134.585 241.443 134.783C237.804 135.024 233.694 136.832 232.985 140.411L232.631 140.019C233.302 141.106 231.797 142.481 230.547 142.198C229.297 141.914 228.5 140.731 227.875 139.619C224.926 134.363 222.985 128.603 222.152 122.635C221.773 119.936 221.619 117.162 220.635 114.62C220.043 113.092 219.164 111.679 218.697 110.109C218.697 110.055 218.668 110.005 218.655 109.951C218.618 110.263 218.58 110.576 218.547 110.888C218.276 113.246 218.026 115.674 218.697 117.97C219.164 119.54 220.043 120.952 220.635 122.477C221.619 125.022 221.773 127.793 222.152 130.496C222.984 136.463 224.925 142.222 227.875 147.476C228.5 148.588 229.301 149.775 230.547 150.058C231.793 150.342 233.29 148.967 232.631 147.88L232.985 148.267C233.694 144.693 237.804 142.881 241.443 142.643C245.125 142.444 248.794 143.218 252.081 144.888C255.368 146.557 258.157 149.064 260.166 152.154C261.01 149.922 261.578 147.595 261.858 145.226L268.528 145.718C269.272 145.834 270.034 145.766 270.745 145.518C271.604 145.135 272.133 144.268 272.579 143.435C275.497 137.986 277.447 131.308 282.924 128.438V135.937C284.425 135.645 285.837 135.012 287.054 134.088C288.27 133.163 289.258 131.971 289.94 130.604C290.316 132.681 290.914 134.712 291.724 136.661C291.857 136.982 292.044 137.345 292.382 137.424C292.547 137.438 292.713 137.415 292.869 137.359C293.024 137.302 293.165 137.212 293.282 137.095C295.837 135.159 298.148 132.921 300.164 130.429L308.084 144.151C310.94 136.87 312.115 129.038 311.522 121.24C311.139 126.402 309.98 131.478 308.084 136.295Z" fill="black"/>
</svg>
