<svg width="502" height="343" viewBox="0 0 502 343" fill="none" xmlns="http://www.w3.org/2000/svg">
<g clip-path="url(#clip0_114_156)">
<path d="M184.484 95.9753H246.752V82.5017C246.752 81.647 247.091 80.8272 247.696 80.2228C248.3 79.6184 249.119 79.2789 249.973 79.2789H268.258V64.9268C268.258 64.3887 268.472 63.8726 268.852 63.4922C269.233 63.1117 269.748 62.8979 270.286 62.8979H293.84C294.378 62.8979 294.894 63.1117 295.274 63.4922C295.654 63.8726 295.868 64.3887 295.868 64.9268V79.2837H317.364C318.219 79.2837 319.038 79.6233 319.642 80.2277C320.246 80.8321 320.586 81.6518 320.586 82.5066V95.9802H379.962C380.135 95.9815 380.3 96.0511 380.422 96.1738C380.544 96.2965 380.612 96.4625 380.612 96.6354V275.496C380.612 275.669 380.544 275.835 380.422 275.958C380.3 276.08 380.135 276.15 379.962 276.151H340.501C340.327 276.151 340.161 276.082 340.038 275.959C339.915 275.836 339.846 275.67 339.846 275.496V251.432C339.845 251.258 339.775 251.092 339.653 250.97C339.53 250.847 339.364 250.778 339.191 250.776H322.521C322.348 250.778 322.182 250.847 322.06 250.97C321.937 251.092 321.868 251.258 321.867 251.432V275.496C321.867 275.669 321.798 275.835 321.676 275.958C321.555 276.08 321.389 276.15 321.216 276.151H243.24C243.066 276.15 242.9 276.08 242.778 275.958C242.655 275.835 242.586 275.669 242.585 275.496V251.432C242.585 251.259 242.516 251.093 242.395 250.97C242.273 250.847 242.107 250.778 241.935 250.776H225.265C225.091 250.776 224.925 250.846 224.802 250.968C224.679 251.091 224.61 251.258 224.61 251.432V275.496C224.609 275.669 224.54 275.835 224.417 275.958C224.294 276.08 224.129 276.15 223.955 276.151H184.494C184.321 276.15 184.155 276.08 184.032 275.958C183.91 275.835 183.84 275.669 183.839 275.496V96.6306C183.84 96.4588 183.908 96.2943 184.029 96.172C184.149 96.0496 184.313 95.9791 184.484 95.9753ZM346.91 242.419C346.91 242.591 346.978 242.756 347.1 242.878C347.222 243 347.387 243.069 347.56 243.069H371.933C372.019 243.07 372.104 243.053 372.183 243.021C372.263 242.988 372.335 242.941 372.396 242.88C372.457 242.82 372.505 242.748 372.538 242.669C372.571 242.589 372.588 242.504 372.588 242.419V234.114C372.588 234.028 372.571 233.943 372.538 233.863C372.505 233.784 372.457 233.712 372.396 233.651C372.335 233.59 372.263 233.542 372.184 233.509C372.104 233.476 372.019 233.459 371.933 233.459H347.545C347.372 233.46 347.207 233.53 347.085 233.652C346.963 233.775 346.895 233.941 346.895 234.114L346.91 242.419ZM346.91 220.898C346.909 220.983 346.925 221.069 346.958 221.148C346.99 221.227 347.038 221.3 347.098 221.361C347.159 221.422 347.231 221.47 347.31 221.503C347.389 221.536 347.474 221.553 347.56 221.553H371.933C372.019 221.554 372.105 221.537 372.185 221.504C372.264 221.472 372.337 221.423 372.398 221.362C372.459 221.301 372.507 221.229 372.54 221.149C372.572 221.069 372.589 220.984 372.588 220.898V212.574C372.589 212.487 372.572 212.402 372.54 212.322C372.507 212.242 372.459 212.17 372.398 212.109C372.337 212.048 372.264 212 372.185 211.967C372.105 211.934 372.019 211.918 371.933 211.918H347.545C347.459 211.918 347.374 211.935 347.295 211.968C347.216 212.001 347.144 212.05 347.084 212.111C347.023 212.172 346.975 212.244 346.943 212.323C346.911 212.403 346.894 212.488 346.895 212.574L346.91 220.898ZM346.91 199.382C346.91 199.555 346.978 199.72 347.1 199.843C347.221 199.966 347.387 200.036 347.56 200.037H371.933C372.019 200.037 372.104 200.02 372.184 199.987C372.263 199.954 372.335 199.906 372.396 199.845C372.457 199.784 372.505 199.712 372.538 199.632C372.571 199.553 372.588 199.468 372.588 199.382V191.053C372.588 190.967 372.571 190.882 372.538 190.802C372.505 190.723 372.457 190.65 372.396 190.589C372.335 190.529 372.263 190.48 372.184 190.447C372.104 190.414 372.019 190.398 371.933 190.398H347.545C347.372 190.399 347.207 190.468 347.085 190.591C346.963 190.714 346.895 190.88 346.895 191.053L346.91 199.382ZM346.91 177.861C346.909 177.946 346.925 178.032 346.958 178.111C346.99 178.19 347.038 178.263 347.098 178.324C347.159 178.385 347.231 178.433 347.31 178.466C347.389 178.499 347.474 178.516 347.56 178.516H371.933C372.019 178.517 372.105 178.5 372.185 178.467C372.264 178.435 372.337 178.386 372.398 178.325C372.459 178.264 372.507 178.192 372.54 178.112C372.572 178.032 372.589 177.947 372.588 177.861V169.561C372.589 169.475 372.572 169.389 372.54 169.309C372.507 169.23 372.459 169.157 372.398 169.096C372.337 169.035 372.264 168.987 372.185 168.954C372.105 168.922 372.019 168.905 371.933 168.906H347.545C347.459 168.906 347.374 168.923 347.295 168.956C347.216 168.989 347.144 169.037 347.084 169.098C347.023 169.159 346.975 169.231 346.943 169.311C346.911 169.39 346.894 169.475 346.895 169.561L346.91 177.861ZM346.91 156.345C346.91 156.518 346.978 156.683 347.1 156.806C347.221 156.929 347.387 156.999 347.56 157H371.933C372.019 157 372.104 156.983 372.184 156.95C372.263 156.917 372.335 156.869 372.396 156.808C372.457 156.747 372.505 156.675 372.538 156.595C372.571 156.516 372.588 156.431 372.588 156.345V148.016C372.588 147.93 372.571 147.845 372.538 147.766C372.505 147.687 372.457 147.615 372.396 147.554C372.335 147.494 372.263 147.446 372.183 147.413C372.104 147.381 372.019 147.365 371.933 147.365H347.545C347.373 147.365 347.207 147.434 347.085 147.556C346.963 147.678 346.895 147.843 346.895 148.016L346.91 156.345ZM346.91 134.828C346.91 135.001 346.978 135.166 347.1 135.288C347.222 135.41 347.387 135.479 347.56 135.479H371.933C372.019 135.48 372.104 135.463 372.183 135.431C372.263 135.398 372.335 135.351 372.396 135.29C372.457 135.23 372.505 135.158 372.538 135.079C372.571 134.999 372.588 134.914 372.588 134.828V126.5C372.588 126.414 372.571 126.328 372.538 126.249C372.505 126.169 372.457 126.097 372.396 126.036C372.335 125.976 372.263 125.927 372.184 125.894C372.104 125.861 372.019 125.844 371.933 125.844H347.545C347.372 125.846 347.207 125.915 347.085 126.038C346.963 126.161 346.895 126.327 346.895 126.5L346.91 134.828ZM346.91 113.308C346.909 113.393 346.925 113.478 346.958 113.558C346.99 113.637 347.038 113.71 347.098 113.771C347.159 113.832 347.231 113.88 347.31 113.913C347.389 113.946 347.474 113.963 347.56 113.963H371.933C372.019 113.963 372.105 113.947 372.185 113.914C372.264 113.882 372.337 113.833 372.398 113.772C372.459 113.711 372.507 113.639 372.54 113.559C372.572 113.479 372.589 113.394 372.588 113.308V105.008C372.589 104.922 372.572 104.836 372.54 104.756C372.507 104.677 372.459 104.604 372.398 104.543C372.337 104.482 372.264 104.434 372.185 104.401C372.105 104.369 372.019 104.352 371.933 104.353H347.545C347.459 104.353 347.374 104.37 347.295 104.403C347.216 104.436 347.144 104.484 347.084 104.545C347.023 104.606 346.975 104.678 346.943 104.758C346.911 104.837 346.894 104.922 346.895 105.008L346.91 113.308ZM289.124 242.414C289.124 242.5 289.141 242.584 289.174 242.664C289.207 242.743 289.256 242.815 289.316 242.875C289.377 242.936 289.45 242.984 289.529 243.016C289.608 243.048 289.693 243.065 289.779 243.064H314.153C314.326 243.064 314.491 242.996 314.614 242.874C314.737 242.752 314.806 242.587 314.808 242.414V234.114C314.806 233.941 314.737 233.775 314.614 233.652C314.492 233.529 314.326 233.46 314.153 233.459H289.779C289.693 233.459 289.608 233.476 289.529 233.509C289.449 233.542 289.377 233.59 289.316 233.651C289.255 233.712 289.207 233.784 289.174 233.863C289.141 233.943 289.124 234.028 289.124 234.114V242.414ZM289.124 220.893C289.124 220.979 289.14 221.064 289.173 221.144C289.206 221.224 289.254 221.297 289.315 221.358C289.376 221.419 289.448 221.467 289.528 221.499C289.608 221.532 289.693 221.549 289.779 221.548H314.153C314.326 221.548 314.493 221.479 314.616 221.356C314.739 221.233 314.808 221.067 314.808 220.893V212.574C314.808 212.4 314.739 212.233 314.616 212.11C314.493 211.987 314.326 211.918 314.153 211.918H289.779C289.693 211.918 289.608 211.934 289.528 211.967C289.448 212 289.376 212.048 289.315 212.109C289.254 212.17 289.206 212.242 289.173 212.322C289.14 212.402 289.124 212.487 289.124 212.574V220.893ZM289.124 199.377C289.124 199.463 289.141 199.548 289.174 199.627C289.207 199.707 289.255 199.779 289.316 199.84C289.377 199.901 289.449 199.949 289.529 199.982C289.608 200.015 289.693 200.032 289.779 200.032H314.153C314.326 200.031 314.492 199.961 314.614 199.839C314.737 199.716 314.806 199.55 314.808 199.377V191.053C314.806 190.879 314.737 190.713 314.614 190.591C314.492 190.468 314.326 190.399 314.153 190.398H289.779C289.693 190.398 289.608 190.414 289.529 190.447C289.449 190.48 289.377 190.529 289.316 190.589C289.255 190.65 289.207 190.723 289.174 190.802C289.141 190.882 289.124 190.967 289.124 191.053V199.377ZM289.124 177.856C289.124 177.942 289.14 178.027 289.173 178.107C289.206 178.187 289.254 178.26 289.315 178.321C289.376 178.382 289.448 178.43 289.528 178.462C289.608 178.495 289.693 178.512 289.779 178.511H314.153C314.326 178.511 314.493 178.442 314.616 178.319C314.739 178.196 314.808 178.03 314.808 177.856V169.561C314.808 169.387 314.739 169.221 314.616 169.098C314.493 168.975 314.326 168.906 314.153 168.906H289.779C289.693 168.905 289.608 168.922 289.528 168.954C289.448 168.987 289.376 169.035 289.315 169.096C289.254 169.157 289.206 169.23 289.173 169.309C289.14 169.389 289.124 169.475 289.124 169.561V177.856ZM289.124 156.34C289.124 156.426 289.141 156.511 289.174 156.59C289.207 156.67 289.255 156.742 289.316 156.803C289.377 156.864 289.449 156.912 289.529 156.945C289.608 156.978 289.693 156.995 289.779 156.995H314.153C314.326 156.994 314.492 156.924 314.614 156.802C314.737 156.679 314.806 156.513 314.808 156.34V148.016C314.806 147.843 314.737 147.677 314.614 147.556C314.491 147.434 314.326 147.365 314.153 147.365H289.779C289.693 147.365 289.608 147.381 289.529 147.413C289.45 147.446 289.377 147.494 289.316 147.554C289.256 147.615 289.207 147.687 289.174 147.766C289.141 147.845 289.124 147.93 289.124 148.016V156.34ZM289.124 134.824C289.124 134.909 289.141 134.994 289.174 135.074C289.207 135.153 289.256 135.225 289.316 135.285C289.377 135.346 289.45 135.394 289.529 135.426C289.608 135.458 289.693 135.475 289.779 135.474H314.153C314.326 135.474 314.491 135.406 314.614 135.284C314.737 135.162 314.806 134.997 314.808 134.824V126.5C314.806 126.326 314.737 126.16 314.614 126.038C314.492 125.915 314.326 125.846 314.153 125.844H289.779C289.693 125.844 289.608 125.861 289.529 125.894C289.449 125.927 289.377 125.976 289.316 126.036C289.255 126.097 289.207 126.169 289.174 126.249C289.141 126.328 289.124 126.414 289.124 126.5V134.824ZM289.124 113.303C289.124 113.389 289.14 113.474 289.173 113.554C289.206 113.634 289.254 113.707 289.315 113.767C289.376 113.828 289.448 113.877 289.528 113.909C289.608 113.942 289.693 113.959 289.779 113.958H314.153C314.326 113.958 314.493 113.889 314.616 113.766C314.739 113.643 314.808 113.477 314.808 113.303V105.008C314.808 104.834 314.739 104.667 314.616 104.545C314.493 104.422 314.326 104.353 314.153 104.353H289.779C289.693 104.352 289.608 104.369 289.528 104.401C289.448 104.434 289.376 104.482 289.315 104.543C289.254 104.604 289.206 104.677 289.173 104.756C289.14 104.836 289.124 104.922 289.124 105.008V113.303ZM249.639 242.409C249.639 242.495 249.656 242.58 249.689 242.659C249.722 242.738 249.77 242.81 249.831 242.87C249.892 242.931 249.964 242.979 250.043 243.011C250.123 243.044 250.208 243.06 250.294 243.059H274.667C274.84 243.059 275.006 242.991 275.129 242.869C275.251 242.747 275.321 242.582 275.322 242.409V234.114C275.321 233.941 275.251 233.775 275.129 233.652C275.006 233.529 274.84 233.46 274.667 233.459H250.294C250.12 233.459 249.953 233.528 249.83 233.651C249.708 233.774 249.639 233.94 249.639 234.114V242.409ZM249.639 220.888C249.638 220.974 249.655 221.06 249.687 221.139C249.72 221.219 249.768 221.292 249.829 221.353C249.89 221.414 249.962 221.462 250.042 221.495C250.122 221.527 250.207 221.544 250.294 221.543H274.667C274.841 221.543 275.007 221.474 275.13 221.351C275.253 221.228 275.322 221.062 275.322 220.888V212.574C275.322 212.4 275.253 212.233 275.13 212.11C275.007 211.987 274.841 211.918 274.667 211.918H250.294C250.207 211.918 250.122 211.934 250.042 211.967C249.962 212 249.89 212.048 249.829 212.109C249.768 212.17 249.72 212.242 249.687 212.322C249.655 212.402 249.638 212.487 249.639 212.574V220.888ZM249.639 199.372C249.639 199.546 249.708 199.712 249.83 199.835C249.953 199.958 250.12 200.027 250.294 200.027H274.667C274.84 200.026 275.006 199.956 275.129 199.834C275.251 199.711 275.321 199.545 275.322 199.372V191.053C275.321 190.879 275.251 190.713 275.129 190.591C275.006 190.468 274.84 190.399 274.667 190.398H250.294C250.12 190.398 249.953 190.467 249.83 190.589C249.708 190.712 249.639 190.879 249.639 191.053V199.372ZM249.639 177.851C249.638 177.937 249.655 178.023 249.687 178.102C249.72 178.182 249.768 178.255 249.829 178.316C249.89 178.377 249.962 178.425 250.042 178.458C250.122 178.49 250.207 178.507 250.294 178.506H274.667C274.841 178.506 275.007 178.437 275.13 178.314C275.253 178.191 275.322 178.025 275.322 177.851V169.561C275.322 169.387 275.253 169.221 275.13 169.098C275.007 168.975 274.841 168.906 274.667 168.906H250.294C250.207 168.905 250.122 168.922 250.042 168.954C249.962 168.987 249.89 169.035 249.829 169.096C249.768 169.157 249.72 169.23 249.687 169.309C249.655 169.389 249.638 169.475 249.639 169.561V177.851ZM249.639 156.335C249.639 156.509 249.708 156.675 249.83 156.798C249.953 156.921 250.12 156.99 250.294 156.99H274.667C274.84 156.989 275.006 156.919 275.129 156.797C275.251 156.674 275.321 156.508 275.322 156.335V148.016C275.321 147.843 275.251 147.677 275.129 147.556C275.006 147.434 274.84 147.365 274.667 147.365H250.294C250.208 147.365 250.123 147.381 250.043 147.413C249.964 147.446 249.892 147.494 249.831 147.554C249.77 147.615 249.722 147.687 249.689 147.766C249.656 147.845 249.639 147.93 249.639 148.016V156.335ZM249.639 134.819C249.639 134.905 249.656 134.99 249.689 135.069C249.722 135.148 249.77 135.22 249.831 135.28C249.892 135.341 249.964 135.389 250.043 135.421C250.123 135.453 250.208 135.47 250.294 135.469H274.667C274.84 135.469 275.006 135.401 275.129 135.279C275.251 135.157 275.321 134.992 275.322 134.819V126.5C275.321 126.326 275.251 126.16 275.129 126.038C275.006 125.915 274.84 125.846 274.667 125.844H250.294C250.12 125.844 249.953 125.913 249.83 126.036C249.708 126.159 249.639 126.326 249.639 126.5V134.819ZM249.639 113.298C249.638 113.384 249.655 113.47 249.687 113.549C249.72 113.629 249.768 113.702 249.829 113.763C249.89 113.824 249.962 113.872 250.042 113.905C250.122 113.937 250.207 113.954 250.294 113.953H274.667C274.841 113.953 275.007 113.884 275.13 113.761C275.253 113.638 275.322 113.472 275.322 113.298V105.008C275.322 104.834 275.253 104.667 275.13 104.545C275.007 104.422 274.841 104.353 274.667 104.353H250.294C250.207 104.352 250.122 104.369 250.042 104.401C249.962 104.434 249.89 104.482 249.829 104.543C249.768 104.604 249.72 104.677 249.687 104.756C249.655 104.836 249.638 104.922 249.639 105.008V113.298ZM191.853 242.404C191.855 242.577 191.924 242.742 192.047 242.864C192.17 242.986 192.336 243.054 192.508 243.054H216.882C216.968 243.055 217.053 243.039 217.132 243.006C217.212 242.974 217.284 242.926 217.345 242.866C217.406 242.805 217.454 242.733 217.487 242.654C217.52 242.575 217.537 242.49 217.537 242.404V234.114C217.537 233.94 217.468 233.774 217.345 233.651C217.222 233.528 217.056 233.459 216.882 233.459H192.508C192.335 233.46 192.169 233.529 192.047 233.652C191.924 233.775 191.855 233.941 191.853 234.114V242.404ZM191.853 220.883C191.853 221.057 191.922 221.224 192.045 221.346C192.168 221.469 192.335 221.538 192.508 221.538H216.882C216.968 221.539 217.054 221.522 217.133 221.49C217.213 221.457 217.286 221.409 217.346 221.348C217.407 221.287 217.456 221.214 217.488 221.135C217.521 221.055 217.538 220.969 217.537 220.883V212.574C217.538 212.487 217.521 212.402 217.488 212.322C217.456 212.242 217.407 212.17 217.346 212.109C217.286 212.048 217.213 212 217.133 211.967C217.054 211.934 216.968 211.918 216.882 211.918H192.508C192.335 211.918 192.168 211.987 192.045 212.11C191.922 212.233 191.853 212.4 191.853 212.574V220.883ZM191.853 199.367C191.855 199.54 191.924 199.706 192.047 199.829C192.169 199.952 192.335 200.021 192.508 200.022H216.882C217.056 200.022 217.222 199.953 217.345 199.83C217.468 199.707 217.537 199.541 217.537 199.367V191.053C217.537 190.879 217.468 190.712 217.345 190.589C217.222 190.467 217.056 190.398 216.882 190.398H192.508C192.335 190.399 192.169 190.468 192.047 190.591C191.924 190.713 191.855 190.879 191.853 191.053V199.367ZM191.853 177.846C191.853 178.02 191.922 178.187 192.045 178.309C192.168 178.432 192.335 178.501 192.508 178.501H216.882C217.052 178.5 217.214 178.432 217.335 178.313C217.456 178.193 217.525 178.031 217.527 177.861V169.561C217.528 169.475 217.511 169.389 217.479 169.309C217.446 169.23 217.398 169.157 217.337 169.096C217.276 169.035 217.203 168.987 217.124 168.954C217.044 168.922 216.958 168.905 216.872 168.906H192.499C192.325 168.906 192.158 168.975 192.036 169.098C191.913 169.221 191.844 169.387 191.844 169.561L191.853 177.846ZM191.853 156.33C191.855 156.503 191.924 156.669 192.047 156.792C192.169 156.915 192.335 156.984 192.508 156.985H216.882C217.056 156.985 217.222 156.916 217.345 156.793C217.468 156.67 217.537 156.504 217.537 156.33V148.016C217.537 147.93 217.52 147.845 217.487 147.766C217.454 147.687 217.406 147.615 217.345 147.554C217.284 147.494 217.212 147.446 217.132 147.413C217.053 147.381 216.968 147.365 216.882 147.365H192.508C192.336 147.365 192.17 147.434 192.047 147.556C191.924 147.677 191.855 147.843 191.853 148.016V156.33ZM191.853 134.814C191.855 134.987 191.924 135.152 192.047 135.274C192.17 135.396 192.336 135.464 192.508 135.464H216.882C216.968 135.465 217.053 135.449 217.132 135.416C217.212 135.384 217.284 135.336 217.345 135.276C217.406 135.215 217.454 135.143 217.487 135.064C217.52 134.985 217.537 134.9 217.537 134.814V126.5C217.537 126.326 217.468 126.159 217.345 126.036C217.222 125.913 217.056 125.844 216.882 125.844H192.508C192.335 125.846 192.169 125.915 192.047 126.038C191.924 126.16 191.855 126.326 191.853 126.5V134.814ZM191.853 113.293C191.853 113.379 191.87 113.464 191.903 113.544C191.936 113.623 191.984 113.695 192.045 113.756C192.106 113.817 192.178 113.865 192.258 113.898C192.337 113.931 192.422 113.948 192.508 113.948H216.882C217.052 113.947 217.214 113.879 217.335 113.76C217.456 113.64 217.525 113.478 217.527 113.308V105.008C217.528 104.922 217.511 104.836 217.479 104.756C217.446 104.677 217.398 104.604 217.337 104.543C217.276 104.482 217.203 104.434 217.124 104.401C217.044 104.369 216.958 104.352 216.872 104.353H192.499C192.325 104.353 192.158 104.422 192.036 104.545C191.913 104.667 191.844 104.834 191.844 105.008L191.853 113.293Z" fill="#F2F2F2"/>
<path d="M372.394 21.4724L379.924 26.2483L375.354 17.9292C376.648 16.8963 378.249 16.3241 379.904 16.3033H380.026C380.549 16.3111 381.072 16.2721 381.588 16.1868L384.14 17.803L383.048 15.813C384.858 15.1818 386.421 13.9922 387.511 12.4155L392.077 15.3277L389.195 10.0809C391.863 6.87269 395.463 4.90698 399.426 4.90698C404.176 4.90698 408.406 7.73179 411.138 12.134C411.945 13.4558 413.09 14.539 414.454 15.2725C415.818 16.006 417.352 16.3634 418.9 16.3081H419.152C424.397 16.3081 428.646 22.2586 428.646 29.5925C428.646 36.9263 424.377 42.8817 419.133 42.8817C417.981 42.8757 416.847 42.5909 415.829 42.0517C414.044 41.1829 412.092 40.7129 410.107 40.6743C408.123 40.6358 406.153 41.0296 404.336 41.8284C402.799 42.5163 401.134 42.8718 399.451 42.8718C397.767 42.8718 396.102 42.5163 394.565 41.8284C392.763 41.0462 390.813 40.6613 388.848 40.6999C386.883 40.7384 384.95 41.1994 383.179 42.0517C382.17 42.5864 381.047 42.871 379.904 42.8817C374.66 42.8817 370.41 36.9311 370.41 29.5925C370.379 26.7619 371.061 23.9692 372.394 21.4724Z" fill="#F2F2F2"/>
<path opacity="0.03" d="M386.585 40.9111C389.324 40.3893 392.157 40.6968 394.72 41.7945C396.257 42.4807 397.921 42.8354 399.603 42.8354C401.286 42.8354 402.95 42.4807 404.486 41.7945C406.304 40.9979 408.273 40.6053 410.257 40.6438C412.242 40.6824 414.194 41.1511 415.979 42.0177C416.998 42.5597 418.134 42.8446 419.288 42.8477C423.945 42.8477 427.822 38.1543 428.627 31.9611C427.696 31.281 426.905 30.4273 426.298 29.4469C423.567 25.0447 419.336 22.2198 414.587 22.2198C409.837 22.2198 405.66 25.0107 402.944 29.3692C402.13 30.6856 400.99 31.769 399.634 32.514C398.278 33.2591 396.752 33.6404 395.206 33.621H395.084C391.358 33.5967 388.147 36.572 386.585 40.9111Z" fill="black"/>
<path d="M107.032 8.2657L110.797 10.6488L108.517 6.49899C109.162 5.98423 109.961 5.69907 110.787 5.68844H110.845C111.107 5.69357 111.368 5.67407 111.626 5.63019L112.897 6.44074L112.354 5.47002C113.255 5.154 114.034 4.56324 114.581 3.78097L116.856 5.23705L115.401 2.62095C116.001 1.83137 116.771 1.18621 117.653 0.732715C118.536 0.27922 119.508 0.0288733 120.5 0C122.867 0 124.977 1.4124 126.321 3.60623C126.726 4.26625 127.298 4.80687 127.98 5.17274C128.662 5.53861 129.429 5.71658 130.202 5.68844H130.328C132.943 5.68844 135.063 8.65399 135.063 12.3136C135.063 15.9732 132.943 18.9388 130.328 18.9388C129.753 18.9369 129.187 18.7954 128.679 18.5262C127.789 18.0936 126.816 17.8595 125.827 17.8403C124.837 17.821 123.856 18.0169 122.949 18.4146C122.182 18.7571 121.352 18.9341 120.512 18.9341C119.672 18.9341 118.841 18.7571 118.074 18.4146C117.174 18.0252 116.201 17.8336 115.221 17.8529C114.241 17.8721 113.277 18.1018 112.393 18.5262C111.89 18.7895 111.331 18.9277 110.763 18.9291C108.148 18.9291 106.028 15.9635 106.028 12.3039C106.02 10.8951 106.365 9.50675 107.032 8.2657Z" fill="#F2F2F2"/>
<path opacity="0.03" d="M114.11 17.9584C115.478 17.7012 116.891 17.8548 118.171 18.4001C118.934 18.7399 119.761 18.9152 120.597 18.9145C121.433 18.9102 122.259 18.7317 123.022 18.3903C123.929 17.9926 124.912 17.7966 125.902 17.8159C126.892 17.8351 127.866 18.0692 128.757 18.502C129.265 18.7716 129.831 18.9133 130.406 18.9145C132.73 18.9145 134.661 16.5751 135.063 13.4833C134.599 13.1443 134.204 12.7192 133.899 12.2311C132.541 10.0373 130.43 8.62488 128.077 8.62488C125.724 8.62488 123.624 10.0179 122.256 12.1923C121.848 12.852 121.276 13.3944 120.596 13.7662C119.915 14.1381 119.15 14.3266 118.375 14.3133H118.312C116.492 14.3133 114.891 15.7985 114.11 17.9584Z" fill="black"/>
<path d="M201.299 51.9142L205.714 54.7148L203.036 49.8611C203.793 49.2492 204.732 48.9076 205.705 48.8904H205.777C206.084 48.8947 206.391 48.872 206.694 48.8225L208.188 49.7932L207.548 48.6235C208.608 48.2539 209.525 47.5593 210.168 46.6383L212.846 48.3371L211.153 45.2599C211.865 44.3395 212.773 43.5893 213.811 43.0637C214.849 42.5382 215.991 42.2505 217.154 42.2216C219.939 42.2216 222.422 43.8815 224.023 46.4636C224.499 47.2331 225.169 47.8629 225.967 48.2891C226.765 48.7153 227.661 48.9228 228.564 48.8904H228.715C231.791 48.8904 234.279 52.3802 234.279 56.6562C234.279 60.9322 231.791 64.4462 228.715 64.4462C228.038 64.4451 227.372 64.2784 226.774 63.9609C225.727 63.4521 224.583 63.1768 223.419 63.1542C222.256 63.1316 221.101 63.3621 220.036 63.8298C219.134 64.2314 218.158 64.4389 217.171 64.4389C216.184 64.4389 215.208 64.2314 214.306 63.8298C213.248 63.3715 212.104 63.146 210.952 63.1686C209.799 63.1912 208.665 63.4614 207.626 63.9609C207.027 64.2763 206.362 64.4427 205.685 64.4462C202.609 64.4462 200.116 60.9614 200.116 56.6562C200.108 55.0014 200.515 53.3711 201.299 51.9142Z" fill="#F2F2F2"/>
<path opacity="0.03" d="M209.62 63.3154C211.227 63.011 212.889 63.1917 214.393 63.8347C215.295 64.2363 216.271 64.4439 217.258 64.4439C218.245 64.4439 219.221 64.2363 220.123 63.8347C221.189 63.367 222.343 63.1365 223.507 63.1591C224.67 63.1817 225.815 63.457 226.861 63.9658C227.459 64.2828 228.125 64.4494 228.802 64.4512C231.533 64.4512 233.809 61.6992 234.279 58.0686C233.735 57.6755 233.273 57.1811 232.916 56.6126C231.315 54.0304 228.831 52.3754 226.046 52.3754C223.262 52.3754 220.807 54.011 219.206 56.564C218.73 57.3366 218.062 57.9725 217.267 58.4097C216.472 58.8469 215.577 59.0706 214.67 59.0588H214.617C212.424 59.0248 210.536 60.7721 209.62 63.3154Z" fill="black"/>
<path d="M42.4498 276.268C42.4498 277.102 42.4498 277.937 42.5032 278.762C42.6273 281.974 43.0134 285.17 43.6578 288.319C46.8452 303.904 56.0483 316.019 67.6093 319.596C69.9088 320.312 72.3033 320.677 74.7117 320.678C92.531 320.678 106.974 300.778 106.974 276.268C106.974 251.757 92.531 231.857 74.7117 231.857C57.9986 231.857 44.2497 249.359 42.6148 271.778C42.5032 273.254 42.4498 274.753 42.4498 276.268Z" fill="#36334A"/>
<path opacity="0.1" d="M42.5037 278.767C42.6278 281.979 43.0139 285.175 43.6583 288.324C46.8457 303.909 56.0488 316.024 67.6097 319.601C76.5606 315.48 83.2021 300.036 83.2021 281.612C83.2021 260.032 74.0815 242.54 62.8262 242.54C53.3806 242.54 45.434 254.878 43.1295 271.618C42.8093 273.914 42.6007 276.311 42.5037 278.767Z" fill="black"/>
<path d="M204.487 177.982C204.487 177.982 117.162 160.024 71.0734 176.526C71.0734 176.526 64.2815 179.923 71.0734 185.748C71.0734 185.748 64.6502 192.543 75.8666 194.97L120.427 197.712L204.487 189.145V177.982Z" fill="#3F3D56"/>
<path opacity="0.1" d="M189.205 180.239C189.205 180.239 114.44 164.863 74.9785 178.992C74.9785 178.992 69.1568 181.904 74.9785 186.888C74.9785 186.888 69.4819 192.713 79.0828 194.785L117.234 197.129L189.205 189.805V180.239Z" fill="black"/>
<path d="M104.063 207.104L109.884 195.455C109.884 195.455 107.333 183.671 128.077 180.205C129.227 175.065 134.437 171.187 140.691 171.187C146.794 171.187 151.898 174.876 153.217 179.826C156.196 180.084 159.369 180.433 162.765 180.894L167.51 206.347L168.101 205.162C168.101 205.162 165.089 191.242 192.242 189.208C190.762 187.414 189.946 185.163 189.933 182.836C189.933 176.667 195.691 171.672 202.789 171.672C209.887 171.672 215.645 176.667 215.645 182.836C215.627 185.37 214.665 187.806 212.948 189.67C215.487 189.912 218.165 190.223 220.982 190.601L226.318 219.238L201.576 222.635L162.28 216.811L165.758 209.846L143.359 212.923L104.063 207.104Z" fill="#61A199"/>
<path opacity="0.2" d="M104.063 207.104L109.884 195.455C109.884 195.455 107.333 183.671 128.077 180.205C129.227 175.065 134.437 171.187 140.691 171.187C146.794 171.187 151.898 174.876 153.217 179.826C156.196 180.084 159.369 180.433 162.765 180.894L167.51 206.347L168.101 205.162C168.101 205.162 165.089 191.242 192.242 189.208C190.762 187.414 189.946 185.163 189.933 182.836C189.933 176.667 195.691 171.672 202.789 171.672C209.887 171.672 215.645 176.667 215.645 182.836C215.627 185.37 214.665 187.806 212.948 189.67C215.487 189.912 218.165 190.223 220.982 190.601L226.318 219.238L201.576 222.635L162.28 216.811L165.758 209.846L143.359 212.923L104.063 207.104Z" fill="black"/>
<path d="M187.516 181.321C187.516 181.321 191.398 159.538 173.447 159.053C155.497 158.568 161.319 190.601 161.319 190.601C161.319 190.601 147.735 193.514 146.765 198.853C145.794 204.192 193.823 205.648 193.823 205.648L187.516 181.321Z" fill="#61A199"/>
<path d="M219.041 296.41C219.041 322.134 238.155 343.005 261.733 343.005C285.311 343.005 304.426 322.134 304.426 296.41C304.426 270.686 285.073 245.69 261.491 245.69C237.908 245.69 219.041 270.676 219.041 296.41Z" fill="#36334A"/>
<path opacity="0.1" d="M261.733 337.661C242.978 337.661 227.774 320.062 227.774 298.352C227.774 276.642 242.978 259.042 261.733 259.042C280.489 259.042 295.693 276.642 295.693 298.352C295.693 320.062 280.489 337.661 261.733 337.661Z" fill="black"/>
<path d="M449.483 338.632C425.905 338.632 406.791 317.771 406.791 292.037C406.791 266.303 425.905 245.442 449.483 245.442C473.062 245.442 492.176 266.303 492.176 292.037C492.176 317.771 473.062 338.632 449.483 338.632Z" fill="#36334A"/>
<path d="M376.712 180.894C376.712 180.894 396.603 181.865 395.633 192.543C394.662 203.221 378.653 195.455 378.653 195.455L376.712 180.894Z" fill="#36334A"/>
<path d="M211.221 198.683L203.032 144.007C203.032 144.007 201.091 137.212 227.289 137.212C227.289 137.212 311.218 131.873 332.565 140.609C332.565 140.609 357.307 149.831 391.752 197.396C391.752 197.396 214.617 201.595 211.221 198.683Z" fill="#3F3D56"/>
<path d="M214.19 141.58L229.229 201.279L238.66 201.051L283.293 199.964L382.84 197.537C383.116 192.82 335.975 144.007 335.975 144.007L214.19 141.58Z" fill="#36334A"/>
<path opacity="0.2" d="M283.279 199.964L279.214 184.238C279.214 184.238 283.095 162.451 265.145 161.965C247.194 161.48 253.016 193.514 253.016 193.514C253.016 193.514 240.645 196.169 238.675 201.051L283.279 199.964Z" fill="#61A199"/>
<path d="M42.2073 272.87C45.1181 244.719 63.3109 238.652 63.3109 238.652C80.776 237.681 92.4194 304.176 92.4194 304.176L226.804 316.31C226.804 316.31 222.195 259.765 254.699 250.544C287.204 241.322 295.694 307.573 297.149 316.795C298.604 326.017 493.146 315.825 498.483 311.942C503.819 308.059 501.879 270.686 500.423 267.774C498.968 264.862 495.087 251.757 495.087 251.757C495.087 248.631 493.593 244.68 492.351 241.938C491.477 239.997 490.72 238.652 490.72 238.652C486.505 214.734 464.615 208.943 463.145 208.56H463.067C457.246 202.735 403.395 198.853 403.395 198.853L383.019 194.97L217.358 198.226L210.309 198.367L126.088 194.314L69.1326 191.572C56.0338 191.572 49.2419 224.577 49.2419 224.577C37.1133 253.698 42.2073 272.87 42.2073 272.87Z" fill="#3F3D56"/>
<path opacity="0.1" d="M315.319 244.285C302.523 239.134 294.763 228.46 297.987 220.445C301.211 212.43 314.197 210.109 326.994 215.261C339.79 220.412 347.55 231.086 344.326 239.101C341.102 247.116 328.115 249.437 315.319 244.285Z" fill="black"/>
<path d="M316.289 242.342C303.493 237.19 295.733 226.517 298.957 218.502C302.18 210.487 315.167 208.166 327.963 213.317C340.759 218.469 348.519 229.142 345.296 237.157C342.072 245.172 329.085 247.494 316.289 242.342Z" fill="#F2F2F2"/>
<path opacity="0.1" d="M462.174 209.55C462.422 214.889 464.814 221.626 469.117 228.115C476.04 238.56 485.534 244.709 491.38 242.909C490.507 240.967 489.75 239.623 489.75 239.623C485.534 215.704 463.644 209.914 462.174 209.55Z" fill="black"/>
<path d="M463.63 208.579C463.878 213.918 466.27 220.655 470.573 227.144C477.496 237.589 486.99 243.739 492.836 241.938C491.963 239.997 491.206 238.652 491.206 238.652C486.99 214.734 465.1 208.943 463.63 208.579Z" fill="#F2F2F2"/>
<path d="M395.633 223.116H433.959L435.899 217.777H389.326L395.633 223.116Z" fill="#36334A"/>
<path d="M404.365 262.43H467.434V280.874H404.365V262.43Z" fill="#36334A"/>
<path opacity="0.1" d="M336.445 298.832C331.622 298.832 327.713 294.921 327.713 290.096C327.713 285.271 331.622 281.359 336.445 281.359C341.268 281.359 345.178 285.271 345.178 290.096C345.178 294.921 341.268 298.832 336.445 298.832Z" fill="black"/>
<path d="M337.416 297.376C332.593 297.376 328.683 293.465 328.683 288.64C328.683 283.814 332.593 279.903 337.416 279.903C342.239 279.903 346.148 283.814 346.148 288.64C346.148 293.465 342.239 297.376 337.416 297.376Z" fill="#F2F2F2"/>
<path opacity="0.1" d="M495.087 292.522C492.675 292.522 490.721 288.394 490.721 283.301C490.721 278.207 492.675 274.079 495.087 274.079C497.498 274.079 499.453 278.207 499.453 283.301C499.453 288.394 497.498 292.522 495.087 292.522Z" fill="black"/>
<path d="M496.542 292.037C494.131 292.037 492.176 287.908 492.176 282.815C492.176 277.722 494.131 273.593 496.542 273.593C498.953 273.593 500.908 277.722 500.908 282.815C500.908 287.908 498.953 292.037 496.542 292.037Z" fill="#F2F2F2"/>
<path d="M111.825 243.991C117.161 260.493 117.646 286.218 117.646 286.218L119.587 293.013L214.189 303.691C214.189 303.691 213.704 256.125 212.249 233.799C211.225 218.049 215.024 204.716 217.357 198.226L210.308 198.367L126.088 194.314C112.019 204.182 107.036 229.173 111.825 243.991Z" fill="#36334A"/>
<path d="M133.394 214.238C133.725 214.261 134.048 214.352 134.342 214.506C134.636 214.66 134.895 214.874 135.101 215.134C135.308 215.394 135.458 215.694 135.541 216.016C135.625 216.337 135.641 216.672 135.587 217C135.541 217.275 135.429 217.533 135.259 217.754C135.09 217.975 134.87 218.151 134.617 218.267C133.05 219.048 122.619 217.296 118.665 216.597C118.08 216.502 117.542 216.216 117.137 215.783C116.731 215.35 116.481 214.795 116.424 214.204C116.375 213.515 116.628 212.928 117.637 212.928L133.394 214.238Z" fill="#F2F2F2"/>
<path d="M217.586 196.426C217.586 196.426 215.16 207.104 203.517 203.706L199.636 188.66L207.398 184.292L217.586 196.426Z" fill="#36334A"/>
<path d="M203.328 174.745C197.991 171.58 189.525 168.814 181.152 175.458C179.409 176.835 178.179 178.758 177.661 180.918C177.143 183.079 177.366 185.351 178.294 187.369C181.035 193.305 187.541 199.746 202.731 192.033C204.222 191.276 205.495 190.15 206.428 188.762L206.505 188.645C207.24 187.533 207.742 186.284 207.98 184.972C208.218 183.66 208.188 182.314 207.891 181.014C207.594 179.715 207.036 178.489 206.252 177.411C205.467 176.334 204.473 175.427 203.328 174.745Z" fill="#36334A"/>
<path d="M261.492 305.87C256.133 305.87 251.789 301.524 251.789 296.163C251.789 290.801 256.133 286.455 261.492 286.455C266.85 286.455 271.194 290.801 271.194 296.163C271.194 301.524 266.85 305.87 261.492 305.87Z" fill="#F2F2F2"/>
<path d="M61.1283 288.397C58.181 288.397 55.7917 284.051 55.7917 278.69C55.7917 273.328 58.181 268.982 61.1283 268.982C64.0756 268.982 66.4648 273.328 66.4648 278.69C66.4648 284.051 64.0756 288.397 61.1283 288.397Z" fill="#F2F2F2"/>
<path d="M261.249 266.313H262.219C265.435 266.313 268.041 268.921 268.041 272.137V277.476C268.041 280.693 265.435 283.301 262.219 283.301H261.249C258.034 283.301 255.427 280.693 255.427 277.476V272.137C255.427 268.921 258.034 266.313 261.249 266.313Z" fill="#36334A"/>
<path d="M61.1275 247.627C60.6816 247.627 60.24 247.714 59.8279 247.885C59.4159 248.056 59.0415 248.306 58.7262 248.622C58.4108 248.937 58.1607 249.312 57.99 249.724C57.8194 250.136 57.7315 250.578 57.7315 251.024V258.79C57.7315 260.335 58.3449 261.816 59.4367 262.908C60.5284 264.001 62.0092 264.614 63.5532 264.614C64.4539 264.614 65.3177 264.256 65.9546 263.619C66.5914 262.982 66.9492 262.118 66.9492 261.217V253.451C66.9492 251.906 66.3359 250.425 65.2441 249.332C64.1523 248.24 62.6715 247.627 61.1275 247.627Z" fill="#36334A"/>
<path d="M61.1275 309.758C62.6715 309.758 64.1523 309.144 65.2441 308.052C66.3359 306.959 66.9492 305.478 66.9492 303.933V298.594C66.9492 297.05 66.3359 295.568 65.2441 294.476C64.1523 293.384 62.6715 292.77 61.1275 292.77C57.9256 292.77 58.2166 295.391 58.2166 298.594V303.933C58.2215 307.137 57.9158 309.758 61.1275 309.758Z" fill="#36334A"/>
<path d="M75.6823 269.953C74.1383 269.953 72.6575 270.567 71.5658 271.659C70.474 272.751 69.8606 274.233 69.8606 275.777V283.058C69.8606 284.088 70.2695 285.075 70.9974 285.804C71.7252 286.532 72.7124 286.941 73.7418 286.941C75.2858 286.941 76.7666 286.327 77.8583 285.235C78.9501 284.143 79.5635 282.661 79.5635 281.116V273.836C79.5635 272.806 79.1546 271.819 78.4267 271.09C77.6989 270.362 76.7117 269.953 75.6823 269.953Z" fill="#36334A"/>
<path d="M42.4502 276.268C42.4502 277.102 42.4502 277.937 42.5036 278.762C42.6276 281.974 43.0138 285.17 43.6582 288.319C43.9788 288.373 44.3033 288.401 44.6285 288.402C46.1725 288.402 47.6533 287.788 48.7451 286.696C49.8368 285.603 50.4502 284.122 50.4502 282.577V277.238C50.4502 275.694 49.8368 274.212 48.7451 273.12C47.6533 272.028 46.1725 271.414 44.6285 271.414C44.1205 271.413 43.6147 271.48 43.1246 271.613C42.9499 271.662 42.7752 271.715 42.6103 271.778C42.5035 273.254 42.4502 274.753 42.4502 276.268Z" fill="#36334A"/>
<path d="M236.749 286.941H237.719C240.935 286.941 243.541 289.548 243.541 292.765V298.104C243.541 301.321 240.935 303.928 237.719 303.928H236.749C233.534 303.928 230.927 301.321 230.927 298.104V292.765C230.927 289.548 233.534 286.941 236.749 286.941Z" fill="#36334A"/>
<path d="M284.293 286.941H285.263C288.479 286.941 291.085 289.548 291.085 292.765V298.104C291.085 301.321 288.479 303.928 285.263 303.928H284.293C281.078 303.928 278.471 301.321 278.471 298.104V292.765C278.471 289.548 281.078 286.941 284.293 286.941Z" fill="#36334A"/>
<path d="M261.006 312.18H261.976C265.191 312.18 267.798 314.787 267.798 318.004V323.343C267.798 326.56 265.191 329.167 261.976 329.167H261.006C257.791 329.167 255.184 326.56 255.184 323.343V318.004C255.184 314.787 257.791 312.18 261.006 312.18Z" fill="#36334A"/>
<path d="M92.0506 99.9893C92.0536 100.915 92.2177 101.833 92.5357 102.702C93.0889 104.247 94.1004 105.586 95.4349 106.54C96.7693 107.494 98.3632 108.018 100.003 108.041C101.643 108.064 103.251 107.586 104.612 106.67C105.973 105.754 107.022 104.445 107.619 102.916C107.985 101.989 108.172 101.001 108.172 100.004C108.172 97.867 107.323 95.8177 105.813 94.3067C104.303 92.7958 102.254 91.9469 100.118 91.9469C97.9826 91.9469 95.9342 92.7958 94.4239 94.3067C92.9136 95.8177 92.0651 97.867 92.0651 100.004L92.0506 99.9893Z" fill="#FF6584"/>
<path d="M106.537 101.999C107.05 101.073 107.376 100.056 107.496 99.005C107.617 97.9538 107.529 96.8892 107.238 95.8719C106.947 94.8547 106.458 93.9048 105.8 93.0764C105.142 92.248 104.328 91.5574 103.403 91.044C102.505 90.5349 101.516 90.2052 100.492 90.0733C101.602 90.0339 102.707 90.2245 103.74 90.6331C104.772 91.0417 105.709 91.6594 106.492 92.4476C107.274 93.2357 107.885 94.1772 108.287 95.2129C108.688 96.2486 108.871 97.3562 108.824 98.466C108.777 99.5758 108.501 100.664 108.014 101.662C107.526 102.66 106.838 103.547 105.992 104.266C105.145 104.985 104.16 105.521 103.096 105.841C102.033 106.161 100.915 106.257 99.8129 106.124C101.193 106.072 102.537 105.665 103.715 104.942C104.892 104.219 105.864 103.206 106.537 101.999Z" fill="#FF6584"/>
<path d="M88.5966 111.211H110.171V144.88H88.5966V111.211Z" fill="#FF6584"/>
<path opacity="0.1" d="M88.1113 110.24H109.686V143.91H88.1113V110.24Z" fill="black"/>
<path d="M144.271 233.367C144.271 233.367 146.571 239.676 152.033 240.56C157.496 241.443 160.649 242.851 160.649 242.851L147.706 251.194L140.802 250.33C140.802 250.33 139.944 241.409 137.067 239.395C134.19 237.381 144.271 233.367 144.271 233.367Z" fill="#FBBEBE"/>
<path d="M50.7749 233.367C50.7749 233.367 48.4753 239.676 43.0126 240.56C37.5499 241.443 34.3867 242.865 34.3867 242.865L47.3303 251.208L54.2339 250.345C54.2339 250.345 55.0926 241.424 57.9695 239.409C60.8464 237.395 50.7749 233.367 50.7749 233.367Z" fill="#FBBEBE"/>
<path d="M113.766 177.54C113.766 177.54 117.22 179.268 118.37 182.719C118.37 182.719 124.677 184.733 128.15 190.203C128.15 190.203 132.463 194.805 133.04 197.11C133.618 199.416 140.23 213.243 140.23 213.243C140.23 213.243 146.843 234.823 150.297 237.128C150.297 237.128 139.367 234.823 137.353 245.758C137.353 245.758 134.763 245.758 131.886 235.687C129.009 225.615 122.11 213.243 122.11 213.243C122.11 213.243 119.806 204.609 117.792 203.172C115.779 201.736 112.616 195.115 109.739 196.838C106.862 198.561 87.8786 196.552 87.8786 196.552C87.8786 196.552 76.6621 201.731 76.3759 205.186C76.0897 208.642 74.0715 208.924 73.7853 211.802C73.499 214.68 62.855 237.415 62.855 237.415C62.855 237.415 60.8417 243.724 60.2692 245.18C60.2692 245.18 53.9381 229.93 45.5985 238.56C45.5985 238.56 45.8848 232.804 48.4754 229.338C51.0661 225.873 62.2826 198.833 62.2826 198.833C62.2826 198.833 63.4323 194.805 64.5821 193.654C65.7319 192.504 74.6488 183.297 77.8071 183.297C77.8071 183.297 79.5342 178.977 81.5475 178.404L113.766 177.54Z" fill="#696880"/>
<path d="M139.652 248.33C141.9 249.233 144.343 249.537 146.743 249.214C149.143 248.891 151.419 247.951 153.348 246.486C155.222 245.047 157.275 243.858 159.456 242.948C162.503 241.715 166.156 240.797 167.267 242.865C169.28 246.602 142.815 255.815 142.815 255.815C142.815 255.815 139.366 253.795 139.652 248.33Z" fill="#696880"/>
<path d="M55.3786 248.33C53.1311 249.233 50.6881 249.537 48.2879 249.214C45.8876 248.891 43.6121 247.951 41.6831 246.486C39.8088 245.047 37.7556 243.858 35.5752 242.948C32.5285 241.715 28.8754 240.797 27.7644 242.865C25.7511 246.602 52.2155 255.815 52.2155 255.815C52.2155 255.815 55.6649 253.795 55.3786 248.33Z" fill="#696880"/>
<path d="M104.364 130.208C104.475 131.208 104.8 132.29 105.654 132.824C106.353 133.261 107.236 133.222 108.041 133.392C108.887 133.602 109.672 134.008 110.332 134.578C110.992 135.148 111.509 135.866 111.84 136.673C112.484 138.302 112.609 140.09 112.199 141.793C112.011 142.629 111.766 143.451 111.466 144.254C110.617 146.642 109.598 149.006 108.027 150.996C106.681 152.572 105.168 153.998 103.515 155.248C102.491 156.082 101.433 156.937 100.172 157.33C99.3155 157.556 98.4335 157.672 97.5475 157.674C96.4559 157.728 95.2964 157.762 94.3504 157.218C92.895 156.378 92.4584 154.52 91.6724 153.034C90.9981 151.768 89.9987 150.7 89.3729 149.409C88.9297 148.396 88.6042 147.336 88.4026 146.249L87.0587 140.274C86.5736 138.109 86.1272 135.663 87.3498 133.804C87.4353 133.651 87.5589 133.522 87.7088 133.431C87.9409 133.336 88.1947 133.31 88.4414 133.353C89.9884 133.457 91.5319 133.104 92.8804 132.339C93.0941 132.232 93.2839 132.084 93.4383 131.902C93.6365 131.594 93.7549 131.242 93.7828 130.878C93.9139 130.136 94.1221 129.411 94.4038 128.713C94.4839 128.464 94.6297 128.241 94.8258 128.067C95.0307 127.938 95.2636 127.86 95.505 127.839C97.5818 127.5 99.6761 127.28 101.778 127.179C102.472 127.15 103.51 126.873 103.98 127.48C104.451 128.087 104.286 129.48 104.364 130.208Z" fill="#FBBEBE"/>
<path opacity="0.1" d="M104.364 130.208C104.475 131.208 104.8 132.29 105.654 132.824C106.353 133.261 107.236 133.222 108.041 133.392C108.887 133.602 109.672 134.008 110.332 134.578C110.992 135.148 111.509 135.866 111.84 136.673C112.484 138.302 112.609 140.09 112.199 141.793C112.011 142.629 111.766 143.451 111.466 144.254C110.617 146.642 109.598 149.006 108.027 150.996C106.681 152.572 105.168 153.998 103.515 155.248C102.491 156.082 101.433 156.937 100.172 157.33C99.3155 157.556 98.4335 157.672 97.5475 157.674C96.4559 157.728 95.2964 157.762 94.3504 157.218C92.895 156.378 92.4584 154.52 91.6724 153.034C90.9981 151.768 89.9987 150.7 89.3729 149.409C88.9297 148.396 88.6042 147.336 88.4026 146.249L87.0587 140.274C86.5736 138.109 86.1272 135.663 87.3498 133.804C87.4353 133.651 87.5589 133.522 87.7088 133.431C87.9409 133.336 88.1947 133.31 88.4414 133.353C89.9884 133.457 91.5319 133.104 92.8804 132.339C93.0941 132.232 93.2839 132.084 93.4383 131.902C93.6365 131.594 93.7549 131.242 93.7828 130.878C93.9139 130.136 94.1221 129.411 94.4038 128.713C94.4839 128.464 94.6297 128.241 94.8258 128.067C95.0307 127.938 95.2636 127.86 95.505 127.839C97.5818 127.5 99.6761 127.28 101.778 127.179C102.472 127.15 103.51 126.873 103.98 127.48C104.451 128.087 104.286 129.48 104.364 130.208Z" fill="black"/>
<path d="M108.259 133.644C109.384 133.309 110.549 133.125 111.723 133.096C114.498 133.028 117.462 133.989 119.068 136.256C120.155 137.89 120.554 139.886 120.179 141.813C119.791 143.725 118.922 145.507 117.656 146.992C116.924 147.771 116.274 148.623 115.716 149.535C114.949 150.991 114.93 152.729 114.745 154.389C114.26 158.325 112.582 162.033 111.912 165.945C111.243 169.857 111.825 174.4 114.915 176.895C115.434 177.312 116.06 177.749 116.104 178.414C116.177 179.477 114.794 179.933 113.731 180.03C110.554 180.336 107.294 180.632 104.208 179.812C102.927 179.472 101.7 178.943 100.4 178.7C97.096 178.084 93.7776 179.346 90.4786 179.957C88.0874 180.35 85.6683 180.546 83.2452 180.545C82.6796 180.595 82.1099 180.52 81.5763 180.326C81.3127 180.223 81.0889 180.038 80.9371 179.799C80.7854 179.56 80.7136 179.279 80.7321 178.996C80.8376 178.63 81.0346 178.296 81.3046 178.026C82.9735 175.958 83.4829 173.221 83.9389 170.605L85.4428 161.795C86.2627 157.097 87.0244 151.996 84.8024 147.773C83.2015 144.74 80.2615 142.604 78.5732 139.619C77.9763 138.715 77.7058 137.635 77.8067 136.556C78.059 135.057 79.4125 133.984 80.8 133.353C83.4662 132.16 86.4912 132.051 89.2366 133.047C89.1881 135.149 89.7218 137.275 90.0711 139.357L90.6581 142.755C90.9557 144.757 91.3934 146.735 91.968 148.676C92.1815 149.451 92.5386 150.178 93.0207 150.821C93.5388 151.398 94.1717 151.859 94.8789 152.175C96.4116 152.925 98.0971 153.308 99.8031 153.297C100.541 153.312 101.276 153.2 101.976 152.967C103.131 152.549 104.067 151.69 104.97 150.855C105.266 150.603 105.532 150.316 105.761 150.001C105.998 149.596 106.18 149.16 106.299 148.705C106.692 147.518 107 146.305 107.221 145.075C107.371 144.133 107.415 143.177 107.483 142.225C107.696 139.469 107.691 136.348 108.259 133.644Z" fill="#F2F2F2"/>
<path d="M111.18 189.339C111.18 189.339 112.329 204.59 105.14 207.181C97.9497 209.773 104.276 194.518 104.276 194.518L106.576 189.912L111.18 189.339Z" fill="#FBBEBE"/>
<path d="M86.7283 189.339C86.7283 189.339 85.5785 204.59 92.7683 207.181C99.9581 209.773 93.6318 194.518 93.6318 194.518L91.3323 189.912L86.7283 189.339Z" fill="#FBBEBE"/>
<path opacity="0.1" d="M117.506 138.406L119.806 142.148C119.806 142.148 117.792 155.097 117.506 157.398C117.26 159.055 116.875 160.688 116.356 162.281C116.356 162.281 116.07 169.187 116.07 171.774C116.07 174.361 114.615 178.681 114.615 178.681C114.413 181.127 113.924 183.542 113.159 185.874C112.009 189.043 110.855 192.781 110.855 192.781C110.855 192.781 109.399 188.752 103.665 194.795C103.024 194.142 102.665 193.264 102.665 192.349C102.665 191.434 103.024 190.555 103.665 189.903C103.665 189.903 105.392 182.137 105.392 178.108C105.392 174.08 108.555 154.811 108.555 154.811C108.555 154.811 110.603 132.936 117.506 138.406Z" fill="black"/>
<path d="M118.073 138.119L120.373 141.857C120.373 141.857 118.36 154.806 118.073 157.111C117.825 158.77 117.439 160.405 116.919 161.999C116.919 161.999 116.618 168.906 116.618 171.502C116.618 174.099 115.163 178.409 115.163 178.409C114.96 180.855 114.471 183.27 113.707 185.602C112.557 188.767 111.408 192.509 111.408 192.509C111.408 192.509 109.952 188.48 104.218 194.523C103.576 193.871 103.215 192.992 103.215 192.077C103.215 191.161 103.576 190.283 104.218 189.631C104.218 189.631 105.945 181.865 105.945 177.832C105.945 173.798 109.108 154.534 109.108 154.534C109.108 154.534 111.18 132.674 118.073 138.119Z" fill="#F2F2F2"/>
<path opacity="0.1" d="M80.116 136.1L78.6606 137.814C78.6606 137.814 76.9626 147.613 80.703 159.985L81.8528 171.211C81.8528 171.211 83.8662 180.705 84.1573 183.01C84.4483 185.316 84.4435 185.597 85.0159 186.461C85.192 186.663 85.289 186.922 85.289 187.189C85.289 187.457 85.192 187.716 85.0159 187.917L86.743 194.251C86.743 194.251 89.3337 191.087 94.5053 195.115C94.5053 195.115 95.9607 192.81 94.7915 190.796C93.6223 188.781 93.6417 187.917 93.928 187.345C94.2142 186.772 92.7782 183.889 92.7782 183.316C92.7782 182.743 90.7649 169.503 90.7649 169.503C90.7649 169.503 89.9013 156.553 89.0378 152.238C88.509 149.584 88.5235 143.662 88.6108 139.498C88.703 135.163 83.4587 132.809 80.3635 135.862C80.281 135.925 80.1985 136.013 80.116 136.1Z" fill="black"/>
<path d="M79.2625 135.527L77.8071 137.241C77.8071 137.241 76.114 147.035 79.8495 159.412L80.9993 170.634C80.9993 170.634 83.0127 180.132 83.3037 182.433C83.5948 184.733 83.59 185.025 84.1673 185.884C84.3405 186.087 84.4357 186.345 84.4357 186.612C84.4357 186.879 84.3405 187.137 84.1673 187.34L85.8895 193.649C85.8895 193.649 88.4802 190.485 93.6518 194.513C93.6518 194.513 95.1072 192.213 93.938 190.198C92.7688 188.184 92.7882 187.32 93.0793 186.743C93.3704 186.165 91.9247 183.292 91.9247 182.714C91.9247 182.137 89.9114 168.901 89.9114 168.901C89.9114 168.901 89.0478 155.951 88.1891 151.637C87.3304 147.322 87.898 134.372 87.898 134.372C87.898 134.372 83.2795 131.217 79.2625 135.527Z" fill="#F2F2F2"/>
<path d="M98.5227 131.499C92.1673 131.499 87.0152 126.344 87.0152 119.986C87.0152 113.628 92.1673 108.473 98.5227 108.473C104.878 108.473 110.03 113.628 110.03 119.986C110.03 126.344 104.878 131.499 98.5227 131.499Z" fill="#FBBEBE"/>
<path opacity="0.1" d="M92.5215 102.702C93.0747 104.247 94.0862 105.586 95.4207 106.54C96.7551 107.494 98.349 108.018 99.989 108.041C101.629 108.064 103.237 107.586 104.598 106.67C105.959 105.754 107.008 104.445 107.604 102.916C103.117 101.11 98.5227 102.722 98.5227 102.722C96.2425 101.911 94.2438 101.989 92.5215 102.702Z" fill="black"/>
<path d="M98.5225 103.299C98.5225 103.299 120.669 95.5337 115.207 133.227C115.207 133.227 110.316 136.391 106.576 134.377C106.576 134.377 109.167 108.168 99.0999 109.342C89.0332 110.517 90.7554 133.8 90.7554 133.8C90.7554 133.8 85.0017 135.527 83.2794 132.343C81.5572 129.16 83.8519 98.1158 98.5225 103.299Z" fill="#FF6584"/>
<path opacity="0.1" d="M99.1002 107.614C106.009 106.823 106.955 118.904 106.862 126.568C106.775 118.952 105.494 108.609 99.1002 109.342C91.9104 110.162 90.7364 122.277 90.6491 129.14C90.5714 122.845 91.2603 108.512 99.1002 107.614Z" fill="black"/>
<path opacity="0.1" d="M115.206 131.499C115.706 128.191 115.993 124.855 116.065 121.51C116.089 125.426 115.802 129.337 115.206 133.207C115.206 133.207 110.316 136.372 106.576 134.358C106.576 134.358 106.639 133.736 106.707 132.693C110.428 134.615 115.206 131.499 115.206 131.499Z" fill="black"/>
<path opacity="0.1" d="M83.2789 130.635C84.8847 133.581 89.9835 132.29 90.6773 132.091C90.7112 133.159 90.7549 133.795 90.7549 133.795C90.7549 133.795 85.0011 135.523 83.2789 132.339C82.9198 131.683 82.7355 129.844 82.7937 127.383C82.8422 128.99 83.012 130.145 83.2789 130.635Z" fill="black"/>
<path d="M24.3009 316.888C22.9717 314.427 24.4805 311.408 26.2124 309.214C27.9444 307.02 30.0596 304.734 30.0159 301.934C29.948 297.915 25.6836 295.541 22.2537 293.411C19.7239 291.828 17.3903 289.951 15.3016 287.819C14.4291 286.998 13.7067 286.03 13.1669 284.96C12.4635 283.388 12.4829 281.597 12.5265 279.874C12.6721 274.137 12.9551 268.405 13.3755 262.677" stroke="#3F3D56" stroke-width="4" stroke-miterlimit="10"/>
<path d="M6.92281 262.367C6.97086 261.316 7.28271 260.294 7.82961 259.396C8.3765 258.498 9.1408 257.752 10.0519 257.227L11.454 260.003L11.4104 256.64C12.0809 256.444 12.7792 256.36 13.4771 256.392C14.7152 256.45 15.9084 256.874 16.9058 257.61C17.9032 258.347 18.66 259.362 19.0805 260.529C19.501 261.695 19.5663 262.96 19.2682 264.164C18.9701 265.368 18.322 266.456 17.4057 267.291C16.4895 268.127 15.3464 268.671 14.1207 268.857C12.8951 269.042 11.6421 268.859 10.5201 268.332C9.39808 267.805 8.45747 266.957 7.81717 265.895C7.17687 264.834 6.86564 263.606 6.92281 262.367Z" fill="#61A199"/>
<path d="M18.1007 304.812C18.7327 306.039 19.7518 307.023 20.9998 307.611C22.2479 308.2 23.6551 308.36 25.0034 308.067C26.3517 307.774 27.5656 307.044 28.457 305.99C29.3483 304.937 29.8672 303.618 29.9332 302.239C29.9779 301.371 29.8391 300.502 29.5257 299.691C29.0675 298.503 28.2588 297.482 27.207 296.765C26.1552 296.047 24.91 295.667 23.637 295.674C22.3639 295.682 21.1233 296.076 20.0798 296.806C19.0364 297.536 18.2395 298.566 17.7951 299.759L21.7101 302.948L17.4069 301.948C17.4051 302.944 17.6431 303.927 18.1007 304.812Z" fill="#61A199"/>
<path d="M21.1963 292.634C22.0188 292.673 22.8408 292.548 23.6155 292.269C24.3901 291.99 25.1021 291.56 25.7108 291.005C26.3194 290.45 26.8128 289.781 27.1628 289.035C27.5128 288.29 27.7125 287.482 27.7505 286.659C27.7983 285.678 27.612 284.7 27.2071 283.805C26.8299 282.968 26.2746 282.223 25.5799 281.623C24.8853 281.023 24.0681 280.582 23.1853 280.33L23.2144 282.917L21.7978 280.102C20.1374 280.026 18.5146 280.612 17.2864 281.733C16.0582 282.853 15.3252 284.416 15.2484 286.077C15.2106 286.8 15.3009 287.525 15.5152 288.217C15.8942 289.448 16.6428 290.532 17.6592 291.322C18.6756 292.113 19.9106 292.571 21.1963 292.634Z" fill="#61A199"/>
<path d="M5.97664 282.505C6.79919 282.543 7.62127 282.419 8.39589 282.14C9.17051 281.86 9.88253 281.431 10.4912 280.876C11.0999 280.321 11.5933 279.652 11.9433 278.906C12.2932 278.16 12.4929 277.353 12.5309 276.53C12.5836 275.506 12.3802 274.485 11.939 273.559C11.5723 272.781 11.0492 272.087 10.4024 271.52C9.75567 270.952 8.99912 270.525 8.17985 270.263C7.36059 270.001 6.4962 269.911 5.64056 269.998C4.78492 270.085 3.95634 270.347 3.2065 270.769L4.31264 273.802L2.03729 271.613C0.815929 272.731 0.0868597 274.288 0.00943375 275.942C-0.019104 276.523 0.0347767 277.105 0.169509 277.67C0.480316 278.998 1.21541 280.189 2.26334 281.061C3.31127 281.933 4.6149 282.44 5.97664 282.505Z" fill="#61A199"/>
<path opacity="0.1" d="M7.76249 264.037C9.21792 264.197 10.62 264.643 12.0706 264.735C13.5211 264.828 15.1173 264.478 16.0342 263.347C16.4611 262.692 16.8483 262.011 17.1937 261.309C17.59 260.691 18.1313 260.179 18.7704 259.819C19.2654 260.785 19.4979 261.865 19.4447 262.949C19.3765 264.472 18.7561 265.918 17.6995 267.017C16.6429 268.115 15.2224 268.791 13.7039 268.918C12.1853 269.044 10.6727 268.613 9.44876 267.705C8.22487 266.797 7.37363 265.474 7.0542 263.983C7.29192 263.993 7.52962 264.012 7.76249 264.037Z" fill="black"/>
<path opacity="0.1" d="M5.97665 282.505C6.7992 282.543 7.62128 282.419 8.3959 282.14C9.17052 281.86 9.88253 281.431 10.4912 280.876C11.0999 280.321 11.5933 279.651 11.9433 278.906C12.2932 278.16 12.4929 277.353 12.5309 276.53C12.5836 275.506 12.3802 274.485 11.939 273.559C11.4412 273.895 11.0129 274.323 10.6777 274.821C10.2314 275.496 9.96451 276.277 9.4357 276.894C8.46542 278.039 6.79171 278.418 5.27807 278.35C3.76443 278.282 2.30902 277.864 0.800232 277.714C0.591621 277.714 0.378136 277.68 0.169525 277.675C0.481247 279.002 1.21675 280.192 2.2646 281.063C3.31245 281.934 4.61556 282.44 5.97665 282.505Z" fill="black"/>
<path opacity="0.1" d="M21.1963 292.634C22.0188 292.673 22.8408 292.549 23.6155 292.269C24.3901 291.99 25.1021 291.56 25.7108 291.005C26.3194 290.45 26.8128 289.781 27.1628 289.035C27.5128 288.29 27.7125 287.482 27.7505 286.659C27.7983 285.678 27.612 284.7 27.2071 283.805C26.6985 284.148 26.255 284.579 25.8973 285.077C25.4121 285.766 25.1065 286.533 24.5388 287.193C23.4812 288.373 21.7008 288.785 20.0998 288.751C18.4989 288.717 17.0531 288.334 15.5104 288.217C15.8897 289.449 16.639 290.533 17.6564 291.324C18.6737 292.114 19.9098 292.572 21.1963 292.634Z" fill="black"/>
<path opacity="0.1" d="M18.1006 304.812C18.7327 306.039 19.7517 307.023 20.9998 307.612C22.2478 308.2 23.6551 308.36 25.0034 308.067C26.3517 307.774 27.5656 307.044 28.457 305.99C29.3483 304.937 29.8672 303.618 29.9332 302.239C29.9779 301.371 29.8391 300.502 29.5257 299.691C29.0105 300.031 28.5479 300.445 28.1528 300.919C27.5561 301.647 27.1825 302.472 26.4742 303.147C25.1934 304.409 23.1218 304.928 21.2832 304.977C20.22 304.983 19.1574 304.928 18.1006 304.812Z" fill="black"/>
<path d="M33.751 314.053C33.751 314.053 28.8074 313.903 27.3132 312.84C25.819 311.777 19.7062 310.51 19.3326 312.213C18.959 313.917 11.9003 320.688 17.4842 320.732C23.0682 320.775 30.4617 319.863 31.9511 318.955C33.4405 318.048 33.751 314.053 33.751 314.053Z" fill="#656380"/>
<path opacity="0.2" d="M17.3872 320.139C22.9712 320.183 30.3647 319.266 31.8541 318.363C32.9845 317.669 33.4357 315.194 33.586 314.048H33.751C33.751 314.048 33.4405 318.043 31.9511 318.95C30.4617 319.858 23.0682 320.77 17.4843 320.727C15.8736 320.727 15.3157 320.14 15.3448 319.271C15.568 319.809 16.1938 320.13 17.3872 320.139Z" fill="black"/>
</g>
<defs>
<clipPath id="clip0_114_156">
<rect width="502" height="343" fill="white" transform="matrix(-1 0 0 1 502 0)"/>
</clipPath>
</defs>
</svg>
