<svg width="32" height="32" viewBox="0 0 32 32" fill="none" xmlns="http://www.w3.org/2000/svg">
<path d="M16 2.72001C8.66666 2.72001 2.66666 8.70668 2.66666 16.08C2.66666 22.7467 7.54666 28.28 13.92 29.28V19.9467H10.5333V16.08H13.92V13.1333C13.92 9.78668 15.9067 7.94668 18.96 7.94668C20.4133 7.94668 21.9333 8.20001 21.9333 8.20001V11.4933H20.2533C18.6 11.4933 18.08 12.52 18.08 13.5733V16.08H21.7867L21.1867 19.9467H18.08V29.28C21.2219 28.7838 24.0829 27.1807 26.1466 24.7601C28.2102 22.3395 29.3405 19.2609 29.3333 16.08C29.3333 8.70668 23.3333 2.72001 16 2.72001Z" fill="white"/>
</svg>
