<svg width="28" height="28" viewBox="0 0 28 28" fill="none" xmlns="http://www.w3.org/2000/svg">
<path d="M18.0933 0.666668H9.90667C2.44001 0.666668 0.666672 2.44 0.666672 9.90667V18.0933C0.666672 25.56 2.44001 27.3333 9.90667 27.3333H18.0933C25.56 27.3333 27.3333 25.56 27.3333 18.0933V9.90667C27.3333 2.44 25.56 0.666668 18.0933 0.666668ZM22.2 19.6933H20.2533C19.52 19.6933 19.2933 19.0933 18 17.7733C16.8267 16.6667 16.32 16.5067 16.04 16.5067C15.6533 16.5067 15.5333 16.6133 15.5333 17.1733V18.92C15.5333 19.3867 15.3867 19.68 14.1467 19.68C12.0933 19.68 9.81334 18.4267 8.21334 16.12C5.8 12.7333 5.14667 10.1733 5.14667 9.66667C5.14667 9.38667 5.24001 9.12 5.8 9.12H7.76001C8.25334 9.12 8.44 9.33333 8.62667 9.86667C9.58667 12.6667 11.1867 15.0667 11.84 15.0667C12.0933 15.0667 12.2 14.9467 12.2 14.3333V11.4667C12.1333 10.16 11.4267 10.04 11.4267 9.57334C11.4267 9.33333 11.6133 9.12 11.92 9.12H14.9733C15.3867 9.12 15.5333 9.33333 15.5333 9.84V13.6933C15.5333 14.1067 15.7067 14.2533 15.84 14.2533C16.08 14.2533 16.2933 14.1067 16.7333 13.6533C18.1333 12.0933 19.1333 9.68 19.1333 9.68C19.2667 9.4 19.48 9.13334 20 9.13334H21.9067C22.4933 9.13334 22.6267 9.44 22.4933 9.85334C22.2533 10.9867 19.88 14.3333 19.9067 14.3333C19.6933 14.6667 19.6133 14.8133 19.9067 15.2C20.1067 15.48 20.7867 16.0667 21.24 16.5867C22.0667 17.5333 22.7067 18.32 22.88 18.8667C23.0267 19.4133 22.76 19.6933 22.2 19.6933Z" fill="white"/>
</svg>
