<svg width="32" height="32" viewBox="0 0 32 32" fill="none" xmlns="http://www.w3.org/2000/svg">
<path d="M20.0933 2.66667H11.9067C4.44001 2.66667 2.66667 4.44 2.66667 11.9067V20.0933C2.66667 27.56 4.44001 29.3333 11.9067 29.3333H20.0933C27.56 29.3333 29.3333 27.56 29.3333 20.0933V11.9067C29.3333 4.44 27.56 2.66667 20.0933 2.66667ZM24.2 21.6933H22.2533C21.52 21.6933 21.2933 21.0933 20 19.7733C18.8267 18.6667 18.32 18.5067 18.04 18.5067C17.6533 18.5067 17.5333 18.6133 17.5333 19.1733V20.92C17.5333 21.3867 17.3867 21.68 16.1467 21.68C14.0933 21.68 11.8133 20.4267 10.2133 18.12C7.8 14.7333 7.14667 12.1733 7.14667 11.6667C7.14667 11.3867 7.24001 11.12 7.8 11.12H9.76001C10.2533 11.12 10.44 11.3333 10.6267 11.8667C11.5867 14.6667 13.1867 17.0667 13.84 17.0667C14.0933 17.0667 14.2 16.9467 14.2 16.3333V13.4667C14.1333 12.16 13.4267 12.04 13.4267 11.5733C13.4267 11.3333 13.6133 11.12 13.92 11.12H16.9733C17.3867 11.12 17.5333 11.3333 17.5333 11.84V15.6933C17.5333 16.1067 17.7067 16.2533 17.84 16.2533C18.08 16.2533 18.2933 16.1067 18.7333 15.6533C20.1333 14.0933 21.1333 11.68 21.1333 11.68C21.2667 11.4 21.48 11.1333 22 11.1333H23.9067C24.4933 11.1333 24.6267 11.44 24.4933 11.8533C24.2533 12.9867 21.88 16.3333 21.9067 16.3333C21.6933 16.6667 21.6133 16.8133 21.9067 17.2C22.1067 17.48 22.7867 18.0667 23.24 18.5867C24.0667 19.5333 24.7067 20.32 24.88 20.8667C25.0267 21.4133 24.76 21.6933 24.2 21.6933Z" fill="white"/>
</svg>
