<svg width="360" height="301" viewBox="0 0 360 301" fill="none" xmlns="http://www.w3.org/2000/svg">
<g clip-path="url(#clip0)">
<path opacity="0.1" d="M255.857 300.061C276.169 300.061 292.635 298.438 292.635 296.435C292.635 294.433 276.169 292.81 255.857 292.81C235.545 292.81 219.08 294.433 219.08 296.435C219.08 298.438 235.545 300.061 255.857 300.061Z" fill="#61A199"/>
<path opacity="0.1" d="M157.613 4.38922C173.811 -1.63157 193.53 3.54653 210.369 11.0985C263.258 34.8231 301.789 79.8589 332.402 125.741C343.487 142.355 354.015 159.7 358.182 178.246C366.666 215.996 344.537 255.075 306.903 268.77C294.105 273.432 280.044 275.343 265.962 276.408C240.921 278.305 214.995 277.552 190.155 270.527C172.441 265.507 155.684 257.431 139.611 248.509C94.7262 223.58 53.7352 191.206 24.2193 151.66C11.2741 134.315 0.322627 114.761 0.0070642 94.7477C-0.308499 74.7346 12.7336 54.6247 34.1919 51.2216C43.0635 49.8159 52.4479 51.279 61.6028 52.7851C75.0824 55.0048 88.7448 57.3392 102.07 56.371C115.837 55.3634 133.741 49.9845 136.251 36.842C138.909 22.7313 141.437 10.4028 157.613 4.38922Z" fill="#61A199"/>
<path d="M87.5041 275.691C87.5041 275.691 104.81 274.647 102.769 286.775C102.769 286.775 103.175 288.926 101.231 289.891C101.231 289.891 101.202 288.991 99.456 289.296C98.8357 289.402 98.2048 289.434 97.577 289.389C96.7279 289.33 95.9211 288.997 95.2784 288.439C95.2784 288.439 90.4123 286.431 88.5225 278.477C88.5225 278.477 87.1204 276.745 87.1777 276.297L90.0967 277.545C90.0967 277.545 89.0998 279.653 89.8851 281.403C89.8851 281.403 89.9784 277.624 90.5413 277.71C90.6525 277.728 92.0582 278.427 92.0582 278.427C92.0582 278.427 90.3405 282.095 91.6351 284.763C91.6351 284.763 91.1438 280.241 92.5925 278.692L94.6508 279.893C94.6508 279.893 92.6427 283.684 94.0054 286.775C94.0054 286.775 93.6468 282.031 95.0811 280.184L96.9458 281.618C96.9458 281.618 95.0596 285.355 96.2107 287.922C96.2107 287.922 96.3577 282.396 97.3475 281.98C97.3475 281.98 98.9791 283.415 99.2265 284.01C99.2265 284.01 97.9355 286.721 98.7352 288.152C98.7352 288.152 99.2265 284.473 99.6317 284.455C99.6317 284.455 101.253 286.893 101.425 288.564C101.425 288.564 101.353 286.079 100.023 284.222C100.023 284.222 101.593 284.491 102.511 285.509C102.511 285.509 102.257 283.784 99.6245 283.634C99.6245 283.634 98.2834 281.787 97.9212 281.672C97.9212 281.672 100.543 281.453 102.131 282.16C102.131 282.16 100.733 280.532 97.4407 281.27L95.6011 279.771C95.6011 279.771 99.0544 279.298 100.514 279.822C100.514 279.822 98.832 278.387 95.1062 279.431L93.1053 278.233C93.1053 278.233 96.0458 277.598 97.7993 277.828C97.7993 277.828 95.9489 276.831 92.5172 277.91L91.0828 277.269C91.0828 277.269 93.2344 276.845 93.8691 276.777C94.5038 276.709 94.5325 276.537 94.5325 276.537C93.1675 276.308 91.7658 276.463 90.484 276.985C90.484 276.985 87.4503 275.899 87.5041 275.691Z" fill="#61A199"/>
<path opacity="0.1" d="M99.4239 293.018C106.189 293.018 111.673 292.092 111.673 290.949C111.673 289.806 106.189 288.88 99.4239 288.88C92.6586 288.88 87.1743 289.806 87.1743 290.949C87.1743 292.092 92.6586 293.018 99.4239 293.018Z" fill="#61A199"/>
<path d="M64.3209 267.533C64.3209 267.533 74.0783 266.945 72.9272 273.783C72.988 274.13 72.937 274.487 72.7817 274.803C72.6264 275.118 72.3747 275.377 72.063 275.54C72.063 275.54 72.0451 275.034 71.0625 275.207C70.7132 275.266 70.358 275.283 70.0047 275.257C69.5248 275.227 69.0682 275.039 68.7066 274.723C68.7066 274.723 65.9669 273.586 64.8911 269.103C64.8911 269.103 64.1022 268.124 64.1309 267.873L65.7804 268.591C65.7804 268.591 65.2174 269.781 65.6585 270.767C65.6585 270.767 65.7123 268.634 66.0171 268.684C66.0816 268.684 66.8741 269.096 66.8741 269.096C66.8741 269.096 65.9059 271.165 66.6375 272.682C66.6375 272.682 66.3578 270.133 67.1753 269.258L68.3336 269.935C68.3336 269.935 67.204 272.087 67.975 273.815C67.975 273.815 67.7778 271.14 68.581 270.1L69.6317 270.918C69.6317 270.918 68.5559 273.023 69.2193 274.472C69.2193 274.472 69.3018 271.355 69.8612 271.122C69.8612 271.122 70.7792 271.933 70.9191 272.266C70.9191 272.266 70.2019 273.794 70.643 274.601C70.643 274.601 70.9191 272.528 71.1486 272.517C71.1486 272.517 72.063 273.891 72.1562 274.834C72.1105 273.963 71.8386 273.119 71.3673 272.385C71.8949 272.481 72.3824 272.73 72.7694 273.102C72.7694 273.102 72.6296 272.13 71.1414 272.044C71.1414 272.044 70.3848 271 70.184 270.939C70.184 270.939 71.6614 270.814 72.5578 271.212C72.5578 271.212 71.7689 270.294 69.9114 270.71L68.8751 269.864C68.8751 269.864 70.8222 269.598 71.647 269.892C71.647 269.892 70.6967 269.082 68.5954 269.674L67.4694 268.996C68.3368 268.806 69.2252 268.73 70.1122 268.77C70.1122 268.77 69.0723 268.207 67.1359 268.817L66.3291 268.458C66.3291 268.458 67.5447 268.218 67.8997 268.182C68.2547 268.146 68.2762 268.046 68.2762 268.046C67.5059 267.918 66.7153 268.006 65.992 268.3C65.992 268.3 64.2923 267.651 64.3209 267.533Z" fill="#61A199"/>
<path opacity="0.1" d="M71.041 277.301C74.8554 277.301 77.9475 276.777 77.9475 276.132C77.9475 275.486 74.8554 274.963 71.041 274.963C67.2267 274.963 64.1345 275.486 64.1345 276.132C64.1345 276.777 67.2267 277.301 71.041 277.301Z" fill="#61A199"/>
<path d="M304.368 274.106C304.368 274.106 316.148 273.389 314.767 281.636C314.838 282.055 314.774 282.486 314.587 282.867C314.399 283.248 314.095 283.56 313.72 283.759C313.72 283.759 313.698 283.146 312.512 283.354C312.089 283.426 311.659 283.446 311.231 283.415C310.653 283.377 310.104 283.151 309.668 282.77C309.668 282.77 306.354 281.403 305.067 275.988C305.067 275.988 304.113 274.809 304.153 274.507L306.139 275.354C306.139 275.354 305.461 276.788 305.996 277.982C305.996 277.982 306.06 275.407 306.44 275.472C306.519 275.472 307.473 275.967 307.473 275.967C307.473 275.967 306.304 278.477 307.186 280.27C307.186 280.27 306.853 277.193 307.839 276.139L309.238 276.953C309.238 276.953 307.871 279.535 308.8 281.64C308.8 281.64 308.56 278.413 309.517 277.154L310.787 278.144C310.787 278.144 309.503 280.686 310.285 282.447C310.285 282.447 310.389 278.689 311.063 278.402C311.063 278.402 312.171 279.381 312.339 279.782C312.339 279.782 311.461 281.629 312.006 282.605C312.006 282.605 312.339 280.094 312.615 280.094C312.615 280.094 313.72 281.755 313.835 282.891C313.781 281.84 313.454 280.822 312.884 279.937C313.522 280.057 314.11 280.361 314.577 280.812C314.577 280.812 314.405 279.639 312.608 279.535C312.608 279.535 311.697 278.276 311.454 278.201C311.454 278.201 313.247 278.05 314.322 278.531C314.322 278.531 313.369 277.426 311.127 277.928L309.876 276.906C309.876 276.906 312.225 276.584 313.222 276.939C313.222 276.939 312.074 275.96 309.539 276.673L308.176 275.859C308.176 275.859 310.177 275.429 311.371 275.583C311.371 275.583 310.112 274.905 307.785 275.641L306.81 275.203C306.81 275.203 308.276 274.913 308.707 274.87C309.137 274.826 309.159 274.705 309.159 274.705C308.23 274.55 307.277 274.655 306.405 275.009C306.405 275.009 304.332 274.242 304.368 274.106Z" fill="#61A199"/>
<path opacity="0.1" d="M312.479 285.903C317.084 285.903 320.817 285.272 320.817 284.494C320.817 283.716 317.084 283.085 312.479 283.085C307.875 283.085 304.142 283.716 304.142 284.494C304.142 285.272 307.875 285.903 312.479 285.903Z" fill="#61A199"/>
<path d="M292.631 187.05C292.405 185.787 292.274 184.51 292.24 183.227C292.24 181.689 290.149 180.326 290.149 180.326C290.149 180.326 288.858 177.339 287.998 176.898C287.137 176.457 284.48 172.548 284.48 172.548C284.449 171.777 284.169 171.037 283.68 170.44C282.884 169.393 282.157 168.296 281.504 167.155C281.145 166.718 281.324 166.409 280.786 163.86C280.758 163.727 280.725 163.598 280.686 163.476C280.686 163.419 280.65 163.368 280.629 163.311C281.199 162.738 281.597 162.017 281.777 161.228C281.956 160.44 281.91 159.617 281.643 158.854C281.547 158.55 281.371 158.278 281.134 158.065C280.528 157.57 279.56 157.774 278.936 157.305L279.599 154.371C279.757 153.654 279.84 152.747 279.212 152.36C278.977 152.248 278.729 152.165 278.473 152.112C277.398 151.754 276.774 150.617 276.494 149.523C276.225 148.47 276.152 147.376 276.279 146.296C276.401 145.256 276.706 144.245 276.817 143.201C277.019 141.271 276.555 139.33 275.501 137.7C275.091 136.997 274.487 136.427 273.762 136.058C273.098 135.76 272.327 135.699 271.707 135.341C270.373 134.491 270.441 132.472 269.376 131.314C268.311 130.155 266.425 130.159 264.872 130.557C263.319 130.955 261.774 131.633 260.182 131.464C259.156 131.349 258.195 130.883 257.166 130.776C256.871 130.748 256.574 130.761 256.284 130.815V130.783C255.523 130.919 254.824 131.342 254.645 132.063C254.605 132.235 254.588 132.411 254.595 132.587C254.595 133.006 254.695 133.444 254.702 133.845C254.716 134.005 254.697 134.165 254.647 134.318C254.597 134.47 254.517 134.61 254.412 134.731C254.207 134.95 253.906 135.065 253.695 135.29C253.608 135.377 253.541 135.48 253.496 135.593C253.451 135.707 253.429 135.828 253.433 135.95C253.433 136.589 254.229 137.152 254.763 137.41H254.785C254.641 137.553 254.498 137.704 254.365 137.858C252.833 139.588 251.989 141.819 251.991 144.13C252.004 145.996 252.562 147.818 253.597 149.371C254.632 150.924 256.098 152.141 257.815 152.872L257.74 153.105C257.589 153.566 257.413 154.019 257.212 154.461C256.841 154.336 256.448 154.294 256.059 154.337C255.67 154.381 255.295 154.509 254.96 154.712C253.935 155.429 251.93 155.372 251.396 155.239C250.862 155.106 245.3 154.404 244.852 154.579C244.403 154.755 243.518 153.966 242.94 155.02C242.363 156.075 242.094 156.645 241.506 156.91C240.918 157.175 239.903 158.007 240.039 158.183C240.176 158.359 238.569 159.413 238.569 159.413C238.569 159.413 237.189 160.847 236.389 161.038C235.589 161.228 233.897 162.314 233.897 162.314L231.935 163.849C231.935 163.849 230.469 164.071 230.913 163.06C231.358 162.049 230.11 160.776 230.11 160.776C230.11 160.776 227.618 155.723 227.618 154.68C227.618 153.636 225.57 149.186 225.57 149.186L225.319 149.161L225.204 148.835C224.828 147.777 224.34 146.479 223.967 145.718C223.25 144.266 222.809 144.115 222.809 144.115C222.809 144.115 214.174 137.632 208.566 139.608C202.957 141.584 218.803 147.472 220.227 148.089C220.726 148.304 221.084 149 221.335 149.814C220.072 150.423 219.008 151.379 218.269 152.571C218.269 152.571 221.697 160.17 221.787 162.06C221.877 163.949 224.147 169.231 224.147 169.231C224.147 169.231 224.993 173.144 229.576 172.921C229.576 172.921 235.898 174.083 237.278 172.921C238.659 171.76 239.903 170.849 240.574 170.716C241.067 170.554 241.5 170.248 241.818 169.837C241.818 169.837 239.727 183.016 238.702 184.16C237.676 185.304 228.615 200.099 231.867 202.746C234.443 204.74 237.165 206.538 240.011 208.125C240.287 208.261 241.115 206.88 242.299 205.901C242.299 206.149 242.299 206.4 242.299 206.665C242.32 211.929 243.016 219.933 243.977 221.726C245.411 224.362 244.823 229.457 244.823 229.457C245.577 229.812 246.396 230.009 247.229 230.035C247.272 230.207 247.322 230.393 247.369 230.573C248.154 233.538 249.427 238.125 250.076 239.344C251.055 241.191 251.765 247.036 251.765 247.036C251.765 247.036 252.346 252.773 252.124 253.58C252.038 253.885 252.414 256.273 253.006 259.318C252.648 263.438 251.966 271.381 251.851 274.253C251.851 274.307 251.851 274.361 251.851 274.411V274.461C251.853 274.493 251.853 274.526 251.851 274.558C251.851 274.622 251.851 274.68 251.851 274.734C251.84 274.914 251.848 275.096 251.873 275.275C251.917 275.549 251.897 275.829 251.812 276.093C251.558 276.887 251.236 277.657 250.847 278.395C250.684 278.757 250.54 279.128 250.417 279.506C250.058 279.664 249.621 280.048 249.377 280.984C248.932 282.698 248.266 287.439 248.266 287.439C248.266 287.439 247.997 290.34 247.466 290.999C246.935 291.659 246.39 295.787 250.18 296.314C253.971 296.841 255.61 294.306 255.61 294.306L255.477 282.802V282.78C255.553 282.684 255.62 282.579 255.674 282.468V282.44C255.699 282.386 255.728 282.329 255.753 282.264L255.785 282.178L255.843 282.038C255.841 282.021 255.841 282.005 255.843 281.988C256.21 280.886 256.321 279.715 256.165 278.563V278.506V278.416C256.165 278.388 256.165 278.355 256.165 278.327V278.147C256.165 278.126 256.165 278.101 256.165 278.079C256.165 278.003 256.173 277.924 256.187 277.843C256.187 277.843 256.187 277.814 256.187 277.799L256.208 277.66V277.599C256.208 277.552 256.208 277.505 256.237 277.455C256.236 277.443 256.236 277.431 256.237 277.419C256.273 277.254 256.316 277.061 256.363 276.903V276.864L256.416 276.691C256.47 276.509 256.531 276.333 256.596 276.139V276.103C256.596 276.046 256.635 275.989 256.657 275.935V275.913C256.721 275.738 256.789 275.555 256.854 275.404L256.872 275.357L256.929 275.214L256.947 275.171L257.083 274.852L258.134 278.097C258.134 278.097 258.715 280.514 258.403 281.084C258.091 281.654 258.762 284.028 259.203 284.071L258.79 287.058C258.567 288.705 258.434 290.363 258.392 292.025C258.364 292.215 258.335 292.384 258.313 292.498C258.026 294.029 258.715 296.403 258.715 296.403C262.229 300.559 266.418 296.726 266.418 296.726C266.418 296.726 266.905 294.528 266.418 294.09C265.93 293.653 266.149 292.068 266.149 292.068C266.149 292.068 266.371 288.156 266.414 285.301C266.457 282.447 264.08 279.922 264.08 279.922L263.947 280.041C263.513 278.922 263.018 277.617 263.122 277.032C263.301 276.021 262.631 265.346 262.631 265.346C262.879 262.484 262.931 259.608 262.789 256.739C262.846 256.255 262.9 255.778 262.954 255.305C263.222 253.01 263.441 251.048 263.527 250.019V249.897C263.549 249.621 263.56 249.424 263.556 249.331C263.556 248.972 263.556 248.563 263.592 248.115C263.674 246.881 263.868 245.508 263.868 245.508L264.8 239.839C264.8 239.839 265.517 237.07 266.539 235.536L266.661 235.342C266.701 235.274 266.74 235.198 266.783 235.12L266.801 235.087C266.841 235.012 266.884 234.933 266.923 234.851L266.941 234.818C267.085 234.535 267.239 234.209 267.4 233.85C267.4 233.821 267.425 233.796 267.436 233.768L267.558 233.495C267.558 233.459 267.587 233.423 267.604 233.388C267.622 233.352 267.68 233.205 267.719 233.115C267.737 233.079 267.752 233.042 267.766 233.004C267.812 232.896 267.863 232.785 267.909 232.67L267.977 232.505C268.01 232.423 268.046 232.34 268.081 232.258L268.167 232.039C268.193 231.985 268.214 231.932 268.236 231.878L268.332 231.63C268.332 231.595 268.365 231.555 268.379 231.519C268.634 230.885 268.878 230.257 269.096 229.687C269.164 229.508 269.233 229.328 269.293 229.171C271.574 229.31 273.123 229.436 273.123 229.436C273.123 229.436 273.84 224.297 273.611 220.916C273.46 218.606 273.891 215.702 274.174 214.102C274.206 213.927 274.235 213.769 274.264 213.625L274.325 213.676C275.44 214.554 276.239 211.653 276.239 211.653C276.239 211.653 275.938 208.946 275.522 205.665L275.479 205.338C276.122 205.475 276.772 205.575 277.426 205.636C277.426 205.636 277.785 205.604 278.276 205.543C279.635 206.329 281.07 206.978 282.558 207.479L284.928 203.104C285.374 202.197 285.895 201.33 286.488 200.512C287.205 199.633 289.737 196.822 289.694 196.295C289.651 195.767 290.54 192.734 291.429 191.371C292.319 190.008 292.674 187.269 292.631 187.05ZM282.748 190.388C281.812 190.783 280.923 192.981 280.88 193.641C280.837 194.301 279.854 197.198 278.832 197.55C277.889 197.872 276.089 199.529 275.802 199.794C275.508 199.82 275.174 199.859 274.827 199.916C274.436 197.144 274.048 194.849 273.801 194.387C273.084 193.067 274.586 188.85 274.586 188.85C274.586 188.85 274.733 184.59 275.662 183.579C276.591 182.568 276.379 180.018 276.379 180.018C276.379 180.018 276.602 178.964 276.691 178.483C276.781 178.003 278.014 178.483 278.025 178.483C278.025 178.483 280.428 179.799 280.786 181.775C281.145 183.751 283.77 187.179 283.77 187.179C283.77 187.179 283.368 188.366 283.77 188.972C284.172 189.578 283.684 189.994 282.748 190.388Z" fill="url(#paint0_linear)"/>
<path d="M218.37 152.84C219.101 151.634 220.171 150.671 221.446 150.07C222.722 149.469 224.146 149.258 225.541 149.462V154.593H222.425L219.987 153.977L218.37 152.84Z" fill="#4C4981"/>
<path opacity="0.1" d="M218.37 152.84C219.101 151.634 220.171 150.671 221.446 150.07C222.722 149.469 224.146 149.258 225.541 149.462V154.593H222.425L219.987 153.977L218.37 152.84Z" fill="black"/>
<path d="M225.775 150.821L221.956 153.496C221.956 153.496 221.923 152.962 221.827 152.23C221.637 150.846 221.21 148.77 220.288 148.368C218.886 147.752 203.276 141.878 208.813 139.902C214.35 137.926 222.845 144.402 222.845 144.402C222.845 144.402 223.282 144.553 223.982 145.998C224.34 146.758 224.832 148.053 225.201 149.111C225.542 150.064 225.775 150.821 225.775 150.821Z" fill="#AE6E79"/>
<path d="M256.284 154.941L256.718 154.737L257.937 156.128L256.94 158.255L255.24 157.573L255.635 155.874L256.284 154.941Z" fill="#4C4981"/>
<path d="M250.507 279.485C250.507 279.485 249.41 279.356 248.972 281.066C248.535 282.777 247.875 287.521 247.875 287.521C247.875 287.521 247.613 290.415 247.086 291.074C246.559 291.734 246.035 295.854 249.761 296.378C253.487 296.902 255.111 294.373 255.111 294.373L254.979 282.873L250.507 279.485Z" fill="#444053"/>
<path d="M263.51 280.001C263.51 280.001 265.855 282.511 265.812 285.358C265.769 288.205 265.547 292.111 265.547 292.111C265.547 292.111 265.331 293.692 265.812 294.13C266.292 294.567 265.812 296.762 265.812 296.762C265.812 296.762 261.688 300.588 258.224 296.439C258.224 296.439 257.55 294.069 257.829 292.541C258.109 291.013 258.891 284.146 258.891 284.146L263.51 280.001Z" fill="#444053"/>
<path d="M269.319 227.564C269.319 227.564 266.952 234.184 265.941 235.718C264.93 237.253 264.234 240.022 264.234 240.022L263.312 245.677C263.132 246.941 263.029 248.215 263.004 249.492C263.047 250.765 260.723 269.311 260.723 269.311L257.041 274.005C257.041 274.005 255.42 277.294 255.681 278.667C255.943 280.041 255.506 282.221 254.964 282.877C254.964 282.877 254.878 287.18 254.746 288.138C254.613 289.095 255.23 291.824 254.746 292.304C254.261 292.785 247.817 292.57 247.642 291.777C247.466 290.985 248.431 287.173 248.431 287.173L249.001 283.49C249.001 283.49 250.141 281.475 249.879 280.815C249.618 280.155 250.36 278.624 250.403 278.491C250.446 278.359 251.633 276.211 251.414 275.379C251.195 274.547 252.795 256.854 252.795 256.854L257.309 225.151L269.319 227.564Z" fill="#AE6E79"/>
<path opacity="0.1" d="M269.319 227.564C269.319 227.564 268.96 228.561 268.469 229.869C267.687 231.935 266.561 234.779 265.941 235.718C264.933 237.253 264.23 240.021 264.23 240.021L263.309 245.68C263.131 246.944 263.029 248.218 263.004 249.495C263.004 249.997 262.667 253.2 262.237 256.889C261.573 262.53 260.723 269.315 260.723 269.315L257.041 274.009C257.041 274.009 256.854 274.367 256.621 274.934C256.158 276.01 255.506 277.756 255.681 278.656C255.943 280.015 255.506 282.206 254.964 282.866C254.964 282.866 254.875 287.169 254.746 288.127C254.616 289.084 255.23 291.809 254.746 292.293C254.261 292.778 247.817 292.559 247.642 291.77C247.466 290.981 248.431 287.166 248.431 287.166L249.001 283.479C249.001 283.479 250.141 281.464 249.876 280.804C249.61 280.144 250.36 278.613 250.403 278.48C250.446 278.348 251.633 276.2 251.414 275.368C251.246 274.733 252.131 264.345 252.544 259.418C252.684 257.868 252.773 256.861 252.773 256.861L256.657 229.586L256.972 227.388L257.288 225.157L269.319 227.564Z" fill="black"/>
<path d="M265.374 293.513C265.414 293.997 259.188 294.7 258.299 294.173C257.41 293.646 258.299 287.112 258.299 287.112L258.704 284.132C258.27 284.086 257.611 281.719 257.915 281.149C258.22 280.578 257.654 278.169 257.654 278.169L256.621 274.941L255.99 272.965C254.964 270.703 253.48 264.248 252.558 259.429C251.977 256.402 251.608 254.017 251.69 253.713C251.909 252.924 251.332 247.179 251.332 247.179C251.332 247.179 250.614 241.345 249.668 239.505C249.026 238.286 247.774 233.707 247 230.752C246.605 229.235 246.333 228.145 246.333 228.145C246.333 228.145 252.96 227.589 256.98 227.395C258.826 227.306 260.124 227.295 259.974 227.446C259.823 227.596 259.784 228.399 259.791 229.561C259.809 232.57 260.228 237.863 260.673 239.286C261.286 241.259 261.899 247.175 261.638 247.749C261.376 248.323 261.462 252.135 261.462 252.135C261.914 253.683 262.174 255.281 262.237 256.893C262.377 259.749 262.326 262.611 262.086 265.46C262.086 265.46 262.742 276.118 262.566 277.125C262.391 278.133 263.969 281.292 263.969 281.905C263.969 282.518 264.406 286.685 264.406 286.685C264.406 286.685 265.346 293.032 265.374 293.513Z" fill="#AE6E79"/>
<path d="M268.835 165.423L268.081 166.237L267.59 166.768L264.721 169.852L257.309 170.687L253.365 169.633L252.389 169.371C252.389 169.371 252.389 167.392 252.565 165.018C252.816 161.973 253.415 158.276 254.846 157.269C255.562 156.708 256.134 155.984 256.513 155.156C256.799 154.586 257.039 153.994 257.23 153.385C257.259 153.306 257.281 153.231 257.306 153.152C257.628 152.089 257.861 151.001 258.001 149.899C258.001 149.899 258.948 149.376 260.264 148.766C263.696 147.163 269.623 144.951 267.562 149.899C267.258 150.624 267 151.367 266.787 152.123C266.755 152.234 266.726 152.345 266.701 152.453C266.012 155.207 266.468 156.878 266.981 157.799C267.067 157.959 267.167 158.111 267.278 158.255C267.418 158.447 267.586 158.617 267.777 158.76L268.63 164.179L268.702 164.627L268.835 165.423Z" fill="#AE6E79"/>
<path opacity="0.1" d="M267.565 150.165C267.174 151.104 267.755 149.397 267.565 150.165C266.002 151.276 262.319 154.443 260.25 154.443C258.851 154.443 258.432 154.188 257.234 153.647C257.596 152.512 257.854 151.347 258.005 150.165C258.005 150.165 270.416 143.323 267.565 150.165Z" fill="black"/>
<path d="M270.724 144.402C270.722 146.764 269.847 149.041 268.267 150.796C266.687 152.551 264.513 153.66 262.165 153.909C261.835 153.941 261.501 153.962 261.164 153.962C259.273 153.962 257.425 153.402 255.853 152.351C254.281 151.301 253.055 149.808 252.332 148.061C251.608 146.314 251.419 144.392 251.788 142.537C252.157 140.683 253.067 138.979 254.404 137.642C255.741 136.305 257.445 135.395 259.299 135.026C261.154 134.657 263.076 134.846 264.823 135.57C266.569 136.293 268.063 137.519 269.113 139.091C270.163 140.663 270.724 142.511 270.724 144.402Z" fill="#AE6E79"/>
<path opacity="0.1" d="M272.083 186.781L270.721 190.335C270.721 190.335 269.613 190.381 267.884 190.435C262.05 190.622 249.194 190.858 248.621 189.359C248.492 188.979 248.424 188.581 248.42 188.179C248.345 185.895 249.41 182.388 249.41 182.388C249.41 182.388 250.023 175.37 250.023 175.066C250.023 174.761 249.496 169.844 249.496 169.844L250.55 165.9L253.487 163.838C253.487 163.838 254.803 165.857 255.592 166.029C256.381 166.201 257.435 167.173 257.435 167.173C257.435 167.173 260.02 168.751 260.856 167.872C261.691 166.994 268.178 163.135 268.178 163.135L271.599 166.908L272.083 186.781Z" fill="black"/>
<path d="M272.084 187.326L270.721 190.876C270.721 190.876 269.613 190.926 267.885 190.98H267.716C266.97 191.005 266.117 191.03 265.206 191.048C260.569 191.156 254.182 191.185 250.844 190.69C249.589 190.51 248.768 190.252 248.631 189.901C248.556 189.689 248.503 189.471 248.474 189.248C248.452 189.083 248.438 188.89 248.431 188.721C248.355 186.437 249.42 182.93 249.42 182.93C249.42 182.93 250.033 175.912 250.033 175.607C250.033 175.302 249.506 170.386 249.506 170.386L250.561 166.441L252.58 165.029L253.498 164.383C253.806 164.845 254.143 165.288 254.505 165.71C254.788 166.09 255.167 166.388 255.603 166.574C256.395 166.75 257.446 167.718 257.446 167.718C257.446 167.718 260.031 169.296 260.867 168.417C261.501 167.747 265.446 165.333 267.268 164.233C267.827 163.892 268.189 163.68 268.189 163.68L268.648 164.19L271.61 167.453L272.084 187.326Z" fill="white"/>
<path opacity="0.1" d="M225.775 150.821L221.956 153.496C221.956 153.496 221.923 152.962 221.826 152.23C223.713 151.434 224.86 149.674 225.19 149.111C225.541 150.064 225.775 150.821 225.775 150.821Z" fill="black"/>
<path d="M239.193 159.901L238.361 159.678C238.361 159.678 236.999 161.113 236.21 161.303C235.421 161.493 233.757 162.572 233.757 162.572L231.824 164.107C231.824 164.107 230.39 164.329 230.817 163.318C231.243 162.307 230.028 161.037 230.028 161.037C230.028 161.037 227.571 155.996 227.571 154.941C227.571 153.887 225.542 149.462 225.542 149.462C225.542 149.462 222.996 154.418 218.348 152.84C218.348 152.84 221.726 160.424 221.812 162.31C221.898 164.197 224.136 169.457 224.136 169.457C224.136 169.457 224.971 173.362 229.486 173.144C229.486 173.144 235.715 174.302 237.074 173.144C238.433 171.985 239.66 171.074 240.301 170.942C240.943 170.809 241.528 170.067 241.528 170.067V164.853L239.193 159.901Z" fill="#4C4981"/>
<path opacity="0.1" d="M231.387 164.853C231.387 164.853 232.484 168.934 231.781 169.371L231.387 164.853Z" fill="black"/>
<path opacity="0.1" d="M267.884 190.962C262.05 191.149 249.194 191.382 248.621 189.886C248.492 189.506 248.424 189.108 248.42 188.707L267.479 189.711L267.884 190.962Z" fill="black"/>
<path opacity="0.1" d="M269.319 227.564C269.319 227.564 268.96 228.561 268.469 229.87C266.048 229.723 262.843 229.568 259.798 229.547C258.722 229.547 257.668 229.547 256.671 229.583C254.555 229.647 252.727 229.819 251.561 230.149C250.088 230.603 248.548 230.802 247.007 230.737C246.613 229.221 246.34 228.131 246.34 228.131C246.34 228.131 252.967 227.575 256.987 227.381L257.302 225.151L269.319 227.564Z" fill="black"/>
<path d="M274.45 211.513L273.704 213.091C273.704 213.091 273.6 213.561 273.468 214.307C273.188 215.913 272.75 218.81 272.915 221.12C273.134 224.498 272.431 229.626 272.431 229.626C272.431 229.626 256.294 228.267 251.561 229.626C246.828 230.985 244.497 229.626 244.497 229.626C244.497 229.626 245.071 224.541 243.665 221.909C242.707 220.116 242.033 212.112 242.012 206.848C242.012 204.42 242.134 202.581 242.438 202.208C243.403 201.024 247.523 189.183 247.523 189.183L248.463 189.234L250.973 189.366L265.245 190.119L267.486 190.238L267.723 190.955L274.45 211.513Z" fill="#444053"/>
<path d="M281.554 206.249L281.687 207.655C281.687 207.655 274.618 205.352 274.977 202.523C275.336 199.694 274.977 200.013 274.977 200.013L280.658 200.494L281.554 206.249Z" fill="#4C4981"/>
<path opacity="0.1" d="M281.554 206.249L281.687 207.655C281.687 207.655 274.618 205.352 274.977 202.523C275.336 199.694 274.977 200.013 274.977 200.013L280.658 200.494L281.554 206.249Z" fill="black"/>
<path opacity="0.1" d="M236.102 165.986C236.824 166.599 237.674 167.042 238.591 167.281C238.325 167.223 238.079 167.1 237.873 166.922C237.368 166.563 236.887 166.172 236.4 165.792C236.005 165.484 235.514 164.971 235.03 164.846C235.347 165.262 235.706 165.644 236.102 165.986Z" fill="black"/>
<path opacity="0.1" d="M236.21 167.833C236.437 168.089 236.621 168.381 236.755 168.697C236.981 169.59 236.967 170.526 236.715 171.412L235.582 168.679C235.385 168.213 235.188 167.747 234.951 167.302C234.847 167.112 234.194 166.32 234.27 166.155C234.471 165.688 235.998 167.571 236.21 167.833Z" fill="black"/>
<path opacity="0.1" d="M267.827 182.965C268.599 182.872 269.322 182.534 269.889 182.001C268.723 182.148 267.619 182.607 266.471 182.847C265.406 183.095 264.289 182.991 263.287 182.553C264.607 183.198 266.421 183.22 267.827 182.965Z" fill="black"/>
<path opacity="0.1" d="M264.531 174.937C264.323 174.968 264.11 174.915 263.94 174.79C263.065 174.287 262.202 173.764 261.351 173.219C260.522 172.685 259.522 172.143 258.815 171.469C260.555 173.04 262.175 174.366 264.531 174.937Z" fill="black"/>
<path opacity="0.1" d="M266.963 184.239C267.422 184.259 267.883 184.222 268.333 184.127C268.788 184.033 269.19 183.769 269.459 183.389C269.296 183.351 269.125 183.378 268.982 183.464C267.592 184.049 266.066 184.231 264.578 183.991C265.292 184.296 266.206 184.235 266.963 184.239Z" fill="black"/>
<path opacity="0.1" d="M258.658 204.599C257.745 204.875 256.807 205.059 255.857 205.148C255.118 205.182 254.378 205.168 253.641 205.105L250.055 204.879L248.262 204.764C248.051 204.764 247.186 204.764 247.613 204.338C247.828 204.13 249.026 204.262 249.334 204.252C249.93 204.233 250.527 204.222 251.127 204.219C252.314 204.219 253.505 204.219 254.692 204.291C256.022 204.356 257.331 204.456 258.658 204.599Z" fill="black"/>
<path opacity="0.1" d="M254.501 206.375C253.892 206.349 253.107 206.712 252.479 206.79C251.777 206.873 251.07 206.901 250.363 206.873C248.966 206.839 247.585 206.558 246.286 206.041C249.022 206.181 251.765 206.263 254.501 206.375Z" fill="black"/>
<path opacity="0.1" d="M246.82 208.254C247.086 208.307 247.347 208.379 247.602 208.469C249.115 208.899 250.726 208.519 252.264 208.139C251.88 208.716 251.188 208.964 250.496 209.121C249.37 209.407 248.197 209.449 247.053 209.247C246.695 209.175 245.795 209.046 245.619 208.673C245.325 208.124 246.483 208.2 246.82 208.254Z" fill="black"/>
<path opacity="0.1" d="M255.305 211.083C255.759 211.176 256.206 211.295 256.646 211.441C258.349 211.864 260.117 211.284 261.828 210.893C263.884 210.426 265.992 210.23 268.099 210.312C267.723 210.312 267.124 210.642 266.755 210.753C266.271 210.9 265.779 211.036 265.288 211.158C264.323 211.395 263.344 211.588 262.358 211.728C260.368 212.016 258.353 212.104 256.345 211.99C255.427 211.94 253.835 212.033 253.049 211.57C253.728 211.167 254.52 210.996 255.305 211.083Z" fill="black"/>
<path opacity="0.1" d="M255.947 157C255.947 157 256.033 161.037 255.377 162.881C255.169 163.454 254.846 164.512 254.494 165.699C254.111 167.015 253.691 168.489 253.368 169.644C253.046 170.798 252.831 171.573 252.831 171.573C252.831 171.573 251.35 183.636 250.966 189.384C250.966 189.485 250.966 189.589 250.944 189.685C250.923 190.008 250.887 190.345 250.833 190.693C249.98 196.402 245.056 205.205 243.403 205.908C242.888 206.145 242.417 206.469 242.012 206.866C242.012 204.438 242.134 202.598 242.438 202.225C243.403 201.042 247.523 189.201 247.523 189.201L248.463 189.252C248.441 189.087 248.427 188.893 248.42 188.724C248.345 186.44 249.41 182.933 249.41 182.933C249.41 182.933 250.023 175.915 250.023 175.611C250.023 175.306 249.496 170.39 249.496 170.39L250.55 166.445L252.569 165.032C252.82 161.988 253.419 158.291 254.849 157.283C255.566 156.722 256.138 155.998 256.517 155.171C256.8 155.21 256.284 154.959 256.284 154.959L255.947 157Z" fill="black"/>
<path d="M256.718 154.737C256.352 154.612 255.963 154.57 255.579 154.613C255.196 154.656 254.826 154.784 254.498 154.988C253.487 155.705 251.514 155.644 250.987 155.515C250.46 155.386 244.981 154.68 244.533 154.855C244.084 155.031 243.216 154.242 242.646 155.296C242.076 156.351 241.814 156.917 241.244 157.179C240.674 157.441 239.663 158.276 239.81 158.452C239.957 158.628 238.375 159.678 238.375 159.678L241.574 170.078C241.574 170.078 239.512 183.231 238.505 184.371C237.497 185.511 228.55 200.289 231.752 202.921C234.287 204.915 236.97 206.713 239.778 208.3C240.136 208.476 241.398 206.109 243.152 205.363C244.905 204.617 250.345 194.749 250.682 189.137C251.019 183.525 252.569 171.028 252.569 171.028C252.569 171.028 254.455 164.186 255.111 162.343C255.767 160.499 255.681 156.462 255.681 156.462L256.718 154.737Z" fill="#4C4981"/>
<path opacity="0.1" d="M274.45 211.513L273.704 213.091C273.704 213.091 273.6 213.561 273.468 214.307C273.335 214.29 273.21 214.234 273.109 214.145C272.012 213.267 265.578 206.647 265.259 200.77C265.033 196.434 265.141 192.698 265.213 191.034C265.234 190.51 265.256 190.195 265.256 190.127C265.256 190.127 270.255 184.073 269.684 181.929C269.114 179.785 267.798 168.302 267.798 168.302L267.605 166.796L267.271 164.25L266.475 158.09L267.3 158.283C267.44 158.476 267.608 158.646 267.798 158.789L268.652 164.207L271.614 167.471L272.098 187.337L270.735 190.887C270.735 190.887 269.627 190.937 267.899 190.991H267.73L274.45 211.513Z" fill="black"/>
<path d="M277.211 178.72C277.211 178.72 275.985 178.236 275.899 178.72C275.813 179.204 275.591 180.251 275.591 180.251C275.591 180.251 275.809 182.797 274.873 183.805C273.937 184.812 273.798 189.065 273.798 189.065C273.798 189.065 272.32 193.275 273.019 194.591C273.274 195.068 273.668 197.46 274.063 200.329C274.314 202.122 274.561 204.09 274.78 205.89C275.178 209.161 275.476 211.868 275.476 211.868C275.476 211.868 274.683 214.762 273.586 213.883C272.489 213.005 266.056 206.385 265.74 200.508C265.525 196.38 265.611 192.795 265.683 191.027C265.711 190.277 265.74 189.854 265.74 189.854C265.74 189.854 270.739 183.801 270.169 181.653C269.598 179.505 268.282 168.026 268.282 168.026L268.053 166.251L267.806 164.344L267.748 163.924L266.956 157.828C267.096 157.86 272.015 158.972 272.664 159.621C273.313 160.27 277.326 161.199 277.326 161.199C277.931 161.363 278.481 161.686 278.919 162.136C279.357 162.585 279.666 163.143 279.815 163.752C279.854 163.874 279.883 164.003 279.912 164.136C280.439 166.682 280.27 166.987 280.629 167.428C280.987 167.869 277.211 178.72 277.211 178.72Z" fill="#4C4981"/>
<path opacity="0.1" d="M274.809 205.887C273.016 205.528 270.355 204.7 270.416 202.871C270.47 201.161 272.528 200.544 274.088 200.325C274.339 202.111 274.586 204.087 274.809 205.887Z" fill="black"/>
<path d="M280.371 204.976C280.299 205.13 280.012 205.263 279.603 205.381C278.644 205.609 277.67 205.769 276.688 205.858C276.688 205.858 270.592 205.374 270.678 202.609C270.742 200.626 273.496 200.099 275.042 199.981C275.384 199.949 275.727 199.934 276.071 199.938C276.071 199.938 280.632 204.409 280.371 204.976Z" fill="#AE6E79"/>
<path opacity="0.1" d="M280.37 204.976C280.299 205.13 280.012 205.263 279.603 205.381C278.015 203.255 275.798 200.526 274.712 200.286L275.042 199.981C275.384 199.949 275.727 199.934 276.071 199.938C276.071 199.938 280.632 204.409 280.37 204.976Z" fill="black"/>
<path d="M278.836 167.134L280.629 167.399C281.276 168.539 281.995 169.637 282.78 170.687C283.262 171.286 283.539 172.024 283.569 172.792C283.569 172.792 286.201 176.694 287.033 177.131C287.865 177.569 289.138 180.552 289.138 180.552C289.138 180.552 291.2 181.911 291.2 183.446C291.236 184.726 291.368 186.001 291.594 187.261C291.641 187.48 291.29 190.202 290.411 191.565C289.532 192.927 288.654 195.932 288.701 196.47C288.747 197.008 286.244 199.805 285.545 200.68C284.961 201.498 284.448 202.364 284.01 203.269L281.687 207.655C281.687 207.655 276.774 200.418 274.977 200.024C274.977 200.024 276.993 198.095 278 197.743C279.008 197.392 279.976 194.516 280.019 193.842C280.062 193.167 280.941 190.991 281.859 190.614C282.777 190.238 283.264 189.825 282.87 189.209C282.475 188.592 282.87 187.416 282.87 187.416C282.87 187.416 280.281 183.995 279.929 182.037C279.578 180.079 277.211 178.748 277.211 178.748L275.852 175.413L278.836 167.134Z" fill="#4C4981"/>
<path opacity="0.1" d="M285.359 183.503C286.351 182.666 287.6 182.192 288.898 182.162C288.066 182.306 287.191 182.489 286.581 183.069C286.342 183.321 286.127 183.595 285.94 183.887C285.732 184.185 284.039 186.336 283.788 185.996C283.369 185.497 285.018 183.794 285.359 183.503Z" fill="black"/>
<path opacity="0.1" d="M281.385 181.427C281.654 181.404 281.911 181.31 282.131 181.154C282.351 180.998 282.526 180.787 282.637 180.541C282.851 180.047 282.983 179.521 283.028 178.985C283.156 178.087 283.337 177.197 283.569 176.321C283.639 176.147 283.668 175.96 283.655 175.774C283.642 175.588 283.587 175.407 283.494 175.245C283.398 174.965 283.268 174.697 283.107 174.449C282.784 174.807 282.691 175.643 282.558 176.123C282.393 176.719 282.242 177.318 282.099 177.916C282.024 178.203 281.428 181.427 281.385 181.427Z" fill="black"/>
<path opacity="0.1" d="M279.833 163.723C279.656 163.954 279.453 164.164 279.227 164.347C278.51 164.917 277.559 165.398 277.47 166.298C277.495 166.59 277.458 166.885 277.362 167.162C277.133 167.557 276.57 167.521 276.121 167.445C275.743 167.411 275.381 167.278 275.071 167.058C274.601 166.657 274.558 165.939 274.199 165.434C273.981 165.173 273.706 164.966 273.395 164.828C273.084 164.691 272.746 164.627 272.406 164.641C271.736 164.62 271.069 164.77 270.398 164.799C269.967 164.821 269.535 164.792 269.111 164.713C268.971 164.692 268.832 164.663 268.695 164.627C268.395 164.553 268.102 164.454 267.82 164.329C267.674 164.271 267.531 164.204 267.393 164.128C266.944 163.898 266.528 163.608 266.156 163.268C265.5 162.665 264.955 161.833 265.009 160.941C265.041 160.392 265.288 159.886 265.367 159.345C265.636 157.796 264.607 156.333 263.492 155.225C263.047 154.783 262.574 154.357 262.129 153.908C261.437 153.27 260.89 152.49 260.526 151.621C260.227 150.696 260.129 149.718 260.239 148.752C260.34 147.773 260.368 146.788 260.322 145.804C259.992 142.319 257.015 139.647 254.039 138.195L253.906 138.127C254.789 137.113 255.876 136.298 257.096 135.733C258.316 135.168 259.641 134.867 260.984 134.849C262.328 134.831 263.661 135.097 264.895 135.629C266.129 136.162 267.237 136.948 268.147 137.938C269.057 138.927 269.747 140.097 270.174 141.372C270.6 142.646 270.753 143.997 270.623 145.334C270.492 146.672 270.081 147.967 269.415 149.135C268.75 150.303 267.846 151.317 266.762 152.112C266.73 152.223 266.701 152.334 266.676 152.442C265.987 155.196 266.443 156.867 266.956 157.788C267.096 157.821 272.015 158.932 272.664 159.581C273.314 160.231 277.326 161.159 277.326 161.159C277.936 161.322 278.491 161.645 278.932 162.097C279.373 162.548 279.684 163.11 279.833 163.723Z" fill="black"/>
<path d="M253.275 135.599C253.473 135.373 253.77 135.258 253.971 135.04C254.591 134.365 253.971 133.264 254.197 132.375C254.441 131.389 255.653 130.959 256.664 131.063C257.675 131.167 258.622 131.633 259.633 131.748C261.204 131.923 262.724 131.242 264.255 130.844C265.787 130.446 267.637 130.424 268.691 131.597C269.745 132.77 269.674 134.767 270.986 135.617C271.592 136.008 272.356 136.051 273.012 136.334C273.73 136.703 274.326 137.272 274.726 137.973C275.765 139.604 276.222 141.539 276.024 143.463C275.913 144.503 275.612 145.514 275.49 146.554C275.366 147.634 275.439 148.727 275.705 149.781C275.981 150.857 276.58 152.019 277.652 152.363C277.9 152.418 278.141 152.501 278.369 152.611C278.99 152.998 278.907 153.909 278.75 154.619L278.111 157.563C278.724 158.029 279.678 157.828 280.263 158.319C280.497 158.533 280.67 158.805 280.765 159.108C281.053 159.932 281.084 160.823 280.855 161.665C280.625 162.506 280.144 163.258 279.478 163.82C278.76 164.39 277.81 164.871 277.72 165.767C277.748 166.06 277.711 166.355 277.613 166.632C277.387 167.026 276.82 166.99 276.372 166.915C275.995 166.88 275.634 166.746 275.325 166.528C274.852 166.126 274.812 165.409 274.454 164.903C274.235 164.643 273.96 164.436 273.649 164.298C273.339 164.161 273 164.097 272.661 164.111C271.987 164.089 271.323 164.24 270.649 164.272C269.094 164.336 267.576 163.787 266.421 162.744C265.761 162.138 265.22 161.31 265.27 160.414C265.302 159.868 265.55 159.359 265.629 158.818C265.894 157.272 264.869 155.806 263.753 154.698C262.638 153.59 261.329 152.568 260.784 151.094C260.103 149.268 260.763 147.232 260.58 145.295C260.25 141.806 257.277 139.138 254.297 137.682C253.634 137.342 252.504 136.477 253.275 135.599Z" fill="#444053"/>
<path opacity="0.1" d="M276.727 165.713C276.254 165.308 276.214 164.595 275.856 164.089C275.638 163.828 275.362 163.621 275.052 163.483C274.741 163.345 274.403 163.28 274.063 163.293C273.389 163.271 272.722 163.422 272.051 163.454C270.49 163.523 268.966 162.973 267.809 161.923C267.149 161.321 266.611 160.489 266.661 159.596C266.694 159.047 266.941 158.538 267.02 158C267.289 156.451 266.26 154.984 265.145 153.876C264.029 152.768 262.724 151.746 262.175 150.272C261.498 148.451 262.175 146.414 261.975 144.474C261.641 140.985 258.668 138.317 255.692 136.861C254.996 136.52 253.867 135.656 254.638 134.777C254.831 134.552 255.129 134.437 255.33 134.218C255.95 133.548 255.33 132.443 255.559 131.557C255.603 131.381 255.68 131.214 255.785 131.066C255.036 131.206 254.351 131.629 254.168 132.346C253.949 133.236 254.562 134.336 253.942 135.011C253.741 135.229 253.444 135.344 253.246 135.566C252.475 136.445 253.605 137.313 254.301 137.65C257.281 139.106 260.253 141.777 260.583 145.263C260.766 147.203 260.106 149.24 260.788 151.065C261.333 152.535 262.642 153.575 263.757 154.669C264.872 155.762 265.908 157.24 265.632 158.789C265.481 159.313 265.361 159.846 265.274 160.385C265.223 161.278 265.765 162.11 266.425 162.712C267.58 163.762 269.104 164.312 270.663 164.243C271.337 164.211 272.001 164.064 272.675 164.082C273.015 164.069 273.353 164.134 273.664 164.272C273.974 164.41 274.25 164.617 274.468 164.878C274.827 165.384 274.866 166.101 275.339 166.502C275.649 166.72 276.01 166.852 276.386 166.886C276.835 166.969 277.401 166.997 277.627 166.606C277.708 166.447 277.742 166.268 277.728 166.09C277.367 166.055 277.022 165.925 276.727 165.713Z" fill="black"/>
<path d="M224.527 144.402H199.723V119.96H224.545L224.527 144.402ZM224.168 107.549H200.081C200.081 69.5672 236.185 71.7869 236.185 47.7575C236.185 34.5218 225.351 23.9182 212.116 23.9182C198.88 23.9182 188.05 35.3501 188.05 48.134H163.982C163.971 41.8099 165.208 35.5459 167.623 29.7011C170.039 23.8563 173.584 18.5457 178.055 14.0739C182.527 9.60204 187.838 6.05692 193.683 3.64181C199.527 1.22669 205.792 -0.0109153 212.116 -5.11599e-05C238.702 -5.11599e-05 260.25 21.2108 260.25 47.7575C260.25 77.8041 224.15 81.2251 224.15 107.549H224.168Z" fill="#61A199"/>
<path opacity="0.1" d="M100.815 137.123H94.418V130.804H100.815V137.123ZM100.718 127.62H94.5148C94.5148 117.83 103.82 118.401 103.82 112.201C103.817 111.389 103.654 110.587 103.34 109.839C103.027 109.09 102.569 108.411 101.993 107.84C101.417 107.269 100.734 106.817 99.9827 106.51C99.2319 106.203 98.4279 106.047 97.6166 106.051C95.9784 106.088 94.4185 106.76 93.2644 107.923C92.1104 109.086 91.4519 110.652 91.4273 112.29H85.2236C85.2648 109.034 86.5838 105.925 88.8962 103.633C91.2086 101.341 94.3292 100.049 97.5852 100.036C100.841 100.024 103.972 101.291 106.302 103.565C108.632 105.839 109.975 108.938 110.042 112.193C110.024 119.939 100.718 120.821 100.718 127.606V127.62Z" fill="#61A199"/>
<path opacity="0.1" d="M149.254 181.018H142.857V174.718H149.254V181.018ZM149.161 171.519H142.957C142.957 161.726 152.263 162.3 152.263 156.1C152.26 155.289 152.096 154.486 151.783 153.738C151.469 152.99 151.011 152.311 150.435 151.741C149.859 151.17 149.176 150.718 148.425 150.411C147.674 150.105 146.87 149.949 146.059 149.953C144.414 149.983 142.845 150.651 141.684 151.817C140.523 152.983 139.861 154.555 139.837 156.2H133.634C133.675 152.944 134.994 149.835 137.306 147.543C139.619 145.251 142.739 143.959 145.995 143.946C149.251 143.933 152.382 145.201 154.712 147.475C157.042 149.749 158.386 152.848 158.452 156.103C158.463 163.849 149.161 164.735 149.161 171.519Z" fill="#61A199"/>
<path opacity="0.1" d="M178.709 103.311H174.072V98.7533H178.709V103.311ZM178.641 96.4224H174.144C174.144 89.3294 180.889 89.7418 180.889 85.2522C180.887 84.6645 180.768 84.0831 180.541 83.5412C180.313 82.9993 179.981 82.5076 179.563 82.094C179.146 81.6804 178.651 81.3532 178.107 81.1309C177.563 80.9086 176.98 80.7956 176.393 80.7985C175.203 80.8225 174.068 81.3079 173.229 82.1522C172.39 82.9966 171.912 84.1338 171.896 85.3239H167.399C167.389 82.9387 168.328 80.6474 170.008 78.954C171.688 77.2607 173.971 76.304 176.357 76.2945C178.742 76.285 181.033 77.2234 182.727 78.9033C184.42 80.5832 185.377 82.867 185.386 85.2522C185.379 90.8642 178.641 91.5061 178.641 96.4224Z" fill="#61A199"/>
<path opacity="0.1" d="M257.901 109.744H255.28V107.162H257.901V109.744ZM257.862 105.853H255.305C255.305 101.844 259.117 102.077 259.117 99.5385C259.117 99.2065 259.051 98.8777 258.923 98.5713C258.795 98.2648 258.608 97.9868 258.371 97.7534C258.135 97.5199 257.855 97.3356 257.547 97.2112C257.239 97.0867 256.91 97.0246 256.578 97.0284C255.905 97.0422 255.265 97.3165 254.79 97.7934C254.316 98.2703 254.045 98.9127 254.035 99.5852H251.493C251.523 98.26 252.069 96.9989 253.014 96.0703C253.96 95.1418 255.231 94.6193 256.557 94.6142C257.882 94.609 259.157 95.1216 260.11 96.0428C261.064 96.964 261.619 98.2208 261.659 99.5457C261.674 102.698 257.862 103.074 257.862 105.853Z" fill="#61A199"/>
<path opacity="0.1" d="M297.978 227.173H295.356V224.591H297.978V227.173ZM297.938 223.282H295.396C295.396 219.269 299.211 219.506 299.211 216.967C299.206 216.297 298.936 215.657 298.459 215.186C297.983 214.715 297.339 214.453 296.669 214.457C295.996 214.47 295.355 214.744 294.88 215.221C294.406 215.698 294.136 216.341 294.126 217.014H291.584C291.614 215.689 292.16 214.428 293.105 213.499C294.051 212.571 295.322 212.048 296.648 212.043C297.973 212.038 299.248 212.55 300.201 213.472C301.154 214.393 301.71 215.65 301.75 216.974C301.764 220.141 297.953 220.503 297.953 223.282H297.938Z" fill="#61A199"/>
</g>
<defs>
<linearGradient id="paint0_linear" x1="250.012" y1="298.368" x2="250.012" y2="130.277" gradientUnits="userSpaceOnUse">
<stop stop-color="#808080" stop-opacity="0.25"/>
<stop offset="0.54" stop-color="#808080" stop-opacity="0.12"/>
<stop offset="1" stop-color="#808080" stop-opacity="0.1"/>
</linearGradient>
<clipPath id="clip0">
<rect width="360" height="300.064" fill="white"/>
</clipPath>
</defs>
</svg>
