<svg width="302" height="181" viewBox="0 0 302 181" fill="none" xmlns="http://www.w3.org/2000/svg">
<path d="M20.8771 169.838L38.6883 144.338L20.868 172.612L20.8576 175.513C19.5875 175.503 18.3302 175.461 17.0857 175.39C17.08 174.731 18.5939 138.485 18.5295 137.829C18.6174 137.804 18.6667 134.401 18.7015 134.252L0.0939941 106.386L18.7215 131.615L18.777 132.36L19.8821 104.199L3.88695 75.3615L20.0086 99.2513C20.0146 98.8681 20.7717 41.0473 20.7791 40.6906C20.7837 40.8801 21.1312 86.7045 21.1337 86.8976L36.4312 68.4526L21.119 90.8611L21.0408 116.065L35.2367 91.6925C17.5204 127.236 21.4411 114.798 20.9886 133.785L41.609 99.848L20.971 138.674L20.8771 169.838Z" fill="#D0CDE1"/>
<path d="M293.36 173.3L300.782 162.674L293.356 174.456L293.352 175.665C292.823 175.661 292.299 175.644 291.78 175.614C291.778 175.339 292.409 160.234 292.382 159.961C292.418 159.951 292.439 158.533 292.453 158.471L284.699 146.858L292.462 157.371L292.485 157.682L292.945 145.947L286.28 133.929L292.998 143.885C293.001 143.725 293.316 119.63 293.319 119.481C293.321 119.56 293.466 138.656 293.467 138.737L299.842 131.05L293.461 140.389L293.428 150.892L299.344 140.735C291.961 155.547 293.595 150.364 293.407 158.276L302 144.134L293.399 160.313L293.36 173.3Z" fill="#D0CDE1"/>
<path d="M150.506 181C233.629 181 301.013 178.369 301.013 175.124C301.013 171.879 233.629 169.249 150.506 169.249C67.384 169.249 0 171.879 0 175.124C0 178.369 67.384 181 150.506 181Z" fill="#D0CDE1"/>
<path d="M223.513 69.3981H51.6663V171.487H223.513V69.3981Z" fill="#3F3D56"/>
<path d="M94.1955 69.3981C94.0199 80.1408 89.6141 90.3845 81.9282 97.92C74.2423 105.456 63.8921 109.679 53.1095 109.68C52.6266 109.68 52.1464 109.672 51.6663 109.655V69.3981H94.1955Z" fill="#61A199"/>
<path d="M145.996 171.487H129.652C130.267 169.821 131.38 168.382 132.841 167.366C134.303 166.35 136.042 165.805 137.824 165.805C139.606 165.805 141.345 166.35 142.806 167.366C144.268 168.382 145.381 169.821 145.996 171.487Z" fill="#61A199"/>
<path d="M223.513 118.682V153.068C219.082 152.853 214.905 150.947 211.846 147.746C208.787 144.546 207.081 140.295 207.081 135.875C207.081 131.455 208.787 127.204 211.846 124.004C214.905 120.803 219.082 118.897 223.513 118.682Z" fill="#61A199"/>
<path d="M191.944 106.495H83.5343C80.738 106.495 78.4712 108.753 78.4712 111.54V111.54C78.4712 114.326 80.738 116.585 83.5343 116.585H191.944C194.74 116.585 197.007 114.326 197.007 111.54C197.007 108.753 194.74 106.495 191.944 106.495Z" fill="white"/>
<path d="M191.944 126.378H83.5343C80.738 126.378 78.4712 128.637 78.4712 131.423V131.423C78.4712 134.21 80.738 136.468 83.5343 136.468H191.944C194.74 136.468 197.007 134.21 197.007 131.423C197.007 128.637 194.74 126.378 191.944 126.378Z" fill="white"/>
<path d="M191.943 146.262H160.51C157.714 146.262 155.447 148.52 155.447 151.307C155.447 154.093 157.714 156.352 160.51 156.352H191.943C194.739 156.352 197.006 154.093 197.006 151.307C197.006 148.52 194.739 146.262 191.943 146.262Z" fill="white"/>
<path d="M250.765 31.3706C250.765 31.3706 255.49 33.2017 255.753 39.2183C256.015 45.2349 254.44 61.9767 254.44 61.9767C254.44 61.9767 260.216 70.3475 255.753 72.7019C251.29 75.0562 250.765 63.2846 250.765 63.2846L245.514 38.4335C245.514 38.4335 248.664 31.109 250.765 31.3706Z" fill="#FDC2CC"/>
<path d="M202.46 50.7283C202.46 50.7283 191.172 58.0528 190.647 52.2979C190.122 46.5429 194.06 24.0461 194.06 24.0461C194.06 24.0461 194.585 14.3673 200.098 16.7216C205.611 19.076 198.523 27.1852 198.523 27.1852L199.31 45.4965L204.561 45.235L202.46 50.7283Z" fill="#FDC2CC"/>
<path d="M220.574 57.5296C220.574 57.5296 185.92 44.7117 187.758 59.6223C189.596 74.533 198.522 93.3674 198.522 93.3674L201.672 98.3377H208.235L204.035 71.3939C204.035 71.3939 218.999 79.7648 223.461 78.4568C223.461 78.4568 229.237 116.911 231.337 119.788C233.437 122.666 237.113 157.457 237.113 157.457L240.526 161.642H247.089V102.785C247.089 102.785 258.377 66.1621 249.714 64.3309C241.051 62.4998 220.574 57.5296 220.574 57.5296Z" fill="#2F2E41"/>
<path d="M200.885 94.9371C200.885 94.9371 199.31 92.0596 196.685 94.9371C194.06 97.8146 187.759 101.215 187.759 101.215C187.759 101.215 174.108 104.354 185.134 106.97C196.16 109.586 197.473 106.97 197.473 106.97C197.473 106.97 199.31 107.493 200.885 108.017C202.46 108.54 212.699 106.709 212.699 105.139C212.699 103.57 209.223 94.1896 207.811 95.6097C206.398 97.0298 200.885 94.9371 200.885 94.9371Z" fill="#2F2E41"/>
<path d="M241.03 159.053C241.03 159.053 237.159 155.877 236.248 156.784C235.338 157.692 230.556 163.818 230.556 163.818C230.556 163.818 217.805 173.574 229.418 175.162C241.03 176.75 240.347 172.439 240.347 172.439H243.99C244.445 172.439 250.593 169.717 250.365 168.582C250.138 167.448 247.405 158.197 246.495 158.852C245.584 159.507 241.03 159.053 241.03 159.053Z" fill="#2F2E41"/>
<path d="M205.874 21.4302C210.803 21.4302 214.8 17.4482 214.8 12.5362C214.8 7.6241 210.803 3.64209 205.874 3.64209C200.944 3.64209 196.948 7.6241 196.948 12.5362C196.948 17.4482 200.944 21.4302 205.874 21.4302Z" fill="#FDC2CC"/>
<path d="M212.173 11.4899C212.173 11.4899 218.999 17.2449 223.724 17.2449C228.45 17.2449 216.899 27.9701 216.899 27.9701L206.66 18.8144L212.173 11.4899Z" fill="#FDC2CC"/>
<path d="M214.799 27.9701L214.594 25.9092C214.594 25.9092 219.787 16.7217 221.362 15.9369C222.937 15.1521 223.987 15.1521 223.987 15.1521C223.987 15.1521 229.238 9.65875 235.013 12.5362C240.789 15.4137 254.44 33.725 254.44 33.725C254.44 33.725 244.727 34.5098 246.039 42.0959C246.039 42.0959 255.753 66.947 253.127 67.2086C250.502 67.4702 242.626 65.639 234.488 69.3013C226.35 72.9636 222.675 70.6092 222.675 70.6092L218.474 57.0066C218.474 57.0066 210.598 52.5595 210.861 48.6357L199.441 53.7367L200.491 44.0578L207.448 36.0793C207.448 36.0793 206.136 35.033 214.799 27.9701Z" fill="#575A89"/>
<path d="M197.662 13.4977C197.307 13.8906 196.862 14.1923 196.365 14.3773C195.857 14.5202 195.217 14.345 195.014 13.8589L195.391 13.3694L194.26 12.6689L194.753 12.0924L193.842 11.1064L194.561 10.5377L193.191 9.56176C194.966 6.67576 196.886 3.75362 199.688 1.84048C202.49 -0.0726575 206.406 -0.752463 209.277 1.05711C210.767 1.99661 211.821 3.48776 212.665 5.0307C214.363 8.13371 215.86 11.1584 216.081 14.6858C215.014 13.6509 213.457 13.0677 212.391 12.0329C211.918 11.5335 211.383 11.0971 210.799 10.7344C209.683 10.1076 208.349 10.0522 207.1 9.7694C206.05 9.53165 205.368 9.06002 204.574 8.38579C203.629 7.58373 203.59 7.89386 202.636 8.79689C200.979 10.3649 199.321 11.9319 197.662 13.4977Z" fill="#2F2E41"/>
</svg>
